<svg width="70" height="70" viewBox="0 0 70 70" fill="none" xmlns="http://www.w3.org/2000/svg">
    <path d="M35 70C54.33 70 70 54.33 70 35C70 15.67 54.33 0 35 0C15.67 0 0 15.67 0 35C0 54.33 15.67 70 35 70Z" fill="url(#paint0_linear_980_52)"/>
    <path d="M50.317 48.9458L38.4819 20.3324C37.8144 18.853 36.8221 18.1313 35.5141 18.1313H34.4677C33.1598 18.1313 32.1675 18.853 31.5 20.3324L26.3492 32.7989H22.4523C21.2886 32.8079 20.3415 33.746 20.3324 34.9187V34.9458C20.3415 36.1094 21.2886 37.0566 22.4523 37.0656H24.5451L19.6288 48.9458C19.5386 49.2074 19.4845 49.478 19.4845 49.7576C19.4845 50.4251 19.692 50.9483 20.0618 51.3543C20.4317 51.7602 20.9639 51.9587 21.6314 51.9587C22.0734 51.9496 22.4974 51.8143 22.8492 51.5527C23.2281 51.2911 23.4897 50.9123 23.6971 50.4793L29.1095 37.0566H32.8621C34.0257 37.0476 34.9729 36.1094 34.9819 34.9368V34.8826C34.9729 33.719 34.0257 32.7718 32.8621 32.7628H30.8595L34.9909 22.4703L46.2487 50.4703C46.4561 50.9032 46.7177 51.2821 47.0966 51.5437C47.4484 51.8053 47.8814 51.9406 48.3144 51.9496C48.9819 51.9496 49.5051 51.7512 49.884 51.3453C50.2628 50.9393 50.4613 50.4161 50.4613 49.7486C50.4703 49.478 50.4252 49.1983 50.317 48.9458Z" fill="#E7E7E7"/>
    <defs>
        <linearGradient id="paint0_linear_980_52" x1="61.0955" y1="13.0426" x2="9.01549" y2="56.8626" gradientUnits="userSpaceOnUse">
            <stop stop-color="#B6509E"/>
            <stop offset="1" stop-color="#2EBAC6"/>
        </linearGradient>
    </defs>
</svg>
