<svg width="21" height="24" viewBox="0 0 21 24" fill="none" xmlns="http://www.w3.org/2000/svg">
    <path fill-rule="evenodd" clip-rule="evenodd" d="M15.6325 0C15.8 1.40661 15.1921 2.81784 14.2916 3.83276C13.391 4.84619 11.9136 5.63582 10.4669 5.53145C10.2687 4.15347 11.0002 2.71659 11.834 1.81961C12.7653 0.804692 14.3354 0.0484539 15.6325 0ZM20.3126 8.19205C20.0777 8.32557 17.5093 9.78565 17.5379 12.7511C17.5732 16.3347 20.872 17.5589 20.9967 17.6051C20.9984 17.6057 20.9995 17.6062 21 17.6064C20.999 17.6094 20.9974 17.6142 20.9952 17.621C20.934 17.8068 20.4138 19.3881 19.2153 21.0202C18.1393 22.4813 17.0243 23.9379 15.2672 23.9696C14.4233 23.9837 13.8589 23.7563 13.2724 23.52C12.6582 23.2725 12.0197 23.0152 11.0103 23.0152C9.95328 23.0152 9.28524 23.28 8.64142 23.5351C8.08336 23.7563 7.54349 23.9703 6.78427 23.9984C5.08735 24.0589 3.79679 22.4178 2.71265 20.9612C0.498856 17.9815 -1.19481 12.5408 1.07912 8.86987C2.20715 7.04574 4.22427 5.89167 6.4153 5.86142C7.35922 5.84426 8.27386 6.18174 9.07444 6.47713C9.68552 6.7026 10.2301 6.90356 10.6706 6.90356C11.0658 6.90356 11.5959 6.70915 12.214 6.48243C13.1874 6.12542 14.3792 5.6883 15.6069 5.80394C16.4489 5.83721 18.809 6.12006 20.3255 8.18468C20.3226 8.18636 20.3183 8.18882 20.3126 8.19205Z" fill="#E7E7E7"/>
</svg>
