<svg width="24" height="24" viewBox="0 0 24 24" fill="none" xmlns="http://www.w3.org/2000/svg">
<path fill-rule="evenodd" clip-rule="evenodd" d="M13 6.00008C13 5.17603 12.0592 4.70565 11.4 5.20008L7.13333 8.40008C6.61404 8.78954 5.98244 9.00008 5.33333 9.00008H3C2.44772 9.00008 2 9.44779 2 10.0001V14.0001C2 14.5524 2.44772 15.0001 3 15.0001H5.33333C5.98244 15.0001 6.61405 15.2106 7.13333 15.6001L11.4 18.8001C12.0592 19.2945 13 18.8241 13 18.0001V6.00008ZM10.2 3.60008C12.1777 2.11679 15 3.52794 15 6.00008V18.0001C15 20.4722 12.1777 21.8834 10.2 20.4001L5.93333 17.2001C5.76024 17.0703 5.5497 17.0001 5.33333 17.0001H3C1.34315 17.0001 0 15.6569 0 14.0001V10.0001C0 8.34322 1.34315 7.00008 3 7.00008H5.33333C5.5497 7.00008 5.76024 6.9299 5.93333 6.80008L10.2 3.60008ZM18.2929 9.293C18.6834 8.90248 19.3166 8.90248 19.7071 9.293L21 10.5859L22.2929 9.293C22.6834 8.90248 23.3166 8.90248 23.7071 9.293C24.0976 9.68352 24.0976 10.3167 23.7071 10.7072L22.4142 12.0001L23.7071 13.293C24.0976 13.6835 24.0976 14.3167 23.7071 14.7072C23.3166 15.0977 22.6834 15.0977 22.2929 14.7072L21 13.4143L19.7071 14.7072C19.3166 15.0977 18.6834 15.0977 18.2929 14.7072C17.9024 14.3167 17.9024 13.6835 18.2929 13.293L19.5858 12.0001L18.2929 10.7072C17.9024 10.3167 17.9024 9.68352 18.2929 9.293Z" fill="white"/>
</svg>
