<svg width="24" height="20" viewBox="0 0 24 20" fill="none" xmlns="http://www.w3.org/2000/svg">
<path fill-rule="evenodd" clip-rule="evenodd" d="M13 4.00008C13 3.17603 12.0592 2.70565 11.4 3.20008L7.13333 6.40008C6.61404 6.78954 5.98244 7.00008 5.33333 7.00008H3C2.44772 7.00008 2 7.44779 2 8.0001V12.0001C2 12.5524 2.44772 13.0001 3 13.0001H5.33333C5.98244 13.0001 6.61405 13.2106 7.13333 13.6001L11.4 16.8001C12.0592 17.2945 13 16.8241 13 16.0001V4.00008ZM10.2 1.60008C12.1777 0.11679 15 1.52794 15 4.00008V16.0001C15 18.4722 12.1777 19.8834 10.2 18.4001L5.93333 15.2001C5.76024 15.0703 5.5497 15.0001 5.33333 15.0001H3C1.34315 15.0001 0 13.6569 0 12.0001V8.0001C0 6.34322 1.34315 5.00008 3 5.00008H5.33333C5.5497 5.00008 5.76024 4.9299 5.93333 4.80008L10.2 1.60008ZM19.6569 2.92901C20.0474 2.53848 20.6805 2.53848 21.0711 2.92901C22.8796 4.73756 24 7.23893 24 10.0001C24 12.7612 22.8796 15.2626 21.0711 17.0711C20.6805 17.4617 20.0474 17.4617 19.6569 17.0711C19.2663 16.6806 19.2663 16.0475 19.6569 15.6569C21.1057 14.2081 22 12.2095 22 10.0001C22 7.79066 21.1057 5.79203 19.6569 4.34322C19.2663 3.9527 19.2663 3.31953 19.6569 2.92901ZM16.8284 5.75743C17.219 5.36691 17.8521 5.36691 18.2426 5.75743C19.3273 6.84213 20 8.3435 20 10.0001C20 11.6567 19.3273 13.158 18.2426 14.2427C17.8521 14.6332 17.219 14.6332 16.8284 14.2427C16.4379 13.8522 16.4379 13.219 16.8284 12.8285C17.5534 12.1036 18 11.1049 18 10.0001C18 8.8952 17.5534 7.8966 16.8284 7.17165C16.4379 6.78112 16.4379 6.14796 16.8284 5.75743Z" fill="white"/>
</svg>
