<svg width="80" height="80" viewBox="0 0 80 80" fill="none" xmlns="http://www.w3.org/2000/svg">
    <path d="M24.4634 33.6166L40 18.08L55.544 33.6234L64.584 24.5834L40 0L15.424 24.576L24.4637 33.616L24.4634 33.6166ZM0 40L9.04032 30.9584L18.08 39.9981L9.03968 49.0384L0 40ZM24.4634 46.3843L40 61.92L55.5437 46.377L64.5885 55.4122L64.584 55.417L40 80L15.424 55.424L15.4112 55.4112L24.4643 46.3834L24.4634 46.3843ZM61.92 40.0038L70.9603 30.9635L80 40.0032L70.96 49.0435L61.92 40.0038Z" fill="#F3BA2F"/>
    <path d="M49.1686 39.9954H49.1725L40 30.8223L33.2202 37.6002L32.4413 38.3794L30.8349 39.9861L30.8221 39.9986L30.8349 40.0117L40 49.1781L49.1731 40.005L49.1776 39.9999L49.1693 39.9954" fill="#F3BA2F"/>
</svg>
