<svg width="80" height="80" viewBox="0 0 80 80" fill="none" xmlns="http://www.w3.org/2000/svg">
    <path d="M47.8536 66.4319V75.4031L40.0315 80L32.4319 75.4031V66.4319L40.0315 71.0287L47.8536 66.4319ZM6 35.4031L13.5996 40V55.3846L26.6858 63.2067V72.1779L6 59.9815V35.4031ZM74.063 35.4031V60.0185L53.1548 72.215V63.2437L66.241 55.4217V40L74.063 35.4031ZM53.1177 23.2067L60.9398 27.8035V36.7748L47.8536 44.5969V60.2409L40.2539 64.8378L32.6543 60.2409V44.5969L19.0862 36.7748V27.8035L26.9083 23.2067L39.9944 31.0287L53.1177 23.2067ZM19.1233 43.2252L26.7229 47.822V56.7933L19.1233 52.1965V43.2252ZM60.9398 43.2252V52.1965L53.3401 56.7933V47.822L60.9398 43.2252ZM13.5996 15.3846L21.4217 19.9815L13.5996 24.5783V33.5496L6 28.9527V19.9815L13.5996 15.3846ZM66.4634 15.3846L74.2854 19.9815V28.9527L66.4634 33.5496V24.5783L58.8638 19.9815L66.4634 15.3846ZM40.0315 15.3846L47.8536 19.9815L40.0315 24.6154L32.4319 20.0185L40.0315 15.3846ZM40.0315 0L60.9398 12.1965L53.3401 16.7933L40.2539 8.97126L26.9083 16.7933L19.3457 12.1965L40.0315 0Z" fill="#F3BA2C"/>
</svg>
