<svg width="56" height="70" viewBox="0 0 56 70" fill="none" xmlns="http://www.w3.org/2000/svg">
    <path fill-rule="evenodd" clip-rule="evenodd" d="M2.82338 54.5553C1.07195 53.4887 0 51.5946 0 49.5547V38.1664C0 36.8143 1.10709 35.7186 2.46607 35.7244C2.89953 35.7244 3.32714 35.841 3.70203 36.0566L29.5284 51.0409C31.0396 51.9151 31.971 53.5237 31.971 55.2663V67.0626C31.9769 68.6828 30.6589 70 29.0305 70C28.4857 70 27.9468 69.8485 27.4841 69.5687L2.82338 54.5553ZM41.3198 32.9386C42.8311 33.8128 43.7566 35.4272 43.7624 37.164V61.1062C43.7624 61.8114 43.3817 62.4642 42.7608 62.808L37.1082 65.9727C37.0379 66.0135 36.9617 66.0427 36.8797 66.066V52.7719C36.8797 51.0526 35.9718 49.4556 34.4839 48.5698L11.8031 35.0717V20.0641C11.8031 18.712 12.9102 17.6163 14.2692 17.6221C14.7027 17.6221 15.1303 17.7386 15.5052 17.9543L41.3198 32.9386ZM52.625 15.2558C54.1422 16.1301 55.0735 17.7445 55.0735 19.4871V54.4562C55.0677 55.1731 54.6694 55.8317 54.0367 56.1755L48.677 59.0547V34.7103C48.677 32.991 47.7691 31.3999 46.2929 30.514L23.1084 16.6779V2.44549C23.1084 2.0142 23.2255 1.58874 23.4364 1.21574C24.1218 0.0501005 25.6272 -0.346217 26.7987 0.329853L52.625 15.2558Z" fill="#00D395"/>
</svg>
