<svg width="36" height="36" viewBox="0 0 36 36" fill="none" xmlns="http://www.w3.org/2000/svg">
    <path d="M0 18C0 16.1426 0 15.214 0.0770444 14.4317C0.825228 6.83529 6.83529 0.825228 14.4317 0.0770444C15.214 0 16.1426 0 18 0C19.8574 0 20.786 0 21.5683 0.0770444C29.1647 0.825228 35.1748 6.83529 35.923 14.4317C36 15.214 36 16.1426 36 18C36 19.8574 36 20.786 35.923 21.5683C35.1748 29.1647 29.1647 35.1748 21.5683 35.923C20.786 36 19.8574 36 18 36C16.1426 36 15.214 36 14.4317 35.923C6.83529 35.1748 0.825228 29.1647 0.0770444 21.5683C0 20.786 0 19.8574 0 18Z" fill="url(#paint0_linear_1201_1126)"/>
    <path d="M24.1633 11.7456C22.8644 11.1584 21.5121 10.7313 20.1064 10.5C19.9285 10.8203 19.7327 11.2295 19.5904 11.5676C18.0957 11.3363 16.5833 11.3363 15.0886 11.5676C14.9285 11.194 14.7505 10.8381 14.5548 10.5C13.1491 10.7313 11.779 11.1584 10.4979 11.7633C7.93558 15.589 7.24163 19.3078 7.57971 22.9911C9.09217 24.1121 10.7648 24.9662 12.5619 25.5C12.9712 24.9484 13.327 24.379 13.6295 23.774C13.0423 23.5605 12.4907 23.2936 11.9569 22.9733C12.0993 22.8665 12.2238 22.7598 12.3662 22.653C15.5157 24.1477 19.1811 24.1477 22.3306 22.653C22.4729 22.7598 22.5975 22.8665 22.7399 22.9733C22.206 23.2936 21.6366 23.5605 21.0495 23.774C21.352 24.379 21.7078 24.9484 22.1171 25.5C23.9142 24.9484 25.6046 24.1121 27.0993 22.9911C27.4907 18.7206 26.3875 15.0196 24.1633 11.7456ZM14.0566 20.7135C13.0779 20.7135 12.295 19.8238 12.295 18.7384C12.295 17.653 13.0779 16.7456 14.0566 16.7456C15.053 16.7456 15.8359 17.6352 15.8359 18.7384C15.8181 19.8238 15.053 20.7135 14.0566 20.7135ZM20.6046 20.7135C19.626 20.7135 18.8431 19.8238 18.8431 18.7384C18.8431 17.653 19.626 16.7456 20.6046 16.7456C21.6011 16.7456 22.384 17.6352 22.3662 18.7384C22.3484 19.8416 21.5833 20.7135 20.6046 20.7135Z" fill="white"/>
    <path d="M14.4317 35.923L14.5297 34.9278L14.4317 35.923ZM35.923 21.5683L36.9181 21.6663L35.923 21.5683ZM21.5683 35.923L21.6663 36.9181L21.5683 35.923ZM21.5683 0.0770444L21.6663 -0.91814L21.5683 0.0770444ZM35.923 14.4317L34.9278 14.5297L35.923 14.4317ZM14.4317 0.0770444L14.3337 -0.91814L14.4317 0.0770444ZM18 35C16.1189 35 15.2508 34.9988 14.5297 34.9278L14.3337 36.9181C15.1772 37.0012 16.1664 37 18 37V35ZM-1 18C-1 19.8336 -1.00121 20.8228 -0.91814 21.6663L1.07223 21.4703C1.00121 20.7492 1 19.8811 1 18H-1ZM14.5297 34.9278C7.40809 34.2263 1.77365 28.5919 1.07223 21.4703L-0.91814 21.6663C-0.123196 29.7375 6.2625 36.1232 14.3337 36.9181L14.5297 34.9278ZM35 18C35 19.8811 34.9988 20.7492 34.9278 21.4703L36.9181 21.6663C37.0012 20.8228 37 19.8336 37 18H35ZM18 37C19.8336 37 20.8228 37.0012 21.6663 36.9181L21.4703 34.9278C20.7492 34.9988 19.8811 35 18 35V37ZM34.9278 21.4703C34.2263 28.5919 28.5919 34.2263 21.4703 34.9278L21.6663 36.9181C29.7375 36.1232 36.1232 29.7375 36.9181 21.6663L34.9278 21.4703ZM18 1C19.8811 1 20.7492 1.00121 21.4703 1.07223L21.6663 -0.91814C20.8228 -1.00121 19.8336 -1 18 -1V1ZM37 18C37 16.1664 37.0012 15.1772 36.9181 14.3337L34.9278 14.5297C34.9988 15.2508 35 16.1189 35 18H37ZM21.4703 1.07223C28.5919 1.77365 34.2263 7.40809 34.9278 14.5297L36.9181 14.3337C36.1232 6.2625 29.7375 -0.123196 21.6663 -0.91814L21.4703 1.07223ZM18 -1C16.1664 -1 15.1772 -1.00121 14.3337 -0.91814L14.5297 1.07223C15.2508 1.00121 16.1189 1 18 1V-1ZM1 18C1 16.1189 1.00121 15.2508 1.07223 14.5297L-0.91814 14.3337C-1.00121 15.1772 -1 16.1664 -1 18H1ZM14.3337 -0.91814C6.2625 -0.123196 -0.123196 6.2625 -0.91814 14.3337L1.07223 14.5297C1.77365 7.40809 7.40809 1.77365 14.5297 1.07223L14.3337 -0.91814Z" fill="url(#paint1_linear_1201_1126)"/>
    <defs>
        <linearGradient id="paint0_linear_1201_1126" x1="18" y1="0" x2="18" y2="36" gradientUnits="userSpaceOnUse">
            <stop stop-opacity="0.2"/>
            <stop offset="1" stop-color="white" stop-opacity="0"/>
        </linearGradient>
        <linearGradient id="paint1_linear_1201_1126" x1="95.2382" y1="-0.0420334" x2="95.2382" y2="36" gradientUnits="userSpaceOnUse">
            <stop stop-color="#D1F7FF"/>
            <stop offset="1" stop-color="#6BA3AE"/>
        </linearGradient>
    </defs>
</svg>
