<svg width="50" height="80" viewBox="0 0 50 80" fill="none" xmlns="http://www.w3.org/2000/svg">
    <path d="M0 43.5535C8.6985 48.1737 17.7752 53.01 24.7853 56.752L49.368 43.5535C40.4669 56.779 33.0516 67.789 24.7853 79.9743C16.5055 67.816 7.36131 54.4014 0 43.5535ZM0.945489 39.9061L24.8123 27.1669L48.3685 39.8115L24.8258 52.5642L0.945489 39.9061ZM24.7853 23.0872L0 36.137L24.6773 0L49.368 36.2181L24.7853 23.0872Z" fill="#3AB83A"/>
    <path d="M24.7853 56.752L49.368 43.5535C40.4669 56.779 24.7853 79.9743 24.7853 79.9743V56.752ZM24.8123 27.1669L48.3685 39.8115L24.8258 52.5642L24.8123 27.1669ZM24.7853 23.0872L24.6772 0L49.368 36.2181L24.7853 23.0872Z" fill="#0B8311"/>
    <path d="M0.945496 39.9063L24.8123 41.8651L48.3685 39.8252L24.8258 52.5778L0.945496 39.9063Z" fill="#0B8311"/>
    <path d="M24.8123 41.8651L48.3685 39.8252L24.8258 52.5778L24.8123 41.8651Z" fill="#146714"/>
</svg>
