<svg width="91" height="118" viewBox="0 0 91 118" fill="none" xmlns="http://www.w3.org/2000/svg">
    <path d="M2.28906 34.8333C2.28906 16.4559 17.1869 1.55811 35.5643 1.55811V35.2115H2.28906V34.8333Z" fill="#FF911A"/>
    <path d="M57.753 15.9268L38.1167 35.4574L50.8281 48.2567L65.3419 35.4574C65.3419 27.7779 62.496 21.1413 57.753 15.9268Z" fill="#C4C4C4"/>
    <path d="M48.8619 49.8146L35.543 36.4404H7.11023C7.11023 36.4404 6.28813 44.408 13.0613 53.3241C21.2755 64.1373 32.8036 64.4219 32.8036 64.4219L48.8619 49.8146Z" fill="#C4C4C4"/>
    <path d="M37.6438 6.56836V32.3756L55.7939 14.1309C50.2649 8.73378 42.5595 6.75742 37.6438 6.56836Z" fill="#C4C4C4"/>
    <path d="M36.3456 5.24501L36.3456 35.4479M36.3456 5.24501L36.3456 1.55827C17.2597 1.55827 2.28906 16.6597 2.28906 35.4479L6.12042 35.4479M36.3456 5.24501C44.6838 5.24501 52.2335 8.61894 57.7018 14.0751M6.12042 35.4479C6.12042 52.1286 19.6527 65.6509 36.3456 65.6509C44.6838 65.6509 52.2335 62.2769 57.7019 56.8208M6.12042 35.4479L36.3456 35.4479M36.3456 35.4479L57.7019 56.8208M36.3456 35.4479L57.7018 14.0751M57.7019 56.8208C63.181 51.3538 66.5707 43.7965 66.5707 35.4479C66.5707 27.0994 63.181 19.542 57.7018 14.0751" stroke="black" stroke-width="2.83596"/>
    <rect x="28.5693" y="111.972" width="10.3985" height="3.40315" fill="#53392A"/>
    <rect x="59.7646" y="111.972" width="10.3985" height="3.40315" fill="#53392A"/>
    <g filter="url(#filter0_i_1319_146)">
        <path d="M88.5024 100.439V37.6694C88.5024 32.0309 83.9315 27.46 78.2929 27.46H76.5914L10.23 86.6369V100.439C10.23 106.077 14.8009 110.648 20.4394 110.648H78.2929C83.9315 110.648 88.5024 106.077 88.5024 100.439Z" fill="#6E4C38"/>
    </g>
    <path d="M77.5366 98.9263V39.1821H63.2622L21.1956 76.7113V98.9263H77.5366Z" fill="#6BA3AE"/>
    <g filter="url(#filter1_ii_1319_146)">
        <circle cx="49.366" cy="69.0538" r="11.3438" fill="#FF911A"/>
    </g>
    <circle cx="49.366" cy="69.0538" r="9.64225" stroke="black" stroke-opacity="0.4" stroke-width="3.40315" stroke-dasharray="0 4.54"/>
    <g filter="url(#filter2_i_1319_146)">
        <rect x="77.5366" y="51.6602" width="2.64689" height="11.722" fill="#FF4A4A"/>
    </g>
    <g filter="url(#filter3_i_1319_146)">
        <rect x="77.5366" y="74.5366" width="2.64689" height="11.722" fill="#FF4A4A"/>
    </g>
    <path d="M78.8113 49.3388V40.8432C78.8113 39.276 77.5598 38.0056 76.0158 38.0056H64.2748M78.8113 88.2494V97.4061C78.8113 98.9732 77.5598 100.244 76.0158 100.244H22.7151C21.1712 100.244 19.9196 98.9732 19.9196 97.4061V77.3537M78.8113 65.7719V72.3829M76.0158 27.8384C79.8599 27.8822 80.8221 27.9617 81.2646 28.0996C84.9143 29.2373 87.6527 32.3793 88.3294 36.2062C88.485 37.0864 88.5291 46.4867 88.4877 70.0302L88.4305 102.635L88.0034 103.824C86.9112 106.863 84.7595 109.15 81.9061 110.303L80.773 110.761L50.0473 110.822C27.8609 110.866 19.0025 110.819 18.173 110.654C15.4065 110.103 12.7103 108.029 11.443 105.477C10.386 103.348 10.2444 104.677 10.23 85.9611" stroke="black" stroke-width="2.83596"/>
    <rect x="76.3076" y="50.4312" width="4.91566" height="14.1798" rx="2.45783" stroke="black" stroke-width="2.83596"/>
    <rect x="76.3076" y="73.3081" width="4.91566" height="14.1798" rx="2.45783" stroke="black" stroke-width="2.83596"/>
    <path d="M27.4346 110.27V115.753C27.4346 116.171 27.7732 116.509 28.1908 116.509H39.3456C39.7633 116.509 40.1018 116.171 40.1018 115.753V110.27" stroke="black" stroke-width="2.83596"/>
    <path d="M58.6306 110.27V115.753C58.6306 116.171 58.9692 116.509 59.3869 116.509H70.5416C70.9593 116.509 71.2979 116.171 71.2979 115.753V110.27" stroke="black" stroke-width="2.83596"/>
    <g filter="url(#filter4_d_1319_146)">
        <path d="M2.28906 93.2541L88.5021 16.3052" stroke="black" stroke-width="3.02502" stroke-linecap="round"/>
    </g>
    <path d="M15.855 25.9731H15.8833V25.9447V24.197V24.1686H15.855H14.0992V18.0813H17.953C18.2932 18.0813 18.6012 18.1368 18.8775 18.2473L18.8775 18.2473L18.878 18.2475C19.159 18.3538 19.3995 18.5063 19.5997 18.7049L19.6 18.7052C19.8001 18.8993 19.9537 19.1355 20.0607 19.4143L20.0609 19.4146C20.1318 19.5921 20.1803 19.7814 20.2061 19.9827L20.2093 20.0074H20.2342H22.0045H22.0351L22.0328 19.9769C21.9982 19.5281 21.8982 19.1071 21.7326 18.7143C21.528 18.2136 21.2437 17.7847 20.8795 17.4278C20.5154 17.0665 20.0831 16.7844 19.5829 16.5814C19.0824 16.3782 18.539 16.2768 17.953 16.2768H13.1969C13.067 16.2768 12.9458 16.2998 12.8337 16.3462C12.722 16.3924 12.624 16.4572 12.54 16.5405L12.54 16.5405L12.5395 16.5411C12.4602 16.6243 12.3974 16.7214 12.3509 16.832C12.3042 16.9431 12.281 17.0612 12.281 17.1858V25.0641C12.281 25.1931 12.3042 25.3134 12.3509 25.4247C12.3974 25.5352 12.4602 25.6323 12.5395 25.7156L12.5394 25.7156L12.5406 25.7167C12.6245 25.7954 12.7223 25.8577 12.8337 25.9037C12.9458 25.9501 13.067 25.9731 13.1969 25.9731H15.855ZM16.9258 20.2577C16.4853 20.2577 16.128 20.6128 16.128 21.0511V25.1824C16.128 25.6207 16.4853 25.9758 16.9258 25.9758H31.3916C31.832 25.9758 32.1894 25.6207 32.1894 25.1824V21.0511C32.1894 20.6128 31.832 20.2577 31.3916 20.2577H16.9258ZM16.9258 20.6205H31.3916C31.631 20.6205 31.8249 20.8134 31.8249 21.0511V25.1824C31.8249 25.4201 31.631 25.6131 31.3916 25.6131H16.9258C16.6863 25.6131 16.4925 25.4201 16.4925 25.1824V21.0511C16.4925 20.8134 16.6863 20.6205 16.9258 20.6205Z" fill="white" stroke="white" stroke-width="0.0567191"/>
    <path d="M19.5015 23.5993H18.2874V23.2123H19.5015V23.5993ZM19.6728 22.7308H18.1337V24.4648H17.7497V22.5402C17.7497 22.5136 17.7546 22.4885 17.7645 22.4649C17.7743 22.4413 17.7876 22.4206 17.8044 22.4029C17.8221 22.3851 17.8428 22.3714 17.8664 22.3615C17.89 22.3517 17.9156 22.3467 17.9432 22.3467H19.6728V22.7308ZM20.3301 22.5402H19.9461V22.1931H20.3301V22.5402ZM20.3301 24.4648H19.9461V22.8681H20.3301V24.4648ZM22.4689 24.4648H22.0849V23.5786C22.0849 23.5284 22.076 23.4836 22.0583 23.4442C22.0416 23.4038 22.0184 23.3694 21.9889 23.3408C21.9593 23.3122 21.9244 23.2906 21.884 23.2758C21.8446 23.2601 21.8018 23.2522 21.7555 23.2522H21.0834V24.4648H20.6994V23.0587C20.6994 23.0321 20.7043 23.0075 20.7142 22.9848C20.724 22.9612 20.7378 22.941 20.7555 22.9243C20.7732 22.9065 20.7939 22.8928 20.8176 22.8829C20.8412 22.8731 20.8663 22.8681 20.8929 22.8681H21.7584C21.8067 22.8681 21.8574 22.8736 21.9106 22.8844C21.9647 22.8952 22.0179 22.9129 22.0701 22.9376C22.1233 22.9612 22.1735 22.9917 22.2208 23.0291C22.269 23.0656 22.3114 23.1104 22.3478 23.1636C22.3852 23.2157 22.4148 23.2763 22.4364 23.3452C22.4581 23.4142 22.4689 23.492 22.4689 23.5786V24.4648ZM24.4541 23.9361C24.4541 23.9892 24.4447 24.0468 24.426 24.1089C24.4073 24.1699 24.3768 24.227 24.3344 24.2802C24.2931 24.3324 24.2384 24.3762 24.1705 24.4117C24.1035 24.4471 24.0218 24.4648 23.9253 24.4648H23.2326C23.1794 24.4648 23.1218 24.4555 23.0597 24.4368C22.9987 24.4181 22.9416 24.388 22.8884 24.3467C22.8362 24.3043 22.7924 24.2497 22.7569 24.1827C22.7215 24.1148 22.7038 24.0326 22.7038 23.9361C22.7038 23.8829 22.7131 23.8253 22.7318 23.7632C22.7505 23.7012 22.7806 23.6441 22.8219 23.5919C22.8643 23.5387 22.9189 23.4944 22.9859 23.459C23.0538 23.4235 23.1361 23.4058 23.2326 23.4058H23.9253V23.7721H23.2326C23.1804 23.7721 23.14 23.7883 23.1114 23.8208C23.0829 23.8524 23.0686 23.8917 23.0686 23.939C23.0686 23.9892 23.0848 24.0286 23.1173 24.0572C23.1508 24.0847 23.1902 24.0985 23.2355 24.0985H23.9253C23.9775 24.0985 24.0179 24.0828 24.0464 24.0513C24.075 24.0198 24.0892 23.9804 24.0892 23.9331V23.3969C24.0892 23.3467 24.0735 23.3068 24.042 23.2773C24.0115 23.2477 23.9726 23.233 23.9253 23.233H23.0819V22.8681H23.9253C23.9785 22.8681 24.0356 22.8775 24.0966 22.8962C24.1587 22.9149 24.2158 22.9454 24.268 22.9878C24.3211 23.0291 24.3655 23.0838 24.4009 23.1517C24.4364 23.2187 24.4541 23.3004 24.4541 23.3969V23.9361ZM26.5515 24.4648H26.1675V23.5786C26.1675 23.5284 26.1586 23.4836 26.1409 23.4442C26.1241 23.4038 26.101 23.3694 26.0715 23.3408C26.0419 23.3122 26.007 23.2906 25.9666 23.2758C25.9272 23.2601 25.8844 23.2522 25.8381 23.2522H25.166V24.4648H24.782V23.0587C24.782 23.0321 24.7869 23.0075 24.7968 22.9848C24.8066 22.9612 24.8204 22.941 24.8381 22.9243C24.8558 22.9065 24.8765 22.8928 24.9002 22.8829C24.9238 22.8731 24.9489 22.8681 24.9755 22.8681H25.841C25.8893 22.8681 25.94 22.8736 25.9932 22.8844C26.0473 22.8952 26.1005 22.9129 26.1527 22.9376C26.2059 22.9612 26.2561 22.9917 26.3034 23.0291C26.3516 23.0656 26.394 23.1104 26.4304 23.1636C26.4678 23.2157 26.4974 23.2763 26.519 23.3452C26.5407 23.4142 26.5515 23.492 26.5515 23.5786V24.4648ZM28.4348 24.4648H27.3934C27.3403 24.4648 27.2822 24.4555 27.2191 24.4368C27.1561 24.4181 27.0975 24.3875 27.0434 24.3452C26.9902 24.3019 26.9454 24.2462 26.909 24.1783C26.8735 24.1094 26.8558 24.0252 26.8558 23.9257V23.4058C26.8558 23.3694 26.8597 23.331 26.8676 23.2906C26.8765 23.2502 26.8898 23.2103 26.9075 23.1709C26.9252 23.1306 26.9479 23.0922 26.9754 23.0557C27.004 23.0193 27.038 22.9873 27.0773 22.9597C27.1177 22.9321 27.164 22.91 27.2162 22.8933C27.2684 22.8765 27.3275 22.8681 27.3934 22.8681H28.4348V23.2522H27.3934C27.3432 23.2522 27.3048 23.265 27.2782 23.2906C27.2526 23.3162 27.2398 23.3556 27.2398 23.4087V23.9257C27.2398 23.9759 27.2531 24.0143 27.2797 24.0409C27.3063 24.0675 27.3452 24.0808 27.3964 24.0808H28.4348V24.4648ZM30.4583 23.3969C30.4583 23.4501 30.449 23.5077 30.4303 23.5697C30.4116 23.6308 30.381 23.6879 30.3387 23.7411C30.2973 23.7933 30.2427 23.8371 30.1747 23.8725C30.1078 23.908 30.026 23.9257 29.9295 23.9257H29.2368V23.5609H29.9295C29.9817 23.5609 30.0221 23.5451 30.0507 23.5136C30.0792 23.4811 30.0935 23.4412 30.0935 23.394C30.0935 23.3438 30.0773 23.3044 30.0448 23.2758C30.0132 23.2473 29.9748 23.233 29.9295 23.233H29.2368C29.1846 23.233 29.1442 23.2492 29.1157 23.2817C29.0871 23.3132 29.0729 23.3526 29.0729 23.3999V23.9361C29.0729 23.9873 29.0886 24.0271 29.1201 24.0557C29.1526 24.0843 29.1925 24.0985 29.2398 24.0985H29.9295V24.4648H29.2368C29.1836 24.4648 29.126 24.4555 29.064 24.4368C29.0029 24.4181 28.9458 24.388 28.8926 24.3467C28.8405 24.3043 28.7966 24.2497 28.7612 24.1827C28.7257 24.1148 28.708 24.0326 28.708 23.9361V23.3969C28.708 23.3438 28.7174 23.2866 28.7361 23.2256C28.7548 23.1636 28.7848 23.1064 28.8262 23.0543C28.8685 23.0011 28.9232 22.9568 28.9901 22.9213C29.0581 22.8859 29.1403 22.8681 29.2368 22.8681H29.9295C29.9827 22.8681 30.0398 22.8775 30.1009 22.8962C30.1629 22.9149 30.22 22.9454 30.2722 22.9878C30.3254 23.0291 30.3697 23.0838 30.4052 23.1517C30.4406 23.2187 30.4583 23.3004 30.4583 23.3969Z" fill="white"/>
    <path d="M19.5015 23.5993V23.6749H19.5771V23.5993H19.5015ZM18.2874 23.5993H18.2117V23.6749H18.2874V23.5993ZM18.2874 23.2123V23.1367H18.2117V23.2123H18.2874ZM19.5015 23.2123H19.5771V23.1367H19.5015V23.2123ZM19.6728 22.7308V22.8064H19.7485V22.7308H19.6728ZM18.1337 22.7308V22.6551H18.0581V22.7308H18.1337ZM18.1337 24.4648V24.5405H18.2094V24.4648H18.1337ZM17.7497 24.4648H17.6741V24.5405H17.7497V24.4648ZM17.8044 22.4029L17.7509 22.3494L17.7494 22.3509L17.8044 22.4029ZM19.6728 22.3467H19.7485V22.2711H19.6728V22.3467ZM19.5015 23.5237H18.2874V23.6749H19.5015V23.5237ZM18.363 23.5993V23.2123H18.2117V23.5993H18.363ZM18.2874 23.2879H19.5015V23.1367H18.2874V23.2879ZM19.4259 23.2123V23.5993H19.5771V23.2123H19.4259ZM19.6728 22.6551H18.1337V22.8064H19.6728V22.6551ZM18.0581 22.7308V24.4648H18.2094V22.7308H18.0581ZM18.1337 24.3892H17.7497V24.5405H18.1337V24.3892ZM17.8253 24.4648V22.5402H17.6741V24.4648H17.8253ZM17.8253 22.5402C17.8253 22.5232 17.8284 22.5081 17.8343 22.494L17.6947 22.4358C17.6808 22.469 17.6741 22.5041 17.6741 22.5402H17.8253ZM17.8343 22.494C17.8408 22.4784 17.8492 22.4655 17.8593 22.4548L17.7494 22.3509C17.726 22.3756 17.7079 22.4042 17.6947 22.4358L17.8343 22.494ZM17.8578 22.4563C17.8684 22.4458 17.8808 22.4374 17.8955 22.4313L17.8373 22.2917C17.8048 22.3053 17.7757 22.3245 17.7509 22.3494L17.8578 22.4563ZM17.8955 22.4313C17.9092 22.4256 17.9248 22.4224 17.9432 22.4224V22.2711C17.9064 22.2711 17.8708 22.2777 17.8373 22.2917L17.8955 22.4313ZM17.9432 22.4224H19.6728V22.2711H17.9432V22.4224ZM19.5972 22.3467V22.7308H19.7485V22.3467H19.5972ZM20.3301 22.5402V22.6159H20.4058V22.5402H20.3301ZM19.9461 22.5402H19.8705V22.6159H19.9461V22.5402ZM19.9461 22.1931V22.1175H19.8705V22.1931H19.9461ZM20.3301 22.1931H20.4058V22.1175H20.3301V22.1931ZM20.3301 24.4648V24.5405H20.4058V24.4648H20.3301ZM19.9461 24.4648H19.8705V24.5405H19.9461V24.4648ZM19.9461 22.8681V22.7925H19.8705V22.8681H19.9461ZM20.3301 22.8681H20.4058V22.7925H20.3301V22.8681ZM20.3301 22.4646H19.9461V22.6159H20.3301V22.4646ZM20.0217 22.5402V22.1931H19.8705V22.5402H20.0217ZM19.9461 22.2688H20.3301V22.1175H19.9461V22.2688ZM20.2545 22.1931V22.5402H20.4058V22.1931H20.2545ZM20.3301 24.3892H19.9461V24.5405H20.3301V24.3892ZM20.0217 24.4648V22.8681H19.8705V24.4648H20.0217ZM19.9461 22.9438H20.3301V22.7925H19.9461V22.9438ZM20.2545 22.8681V24.4648H20.4058V22.8681H20.2545ZM22.4689 24.4648V24.5405H22.5445V24.4648H22.4689ZM22.0849 24.4648H22.0093V24.5405H22.0849V24.4648ZM22.0583 23.4442L21.9884 23.4732L21.9893 23.4752L22.0583 23.4442ZM21.884 23.2758L21.8559 23.3461L21.858 23.3468L21.884 23.2758ZM21.0834 23.2522V23.1766H21.0078V23.2522H21.0834ZM21.0834 24.4648V24.5405H21.1591V24.4648H21.0834ZM20.6994 24.4648H20.6238V24.5405H20.6994V24.4648ZM20.7142 22.9848L20.7835 23.015L20.784 23.0139L20.7142 22.9848ZM20.7555 22.9243L20.8075 22.9793L20.809 22.9777L20.7555 22.9243ZM21.9106 22.8844L21.8955 22.9585L21.8958 22.9585L21.9106 22.8844ZM22.0701 22.9376L22.0378 23.006L22.0394 23.0067L22.0701 22.9376ZM22.2208 23.0291L22.1738 23.0885L22.1752 23.0895L22.2208 23.0291ZM22.3478 23.1636L22.2854 23.2063L22.2863 23.2076L22.3478 23.1636ZM22.4689 24.3892H22.0849V24.5405H22.4689V24.3892ZM22.1605 24.4648V23.5786H22.0093V24.4648H22.1605ZM22.1605 23.5786C22.1605 23.5194 22.15 23.4638 22.1273 23.4132L21.9893 23.4752C22.002 23.5034 22.0093 23.5374 22.0093 23.5786H22.1605ZM22.1281 23.4152C22.1077 23.3659 22.0789 23.3226 22.0414 23.2864L21.9363 23.3952C21.9579 23.4161 21.9754 23.4417 21.9884 23.4732L22.1281 23.4152ZM22.0414 23.2864C22.0039 23.2502 21.9598 23.223 21.91 23.2048L21.858 23.3468C21.8889 23.3581 21.9147 23.3743 21.9363 23.3952L22.0414 23.2864ZM21.9121 23.2056C21.863 23.186 21.8105 23.1766 21.7555 23.1766V23.3278C21.793 23.3278 21.8262 23.3342 21.8559 23.346L21.9121 23.2056ZM21.7555 23.1766H21.0834V23.3278H21.7555V23.1766ZM21.0078 23.2522V24.4648H21.1591V23.2522H21.0078ZM21.0834 24.3892H20.6994V24.5405H21.0834V24.3892ZM20.775 24.4648V23.0587H20.6238V24.4648H20.775ZM20.775 23.0587C20.775 23.0417 20.7781 23.0274 20.7835 23.015L20.6448 22.9547C20.6305 22.9875 20.6238 23.0225 20.6238 23.0587H20.775ZM20.784 23.0139C20.79 22.9996 20.7978 22.9883 20.8074 22.9793L20.7036 22.8693C20.6778 22.8937 20.6581 22.9228 20.6444 22.9557L20.784 23.0139ZM20.809 22.9777C20.8196 22.9672 20.8319 22.9589 20.8466 22.9527L20.7885 22.8131C20.7559 22.8267 20.7269 22.8459 20.702 22.8708L20.809 22.9777ZM20.8466 22.9527C20.8607 22.9469 20.8759 22.9438 20.8929 22.9438V22.7925C20.8567 22.7925 20.8217 22.7993 20.7885 22.8131L20.8466 22.9527ZM20.8929 22.9438H21.7584V22.7925H20.8929V22.9438ZM21.7584 22.9438C21.801 22.9438 21.8467 22.9485 21.8955 22.9585L21.9257 22.8103C21.8681 22.7986 21.8124 22.7925 21.7584 22.7925V22.9438ZM21.8958 22.9585C21.9436 22.9681 21.991 22.9838 22.0378 23.006L22.1024 22.8692C22.0449 22.842 21.9859 22.8223 21.9254 22.8102L21.8958 22.9585ZM22.0394 23.0067C22.0866 23.0276 22.1314 23.0548 22.1738 23.0884L22.2677 22.9698C22.2156 22.9286 22.16 22.8948 22.1008 22.8685L22.0394 23.0067ZM22.1752 23.0895C22.2165 23.1207 22.2533 23.1594 22.2854 23.2063L22.4102 23.1208C22.3694 23.0613 22.3215 23.0105 22.2663 22.9688L22.1752 23.0895ZM22.2863 23.2076C22.3185 23.2525 22.3447 23.3057 22.3643 23.3679L22.5086 23.3226C22.4848 23.2469 22.4519 23.179 22.4093 23.1195L22.2863 23.2076ZM22.3643 23.3679C22.3832 23.4282 22.3933 23.4982 22.3933 23.5786H22.5445C22.5445 23.4857 22.5329 23.4001 22.5086 23.3226L22.3643 23.3679ZM22.3933 23.5786V24.4648H22.5445V23.5786H22.3933ZM24.426 24.1089L24.4983 24.131L24.4984 24.1307L24.426 24.1089ZM24.3344 24.2802L24.2753 24.2331L24.2752 24.2332L24.3344 24.2802ZM24.1705 24.4117L24.1355 24.3446L24.1351 24.3448L24.1705 24.4117ZM23.0597 24.4368L23.0376 24.5091L23.0379 24.5092L23.0597 24.4368ZM22.8884 24.3467L22.8407 24.4054L22.842 24.4064L22.8884 24.3467ZM22.7569 24.1827L22.6899 24.2177L22.6901 24.2181L22.7569 24.1827ZM22.7318 23.7632L22.6594 23.7414L22.7318 23.7632ZM22.8219 23.5919L22.7628 23.5448L22.7627 23.5449L22.8219 23.5919ZM22.9859 23.459L22.9509 23.3919L22.9505 23.3921L22.9859 23.459ZM23.9253 23.4058H24.0009V23.3302H23.9253V23.4058ZM23.9253 23.7721V23.8477H24.0009V23.7721H23.9253ZM23.1114 23.8208L23.1675 23.8716L23.1682 23.8708L23.1114 23.8208ZM23.1173 24.0572L23.0674 24.114L23.0693 24.1156L23.1173 24.0572ZM24.042 23.2773L23.9894 23.3316L23.9903 23.3325L24.042 23.2773ZM23.0819 23.233H23.0063V23.3086H23.0819V23.233ZM23.0819 22.8681V22.7925H23.0063V22.8681H23.0819ZM24.0966 22.8962L24.0745 22.9685L24.0748 22.9686L24.0966 22.8962ZM24.268 22.9878L24.2203 23.0465L24.2215 23.0475L24.268 22.9878ZM24.4009 23.1517L24.3339 23.1867L24.3341 23.1871L24.4009 23.1517ZM24.3785 23.9361C24.3785 23.9804 24.3706 24.0306 24.3536 24.087L24.4984 24.1307C24.5188 24.0631 24.5297 23.998 24.5297 23.9361H24.3785ZM24.3537 24.0867C24.338 24.1381 24.3121 24.1869 24.2753 24.2331L24.3936 24.3273C24.4415 24.2672 24.4767 24.2017 24.4983 24.131L24.3537 24.0867ZM24.2752 24.2332C24.2413 24.2759 24.1954 24.3133 24.1355 24.3446L24.2055 24.4787C24.2814 24.4391 24.3448 24.3889 24.3937 24.3272L24.2752 24.2332ZM24.1351 24.3448C24.0816 24.3731 24.0128 24.3892 23.9253 24.3892V24.5405C24.0308 24.5405 24.1254 24.5211 24.2059 24.4785L24.1351 24.3448ZM23.9253 24.3892H23.2326V24.5405H23.9253V24.3892ZM23.2326 24.3892C23.1882 24.3892 23.138 24.3814 23.0816 24.3644L23.0379 24.5092C23.1055 24.5296 23.1706 24.5405 23.2326 24.5405V24.3892ZM23.0819 24.3645C23.0301 24.3486 22.9811 24.323 22.9348 24.287L22.842 24.4064C22.902 24.4531 22.9673 24.4875 23.0376 24.5091L23.0819 24.3645ZM22.936 24.288C22.8927 24.2528 22.8551 24.2065 22.8238 24.1473L22.6901 24.2181C22.7297 24.2929 22.7797 24.3559 22.8408 24.4054L22.936 24.288ZM22.824 24.1477C22.7954 24.093 22.7794 24.0235 22.7794 23.9361H22.6281C22.6281 24.0417 22.6475 24.1365 22.6899 24.2177L22.824 24.1477ZM22.7794 23.9361C22.7794 23.8917 22.7872 23.8415 22.8042 23.7851L22.6594 23.7414C22.639 23.809 22.6281 23.8741 22.6281 23.9361H22.7794ZM22.8042 23.7851C22.8201 23.7324 22.8456 23.6838 22.8812 23.6389L22.7627 23.5449C22.7155 23.6044 22.681 23.67 22.6594 23.7414L22.8042 23.7851ZM22.8811 23.639C22.9162 23.5949 22.9624 23.5569 23.0213 23.5258L22.9505 23.3921C22.8754 23.4319 22.8123 23.4826 22.7628 23.5448L22.8811 23.639ZM23.0209 23.526C23.0756 23.4975 23.1451 23.4814 23.2326 23.4814V23.3302C23.127 23.3302 23.0321 23.3496 22.9509 23.3919L23.0209 23.526ZM23.2326 23.4814H23.9253V23.3302H23.2326V23.4814ZM23.8497 23.4058V23.7721H24.0009V23.4058H23.8497ZM23.9253 23.6965H23.2326V23.8477H23.9253V23.6965ZM23.2326 23.6965C23.1635 23.6965 23.1005 23.7187 23.0546 23.7709L23.1682 23.8708C23.1795 23.858 23.1972 23.8477 23.2326 23.8477V23.6965ZM23.0554 23.7701C23.0128 23.8171 22.993 23.8752 22.993 23.939H23.1442C23.1442 23.9083 23.153 23.8876 23.1675 23.8716L23.0554 23.7701ZM22.993 23.939C22.993 24.0071 23.0159 24.0687 23.0674 24.114L23.1673 24.0004C23.1538 23.9885 23.1442 23.9713 23.1442 23.939H22.993ZM23.0693 24.1156C23.1169 24.1548 23.1735 24.1742 23.2355 24.1742V24.0229C23.2069 24.0229 23.1847 24.0147 23.1654 23.9988L23.0693 24.1156ZM23.2355 24.1742H23.9253V24.0229H23.2355V24.1742ZM23.9253 24.1742C23.9936 24.1742 24.0564 24.1529 24.1025 24.1021L23.9904 24.0005C23.9793 24.0127 23.9614 24.0229 23.9253 24.0229V24.1742ZM24.1025 24.1021C24.1451 24.055 24.1649 23.9969 24.1649 23.9331H24.0136C24.0136 23.9639 24.0049 23.9845 23.9904 24.0005L24.1025 24.1021ZM24.1649 23.9331V23.3969H24.0136V23.9331H24.1649ZM24.1649 23.3969C24.1649 23.3295 24.143 23.2683 24.0937 23.2221L23.9903 23.3325C24.004 23.3453 24.0136 23.3639 24.0136 23.3969H24.1649ZM24.0946 23.2229C24.0483 23.1782 23.9898 23.1573 23.9253 23.1573V23.3086C23.9553 23.3086 23.9746 23.3173 23.9894 23.3316L24.0946 23.2229ZM23.9253 23.1573H23.0819V23.3086H23.9253V23.1573ZM23.1575 23.233V22.8681H23.0063V23.233H23.1575ZM23.0819 22.9438H23.9253V22.7925H23.0819V22.9438ZM23.9253 22.9438C23.9696 22.9438 24.0192 22.9516 24.0745 22.9685L24.1188 22.8239C24.052 22.8034 23.9873 22.7925 23.9253 22.7925V22.9438ZM24.0748 22.9686C24.1271 22.9844 24.1755 23.0101 24.2203 23.0465L24.3156 22.9291C24.2561 22.8808 24.1903 22.8455 24.1185 22.8238L24.0748 22.9686ZM24.2215 23.0475C24.265 23.0813 24.3027 23.1271 24.3339 23.1867L24.468 23.1168C24.4282 23.0405 24.3772 22.977 24.3144 22.9281L24.2215 23.0475ZM24.3341 23.1871C24.3624 23.2406 24.3785 23.3095 24.3785 23.3969H24.5297C24.5297 23.2914 24.5103 23.1968 24.4677 23.1164L24.3341 23.1871ZM24.3785 23.3969V23.9361H24.5297V23.3969H24.3785ZM26.5515 24.4648V24.5405H26.6271V24.4648H26.5515ZM26.1675 24.4648H26.0918V24.5405H26.1675V24.4648ZM26.1409 23.4442L26.071 23.4732L26.0719 23.4752L26.1409 23.4442ZM25.9666 23.2758L25.9385 23.3461L25.9406 23.3468L25.9666 23.2758ZM25.166 23.2522V23.1766H25.0904V23.2522H25.166ZM25.166 24.4648V24.5405H25.2417V24.4648H25.166ZM24.782 24.4648H24.7064V24.5405H24.782V24.4648ZM24.7968 22.9848L24.8661 23.015L24.8666 23.0139L24.7968 22.9848ZM24.8381 22.9243L24.8901 22.9793L24.8916 22.9777L24.8381 22.9243ZM25.9932 22.8844L25.9781 22.9585L25.9783 22.9585L25.9932 22.8844ZM26.1527 22.9376L26.1204 23.006L26.122 23.0067L26.1527 22.9376ZM26.3034 23.0291L26.2564 23.0885L26.2578 23.0895L26.3034 23.0291ZM26.4304 23.1636L26.368 23.2063L26.3689 23.2076L26.4304 23.1636ZM26.5515 24.3892H26.1675V24.5405H26.5515V24.3892ZM26.2431 24.4648V23.5786H26.0918V24.4648H26.2431ZM26.2431 23.5786C26.2431 23.5194 26.2326 23.4638 26.2099 23.4132L26.0719 23.4752C26.0846 23.5034 26.0918 23.5374 26.0918 23.5786H26.2431ZM26.2107 23.4152C26.1903 23.3659 26.1615 23.3226 26.124 23.2864L26.0189 23.3952C26.0405 23.4161 26.058 23.4417 26.071 23.4732L26.2107 23.4152ZM26.124 23.2864C26.0865 23.2502 26.0424 23.223 25.9926 23.2048L25.9406 23.3468C25.9715 23.3581 25.9973 23.3743 26.0189 23.3952L26.124 23.2864ZM25.9947 23.2056C25.9456 23.186 25.8931 23.1766 25.8381 23.1766V23.3278C25.8756 23.3278 25.9088 23.3342 25.9385 23.346L25.9947 23.2056ZM25.8381 23.1766H25.166V23.3278H25.8381V23.1766ZM25.0904 23.2522V24.4648H25.2417V23.2522H25.0904ZM25.166 24.3892H24.782V24.5405H25.166V24.3892ZM24.8576 24.4648V23.0587H24.7064V24.4648H24.8576ZM24.8576 23.0587C24.8576 23.0417 24.8607 23.0274 24.8661 23.015L24.7274 22.9547C24.7131 22.9875 24.7064 23.0225 24.7064 23.0587H24.8576ZM24.8666 23.0139C24.8725 22.9996 24.8804 22.9883 24.89 22.9793L24.7862 22.8693C24.7604 22.8937 24.7407 22.9228 24.727 22.9557L24.8666 23.0139ZM24.8916 22.9777C24.9022 22.9672 24.9145 22.9589 24.9292 22.9527L24.8711 22.8131C24.8385 22.8267 24.8095 22.8459 24.7846 22.8708L24.8916 22.9777ZM24.9292 22.9527C24.9433 22.9469 24.9585 22.9438 24.9755 22.9438V22.7925C24.9393 22.7925 24.9043 22.7993 24.8711 22.8131L24.9292 22.9527ZM24.9755 22.9438H25.841V22.7925H24.9755V22.9438ZM25.841 22.9438C25.8836 22.9438 25.9293 22.9485 25.9781 22.9585L26.0083 22.8103C25.9507 22.7986 25.8949 22.7925 25.841 22.7925V22.9438ZM25.9783 22.9585C26.0262 22.9681 26.0736 22.9838 26.1204 23.006L26.185 22.8692C26.1275 22.842 26.0685 22.8223 26.008 22.8102L25.9783 22.9585ZM26.122 23.0067C26.1692 23.0276 26.214 23.0548 26.2564 23.0884L26.3503 22.9698C26.2982 22.9286 26.2426 22.8948 26.1834 22.8685L26.122 23.0067ZM26.2578 23.0895C26.2991 23.1207 26.3359 23.1594 26.368 23.2063L26.4928 23.1208C26.452 23.0613 26.4041 23.0105 26.3489 22.9688L26.2578 23.0895ZM26.3689 23.2076C26.4011 23.2525 26.4273 23.3057 26.4469 23.3679L26.5912 23.3226C26.5674 23.2469 26.5345 23.179 26.4919 23.1195L26.3689 23.2076ZM26.4469 23.3679C26.4658 23.4282 26.4759 23.4982 26.4759 23.5786H26.6271C26.6271 23.4857 26.6155 23.4001 26.5912 23.3226L26.4469 23.3679ZM26.4759 23.5786V24.4648H26.6271V23.5786H26.4759ZM28.4348 24.4648V24.5405H28.5104V24.4648H28.4348ZM27.2191 24.4368L27.1976 24.5093L27.2191 24.4368ZM27.0434 24.3452L26.9956 24.4038L26.9968 24.4048L27.0434 24.3452ZM26.909 24.1783L26.8417 24.2129L26.8423 24.214L26.909 24.1783ZM26.8676 23.2906L26.7937 23.2744L26.7934 23.2761L26.8676 23.2906ZM26.9075 23.1709L26.9764 23.202L26.9767 23.2013L26.9075 23.1709ZM26.9754 23.0557L26.9159 23.0091L26.9151 23.0101L26.9754 23.0557ZM27.0773 22.9597L27.0347 22.8973L27.034 22.8978L27.0773 22.9597ZM28.4348 22.8681H28.5104V22.7925H28.4348V22.8681ZM28.4348 23.2522V23.3278H28.5104V23.2522H28.4348ZM27.2782 23.2906L27.2258 23.2361L27.2247 23.2371L27.2782 23.2906ZM28.4348 24.0808H28.5104V24.0052H28.4348V24.0808ZM28.4348 24.3892H27.3934V24.5405H28.4348V24.3892ZM27.3934 24.3892C27.349 24.3892 27.2983 24.3814 27.2407 24.3643L27.1976 24.5093C27.266 24.5296 27.3315 24.5405 27.3934 24.5405V24.3892ZM27.2407 24.3643C27.1871 24.3484 27.137 24.3224 27.0899 24.2856L26.9968 24.4048C27.0581 24.4527 27.1251 24.4877 27.1976 24.5093L27.2407 24.3643ZM27.0911 24.2866C27.0466 24.2503 27.0079 24.2028 26.9756 24.1426L26.8423 24.214C26.8829 24.2897 26.9338 24.3535 26.9956 24.4038L27.0911 24.2866ZM26.9762 24.1437C26.9476 24.0881 26.9314 24.0164 26.9314 23.9257H26.7802C26.7802 24.0339 26.7994 24.1307 26.8417 24.2129L26.9762 24.1437ZM26.9314 23.9257V23.4058H26.7802V23.9257H26.9314ZM26.9314 23.4058C26.9314 23.3748 26.9348 23.3413 26.9418 23.3051L26.7934 23.2761C26.7847 23.3206 26.7802 23.3639 26.7802 23.4058H26.9314ZM26.9415 23.3068C26.9492 23.2717 26.9608 23.2368 26.9764 23.202L26.8385 23.1399C26.8187 23.1838 26.8038 23.2287 26.7937 23.2744L26.9415 23.3068ZM26.9767 23.2013C26.992 23.1666 27.0116 23.1333 27.0357 23.1014L26.9151 23.0101C26.8841 23.0511 26.8584 23.0946 26.8382 23.1405L26.9767 23.2013ZM27.0349 23.1024C27.0587 23.072 27.0872 23.0451 27.1207 23.0217L27.034 22.8978C26.9887 22.9294 26.9492 22.9665 26.9159 23.0091L27.0349 23.1024ZM27.12 23.0222C27.1537 22.9992 27.1932 22.98 27.2393 22.9653L27.1931 22.8212C27.1348 22.8399 27.0818 22.8651 27.0347 22.8973L27.12 23.0222ZM27.2393 22.9653C27.2827 22.9513 27.3338 22.9438 27.3934 22.9438V22.7925C27.3212 22.7925 27.2541 22.8017 27.1931 22.8212L27.2393 22.9653ZM27.3934 22.9438H28.4348V22.7925H27.3934V22.9438ZM28.3591 22.8681V23.2522H28.5104V22.8681H28.3591ZM28.4348 23.1766H27.3934V23.3278H28.4348V23.1766ZM27.3934 23.1766C27.3308 23.1766 27.2709 23.1927 27.2258 23.2361L27.3307 23.3451C27.3387 23.3373 27.3556 23.3278 27.3934 23.3278V23.1766ZM27.2247 23.2371C27.1795 23.2824 27.1642 23.3449 27.1642 23.4087H27.3154C27.3154 23.3663 27.3258 23.35 27.3317 23.3441L27.2247 23.2371ZM27.1642 23.4087V23.9257H27.3154V23.4087H27.1642ZM27.1642 23.9257C27.1642 23.989 27.1812 24.0494 27.2262 24.0944L27.3332 23.9875C27.325 23.9793 27.3154 23.9628 27.3154 23.9257H27.1642ZM27.2262 24.0944C27.2715 24.1397 27.3326 24.1564 27.3964 24.1564V24.0052C27.3578 24.0052 27.3411 23.9953 27.3332 23.9875L27.2262 24.0944ZM27.3964 24.1564H28.4348V24.0052H27.3964V24.1564ZM28.3591 24.0808V24.4648H28.5104V24.0808H28.3591ZM30.4303 23.5697L30.5026 23.5919L30.5027 23.5916L30.4303 23.5697ZM30.3387 23.7411L30.2795 23.694L30.2794 23.6941L30.3387 23.7411ZM30.1747 23.8725L30.1398 23.8055L30.1394 23.8057L30.1747 23.8725ZM29.2368 23.9257H29.1612V24.0013H29.2368V23.9257ZM29.2368 23.5609V23.4853H29.1612V23.5609H29.2368ZM30.0507 23.5136L30.1067 23.5644L30.1075 23.5635L30.0507 23.5136ZM30.0448 23.2758L29.994 23.3319L29.9948 23.3326L30.0448 23.2758ZM29.1157 23.2817L29.1717 23.3325L29.1725 23.3316L29.1157 23.2817ZM29.1201 24.0557L29.0693 24.1117L29.0702 24.1125L29.1201 24.0557ZM29.9295 24.0985H30.0052V24.0229H29.9295V24.0985ZM29.9295 24.4648V24.5405H30.0052V24.4648H29.9295ZM29.064 24.4368L29.0418 24.5091L29.0422 24.5092L29.064 24.4368ZM28.8926 24.3467L28.845 24.4054L28.8462 24.4064L28.8926 24.3467ZM28.7612 24.1827L28.6941 24.2177L28.6944 24.2181L28.7612 24.1827ZM28.7361 23.2256L28.8084 23.2477L28.8085 23.2474L28.7361 23.2256ZM28.8262 23.0543L28.767 23.0071L28.7669 23.0073L28.8262 23.0543ZM28.9901 22.9213L28.9552 22.8543L28.9548 22.8545L28.9901 22.9213ZM30.1009 22.8962L30.0787 22.9685L30.079 22.9686L30.1009 22.8962ZM30.2722 22.9878L30.2246 23.0465L30.2258 23.0475L30.2722 22.9878ZM30.4052 23.1517L30.3381 23.1867L30.3383 23.1871L30.4052 23.1517ZM30.3827 23.3969C30.3827 23.4413 30.3749 23.4915 30.3579 23.5479L30.5027 23.5916C30.5231 23.524 30.534 23.4589 30.534 23.3969H30.3827ZM30.358 23.5476C30.3422 23.599 30.3164 23.6477 30.2795 23.694L30.3979 23.7882C30.4457 23.7281 30.4809 23.6626 30.5026 23.5919L30.358 23.5476ZM30.2794 23.6941C30.2456 23.7368 30.1997 23.7742 30.1398 23.8055L30.2097 23.9396C30.2857 23.9 30.3491 23.8497 30.398 23.7881L30.2794 23.6941ZM30.1394 23.8057C30.0859 23.834 30.017 23.8501 29.9295 23.8501V24.0013C30.0351 24.0013 30.1297 23.982 30.2101 23.9394L30.1394 23.8057ZM29.9295 23.8501H29.2368V24.0013H29.9295V23.8501ZM29.3124 23.9257V23.5609H29.1612V23.9257H29.3124ZM29.2368 23.6365H29.9295V23.4853H29.2368V23.6365ZM29.9295 23.6365C29.9978 23.6365 30.0606 23.6152 30.1067 23.5644L29.9946 23.4628C29.9836 23.475 29.9656 23.4853 29.9295 23.4853V23.6365ZM30.1075 23.5635C30.1493 23.5159 30.1691 23.4578 30.1691 23.394H30.0179C30.0179 23.4247 30.0091 23.4463 29.9939 23.4637L30.1075 23.5635ZM30.1691 23.394C30.1691 23.3259 30.1462 23.2643 30.0947 23.219L29.9948 23.3326C30.0083 23.3444 30.0179 23.3616 30.0179 23.394H30.1691ZM30.0955 23.2198C30.0492 23.1777 29.9923 23.1573 29.9295 23.1573V23.3086C29.9574 23.3086 29.9773 23.3168 29.994 23.3318L30.0955 23.2198ZM29.9295 23.1573H29.2368V23.3086H29.9295V23.1573ZM29.2368 23.1573C29.1678 23.1573 29.1047 23.1796 29.0589 23.2318L29.1725 23.3316C29.1837 23.3188 29.2015 23.3086 29.2368 23.3086V23.1573ZM29.0596 23.2309C29.017 23.2779 28.9972 23.3361 28.9972 23.3999H29.1485C29.1485 23.3691 29.1572 23.3485 29.1717 23.3325L29.0596 23.2309ZM28.9972 23.3999V23.9361H29.1485V23.3999H28.9972ZM28.9972 23.9361C28.9972 24.0039 29.0188 24.0659 29.0693 24.1117L29.1709 23.9997C29.1584 23.9883 29.1485 23.9706 29.1485 23.9361H28.9972ZM29.0702 24.1125C29.1178 24.1544 29.176 24.1742 29.2398 24.1742V24.0229C29.209 24.0229 29.1874 24.0142 29.17 23.9989L29.0702 24.1125ZM29.2398 24.1742H29.9295V24.0229H29.2398V24.1742ZM29.8539 24.0985V24.4648H30.0052V24.0985H29.8539ZM29.9295 24.3892H29.2368V24.5405H29.9295V24.3892ZM29.2368 24.3892C29.1924 24.3892 29.1423 24.3814 29.0858 24.3644L29.0422 24.5092C29.1098 24.5296 29.1748 24.5405 29.2368 24.5405V24.3892ZM29.0861 24.3645C29.0344 24.3486 28.9854 24.323 28.9391 24.287L28.8462 24.4064C28.9062 24.4531 28.9715 24.4875 29.0418 24.5091L29.0861 24.3645ZM28.9403 24.288C28.897 24.2528 28.8593 24.2065 28.828 24.1473L28.6944 24.2181C28.734 24.2929 28.784 24.3559 28.845 24.4054L28.9403 24.288ZM28.8282 24.1477C28.7997 24.093 28.7836 24.0235 28.7836 23.9361H28.6324C28.6324 24.0417 28.6518 24.1365 28.6941 24.2177L28.8282 24.1477ZM28.7836 23.9361V23.3969H28.6324V23.9361H28.7836ZM28.7836 23.3969C28.7836 23.3526 28.7915 23.303 28.8084 23.2477L28.6638 23.2034C28.6433 23.2703 28.6324 23.3349 28.6324 23.3969H28.7836ZM28.8085 23.2474C28.8244 23.1948 28.8499 23.1461 28.8855 23.1012L28.7669 23.0073C28.7198 23.0667 28.6852 23.1323 28.6637 23.2038L28.8085 23.2474ZM28.8853 23.1014C28.9205 23.0572 28.9667 23.0193 29.0255 22.9882L28.9548 22.8545C28.8797 22.8942 28.8166 22.9449 28.767 23.0071L28.8853 23.1014ZM29.0251 22.9884C29.0798 22.9598 29.1494 22.9438 29.2368 22.9438V22.7925C29.1312 22.7925 29.0363 22.8119 28.9552 22.8543L29.0251 22.9884ZM29.2368 22.9438H29.9295V22.7925H29.2368V22.9438ZM29.9295 22.9438C29.9739 22.9438 30.0235 22.9516 30.0787 22.9685L30.123 22.8239C30.0562 22.8034 29.9916 22.7925 29.9295 22.7925V22.9438ZM30.079 22.9686C30.1313 22.9844 30.1797 23.0101 30.2246 23.0465L30.3199 22.9291C30.2603 22.8808 30.1945 22.8455 30.1227 22.8238L30.079 22.9686ZM30.2258 23.0475C30.2693 23.0813 30.307 23.1271 30.3381 23.1867L30.4722 23.1168C30.4324 23.0405 30.3815 22.977 30.3187 22.9281L30.2258 23.0475ZM30.3383 23.1871C30.3666 23.2406 30.3827 23.3095 30.3827 23.3969H30.534C30.534 23.2914 30.5146 23.1968 30.472 23.1164L30.3383 23.1871Z" fill="white"/>
    <g filter="url(#filter5_d_1319_146)">
        <path fill-rule="evenodd" clip-rule="evenodd" d="M52.3912 65.1844C51.8088 65.1341 51.4761 65.4856 51.0907 65.8929C50.5421 66.4726 49.8866 67.1652 48.2518 66.9717C49.2113 66.867 49.8865 66.3597 50.4538 65.8932C50.5504 65.6809 49.6062 65.9897 49.6062 65.9897C49.6062 65.9897 49.9751 65.5497 50.5877 65.3141C50.8328 65.2198 50.9111 65.2366 51.0113 65.258C51.0409 65.2643 51.0725 65.2711 51.1109 65.2755C51.4845 64.986 52.2042 65.0834 52.3912 65.1844ZM50.6493 65.5528L51.0604 65.3598C50.8791 65.3204 50.7897 65.3316 50.6493 65.3984V65.5528Z" fill="white"/>
        <path d="M47.529 69.2882C49.5593 68.5484 50.8647 67.4631 51.4177 65.8411C51.0486 66.3661 50.7695 66.6125 50.153 66.9776C49.5347 67.9564 48.945 68.4598 47.529 69.2882Z" fill="white"/>
        <path d="M44.3447 71.3969C45.0137 70.8633 46.1108 70.5785 47.2329 70.2873C49.3426 69.7398 51.5406 69.1693 51.1474 66.8789C50.0757 68.6102 48.7174 69.1659 47.3056 69.7435C46.3183 70.1474 45.3048 70.5621 44.3447 71.3969Z" fill="white"/>
        <path d="M46.8815 71.3945C47.8089 71.1341 48.6537 70.897 49.6062 69.7544C49.2347 69.9179 49.0047 70.001 48.5297 70.1465C47.9711 70.6009 47.4715 70.8044 46.923 71.0277C46.1243 71.353 45.222 71.7204 43.8833 72.9668C45.0618 71.9054 46.0083 71.6397 46.8815 71.3945Z" fill="white"/>
        <path d="M46.9153 73.0242C47.0902 72.2912 47.3504 71.8541 48.1066 71.1596L47.5102 71.3922C46.9855 72.2364 46.9462 72.5294 46.9153 73.0242Z" fill="white"/>
    </g>
    <defs>
        <filter id="filter0_i_1319_146" x="10.23" y="27.46" width="78.2725" height="83.188" filterUnits="userSpaceOnUse" color-interpolation-filters="sRGB">
            <feFlood flood-opacity="0" result="BackgroundImageFix"/>
            <feBlend mode="normal" in="SourceGraphic" in2="BackgroundImageFix" result="shape"/>
            <feColorMatrix in="SourceAlpha" type="matrix" values="0 0 0 0 0 0 0 0 0 0 0 0 0 0 0 0 0 0 127 0" result="hardAlpha"/>
            <feOffset dx="-3.21408" dy="-3.02502"/>
            <feComposite in2="hardAlpha" operator="arithmetic" k2="-1" k3="1"/>
            <feColorMatrix type="matrix" values="0 0 0 0 0 0 0 0 0 0 0 0 0 0 0 0 0 0 0.25 0"/>
            <feBlend mode="normal" in2="shape" result="effect1_innerShadow_1319_146"/>
        </filter>
        <filter id="filter1_ii_1319_146" x="38.0222" y="57.71" width="22.6877" height="22.6875" filterUnits="userSpaceOnUse" color-interpolation-filters="sRGB">
            <feFlood flood-opacity="0" result="BackgroundImageFix"/>
            <feBlend mode="normal" in="SourceGraphic" in2="BackgroundImageFix" result="shape"/>
            <feColorMatrix in="SourceAlpha" type="matrix" values="0 0 0 0 0 0 0 0 0 0 0 0 0 0 0 0 0 0 127 0" result="hardAlpha"/>
            <feMorphology radius="1.89064" operator="erode" in="SourceAlpha" result="effect1_innerShadow_1319_146"/>
            <feOffset/>
            <feComposite in2="hardAlpha" operator="arithmetic" k2="-1" k3="1"/>
            <feColorMatrix type="matrix" values="0 0 0 0 0 0 0 0 0 0 0 0 0 0 0 0 0 0 0.25 0"/>
            <feBlend mode="normal" in2="shape" result="effect1_innerShadow_1319_146"/>
            <feColorMatrix in="SourceAlpha" type="matrix" values="0 0 0 0 0 0 0 0 0 0 0 0 0 0 0 0 0 0 127 0" result="hardAlpha"/>
            <feMorphology radius="3.40315" operator="erode" in="SourceAlpha" result="effect2_innerShadow_1319_146"/>
            <feOffset/>
            <feComposite in2="hardAlpha" operator="arithmetic" k2="-1" k3="1"/>
            <feColorMatrix type="matrix" values="0 0 0 0 0 0 0 0 0 0 0 0 0 0 0 0 0 0 0.25 0"/>
            <feBlend mode="normal" in2="effect1_innerShadow_1319_146" result="effect2_innerShadow_1319_146"/>
        </filter>
        <filter id="filter2_i_1319_146" x="77.5366" y="51.6602" width="2.64697" height="11.7222" filterUnits="userSpaceOnUse" color-interpolation-filters="sRGB">
            <feFlood flood-opacity="0" result="BackgroundImageFix"/>
            <feBlend mode="normal" in="SourceGraphic" in2="BackgroundImageFix" result="shape"/>
            <feColorMatrix in="SourceAlpha" type="matrix" values="0 0 0 0 0 0 0 0 0 0 0 0 0 0 0 0 0 0 127 0" result="hardAlpha"/>
            <feOffset dx="-1.13438"/>
            <feComposite in2="hardAlpha" operator="arithmetic" k2="-1" k3="1"/>
            <feColorMatrix type="matrix" values="0 0 0 0 0 0 0 0 0 0 0 0 0 0 0 0 0 0 0.25 0"/>
            <feBlend mode="normal" in2="shape" result="effect1_innerShadow_1319_146"/>
        </filter>
        <filter id="filter3_i_1319_146" x="77.5366" y="74.5366" width="2.64697" height="11.7222" filterUnits="userSpaceOnUse" color-interpolation-filters="sRGB">
            <feFlood flood-opacity="0" result="BackgroundImageFix"/>
            <feBlend mode="normal" in="SourceGraphic" in2="BackgroundImageFix" result="shape"/>
            <feColorMatrix in="SourceAlpha" type="matrix" values="0 0 0 0 0 0 0 0 0 0 0 0 0 0 0 0 0 0 127 0" result="hardAlpha"/>
            <feOffset dx="-1.13438"/>
            <feComposite in2="hardAlpha" operator="arithmetic" k2="-1" k3="1"/>
            <feColorMatrix type="matrix" values="0 0 0 0 0 0 0 0 0 0 0 0 0 0 0 0 0 0 0.25 0"/>
            <feBlend mode="normal" in2="shape" result="effect1_innerShadow_1319_146"/>
        </filter>
        <filter id="filter4_d_1319_146" x="0.776611" y="14.7925" width="90.1834" height="80.7304" filterUnits="userSpaceOnUse" color-interpolation-filters="sRGB">
            <feFlood flood-opacity="0" result="BackgroundImageFix"/>
            <feColorMatrix in="SourceAlpha" type="matrix" values="0 0 0 0 0 0 0 0 0 0 0 0 0 0 0 0 0 0 127 0" result="hardAlpha"/>
            <feOffset dx="0.945319" dy="0.756255"/>
            <feComposite in2="hardAlpha" operator="out"/>
            <feColorMatrix type="matrix" values="0 0 0 0 0 0 0 0 0 0 0 0 0 0 0 0 0 0 0.25 0"/>
            <feBlend mode="normal" in2="BackgroundImageFix" result="effect1_dropShadow_1319_146"/>
            <feBlend mode="normal" in="SourceGraphic" in2="effect1_dropShadow_1319_146" result="shape"/>
        </filter>
        <filter id="filter5_d_1319_146" x="43.8833" y="65.0835" width="9.26407" height="8.69717" filterUnits="userSpaceOnUse" color-interpolation-filters="sRGB">
            <feFlood flood-opacity="0" result="BackgroundImageFix"/>
            <feColorMatrix in="SourceAlpha" type="matrix" values="0 0 0 0 0 0 0 0 0 0 0 0 0 0 0 0 0 0 127 0" result="hardAlpha"/>
            <feOffset dx="0.756255" dy="0.756255"/>
            <feComposite in2="hardAlpha" operator="out"/>
            <feColorMatrix type="matrix" values="0 0 0 0 0 0 0 0 0 0 0 0 0 0 0 0 0 0 0.1 0"/>
            <feBlend mode="normal" in2="BackgroundImageFix" result="effect1_dropShadow_1319_146"/>
            <feBlend mode="normal" in="SourceGraphic" in2="effect1_dropShadow_1319_146" result="shape"/>
        </filter>
    </defs>
</svg>
