<svg width="162" height="200" viewBox="0 0 162 200" fill="none" xmlns="http://www.w3.org/2000/svg">
    <path d="M49.1721 189.569H67.384V195.53H49.1721V189.569Z" fill="#53392A"/>
    <path d="M103.808 189.569H122.02V195.53H103.808V189.569Z" fill="#53392A"/>
    <path d="M2.4834 60.7615C2.4834 28.5754 28.5754 2.4834 60.7615 2.4834L-nan -nanL60.7615 2.4834V61.4238H2.4834V60.7615Z" fill="#FF911A"/>
    <path d="M99.6226 27.6489L65.2317 61.8549L87.4944 84.2714L112.914 61.8549C112.914 48.405 107.93 36.7816 99.6226 27.6489Z" fill="#1A232C"/>
    <path d="M84.0509 86.9997L60.724 63.5762H10.927C10.927 63.5762 9.48719 77.5306 21.3496 93.1463C35.736 112.084 55.9263 112.583 55.9263 112.583L84.0509 86.9997Z" fill="#FF4A4A"/>
    <path d="M64.4041 11.2583V56.457L96.1921 24.5033C86.5087 15.0508 73.0133 11.5894 64.4041 11.2583Z" fill="#519F45"/>
    <path fill-rule="evenodd" clip-rule="evenodd" d="M-2.31222e-06 64.3214L-2.42077e-06 61.838C-3.91915e-06 27.559 27.3332 0.000206527 62.1299 0.000205006L64.6134 0.000204898L64.6134 6.5118C78.9135 7.14227 91.809 13.1904 101.287 22.6476C111.331 32.669 117.55 46.53 117.55 61.838C117.55 77.1459 111.331 91.0069 101.287 101.028C91.2633 111.03 77.4173 117.219 62.1299 117.219C32.3569 117.219 8.0648 93.7564 6.76495 64.3214L-2.31222e-06 64.3214ZM11.7373 64.3214C13.0329 91.0091 35.0973 112.252 62.1299 112.252C75.1554 112.252 87.0242 107.323 95.9769 99.2246L61.1007 64.3214L11.7373 64.3214ZM65.6407 61.838L99.493 95.7165C107.629 86.7637 112.583 74.8808 112.583 61.838C112.583 48.7951 107.629 36.9122 99.493 27.9594L65.6407 61.838ZM95.9769 24.4513C87.5965 16.871 76.6609 12.0672 64.6134 11.484L64.6134 55.8391L95.9769 24.4513ZM59.6465 59.3545L5.01902 59.3545C6.2629 29.7959 29.6219 6.2531 59.6465 5.01803L59.6465 59.3545Z" fill="black"/>
    <g filter="url(#filter0_d_1355_145)">
        <path d="M19.0552 46.3914C19.2595 46.476 19.4809 46.5184 19.7193 46.5184H24.7294V43.2173H21.3666V31.6126H28.6838C29.3308 31.6126 29.9183 31.7184 30.4461 31.93C30.9824 32.1332 31.4422 32.4252 31.8253 32.8061C32.2084 33.1785 32.5021 33.6314 32.7064 34.1646C32.842 34.5043 32.9343 34.8663 32.9836 35.2506H36.3202C36.2554 34.4082 36.0682 33.6188 35.7584 32.8823C35.3753 31.9427 34.8432 31.1386 34.1622 30.4699C33.4811 29.7928 32.6723 29.2638 31.7359 28.8829C30.7994 28.502 29.782 28.3115 28.6838 28.3115H19.7193C19.4809 28.3115 19.2595 28.3538 19.0552 28.4385C18.8509 28.5231 18.6721 28.6416 18.5189 28.794C18.3742 28.9464 18.2592 29.1241 18.1741 29.3272C18.089 29.5304 18.0464 29.7462 18.0464 29.9748V44.8551C18.0464 45.0921 18.089 45.3122 18.1741 45.5153C18.2592 45.7185 18.3742 45.8962 18.5189 46.0486C18.6721 46.1925 18.8509 46.3068 19.0552 46.3914Z" fill="white"/>
        <path fill-rule="evenodd" clip-rule="evenodd" d="M26.7476 35.8305C25.9467 35.8305 25.2973 36.4775 25.2973 37.2755V45.0785C25.2973 45.8765 25.9467 46.5234 26.7476 46.5234H54.0133C54.8143 46.5234 55.4636 45.8765 55.4636 45.0785V37.2755C55.4636 36.4775 54.8143 35.8305 54.0133 35.8305H26.7476ZM54.0133 36.4085H26.7476C26.267 36.4085 25.8774 36.7967 25.8774 37.2755V45.0785C25.8774 45.5573 26.267 45.9454 26.7476 45.9454H54.0133C54.4939 45.9454 54.8835 45.5573 54.8835 45.0785V37.2755C54.8835 36.7967 54.4939 36.4085 54.0133 36.4085Z" fill="white"/>
    </g>
    <g filter="url(#filter1_d_1355_145)">
        <path fill-rule="evenodd" clip-rule="evenodd" d="M24.8365 46.6252H19.7192C19.4679 46.6252 19.2325 46.5805 19.0142 46.4901C18.7985 46.4007 18.6086 46.2796 18.4455 46.1264L18.4433 46.1243L18.4412 46.1221C18.2871 45.9599 18.1651 45.771 18.0752 45.5565C17.9842 45.3392 17.9392 45.105 17.9392 44.8548V29.9745C17.9392 29.7323 17.9844 29.5023 18.0752 29.2855C18.1651 29.071 18.2871 28.8821 18.4412 28.7199L18.4433 28.7177C18.6066 28.5553 18.7973 28.4291 19.0142 28.3392C19.2325 28.2488 19.4679 28.2041 19.7192 28.2041H28.6838C29.7946 28.2041 30.8258 28.3968 31.7762 28.7833C32.725 29.1693 33.5458 29.7059 34.2375 30.3935C34.9293 31.0728 35.4692 31.8892 35.8574 32.841C36.1717 33.5885 36.3614 34.3891 36.427 35.2421L36.4358 35.3574H32.8892L32.8773 35.2639C32.8291 34.888 32.7389 34.5349 32.6068 34.204L32.6063 34.2027C32.4071 33.6829 32.1217 33.2435 31.7505 32.8826L31.7497 32.8818C31.3779 32.5122 30.9312 32.2281 30.4081 32.0299L30.4062 32.0292C29.8926 31.8233 29.319 31.7195 28.6838 31.7195H21.4737V43.1098H24.8365V46.6252ZM21.3665 43.217V31.6123H28.6838C29.3308 31.6123 29.9182 31.7181 30.446 31.9297C30.9824 32.1329 31.4421 32.4249 31.8252 32.8058C32.2083 33.1782 32.502 33.6311 32.7063 34.1643C32.8419 34.504 32.9343 34.866 32.9835 35.2503H36.3201C36.3174 35.2145 36.3144 35.1788 36.3112 35.1432C36.2393 34.3409 36.055 33.5872 35.7584 32.882C35.3753 31.9424 34.8432 31.1383 34.1621 30.4696C33.4811 29.7925 32.6723 29.2635 31.7358 28.8826C30.7993 28.5017 29.782 28.3112 28.6838 28.3112H19.7192C19.4808 28.3112 19.2595 28.3536 19.0552 28.4382C18.8509 28.5228 18.6721 28.6413 18.5188 28.7937C18.3741 28.9461 18.2592 29.1238 18.174 29.327C18.0889 29.5301 18.0463 29.7459 18.0463 29.9745V44.8548C18.0463 45.0918 18.0889 45.3119 18.174 45.515C18.2592 45.7182 18.3741 45.8959 18.5188 46.0483C18.6721 46.1922 18.8509 46.3065 19.0552 46.3911C19.2595 46.4757 19.4808 46.5181 19.7192 46.5181H24.7293V43.217H21.3665ZM54.0133 36.5154H26.7476C26.3258 36.5154 25.9845 36.8559 25.9845 37.2752V45.0782C25.9845 45.4975 26.3258 45.838 26.7476 45.838H54.0133C54.435 45.838 54.7763 45.4975 54.7763 45.0782V37.2752C54.7763 36.8559 54.435 36.5154 54.0133 36.5154ZM25.1902 37.2752C25.1902 36.4177 25.8878 35.7231 26.7476 35.7231H54.0133C54.873 35.7231 55.5707 36.4177 55.5707 37.2752V45.0782C55.5707 45.9357 54.873 46.6303 54.0133 46.6303H26.7476C25.8878 46.6303 25.1902 45.9357 25.1902 45.0782V37.2752ZM25.2973 37.2752C25.2973 36.4772 25.9466 35.8302 26.7476 35.8302H54.0133C54.8142 35.8302 55.4636 36.4772 55.4636 37.2752V45.0782C55.4636 45.8762 54.8142 46.5232 54.0133 46.5232H26.7476C25.9466 46.5232 25.2973 45.8762 25.2973 45.0782V37.2752ZM26.7476 36.4082H54.0133C54.4938 36.4082 54.8834 36.7964 54.8834 37.2752V45.0782C54.8834 45.557 54.4938 45.9452 54.0133 45.9452H26.7476C26.267 45.9452 25.8774 45.557 25.8774 45.0782V37.2752C25.8774 36.7964 26.267 36.4082 26.7476 36.4082Z" fill="white"/>
    </g>
    <path d="M31.5585 41.4865H29.2652V40.7555H31.5585V41.4865ZM31.8821 39.8461H28.9751V43.1213H28.2498V39.4862C28.2498 39.436 28.2591 39.3885 28.2777 39.3439C28.2963 39.2993 28.3214 39.2602 28.353 39.2267C28.3865 39.1932 28.4255 39.1672 28.4702 39.1486C28.5148 39.13 28.5631 39.1207 28.6152 39.1207H31.8821V39.8461Z" fill="white"/>
    <path d="M33.1236 39.4862H32.3982V38.8306H33.1236V39.4862ZM33.1236 43.1213H32.3982V40.1055H33.1236V43.1213Z" fill="white"/>
    <path d="M37.1632 43.1213H36.4379V41.4474C36.4379 41.3526 36.4211 41.2679 36.3877 41.1935C36.356 41.1173 36.3123 41.0522 36.2565 40.9983C36.2007 40.9443 36.1347 40.9034 36.0585 40.8755C35.9841 40.8457 35.9032 40.8309 35.8157 40.8309H34.5464V43.1213H33.821V40.4654C33.821 40.4152 33.8303 40.3687 33.8489 40.3259C33.8675 40.2813 33.8936 40.2431 33.927 40.2115C33.9605 40.178 33.9996 40.152 34.0442 40.1334C34.0888 40.1148 34.1363 40.1055 34.1865 40.1055H35.8213C35.9125 40.1055 36.0082 40.1157 36.1087 40.1362C36.211 40.1567 36.3114 40.1901 36.41 40.2366C36.5104 40.2813 36.6053 40.3389 36.6945 40.4096C36.7857 40.4784 36.8656 40.563 36.9345 40.6635C37.0051 40.762 37.0609 40.8764 37.1018 41.0066C37.1428 41.1368 37.1632 41.2837 37.1632 41.4474V43.1213Z" fill="white"/>
    <path d="M40.9127 42.1226C40.9127 42.223 40.8951 42.3318 40.8597 42.449C40.8244 42.5643 40.7667 42.6721 40.6868 42.7726C40.6086 42.8712 40.5054 42.9539 40.3771 43.0209C40.2506 43.0878 40.0962 43.1213 39.914 43.1213H38.6056C38.5051 43.1213 38.3963 43.1036 38.2791 43.0683C38.1638 43.033 38.056 42.9762 37.9555 42.8981C37.857 42.8181 37.7742 42.7149 37.7072 42.5884C37.6403 42.4601 37.6068 42.3048 37.6068 42.1226C37.6068 42.0221 37.6245 41.9133 37.6598 41.7961C37.6951 41.679 37.7519 41.5711 37.83 41.4725C37.91 41.3721 38.0132 41.2884 38.1397 41.2214C38.268 41.1545 38.4233 41.121 38.6056 41.121H39.914V41.8129H38.6056C38.507 41.8129 38.4307 41.8436 38.3768 41.9049C38.3229 41.9645 38.2959 42.0389 38.2959 42.1281C38.2959 42.223 38.3266 42.2974 38.3879 42.3513C38.4512 42.4034 38.5256 42.4294 38.6111 42.4294H39.914C40.0126 42.4294 40.0888 42.3997 40.1427 42.3402C40.1967 42.2806 40.2236 42.2062 40.2236 42.117V41.1043C40.2236 41.0094 40.1939 40.9341 40.1344 40.8783C40.0767 40.8225 40.0033 40.7946 39.914 40.7946H38.321V40.1055H39.914C40.0144 40.1055 40.1223 40.1232 40.2376 40.1585C40.3548 40.1939 40.4626 40.2515 40.5612 40.3315C40.6616 40.4096 40.7453 40.5128 40.8123 40.6412C40.8793 40.7676 40.9127 40.922 40.9127 41.1043V42.1226Z" fill="white"/>
    <path d="M44.8743 43.1213H44.1489V41.4474C44.1489 41.3526 44.1322 41.2679 44.0987 41.1935C44.0671 41.1173 44.0234 41.0522 43.9676 40.9983C43.9118 40.9443 43.8458 40.9034 43.7695 40.8755C43.6951 40.8457 43.6142 40.8309 43.5268 40.8309H42.2574V43.1213H41.5321V40.4654C41.5321 40.4152 41.5414 40.3687 41.56 40.3259C41.5786 40.2813 41.6046 40.2431 41.6381 40.2115C41.6716 40.178 41.7106 40.152 41.7553 40.1334C41.7999 40.1148 41.8473 40.1055 41.8975 40.1055H43.5324C43.6235 40.1055 43.7193 40.1157 43.8197 40.1362C43.922 40.1567 44.0224 40.1901 44.121 40.2366C44.2215 40.2813 44.3163 40.3389 44.4056 40.4096C44.4967 40.4784 44.5767 40.563 44.6455 40.6635C44.7162 40.762 44.772 40.8764 44.8129 41.0066C44.8538 41.1368 44.8743 41.2837 44.8743 41.4474V43.1213Z" fill="white"/>
    <path d="M48.4313 43.1213H46.4645C46.364 43.1213 46.2543 43.1036 46.1353 43.0683C46.0162 43.033 45.9056 42.9753 45.8033 42.8953C45.7028 42.8135 45.6182 42.7084 45.5494 42.5801C45.4825 42.4499 45.449 42.2909 45.449 42.103V41.121C45.449 41.0522 45.4564 40.9797 45.4713 40.9034C45.488 40.8271 45.5131 40.7518 45.5466 40.6774C45.5801 40.6012 45.6229 40.5286 45.6749 40.4598C45.7289 40.391 45.7931 40.3306 45.8674 40.2785C45.9437 40.2264 46.0311 40.1846 46.1297 40.1529C46.2283 40.1213 46.3399 40.1055 46.4645 40.1055H48.4313V40.8309H46.4645C46.3696 40.8309 46.2971 40.855 46.2469 40.9034C46.1985 40.9518 46.1743 41.0262 46.1743 41.1266V42.103C46.1743 42.1979 46.1994 42.2704 46.2497 42.3206C46.2999 42.3708 46.3733 42.396 46.47 42.396H48.4313V43.1213Z" fill="white"/>
    <path d="M52.2533 41.1043C52.2533 41.2047 52.2357 41.3135 52.2003 41.4307C52.165 41.546 52.1073 41.6539 52.0274 41.7543C51.9492 41.8529 51.846 41.9356 51.7177 42.0026C51.5912 42.0695 51.4369 42.103 51.2546 42.103H49.9462V41.4139H51.2546C51.3532 41.4139 51.4294 41.3842 51.4833 41.3247C51.5373 41.2633 51.5643 41.188 51.5643 41.0987C51.5643 41.0038 51.5336 40.9294 51.4722 40.8755C51.4127 40.8216 51.3401 40.7946 51.2546 40.7946H49.9462C49.8476 40.7946 49.7713 40.8253 49.7174 40.8867C49.6635 40.9462 49.6365 41.0206 49.6365 41.1098V42.1226C49.6365 42.2193 49.6662 42.2946 49.7258 42.3485C49.7871 42.4025 49.8625 42.4294 49.9517 42.4294H51.2546V43.1213H49.9462C49.8457 43.1213 49.7369 43.1036 49.6197 43.0683C49.5044 43.033 49.3966 42.9762 49.2961 42.8981C49.1976 42.8181 49.1148 42.7149 49.0478 42.5884C48.9809 42.4601 48.9474 42.3048 48.9474 42.1226V41.1043C48.9474 41.0038 48.9651 40.896 49.0004 40.7806C49.0357 40.6635 49.0925 40.5556 49.1706 40.457C49.2506 40.3566 49.3538 40.2729 49.4803 40.2059C49.6086 40.139 49.7639 40.1055 49.9462 40.1055H51.2546C51.355 40.1055 51.4629 40.1232 51.5782 40.1585C51.6954 40.1939 51.8032 40.2515 51.9018 40.3315C52.0023 40.4096 52.0859 40.5128 52.1529 40.6412C52.2199 40.7676 52.2533 40.922 52.2533 41.1043Z" fill="white"/>
    <path fill-rule="evenodd" clip-rule="evenodd" d="M31.7013 41.6291H29.1224V40.6125H31.7013V41.6291ZM32.025 39.9887H29.118V43.2639H28.1069V39.4859C28.1069 39.4176 28.1197 39.3514 28.1458 39.2887C28.1707 39.2289 28.2051 39.1751 28.2491 39.1284L28.252 39.1254C28.2989 39.0785 28.3537 39.0421 28.4152 39.0165C28.4786 38.9901 28.5458 38.9776 28.6152 38.9776H32.025V39.9887ZM28.9751 39.8458H31.8821V39.1205H28.6152C28.5632 39.1205 28.5148 39.1298 28.4702 39.1484C28.4255 39.167 28.3865 39.193 28.353 39.2265C28.3214 39.26 28.2963 39.299 28.2777 39.3437C28.2591 39.3883 28.2498 39.4357 28.2498 39.4859V43.1211H28.9751V39.8458ZM33.2664 39.6288H32.2554V38.6875H33.2664V39.6288ZM33.2664 43.2639H32.2554V39.9624H33.2664V43.2639ZM37.3061 43.2639H36.295V41.4472C36.295 41.3693 36.2814 41.3051 36.2574 41.2519L36.2557 41.248C36.231 41.1887 36.1981 41.1402 36.1573 41.1007C36.1165 41.0613 36.0678 41.0308 36.0094 41.0094L36.0054 41.008C35.9493 40.9855 35.8867 40.9735 35.8158 40.9735H34.6892V43.2639H33.6782V40.4652C33.6782 40.3973 33.6908 40.3316 33.7175 40.2698C33.7431 40.2086 33.7797 40.1544 33.8275 40.1089C33.8741 40.0626 33.9284 40.0267 33.9893 40.0013C34.052 39.9752 34.1182 39.9624 34.1865 39.9624H35.8213C35.9231 39.9624 36.0284 39.9739 36.137 39.996C36.2506 40.0187 36.3614 40.0557 36.4695 40.1065C36.5802 40.1559 36.6844 40.2193 36.7819 40.2964C36.8852 40.3746 36.975 40.47 37.0515 40.5813C37.1315 40.6933 37.1934 40.8212 37.2381 40.9636C37.2842 41.1101 37.3061 41.2718 37.3061 41.4472V43.2639ZM36.9345 40.6632C36.8657 40.5628 36.7857 40.4782 36.6945 40.4094C36.6053 40.3387 36.5104 40.281 36.41 40.2364C36.3114 40.1899 36.211 40.1564 36.1087 40.136C36.0083 40.1155 35.9125 40.1053 35.8213 40.1053H34.1865C34.1363 40.1053 34.0889 40.1146 34.0442 40.1332C33.9996 40.1518 33.9605 40.1778 33.927 40.2113C33.8936 40.2429 33.8675 40.281 33.8489 40.3257C33.8303 40.3685 33.821 40.415 33.821 40.4652V43.1211H34.5464V40.8306H35.8158C35.9032 40.8306 35.9841 40.8455 36.0585 40.8753C36.1347 40.9032 36.2007 40.9441 36.2565 40.998C36.3123 41.052 36.356 41.1171 36.3877 41.1933C36.4211 41.2677 36.4379 41.3523 36.4379 41.4472V43.1211H37.1632V41.4472C37.1632 41.2835 37.1428 41.1366 37.1019 41.0064C37.0609 40.8762 37.0051 40.7618 36.9345 40.6632ZM40.9965 42.49L40.9963 42.4906C40.9554 42.6241 40.8889 42.7478 40.7985 42.8613L40.6868 42.7723L40.7987 42.8611C40.7987 42.8612 40.7986 42.8612 40.7985 42.8613C40.7063 42.9776 40.5867 43.0723 40.4436 43.1471C40.4437 43.147 40.4438 43.1469 40.4439 43.1469L40.3771 43.0206L40.4432 43.1473C40.4433 43.1472 40.4434 43.1471 40.4436 43.1471C40.2917 43.2274 40.1132 43.2639 39.914 43.2639H38.6056C38.4885 43.2639 38.3657 43.2433 38.2379 43.2048L38.2373 43.2046C38.1045 43.1639 37.9812 43.0988 37.8678 43.0106L37.8655 43.0088C37.7502 42.9153 37.6558 42.7964 37.581 42.6551L37.5806 42.6543C37.5006 42.501 37.464 42.3218 37.464 42.1223C37.464 42.0053 37.4845 41.8824 37.5231 41.7547C37.5638 41.6198 37.6291 41.4959 37.7181 41.3836L37.7183 41.3833C37.8118 41.2658 37.931 41.1701 38.0728 41.095L38.0736 41.0946C38.2269 41.0146 38.4061 40.9779 38.6056 40.9779H40.0321C40.0046 40.9526 39.9688 40.9372 39.914 40.9372H38.1782V39.9624H39.914C40.031 39.9624 40.153 39.983 40.2792 40.0216C40.4142 40.0624 40.538 40.1287 40.6501 40.2194C40.7682 40.3116 40.8639 40.4311 40.9388 40.5745C41.0191 40.7263 41.0556 40.9049 41.0556 41.104V42.1223C41.0556 42.2394 41.035 42.3622 40.9965 42.49ZM40.8123 40.6409L40.9386 40.5741C40.9386 40.5742 40.9387 40.5743 40.9388 40.5745C40.9388 40.5746 40.9389 40.5747 40.939 40.5749L40.8123 40.6409ZM40.8597 42.4487C40.8951 42.3316 40.9127 42.2228 40.9127 42.1223V41.104C40.9127 40.9218 40.8793 40.7674 40.8123 40.6409C40.7454 40.5126 40.6617 40.4094 40.5612 40.3313C40.4627 40.2513 40.3548 40.1936 40.2376 40.1583C40.1223 40.123 40.0144 40.1053 39.914 40.1053H38.321V40.7944H39.914C40.0033 40.7944 40.0767 40.8223 40.1344 40.8781C40.1939 40.9339 40.2237 41.0092 40.2237 41.104V42.1167C40.2237 42.206 40.1967 42.2804 40.1428 42.3399C40.0888 42.3994 40.0126 42.4292 39.914 42.4292H38.6111C38.5256 42.4292 38.4512 42.4032 38.388 42.3511C38.3266 42.2972 38.2959 42.2228 38.2959 42.1279C38.2959 42.0386 38.3229 41.9642 38.3768 41.9047C38.4307 41.8433 38.507 41.8127 38.6056 41.8127H39.914V41.1208H38.6056C38.4233 41.1208 38.268 41.1543 38.1397 41.2212C38.0132 41.2882 37.91 41.3719 37.83 41.4723C37.7519 41.5709 37.6952 41.6787 37.6598 41.7959C37.6245 41.9131 37.6068 42.0219 37.6068 42.1223C37.6068 42.3046 37.6403 42.4599 37.7072 42.5882C37.7742 42.7147 37.857 42.8179 37.9555 42.8979C38.056 42.976 38.1638 43.0327 38.2792 43.0681M38.4806 42.2424C38.5167 42.2714 38.5581 42.2864 38.6111 42.2864H39.914C39.9821 42.2864 40.0161 42.267 40.0369 42.244C40.0643 42.2138 40.0808 42.1748 40.0808 42.1167V41.104C40.0808 41.0595 40.0716 41.0289 40.0568 41.0062V41.9555H38.6056C38.5388 41.9555 38.5054 41.9748 38.4841 41.999L38.4827 42.0006C38.4552 42.0309 38.4387 42.0698 38.4387 42.1279C38.4387 42.1877 38.4561 42.2201 38.4806 42.2424ZM45.0171 43.2639H44.0061V41.4472C44.0061 41.3693 43.9924 41.3051 43.9685 41.2519L43.9667 41.248C43.9421 41.1887 43.9092 41.1402 43.8683 41.1007C43.8275 41.0613 43.7788 41.0308 43.7204 41.0094L43.7164 41.008C43.6604 40.9855 43.5977 40.9735 43.5268 40.9735H42.4003V43.2639H41.3892V40.4652C41.3892 40.3972 41.4019 40.3315 41.4286 40.2697C41.4542 40.2086 41.4908 40.1544 41.5385 40.1089C41.5852 40.0626 41.6395 40.0267 41.7003 40.0013C41.7631 39.9752 41.8292 39.9624 41.8976 39.9624H43.5324C43.6341 39.9624 43.7395 39.9739 43.8481 39.996C43.9616 40.0187 44.0725 40.0557 44.1805 40.1065C44.2913 40.1559 44.3955 40.2193 44.493 40.2964C44.5963 40.3746 44.6861 40.47 44.7625 40.5813C44.8426 40.6933 44.9044 40.8212 44.9492 40.9636C44.9952 41.1101 45.0171 41.2718 45.0171 41.4472V43.2639ZM44.6455 40.6632C44.5767 40.5628 44.4967 40.4782 44.4056 40.4094C44.3163 40.3387 44.2215 40.281 44.121 40.2364C44.0225 40.1899 43.922 40.1564 43.8197 40.136C43.7193 40.1155 43.6235 40.1053 43.5324 40.1053H41.8976C41.8473 40.1053 41.7999 40.1146 41.7553 40.1332C41.7106 40.1518 41.6716 40.1778 41.6381 40.2113C41.6046 40.2429 41.5786 40.281 41.56 40.3257C41.5414 40.3685 41.5321 40.415 41.5321 40.4652V43.1211H42.2574V40.8306H43.5268C43.6142 40.8306 43.6951 40.8455 43.7695 40.8753C43.8458 40.9032 43.9118 40.9441 43.9676 40.998C44.0234 41.052 44.0671 41.1171 44.0987 41.1933C44.1322 41.2677 44.1489 41.3523 44.1489 41.4472V43.1211H44.8743V41.4472C44.8743 41.2835 44.8538 41.1366 44.8129 41.0064C44.772 40.8762 44.7162 40.7618 44.6455 40.6632ZM48.5741 43.2639H46.4645C46.3475 43.2639 46.2239 43.2434 46.0946 43.205C45.9577 43.1643 45.8311 43.0981 45.7153 43.0076L45.713 43.0059C45.5963 42.9107 45.5002 42.7903 45.4235 42.6474L45.4224 42.6452C45.3425 42.4899 45.3062 42.3071 45.3062 42.1028V41.1208C45.3062 41.0417 45.3147 40.96 45.3311 40.8758L45.3318 40.8725C45.3507 40.7864 45.3789 40.702 45.4161 40.6192C45.4542 40.5326 45.5026 40.4506 45.5611 40.3734L45.5625 40.3715C45.6255 40.2911 45.7001 40.2211 45.7855 40.1612L45.7869 40.1603C45.8758 40.0996 45.976 40.052 46.0861 40.0167C46.2013 39.9797 46.328 39.9624 46.4645 39.9624H48.5741V40.9735H46.4645C46.3946 40.9735 46.3626 40.9906 46.347 41.0051C46.3357 41.017 46.3172 41.0482 46.3172 41.1264V42.1028C46.3172 42.1729 46.3353 42.204 46.3507 42.2194C46.3656 42.2343 46.3972 42.2529 46.4701 42.2529H48.5741V43.2639ZM46.2469 40.9032C46.2971 40.8548 46.3696 40.8306 46.4645 40.8306H48.4313V40.1053H46.4645C46.3399 40.1053 46.2283 40.1211 46.1297 40.1527C46.0311 40.1843 45.9437 40.2262 45.8675 40.2783C45.7931 40.3303 45.7289 40.3908 45.675 40.4596C45.6229 40.5284 45.5801 40.6009 45.5466 40.6772C45.5132 40.7516 45.488 40.8269 45.4713 40.9032C45.4564 40.9794 45.449 41.052 45.449 41.1208V42.1028C45.449 42.2906 45.4825 42.4497 45.5494 42.5799C45.6182 42.7082 45.7029 42.8133 45.8033 42.8951C45.9056 42.9751 46.0163 43.0327 46.1353 43.0681C46.2543 43.1034 46.364 43.1211 46.4645 43.1211H48.4313V42.3957H46.4701C46.3733 42.3957 46.2999 42.3706 46.2497 42.3204C46.1995 42.2702 46.1743 42.1976 46.1743 42.1028V41.1264C46.1743 41.0259 46.1985 40.9515 46.2469 40.9032ZM52.3371 41.4717L52.3369 41.4723C52.296 41.6058 52.2295 41.7295 52.1391 41.843L52.0276 41.7543L52.1393 41.8428C52.1393 41.8429 52.1392 41.843 52.1391 41.843C52.0469 41.9593 51.9273 42.054 51.7842 42.1288C51.784 42.1289 51.7839 42.1289 51.7838 42.129L51.7177 42.0024C51.5912 42.0693 51.4369 42.1028 51.2546 42.1028H49.9462V41.4137H51.2546C51.3532 41.4137 51.4294 41.384 51.4834 41.3244C51.5373 41.2631 51.5643 41.1877 51.5643 41.0985C51.5643 41.0036 51.5336 40.9292 51.4722 40.8753C51.4127 40.8213 51.3402 40.7944 51.2546 40.7944H49.9462C49.8476 40.7944 49.7713 40.8251 49.7174 40.8864C49.6635 40.9459 49.6365 41.0203 49.6365 41.1096V42.1223C49.6365 42.219 49.6663 42.2944 49.7258 42.3483C49.7872 42.4022 49.8625 42.4292 49.9518 42.4292H51.2546V43.1211H49.9462C49.8457 43.1211 49.7369 43.1034 49.6198 43.0681C49.5045 43.0327 49.3966 42.976 49.2961 42.8979C49.1976 42.8179 49.1148 42.7147 49.0479 42.5882C48.9809 42.4599 48.9474 42.3046 48.9474 42.1223V41.104C48.9474 41.0036 48.9651 40.8957 49.0004 40.7804C49.0358 40.6632 49.0925 40.5554 49.1706 40.4568C49.2506 40.3564 49.3538 40.2727 49.4803 40.2057C49.6086 40.1388 49.7639 40.1053 49.9462 40.1053H51.2546C51.355 40.1053 51.4629 40.123 51.5782 40.1583C51.6954 40.1936 51.8033 40.2513 51.9018 40.3313C52.0023 40.4094 52.086 40.5126 52.1529 40.6409C52.2199 40.7674 52.2534 40.9218 52.2534 41.104C52.2534 41.2045 52.2357 41.3133 52.2003 41.4304C52.165 41.5458 52.1074 41.6536 52.0274 41.7541C51.9493 41.8526 51.846 41.9354 51.7177 42.0024M52.2794 40.5745C52.3597 40.7263 52.3962 40.9049 52.3962 41.104C52.3962 41.2211 52.3756 41.344 52.3371 41.4717M52.2794 40.5745C52.2045 40.4311 52.1088 40.3116 51.9907 40.2195C51.8787 40.1287 51.7548 40.0624 51.6198 40.0216C51.4936 39.983 51.3716 39.9624 51.2546 39.9624H49.9462C49.7467 39.9624 49.5675 39.9991 49.4142 40.0791L49.4134 40.0795C49.2716 40.1546 49.1524 40.2503 49.0589 40.3678L49.0587 40.3681C48.9697 40.4803 48.9045 40.6041 48.8638 40.7389M49.8033 42.2213V41.2709H51.2546C51.322 41.2709 51.3559 41.252 51.3768 41.2293C51.4052 41.1966 51.4214 41.156 51.4214 41.0985C51.4214 41.0374 51.4033 41.0049 51.3779 40.9826L51.3763 40.9811C51.3449 40.9526 51.3072 40.9372 51.2546 40.9372H49.9462C49.8794 40.9372 49.846 40.9565 49.8247 40.9807L49.8233 40.9824C49.7958 41.0126 49.7793 41.0515 49.7793 41.1096V42.1223C49.7793 42.1694 49.7891 42.1999 49.8033 42.2213ZM31.5585 41.4862V40.7553H29.2653V41.4862H31.5585ZM33.1236 39.4859V38.8303H32.3982V39.4859H33.1236ZM33.1236 43.1211V40.1053H32.3982V43.1211H33.1236Z" fill="white"/>
    <g filter="url(#filter2_i_1355_145)">
        <path d="M154.139 169.371V59.4369C154.139 49.5617 146.134 41.5562 136.258 41.5562H133.278L17.053 145.199V169.371C17.053 179.246 25.0585 187.252 34.9338 187.252H136.258C146.134 187.252 154.139 179.246 154.139 169.371Z" fill="#6E4C38"/>
    </g>
    <path d="M134.934 166.722V62.0859H109.934L36.2583 127.814V166.722H134.934Z" fill="#939494"/>
    <path d="M100.828 114.404C100.828 122.816 94.0083 129.636 85.596 129.636C77.1838 129.636 70.3643 122.816 70.3643 114.404C70.3643 105.992 77.1838 99.1724 85.596 99.1724C94.0083 99.1724 100.828 105.992 100.828 114.404Z" fill="#FF911A"/>
    <path fill-rule="evenodd" clip-rule="evenodd" d="M100.538 117.377L96.0553 116.49C96.188 115.819 96.2583 115.122 96.2583 114.404C96.2583 113.686 96.188 112.989 96.0553 112.318L100.538 111.431C100.728 112.393 100.828 113.387 100.828 114.404C100.828 115.421 100.728 116.415 100.538 117.377ZM98.2623 105.941L94.4651 108.483C93.6854 107.319 92.6816 106.315 91.5169 105.535L94.0591 101.738C95.7201 102.85 97.1502 104.28 98.2623 105.941ZM88.5687 99.4623L87.6819 103.945C87.011 103.812 86.314 103.742 85.596 103.742C84.8781 103.742 84.1811 103.812 83.5102 103.945L82.6234 99.4623C83.5848 99.2721 84.5788 99.1724 85.596 99.1724C86.6133 99.1724 87.6073 99.2721 88.5687 99.4623ZM77.133 101.738L79.6751 105.535C78.5104 106.315 77.5067 107.319 76.727 108.483L72.9298 105.941C74.0419 104.28 75.472 102.85 77.133 101.738ZM70.6542 111.431C70.464 112.393 70.3643 113.387 70.3643 114.404C70.3643 115.421 70.464 116.415 70.6542 117.377L75.1368 116.49C75.0041 115.819 74.9338 115.122 74.9338 114.404C74.9338 113.686 75.0041 112.989 75.1368 112.318L70.6542 111.431ZM72.9298 122.867L76.727 120.325C77.5067 121.49 78.5104 122.493 79.6751 123.273L77.133 127.07C75.472 125.958 74.0419 124.528 72.9298 122.867ZM82.6234 129.346L83.5102 124.863C84.1811 124.996 84.8781 125.066 85.596 125.066C86.314 125.066 87.011 124.996 87.6819 124.863L88.5687 129.346C87.6073 129.536 86.6133 129.636 85.596 129.636C84.5788 129.636 83.5848 129.536 82.6234 129.346ZM94.0591 127.07L91.5169 123.273C92.6816 122.493 93.6854 121.49 94.4651 120.325L98.2623 122.867C97.1502 124.528 95.7201 125.958 94.0591 127.07Z" fill="black" fill-opacity="0.4"/>
    <g filter="url(#filter3_i_1355_145)">
        <path d="M134.934 83.9404H139.57V104.47H134.934V83.9404Z" fill="#FF4A4A"/>
    </g>
    <g filter="url(#filter4_i_1355_145)">
        <path d="M134.934 124.007H139.57V144.537H134.934V124.007Z" fill="#FF4A4A"/>
    </g>
    <path fill-rule="evenodd" clip-rule="evenodd" d="M138.965 44.8653C137.663 44.7939 135.605 44.7402 132.242 44.7019L132.299 39.7354C135.668 39.7737 137.819 39.8281 139.237 39.9059C140.603 39.9809 141.492 40.0841 142.202 40.3053C149.499 42.5797 154.938 48.844 156.282 56.4416C156.35 56.8296 156.384 57.4319 156.411 58.0682C156.44 58.7742 156.465 59.7265 156.488 60.9361C156.532 63.3582 156.565 66.863 156.588 71.5974C156.632 81.0689 156.633 95.5003 156.597 116.118L156.496 173.652L155.602 176.139C153.464 182.091 149.206 186.65 143.517 188.95L141.087 189.932L86.7939 190.039C67.365 190.077 53.7641 190.076 44.8369 190.029C40.3748 190.006 37.0695 189.971 34.7839 189.923C33.6426 189.899 32.7412 189.872 32.0709 189.841C31.4784 189.813 30.8792 189.777 30.4794 189.697C24.8706 188.58 19.5109 184.449 16.9532 179.299C16.8707 179.133 16.773 178.948 16.6674 178.749C16.3591 178.167 15.9834 177.458 15.7219 176.704C15.3331 175.584 15.1079 174.25 14.9539 172.183C14.6488 168.086 14.5822 160.356 14.5696 144.017L19.5365 144.013C19.5491 160.453 19.6191 167.948 19.9071 171.814C20.0496 173.728 20.2351 174.56 20.4142 175.076C20.5471 175.459 20.6617 175.673 20.8691 176.06C21.0002 176.305 21.1684 176.62 21.4019 177.09C23.2833 180.878 27.3679 184.013 31.4493 184.826C31.4394 184.824 31.447 184.824 31.4768 184.827C31.5576 184.834 31.8011 184.856 32.302 184.879C32.9099 184.908 33.7626 184.934 34.8872 184.957C37.1334 185.004 40.4077 185.039 44.8631 185.062C53.7706 185.109 67.3557 185.111 86.7841 185.072L140.117 184.967L141.656 184.345C145.962 182.605 149.241 179.155 150.928 174.46L151.53 172.783L151.63 116.109C151.666 95.4921 151.665 81.0747 151.621 71.6206C151.599 66.8922 151.566 63.4149 151.522 61.0279C151.5 59.833 151.475 58.924 151.448 58.2735C151.42 57.5997 151.394 57.3379 151.391 57.3091L151.391 57.3065C150.364 51.4993 146.211 46.7575 140.724 45.0472C140.659 45.0268 140.318 44.9396 138.965 44.8653ZM132.27 62.5089H111.707V57.542H132.27C136.381 57.542 139.65 60.9141 139.65 64.9952V79.8744H134.683V64.9952C134.683 63.587 133.568 62.5089 132.27 62.5089ZM134.683 120.234V108.655H139.65V120.234H134.683ZM36.5068 128.94V164.059C36.5068 165.468 37.6218 166.546 38.9194 166.546H132.27C133.568 166.546 134.683 165.468 134.683 164.059V148.022H139.65V164.059C139.65 168.14 136.381 171.513 132.27 171.513H38.9194C34.809 171.513 31.5399 168.14 31.5399 164.059V128.94H36.5068Z" fill="black"/>
    <path fill-rule="evenodd" clip-rule="evenodd" d="M138.907 102.318V86.0928C138.907 85.087 138.092 84.2716 137.086 84.2716C136.08 84.2716 135.265 85.087 135.265 86.0928V102.318C135.265 103.324 136.08 104.139 137.086 104.139C138.092 104.139 138.907 103.324 138.907 102.318ZM137.086 79.3047C133.337 79.3047 130.298 82.3438 130.298 86.0928V102.318C130.298 106.067 133.337 109.106 137.086 109.106C140.835 109.106 143.874 106.067 143.874 102.318V86.0928C143.874 82.3438 140.835 79.3047 137.086 79.3047Z" fill="black"/>
    <path fill-rule="evenodd" clip-rule="evenodd" d="M138.907 142.384V126.159C138.907 125.153 138.092 124.338 137.086 124.338C136.08 124.338 135.265 125.153 135.265 126.159V142.384C135.265 143.39 136.08 144.206 137.086 144.206C138.092 144.206 138.907 143.39 138.907 142.384ZM137.086 119.371C133.337 119.371 130.298 122.41 130.298 126.159V142.384C130.298 146.133 133.337 149.172 137.086 149.172C140.835 149.172 143.874 146.133 143.874 142.384V126.159C143.874 122.41 140.835 119.371 137.086 119.371Z" fill="black"/>
    <path fill-rule="evenodd" clip-rule="evenodd" d="M49.6688 195.033V186.589H44.7019V196.192C44.7019 198.295 46.4068 200 48.5099 200H68.0463C70.1493 200 71.8542 198.295 71.8542 196.192V186.589H66.8873V195.033H49.6688Z" fill="black"/>
    <path fill-rule="evenodd" clip-rule="evenodd" d="M104.305 195.033V186.589H99.3376V196.192C99.3376 198.295 101.043 200 103.146 200H122.682C124.785 200 126.49 198.295 126.49 196.192V186.589H121.523V195.033H104.305Z" fill="black"/>
    <g filter="url(#filter5_d_1355_145)">
        <path fill-rule="evenodd" clip-rule="evenodd" d="M156.115 20.2557C157.089 21.3472 156.994 23.0217 155.903 23.9959L4.90955 158.764C3.81807 159.738 2.14351 159.643 1.16931 158.552C0.195119 157.46 0.290198 155.786 1.38168 154.812L152.375 20.0433C153.467 19.0691 155.141 19.1642 156.115 20.2557Z" fill="black"/>
    </g>
    <g filter="url(#filter6_d_1355_145)">
        <path fill-rule="evenodd" clip-rule="evenodd" d="M90.2318 108.926C89.3478 108.851 88.8428 109.379 88.2578 109.99C87.4251 110.86 86.4302 111.9 83.9487 111.609C85.4051 111.452 86.43 110.691 87.2911 109.99C87.4377 109.672 86.0045 110.135 86.0045 110.135C86.0045 110.135 86.5645 109.475 87.4944 109.121C87.8664 108.98 87.9851 109.005 88.1372 109.037C88.1822 109.046 88.2302 109.057 88.2885 109.063C88.8556 108.629 89.948 108.775 90.2318 108.926ZM87.5879 109.479L88.2118 109.19C87.9366 109.131 87.8009 109.147 87.5879 109.248V109.479Z" fill="white"/>
        <path d="M82.8517 115.087C85.9333 113.976 87.9148 112.347 88.7541 109.912C88.1939 110.7 87.7703 111.07 86.8346 111.618C85.8961 113.088 85.0009 113.843 82.8517 115.087Z" fill="white"/>
        <path d="M78.0183 118.253C79.0337 117.451 80.699 117.024 82.4022 116.587C85.6045 115.765 88.9407 114.909 88.3438 111.47C86.7172 114.069 84.6555 114.903 82.5124 115.77C81.0139 116.377 79.4756 116.999 78.0183 118.253Z" fill="white"/>
        <path d="M81.8688 118.249C83.2765 117.858 84.5588 117.502 86.0045 115.787C85.4407 116.032 85.0915 116.157 84.3705 116.375C83.5226 117.058 82.7642 117.363 81.9318 117.698C80.7194 118.187 79.3499 118.738 77.3179 120.609C79.1067 119.016 80.5433 118.617 81.8688 118.249Z" fill="white"/>
        <path d="M81.9201 120.695C82.1856 119.595 82.5806 118.939 83.7284 117.896L82.8231 118.246C82.0266 119.513 81.967 119.953 81.9201 120.695Z" fill="white"/>
    </g>
    <defs>
        <filter id="filter0_d_1355_145" x="14.0464" y="28.3115" width="45.4172" height="26.2119" filterUnits="userSpaceOnUse" color-interpolation-filters="sRGB">
            <feFlood flood-opacity="0" result="BackgroundImageFix"/>
            <feColorMatrix in="SourceAlpha" type="matrix" values="0 0 0 0 0 0 0 0 0 0 0 0 0 0 0 0 0 0 127 0" result="hardAlpha"/>
            <feOffset dy="4"/>
            <feGaussianBlur stdDeviation="2"/>
            <feComposite in2="hardAlpha" operator="out"/>
            <feColorMatrix type="matrix" values="0 0 0 0 0 0 0 0 0 0 0 0 0 0 0 0 0 0 0.25 0"/>
            <feBlend mode="normal" in2="BackgroundImageFix" result="effect1_dropShadow_1355_145"/>
            <feBlend mode="normal" in="SourceGraphic" in2="effect1_dropShadow_1355_145" result="shape"/>
        </filter>
        <filter id="filter1_d_1355_145" x="13.9392" y="28.2041" width="45.6316" height="26.4263" filterUnits="userSpaceOnUse" color-interpolation-filters="sRGB">
            <feFlood flood-opacity="0" result="BackgroundImageFix"/>
            <feColorMatrix in="SourceAlpha" type="matrix" values="0 0 0 0 0 0 0 0 0 0 0 0 0 0 0 0 0 0 127 0" result="hardAlpha"/>
            <feOffset dy="4"/>
            <feGaussianBlur stdDeviation="2"/>
            <feComposite in2="hardAlpha" operator="out"/>
            <feColorMatrix type="matrix" values="0 0 0 0 0 0 0 0 0 0 0 0 0 0 0 0 0 0 0.25 0"/>
            <feBlend mode="normal" in2="BackgroundImageFix" result="effect1_dropShadow_1355_145"/>
            <feBlend mode="normal" in="SourceGraphic" in2="effect1_dropShadow_1355_145" result="shape"/>
        </filter>
        <filter id="filter2_i_1355_145" x="17.053" y="41.5562" width="137.086" height="145.695" filterUnits="userSpaceOnUse" color-interpolation-filters="sRGB">
            <feFlood flood-opacity="0" result="BackgroundImageFix"/>
            <feBlend mode="normal" in="SourceGraphic" in2="BackgroundImageFix" result="shape"/>
            <feColorMatrix in="SourceAlpha" type="matrix" values="0 0 0 0 0 0 0 0 0 0 0 0 0 0 0 0 0 0 127 0" result="hardAlpha"/>
            <feOffset dx="-17" dy="-16"/>
            <feComposite in2="hardAlpha" operator="arithmetic" k2="-1" k3="1"/>
            <feColorMatrix type="matrix" values="0 0 0 0 0 0 0 0 0 0 0 0 0 0 0 0 0 0 0.25 0"/>
            <feBlend mode="normal" in2="shape" result="effect1_innerShadow_1355_145"/>
        </filter>
        <filter id="filter3_i_1355_145" x="134.934" y="83.9404" width="4.63574" height="20.5298" filterUnits="userSpaceOnUse" color-interpolation-filters="sRGB">
            <feFlood flood-opacity="0" result="BackgroundImageFix"/>
            <feBlend mode="normal" in="SourceGraphic" in2="BackgroundImageFix" result="shape"/>
            <feColorMatrix in="SourceAlpha" type="matrix" values="0 0 0 0 0 0 0 0 0 0 0 0 0 0 0 0 0 0 127 0" result="hardAlpha"/>
            <feOffset dx="-6"/>
            <feComposite in2="hardAlpha" operator="arithmetic" k2="-1" k3="1"/>
            <feColorMatrix type="matrix" values="0 0 0 0 0 0 0 0 0 0 0 0 0 0 0 0 0 0 0.25 0"/>
            <feBlend mode="normal" in2="shape" result="effect1_innerShadow_1355_145"/>
        </filter>
        <filter id="filter4_i_1355_145" x="134.934" y="124.007" width="4.63574" height="20.5298" filterUnits="userSpaceOnUse" color-interpolation-filters="sRGB">
            <feFlood flood-opacity="0" result="BackgroundImageFix"/>
            <feBlend mode="normal" in="SourceGraphic" in2="BackgroundImageFix" result="shape"/>
            <feColorMatrix in="SourceAlpha" type="matrix" values="0 0 0 0 0 0 0 0 0 0 0 0 0 0 0 0 0 0 127 0" result="hardAlpha"/>
            <feOffset dx="-6"/>
            <feComposite in2="hardAlpha" operator="arithmetic" k2="-1" k3="1"/>
            <feColorMatrix type="matrix" values="0 0 0 0 0 0 0 0 0 0 0 0 0 0 0 0 0 0 0.25 0"/>
            <feBlend mode="normal" in2="shape" result="effect1_innerShadow_1355_145"/>
        </filter>
        <filter id="filter5_d_1355_145" x="0.496582" y="19.3706" width="161.292" height="144.066" filterUnits="userSpaceOnUse" color-interpolation-filters="sRGB">
            <feFlood flood-opacity="0" result="BackgroundImageFix"/>
            <feColorMatrix in="SourceAlpha" type="matrix" values="0 0 0 0 0 0 0 0 0 0 0 0 0 0 0 0 0 0 127 0" result="hardAlpha"/>
            <feOffset dx="5" dy="4"/>
            <feComposite in2="hardAlpha" operator="out"/>
            <feColorMatrix type="matrix" values="0 0 0 0 0 0 0 0 0 0 0 0 0 0 0 0 0 0 0.25 0"/>
            <feBlend mode="normal" in2="BackgroundImageFix" result="effect1_dropShadow_1355_145"/>
            <feBlend mode="normal" in="SourceGraphic" in2="effect1_dropShadow_1355_145" result="shape"/>
        </filter>
        <filter id="filter6_d_1355_145" x="77.3179" y="108.775" width="16.9138" height="15.9204" filterUnits="userSpaceOnUse" color-interpolation-filters="sRGB">
            <feFlood flood-opacity="0" result="BackgroundImageFix"/>
            <feColorMatrix in="SourceAlpha" type="matrix" values="0 0 0 0 0 0 0 0 0 0 0 0 0 0 0 0 0 0 127 0" result="hardAlpha"/>
            <feOffset dx="4" dy="4"/>
            <feComposite in2="hardAlpha" operator="out"/>
            <feColorMatrix type="matrix" values="0 0 0 0 0 0 0 0 0 0 0 0 0 0 0 0 0 0 0.1 0"/>
            <feBlend mode="normal" in2="BackgroundImageFix" result="effect1_dropShadow_1355_145"/>
            <feBlend mode="normal" in="SourceGraphic" in2="effect1_dropShadow_1355_145" result="shape"/>
        </filter>
    </defs>
</svg>
