<svg width="98" height="132" viewBox="0 0 98 132" fill="none" xmlns="http://www.w3.org/2000/svg">
    <g filter="url(#filter0_i_1300_1340)">
        <rect x="3.11279" y="100.294" width="52.9379" height="28.3596" rx="2.83596" fill="#FF911A"/>
    </g>
    <path fill-rule="evenodd" clip-rule="evenodd" d="M36.396 105.698C35.8801 105.098 35.2653 105.075 34.5531 105.048C33.5392 105.01 32.3279 104.965 30.9237 103.235C31.9316 104.067 33.0058 104.287 33.9423 104.438C34.2136 104.352 33.0486 103.707 33.0486 103.707C33.0486 103.707 33.7727 103.69 34.5582 104.079C34.8725 104.235 34.9333 104.324 35.0113 104.438C35.0344 104.471 35.059 104.507 35.0921 104.548C35.694 104.662 36.3018 105.434 36.396 105.698ZM34.4163 104.339L34.9727 104.57C34.8321 104.364 34.737 104.287 34.5463 104.209L34.4163 104.339Z" fill="black"/>
    <path d="M28.281 104.493C30.8497 105.816 33.0146 106.154 34.91 105.318C34.1143 105.406 33.6394 105.346 32.7412 105.063C31.3246 105.294 30.3355 105.152 28.281 104.493Z" fill="black"/>
    <path d="M23.4537 103.215C24.5441 103.407 25.8354 104.219 27.1561 105.05C29.6392 106.611 32.2262 108.238 33.7773 105.933C31.2927 106.363 29.5231 105.529 27.6835 104.662C26.3972 104.055 25.0767 103.433 23.4537 103.215Z" fill="black"/>
    <path d="M25.8872 105.645C26.9953 106.315 28.0048 106.925 29.8794 106.876C29.3858 106.658 29.0954 106.507 28.5176 106.174C27.5996 106.021 26.9494 105.714 26.2358 105.376C25.1963 104.884 24.0222 104.329 21.6898 104.095C23.7129 104.331 24.8438 105.014 25.8872 105.645Z" fill="black"/>
    <path d="M24.5478 107.049C25.3324 106.6 25.9498 106.481 27.2593 106.621L26.4918 106.246C25.2782 106.453 24.9939 106.662 24.5478 107.049Z" fill="black"/>
    <circle cx="14.7403" cy="94.9061" r="6.71176" fill="#CA3434"/>
    <circle cx="13.795" cy="93.9608" r="5.76644" fill="#FF4040"/>
    <circle cx="14.8347" cy="114.664" r="5.48285" fill="#524105"/>
    <circle cx="37.7117" cy="119.39" r="3.78128" fill="#CA3434"/>
    <circle cx="36.3883" cy="118.634" r="3.40315" fill="#FF4040"/>
    <circle cx="47.3535" cy="109.559" r="3.78128" fill="#7FCA34"/>
    <circle cx="46.5977" cy="108.235" r="3.40315" fill="#66FF40"/>
    <rect x="12.5659" y="103.508" width="4.91566" height="12.1001" fill="white"/>
    <rect x="15.4023" y="103.508" width="2.0797" height="12.1001" fill="#DDDDDD"/>
    <mask id="path-12-outside-1_1300_1340" maskUnits="userSpaceOnUse" x="0.316895" y="82.6646" width="58" height="49" fill="black">
        <rect fill="white" x="0.316895" y="82.6646" width="58" height="49"/>
        <path fill-rule="evenodd" clip-rule="evenodd" d="M28.9325 83.9663C28.5963 84.2689 28.5952 84.2738 28.7211 84.879C28.9393 85.9271 29.5838 86.7905 30.5087 87.2738C30.9232 87.4901 31.3205 87.5114 37.1502 87.6291C41.6319 87.7196 41.5524 87.707 42.2372 88.4372C43.4814 89.7639 43.2027 91.7833 41.6421 92.751C41.2499 92.9942 41.1555 92.9999 36.1704 93.0848L31.0979 93.1711L30.523 93.4533C29.8463 93.7855 29.2197 94.4426 28.9101 95.1449C28.7401 95.5305 28.675 95.9785 28.631 97.0667L28.5737 98.4856H25.6243H22.6749L22.9346 97.6651C23.5234 95.8048 23.5052 94.0472 22.8781 92.2065C22.4316 90.8964 21.9598 90.1616 20.8279 89.0137C19.9472 88.1207 19.697 87.938 18.6779 87.4447C17.1272 86.6938 16.1832 86.4971 14.4561 86.565C12.096 86.6577 10.6481 87.3085 8.85435 89.0827C7.96072 89.9666 7.71242 90.293 7.29202 91.1369C6.51813 92.6907 6.405 93.1945 6.41173 95.0563C6.41691 96.4618 6.45219 96.7673 6.69685 97.5248C6.89212 98.129 6.93754 98.4017 6.84779 98.4305C6.77723 98.4533 6.07446 98.4903 5.28612 98.5128C4.13251 98.5458 3.75334 98.5987 3.34319 98.7838C2.64978 99.0967 1.96597 99.7406 1.6115 100.415L1.31689 100.975V114.581V128.188L1.64414 128.781C2.05219 129.52 2.66643 130.056 3.43723 130.345C4.02755 130.567 4.19679 130.568 29.6318 130.54L55.2323 130.511L55.7448 130.273C56.4001 129.969 57.1181 129.249 57.421 128.592L57.6579 128.077V114.526V100.975L57.4029 100.455C57.0775 99.7924 56.4106 99.1233 55.7499 98.7968L55.2323 98.5409L42.8008 98.5114L30.3694 98.4819L30.3699 97.1839C30.3702 96.0772 30.4031 95.832 30.5928 95.5198C31.0218 94.8137 31.1063 94.8025 36.5462 94.7324L41.4552 94.6691L42.1883 94.3069C43.0431 93.8846 43.9391 92.9732 44.3333 92.1248C44.5536 91.6507 44.5905 91.3965 44.5914 90.3449C44.5924 89.1979 44.5707 89.0741 44.2568 88.4439C43.8634 87.6542 42.8952 86.7004 42.0981 86.3176C41.5805 86.0691 41.4202 86.0561 37.8117 85.9723C30.8137 85.8097 31.2912 85.8368 30.951 85.5837C30.7633 85.444 30.5567 85.1094 30.4163 84.7177C30.1863 84.0764 29.8172 83.6692 29.4616 83.6646C29.3564 83.6632 29.1183 83.799 28.9325 83.9663ZM16.319 88.315C16.6789 88.3796 17.395 88.6399 17.9105 88.8934C19.5837 89.7164 20.865 91.2531 21.435 93.1204C21.724 94.067 21.7518 95.6708 21.4965 96.6603C20.9969 98.5957 19.6318 100.289 17.902 101.119C16.6505 101.719 15.9997 101.845 14.479 101.779C13.4842 101.737 13.0718 101.666 12.4862 101.44C8.63615 99.9525 6.92354 95.6415 8.71973 91.9589C9.47179 90.4171 11.1961 88.9672 12.9459 88.4053C13.6538 88.178 15.3083 88.1337 16.319 88.315ZM8.49988 100.693C9.12084 101.386 10.0621 102.098 11.0027 102.586L11.7353 102.966L11.7357 105.368L11.7361 107.771L11.1573 108.145C9.41346 109.271 8.10086 111.01 7.69975 112.727C7.43083 113.879 7.53083 115.88 7.91122 116.957C8.63847 119.017 10.4138 120.745 12.5879 121.507C13.4788 121.82 15.388 121.906 16.4402 121.68C17.9967 121.347 19.813 120.198 20.6893 118.992C21.1972 118.293 21.6995 117.283 21.9498 116.456C22.2559 115.445 22.2268 113.27 21.8943 112.314C21.3349 110.705 20.0111 109.031 18.652 108.216L18.0207 107.837V105.394V102.951L18.4335 102.754C19.2008 102.387 20.2773 101.594 20.9945 100.868L21.7079 100.145L37.9739 100.147C53.5714 100.15 54.258 100.158 54.681 100.355C54.9235 100.467 55.2558 100.703 55.4194 100.878C56.0953 101.601 56.0592 100.824 56.0592 114.61V127.201L55.8111 127.693C55.6661 127.981 55.3645 128.323 55.085 128.518L54.6069 128.852L29.6068 128.88L4.60683 128.908L4.1195 128.65C3.85158 128.508 3.48343 128.18 3.30151 127.921L2.97074 127.45L2.9413 114.784C2.92112 106.051 2.94858 101.982 3.02984 101.679C3.17273 101.147 3.82997 100.457 4.35413 100.289C4.5635 100.222 5.47146 100.162 6.37182 100.156L8.00879 100.145L8.49988 100.693ZM16.3473 109.208C16.3126 114.809 16.306 114.96 16.0841 115.265C15.3316 116.297 13.8336 116.069 13.5022 114.872C13.4346 114.627 13.391 112.322 13.3906 108.967L13.39 103.464H14.8864H16.3827L16.3473 109.208ZM46.3407 104.605C45.1323 105.018 44.271 105.739 43.5564 106.934C42.0801 109.405 43.1087 112.676 45.776 113.994C46.5006 114.352 46.55 114.36 47.9588 114.36C49.3833 114.36 49.409 114.356 50.1482 113.979C51.152 113.468 52.016 112.597 52.4771 111.632C53.4709 109.551 53.1079 107.428 51.4857 105.832C51.0934 105.446 50.5743 105.029 50.332 104.905C49.1613 104.306 47.5662 104.186 46.3407 104.605ZM49.502 106.392C50.6627 106.962 51.3119 108.008 51.3157 109.314C51.3191 110.45 51.1505 110.916 50.4694 111.654C49.7072 112.48 49.0072 112.798 47.9553 112.794C46.6153 112.79 45.5508 112.148 44.9183 110.963C44.4172 110.025 44.3948 109.05 44.8514 108.055C45.2956 107.086 45.8375 106.569 46.8528 106.148C47.4057 105.918 48.798 106.046 49.502 106.392ZM11.7317 112.69L11.8023 115.501L12.1298 116.033C12.9622 117.384 14.6681 117.951 16.0975 117.351C16.6392 117.124 17.3439 116.429 17.6636 115.805C17.9456 115.255 17.9518 115.195 17.9992 112.507C18.0258 111.001 18.0867 109.769 18.1346 109.769C18.1825 109.769 18.5256 110.102 18.8971 110.509C20.5895 112.362 21.0044 114.799 19.9915 116.937C19.5748 117.816 18.3779 119.07 17.5163 119.53C14.9446 120.903 11.6477 120.038 10.0586 117.573C9.38733 116.531 9.16296 115.628 9.22161 114.201C9.26605 113.118 9.30607 112.935 9.66341 112.18C9.92747 111.622 10.3009 111.089 10.8018 110.557C11.2117 110.121 11.5728 109.79 11.6041 109.821C11.6355 109.853 11.6928 111.143 11.7317 112.69ZM36.2377 114.744C35.4275 115.037 34.9293 115.353 34.2498 116.009C32.1835 118.001 32.1676 121.124 34.2136 123.149C34.9883 123.916 35.7555 124.333 36.789 124.551C39.71 125.166 42.5734 123.013 42.801 120.031C42.9863 117.603 41.5543 115.443 39.2902 114.736C38.3963 114.456 37.0236 114.46 36.2377 114.744ZM39.0247 116.416C41.1791 117.225 41.8794 120.094 40.3414 121.811C39.2816 122.993 37.793 123.31 36.3483 122.659C35.0543 122.077 34.3968 121.032 34.3976 119.559C34.398 118.815 34.445 118.585 34.693 118.109C35.0542 117.418 35.9472 116.591 36.5741 116.368C37.2642 116.123 38.298 116.143 39.0247 116.416Z"/>
    </mask>
    <path fill-rule="evenodd" clip-rule="evenodd" d="M28.9325 83.9663C28.5963 84.2689 28.5952 84.2738 28.7211 84.879C28.9393 85.9271 29.5838 86.7905 30.5087 87.2738C30.9232 87.4901 31.3205 87.5114 37.1502 87.6291C41.6319 87.7196 41.5524 87.707 42.2372 88.4372C43.4814 89.7639 43.2027 91.7833 41.6421 92.751C41.2499 92.9942 41.1555 92.9999 36.1704 93.0848L31.0979 93.1711L30.523 93.4533C29.8463 93.7855 29.2197 94.4426 28.9101 95.1449C28.7401 95.5305 28.675 95.9785 28.631 97.0667L28.5737 98.4856H25.6243H22.6749L22.9346 97.6651C23.5234 95.8048 23.5052 94.0472 22.8781 92.2065C22.4316 90.8964 21.9598 90.1616 20.8279 89.0137C19.9472 88.1207 19.697 87.938 18.6779 87.4447C17.1272 86.6938 16.1832 86.4971 14.4561 86.565C12.096 86.6577 10.6481 87.3085 8.85435 89.0827C7.96072 89.9666 7.71242 90.293 7.29202 91.1369C6.51813 92.6907 6.405 93.1945 6.41173 95.0563C6.41691 96.4618 6.45219 96.7673 6.69685 97.5248C6.89212 98.129 6.93754 98.4017 6.84779 98.4305C6.77723 98.4533 6.07446 98.4903 5.28612 98.5128C4.13251 98.5458 3.75334 98.5987 3.34319 98.7838C2.64978 99.0967 1.96597 99.7406 1.6115 100.415L1.31689 100.975V114.581V128.188L1.64414 128.781C2.05219 129.52 2.66643 130.056 3.43723 130.345C4.02755 130.567 4.19679 130.568 29.6318 130.54L55.2323 130.511L55.7448 130.273C56.4001 129.969 57.1181 129.249 57.421 128.592L57.6579 128.077V114.526V100.975L57.4029 100.455C57.0775 99.7924 56.4106 99.1233 55.7499 98.7968L55.2323 98.5409L42.8008 98.5114L30.3694 98.4819L30.3699 97.1839C30.3702 96.0772 30.4031 95.832 30.5928 95.5198C31.0218 94.8137 31.1063 94.8025 36.5462 94.7324L41.4552 94.6691L42.1883 94.3069C43.0431 93.8846 43.9391 92.9732 44.3333 92.1248C44.5536 91.6507 44.5905 91.3965 44.5914 90.3449C44.5924 89.1979 44.5707 89.0741 44.2568 88.4439C43.8634 87.6542 42.8952 86.7004 42.0981 86.3176C41.5805 86.0691 41.4202 86.0561 37.8117 85.9723C30.8137 85.8097 31.2912 85.8368 30.951 85.5837C30.7633 85.444 30.5567 85.1094 30.4163 84.7177C30.1863 84.0764 29.8172 83.6692 29.4616 83.6646C29.3564 83.6632 29.1183 83.799 28.9325 83.9663ZM16.319 88.315C16.6789 88.3796 17.395 88.6399 17.9105 88.8934C19.5837 89.7164 20.865 91.2531 21.435 93.1204C21.724 94.067 21.7518 95.6708 21.4965 96.6603C20.9969 98.5957 19.6318 100.289 17.902 101.119C16.6505 101.719 15.9997 101.845 14.479 101.779C13.4842 101.737 13.0718 101.666 12.4862 101.44C8.63615 99.9525 6.92354 95.6415 8.71973 91.9589C9.47179 90.4171 11.1961 88.9672 12.9459 88.4053C13.6538 88.178 15.3083 88.1337 16.319 88.315ZM8.49988 100.693C9.12084 101.386 10.0621 102.098 11.0027 102.586L11.7353 102.966L11.7357 105.368L11.7361 107.771L11.1573 108.145C9.41346 109.271 8.10086 111.01 7.69975 112.727C7.43083 113.879 7.53083 115.88 7.91122 116.957C8.63847 119.017 10.4138 120.745 12.5879 121.507C13.4788 121.82 15.388 121.906 16.4402 121.68C17.9967 121.347 19.813 120.198 20.6893 118.992C21.1972 118.293 21.6995 117.283 21.9498 116.456C22.2559 115.445 22.2268 113.27 21.8943 112.314C21.3349 110.705 20.0111 109.031 18.652 108.216L18.0207 107.837V105.394V102.951L18.4335 102.754C19.2008 102.387 20.2773 101.594 20.9945 100.868L21.7079 100.145L37.9739 100.147C53.5714 100.15 54.258 100.158 54.681 100.355C54.9235 100.467 55.2558 100.703 55.4194 100.878C56.0953 101.601 56.0592 100.824 56.0592 114.61V127.201L55.8111 127.693C55.6661 127.981 55.3645 128.323 55.085 128.518L54.6069 128.852L29.6068 128.88L4.60683 128.908L4.1195 128.65C3.85158 128.508 3.48343 128.18 3.30151 127.921L2.97074 127.45L2.9413 114.784C2.92112 106.051 2.94858 101.982 3.02984 101.679C3.17273 101.147 3.82997 100.457 4.35413 100.289C4.5635 100.222 5.47146 100.162 6.37182 100.156L8.00879 100.145L8.49988 100.693ZM16.3473 109.208C16.3126 114.809 16.306 114.96 16.0841 115.265C15.3316 116.297 13.8336 116.069 13.5022 114.872C13.4346 114.627 13.391 112.322 13.3906 108.967L13.39 103.464H14.8864H16.3827L16.3473 109.208ZM46.3407 104.605C45.1323 105.018 44.271 105.739 43.5564 106.934C42.0801 109.405 43.1087 112.676 45.776 113.994C46.5006 114.352 46.55 114.36 47.9588 114.36C49.3833 114.36 49.409 114.356 50.1482 113.979C51.152 113.468 52.016 112.597 52.4771 111.632C53.4709 109.551 53.1079 107.428 51.4857 105.832C51.0934 105.446 50.5743 105.029 50.332 104.905C49.1613 104.306 47.5662 104.186 46.3407 104.605ZM49.502 106.392C50.6627 106.962 51.3119 108.008 51.3157 109.314C51.3191 110.45 51.1505 110.916 50.4694 111.654C49.7072 112.48 49.0072 112.798 47.9553 112.794C46.6153 112.79 45.5508 112.148 44.9183 110.963C44.4172 110.025 44.3948 109.05 44.8514 108.055C45.2956 107.086 45.8375 106.569 46.8528 106.148C47.4057 105.918 48.798 106.046 49.502 106.392ZM11.7317 112.69L11.8023 115.501L12.1298 116.033C12.9622 117.384 14.6681 117.951 16.0975 117.351C16.6392 117.124 17.3439 116.429 17.6636 115.805C17.9456 115.255 17.9518 115.195 17.9992 112.507C18.0258 111.001 18.0867 109.769 18.1346 109.769C18.1825 109.769 18.5256 110.102 18.8971 110.509C20.5895 112.362 21.0044 114.799 19.9915 116.937C19.5748 117.816 18.3779 119.07 17.5163 119.53C14.9446 120.903 11.6477 120.038 10.0586 117.573C9.38733 116.531 9.16296 115.628 9.22161 114.201C9.26605 113.118 9.30607 112.935 9.66341 112.18C9.92747 111.622 10.3009 111.089 10.8018 110.557C11.2117 110.121 11.5728 109.79 11.6041 109.821C11.6355 109.853 11.6928 111.143 11.7317 112.69ZM36.2377 114.744C35.4275 115.037 34.9293 115.353 34.2498 116.009C32.1835 118.001 32.1676 121.124 34.2136 123.149C34.9883 123.916 35.7555 124.333 36.789 124.551C39.71 125.166 42.5734 123.013 42.801 120.031C42.9863 117.603 41.5543 115.443 39.2902 114.736C38.3963 114.456 37.0236 114.46 36.2377 114.744ZM39.0247 116.416C41.1791 117.225 41.8794 120.094 40.3414 121.811C39.2816 122.993 37.793 123.31 36.3483 122.659C35.0543 122.077 34.3968 121.032 34.3976 119.559C34.398 118.815 34.445 118.585 34.693 118.109C35.0542 117.418 35.9472 116.591 36.5741 116.368C37.2642 116.123 38.298 116.143 39.0247 116.416Z" fill="black"/>
    <path fill-rule="evenodd" clip-rule="evenodd" d="M28.9325 83.9663C28.5963 84.2689 28.5952 84.2738 28.7211 84.879C28.9393 85.9271 29.5838 86.7905 30.5087 87.2738C30.9232 87.4901 31.3205 87.5114 37.1502 87.6291C41.6319 87.7196 41.5524 87.707 42.2372 88.4372C43.4814 89.7639 43.2027 91.7833 41.6421 92.751C41.2499 92.9942 41.1555 92.9999 36.1704 93.0848L31.0979 93.1711L30.523 93.4533C29.8463 93.7855 29.2197 94.4426 28.9101 95.1449C28.7401 95.5305 28.675 95.9785 28.631 97.0667L28.5737 98.4856H25.6243H22.6749L22.9346 97.6651C23.5234 95.8048 23.5052 94.0472 22.8781 92.2065C22.4316 90.8964 21.9598 90.1616 20.8279 89.0137C19.9472 88.1207 19.697 87.938 18.6779 87.4447C17.1272 86.6938 16.1832 86.4971 14.4561 86.565C12.096 86.6577 10.6481 87.3085 8.85435 89.0827C7.96072 89.9666 7.71242 90.293 7.29202 91.1369C6.51813 92.6907 6.405 93.1945 6.41173 95.0563C6.41691 96.4618 6.45219 96.7673 6.69685 97.5248C6.89212 98.129 6.93754 98.4017 6.84779 98.4305C6.77723 98.4533 6.07446 98.4903 5.28612 98.5128C4.13251 98.5458 3.75334 98.5987 3.34319 98.7838C2.64978 99.0967 1.96597 99.7406 1.6115 100.415L1.31689 100.975V114.581V128.188L1.64414 128.781C2.05219 129.52 2.66643 130.056 3.43723 130.345C4.02755 130.567 4.19679 130.568 29.6318 130.54L55.2323 130.511L55.7448 130.273C56.4001 129.969 57.1181 129.249 57.421 128.592L57.6579 128.077V114.526V100.975L57.4029 100.455C57.0775 99.7924 56.4106 99.1233 55.7499 98.7968L55.2323 98.5409L42.8008 98.5114L30.3694 98.4819L30.3699 97.1839C30.3702 96.0772 30.4031 95.832 30.5928 95.5198C31.0218 94.8137 31.1063 94.8025 36.5462 94.7324L41.4552 94.6691L42.1883 94.3069C43.0431 93.8846 43.9391 92.9732 44.3333 92.1248C44.5536 91.6507 44.5905 91.3965 44.5914 90.3449C44.5924 89.1979 44.5707 89.0741 44.2568 88.4439C43.8634 87.6542 42.8952 86.7004 42.0981 86.3176C41.5805 86.0691 41.4202 86.0561 37.8117 85.9723C30.8137 85.8097 31.2912 85.8368 30.951 85.5837C30.7633 85.444 30.5567 85.1094 30.4163 84.7177C30.1863 84.0764 29.8172 83.6692 29.4616 83.6646C29.3564 83.6632 29.1183 83.799 28.9325 83.9663ZM16.319 88.315C16.6789 88.3796 17.395 88.6399 17.9105 88.8934C19.5837 89.7164 20.865 91.2531 21.435 93.1204C21.724 94.067 21.7518 95.6708 21.4965 96.6603C20.9969 98.5957 19.6318 100.289 17.902 101.119C16.6505 101.719 15.9997 101.845 14.479 101.779C13.4842 101.737 13.0718 101.666 12.4862 101.44C8.63615 99.9525 6.92354 95.6415 8.71973 91.9589C9.47179 90.4171 11.1961 88.9672 12.9459 88.4053C13.6538 88.178 15.3083 88.1337 16.319 88.315ZM8.49988 100.693C9.12084 101.386 10.0621 102.098 11.0027 102.586L11.7353 102.966L11.7357 105.368L11.7361 107.771L11.1573 108.145C9.41346 109.271 8.10086 111.01 7.69975 112.727C7.43083 113.879 7.53083 115.88 7.91122 116.957C8.63847 119.017 10.4138 120.745 12.5879 121.507C13.4788 121.82 15.388 121.906 16.4402 121.68C17.9967 121.347 19.813 120.198 20.6893 118.992C21.1972 118.293 21.6995 117.283 21.9498 116.456C22.2559 115.445 22.2268 113.27 21.8943 112.314C21.3349 110.705 20.0111 109.031 18.652 108.216L18.0207 107.837V105.394V102.951L18.4335 102.754C19.2008 102.387 20.2773 101.594 20.9945 100.868L21.7079 100.145L37.9739 100.147C53.5714 100.15 54.258 100.158 54.681 100.355C54.9235 100.467 55.2558 100.703 55.4194 100.878C56.0953 101.601 56.0592 100.824 56.0592 114.61V127.201L55.8111 127.693C55.6661 127.981 55.3645 128.323 55.085 128.518L54.6069 128.852L29.6068 128.88L4.60683 128.908L4.1195 128.65C3.85158 128.508 3.48343 128.18 3.30151 127.921L2.97074 127.45L2.9413 114.784C2.92112 106.051 2.94858 101.982 3.02984 101.679C3.17273 101.147 3.82997 100.457 4.35413 100.289C4.5635 100.222 5.47146 100.162 6.37182 100.156L8.00879 100.145L8.49988 100.693ZM16.3473 109.208C16.3126 114.809 16.306 114.96 16.0841 115.265C15.3316 116.297 13.8336 116.069 13.5022 114.872C13.4346 114.627 13.391 112.322 13.3906 108.967L13.39 103.464H14.8864H16.3827L16.3473 109.208ZM46.3407 104.605C45.1323 105.018 44.271 105.739 43.5564 106.934C42.0801 109.405 43.1087 112.676 45.776 113.994C46.5006 114.352 46.55 114.36 47.9588 114.36C49.3833 114.36 49.409 114.356 50.1482 113.979C51.152 113.468 52.016 112.597 52.4771 111.632C53.4709 109.551 53.1079 107.428 51.4857 105.832C51.0934 105.446 50.5743 105.029 50.332 104.905C49.1613 104.306 47.5662 104.186 46.3407 104.605ZM49.502 106.392C50.6627 106.962 51.3119 108.008 51.3157 109.314C51.3191 110.45 51.1505 110.916 50.4694 111.654C49.7072 112.48 49.0072 112.798 47.9553 112.794C46.6153 112.79 45.5508 112.148 44.9183 110.963C44.4172 110.025 44.3948 109.05 44.8514 108.055C45.2956 107.086 45.8375 106.569 46.8528 106.148C47.4057 105.918 48.798 106.046 49.502 106.392ZM11.7317 112.69L11.8023 115.501L12.1298 116.033C12.9622 117.384 14.6681 117.951 16.0975 117.351C16.6392 117.124 17.3439 116.429 17.6636 115.805C17.9456 115.255 17.9518 115.195 17.9992 112.507C18.0258 111.001 18.0867 109.769 18.1346 109.769C18.1825 109.769 18.5256 110.102 18.8971 110.509C20.5895 112.362 21.0044 114.799 19.9915 116.937C19.5748 117.816 18.3779 119.07 17.5163 119.53C14.9446 120.903 11.6477 120.038 10.0586 117.573C9.38733 116.531 9.16296 115.628 9.22161 114.201C9.26605 113.118 9.30607 112.935 9.66341 112.18C9.92747 111.622 10.3009 111.089 10.8018 110.557C11.2117 110.121 11.5728 109.79 11.6041 109.821C11.6355 109.853 11.6928 111.143 11.7317 112.69ZM36.2377 114.744C35.4275 115.037 34.9293 115.353 34.2498 116.009C32.1835 118.001 32.1676 121.124 34.2136 123.149C34.9883 123.916 35.7555 124.333 36.789 124.551C39.71 125.166 42.5734 123.013 42.801 120.031C42.9863 117.603 41.5543 115.443 39.2902 114.736C38.3963 114.456 37.0236 114.46 36.2377 114.744ZM39.0247 116.416C41.1791 117.225 41.8794 120.094 40.3414 121.811C39.2816 122.993 37.793 123.31 36.3483 122.659C35.0543 122.077 34.3968 121.032 34.3976 119.559C34.398 118.815 34.445 118.585 34.693 118.109C35.0542 117.418 35.9472 116.591 36.5741 116.368C37.2642 116.123 38.298 116.143 39.0247 116.416Z" stroke="black" stroke-width="1.13438" mask="url(#path-12-outside-1_1300_1340)"/>
    <path d="M38.3958 120.066H38.1078V119.676H37.0952V120.066H36.8072V119.272C36.8072 119.156 36.8271 119.049 36.867 118.952C36.9069 118.854 36.9623 118.771 37.0332 118.7C37.1041 118.63 37.1879 118.576 37.2847 118.537C37.3814 118.497 37.487 118.478 37.6015 118.478H38.2507C38.2706 118.478 38.2894 118.482 38.3072 118.489C38.3249 118.496 38.3404 118.507 38.3537 118.52C38.367 118.533 38.3773 118.549 38.3847 118.566C38.3921 118.584 38.3958 118.603 38.3958 118.623V120.066ZM37.0952 119.388H38.1078V118.766H37.6015C37.5926 118.766 37.5738 118.767 37.545 118.77C37.5169 118.773 37.4841 118.779 37.4464 118.789C37.4095 118.799 37.3703 118.815 37.329 118.837C37.2876 118.858 37.2496 118.888 37.2149 118.925C37.1802 118.963 37.1514 119.01 37.1285 119.067C37.1063 119.123 37.0952 119.192 37.0952 119.272V119.388Z" fill="black"/>
    <path d="M48.7548 109.508C48.7548 109.543 48.7486 109.581 48.736 109.622C48.7242 109.663 48.7042 109.7 48.6762 109.735C48.6489 109.77 48.613 109.799 48.5687 109.823C48.5244 109.845 48.4701 109.857 48.4059 109.857H47.3125C47.2918 109.857 47.2726 109.853 47.2549 109.846C47.2372 109.838 47.2216 109.829 47.2083 109.816C47.1958 109.803 47.1858 109.787 47.1784 109.769C47.1711 109.752 47.1674 109.732 47.1674 109.712V108.413C47.1674 108.394 47.1711 108.375 47.1784 108.357C47.1858 108.339 47.1958 108.324 47.2083 108.31C47.2216 108.297 47.2372 108.287 47.2549 108.279C47.2726 108.272 47.2918 108.268 47.3125 108.268H48.2763C48.3117 108.268 48.3497 108.275 48.3904 108.287C48.431 108.3 48.4687 108.32 48.5034 108.348C48.5388 108.375 48.568 108.411 48.5909 108.456C48.6145 108.5 48.6263 108.554 48.6263 108.618V108.673C48.6263 108.724 48.6178 108.779 48.6008 108.838C48.5839 108.896 48.5565 108.951 48.5189 109.004C48.5514 109.024 48.5816 109.048 48.6097 109.076C48.6385 109.104 48.6636 109.136 48.685 109.173C48.7065 109.21 48.7234 109.252 48.736 109.299C48.7486 109.345 48.7548 109.396 48.7548 109.453V109.508ZM48.4668 109.453C48.4668 109.415 48.4609 109.381 48.4491 109.352C48.4373 109.321 48.4206 109.296 48.3992 109.274C48.3778 109.253 48.352 109.237 48.3217 109.225C48.2914 109.214 48.2574 109.208 48.2198 109.208H47.5706V108.918H48.0902C48.1278 108.918 48.1618 108.912 48.1921 108.901C48.2224 108.889 48.2482 108.872 48.2696 108.851C48.291 108.83 48.3073 108.804 48.3184 108.775C48.3302 108.744 48.3361 108.71 48.3361 108.673V108.618C48.3361 108.577 48.3161 108.556 48.2763 108.556H47.4554V109.569H48.4059C48.411 109.569 48.4173 109.569 48.4247 109.568C48.4321 109.567 48.4387 109.565 48.4446 109.561C48.4506 109.557 48.4557 109.551 48.4602 109.542C48.4646 109.533 48.4668 109.521 48.4668 109.506V109.453Z" fill="black"/>
    <rect x="2.16772" y="21.0771" width="93.2084" height="60.8785" rx="6.2391" fill="#4B3325"/>
    <rect x="2.16772" y="21.0771" width="89.6162" height="58.6098" rx="6.2391" fill="#6F4C38"/>
    <rect x="8.78491" y="29.396" width="63.3364" height="44.619" rx="2.83596" fill="#24323F"/>
    <rect x="11.8096" y="32.2314" width="60.8785" height="42.5393" rx="2.83596" fill="#1A232C"/>
    <path d="M39.0352 20.5099C39.0352 16.2288 42.5057 12.7583 46.7868 12.7583H50.9462C55.2273 12.7583 58.6978 16.2288 58.6978 20.5099V20.5099H39.0352V20.5099Z" fill="#BAFFFF"/>
    <path d="M39.0352 21.6437C39.0352 17.3626 42.5057 13.8921 46.7868 13.8921H50.9462C55.2273 13.8921 58.6978 17.3626 58.6978 21.6437V21.6437H39.0352V21.6437Z" fill="#6DC7C7"/>
    <path fill-rule="evenodd" clip-rule="evenodd" d="M37.617 0.665687C36.8683 1.41516 37.0825 1.9625 39.8916 6.4809C41.3506 8.82773 42.5206 10.7684 42.4912 10.7936C42.4621 10.8186 42.0553 11.0322 41.5873 11.2682C41.1194 11.5041 40.1315 12.3024 39.3921 13.0422C37.9414 14.4934 37.0857 15.9485 36.5512 17.8729L36.2315 19.0239L22.0355 19.0251C13.7241 19.0256 7.37322 19.1025 6.71471 19.2105C4.33478 19.6006 2.29308 21.1541 1.23867 23.3769L0.655029 24.6071V51.766V78.9248L1.16172 80.007C1.83384 81.4423 3.2227 82.8959 4.62234 83.6287L5.75975 84.2241H48.9608H92.1619L93.252 83.6715C94.6114 82.9824 96.0891 81.4401 96.7569 80.0136L97.2666 78.9248V51.766V24.6071L96.6839 23.3764C95.625 21.1397 93.6056 19.6036 91.2069 19.2105C90.5484 19.1025 84.1998 19.0256 75.893 19.0251L61.7039 19.0239L61.2961 17.6518C61.0717 16.8972 60.569 15.7439 60.1789 15.0888C59.5072 13.9612 57.7275 12.0785 56.726 11.4361L56.2672 11.1416L58.9759 6.64291C61.8052 1.94376 62.0155 1.40778 61.3273 0.646572C60.8599 0.129702 59.7231 0.165662 59.2332 0.713002C59.0237 0.947307 57.6411 3.15522 56.1609 5.61958L53.4694 10.1001L52.775 9.97256C52.3929 9.90235 50.583 9.84481 48.7527 9.84481H45.4249L42.7026 5.4341C41.2054 3.00816 39.8281 0.857597 39.6421 0.655278C39.1892 0.162444 38.114 0.168122 37.617 0.665687ZM53.9364 13.3238C55.918 14.1123 58.0054 16.4771 58.5155 18.5112L58.6441 19.0239H48.9608H39.2775L39.4036 18.5035C39.781 16.9466 41.3932 14.7943 42.8635 13.8848C44.3779 12.9477 45.3945 12.7806 49.2444 12.8351C52.4852 12.8811 52.9442 12.929 53.9364 13.3238ZM92.0931 22.5807C92.8754 22.9886 93.2477 23.3436 93.7217 24.1338L94.3361 25.1582V51.7179C94.3361 77.5714 94.3265 78.2965 93.9716 78.9926C93.4814 79.9546 92.2562 81.0311 91.3718 81.2769C90.3578 81.5588 7.5638 81.5588 6.54985 81.2769C5.66541 81.0311 4.44027 79.9546 3.95003 78.9926C3.59516 78.2965 3.58552 77.5714 3.58552 51.7179V25.1582L4.19997 24.1338C4.67396 23.3436 5.04622 22.9886 5.82857 22.5807L6.84271 22.0521H48.9608H91.0789L92.0931 22.5807ZM9.5518 27.7388C8.48889 28.2697 7.94779 28.8246 7.43807 29.9064L6.99245 30.8527L6.99472 51.766C6.9968 71.721 7.01305 72.7146 7.34732 73.4516C7.54016 73.8763 8.01528 74.5327 8.40343 74.9098C9.8095 76.2769 7.52712 76.1908 40.8396 76.1355L70.7977 76.0859L71.5539 75.6775C72.4388 75.1994 73.1661 74.4581 73.6593 73.5309C73.9972 72.8959 74.0118 71.9928 74.0118 51.766C74.0118 31.8405 73.9929 30.6254 73.6722 29.9806C73.2056 29.0426 72.2686 28.1186 71.3649 27.7055C70.6425 27.3752 69.2589 27.3599 40.453 27.3631C10.8471 27.3663 10.2837 27.3733 9.5518 27.7388ZM82.4824 28.976C81.577 29.3102 80.3286 30.4433 79.8542 31.3618C79.6771 31.7048 79.4923 32.5428 79.4436 33.2241C79.1292 37.6237 84.2392 40.1115 87.4792 37.1361C88.5776 36.1274 89.0802 35.0164 89.0802 33.597C89.0802 30.8824 87.2095 28.8853 84.5379 28.7479C83.7185 28.7057 82.9976 28.7858 82.4824 28.976ZM70.1957 30.4104C71.1045 30.8951 71.069 30.0341 71.0752 51.6931C71.0813 72.1118 71.0805 72.1561 70.6894 72.6537L70.2976 73.1524H40.6437C24.3341 73.1524 10.8522 73.0994 10.6839 73.0348C9.80742 72.6982 9.82443 73.1204 9.82746 51.7281C9.83048 30.1984 9.79796 30.9276 10.7737 30.4333C11.4307 30.1006 69.5724 30.0782 70.1957 30.4104ZM85.4501 32.0623C85.7101 32.2496 86.0029 32.7198 86.1009 33.107C86.5584 34.9146 84.4521 36.2169 83.0207 35.0113C82.3024 34.4063 82.1288 33.6526 82.5019 32.7587C82.9953 31.5764 84.3367 31.2594 85.4501 32.0623ZM79.8642 61.3151C79.3008 61.8789 79.2583 62.7152 79.7616 63.3372C80.121 63.7817 80.1441 63.784 84.1847 63.784C87.9136 63.784 88.2791 63.7545 88.6444 63.4235C89.2414 62.8825 89.1894 61.7508 88.5442 61.2428C88.0772 60.8751 87.8047 60.8505 84.1872 60.8505C80.3422 60.8505 80.3265 60.8522 79.8642 61.3151ZM79.8111 69.6159C79.2651 70.1978 79.2768 71.0779 79.8376 71.6054C80.2584 72.0011 80.4284 72.0168 84.2806 72.0168C88.0341 72.0168 88.3099 71.993 88.6642 71.6383C88.8983 71.404 89.0423 71.0075 89.0423 70.5974C89.0423 70.1872 88.8983 69.7907 88.6642 69.5564C88.3097 69.2016 88.0341 69.1779 84.2541 69.1779C80.2841 69.1779 80.2159 69.1847 79.8111 69.6159Z" fill="black"/>
    <rect width="7.94068" height="1.51251" rx="0.756255" transform="matrix(1 0 0 -1 80.251 63.0488)" fill="white"/>
    <rect width="7.94068" height="1.51251" rx="0.756255" transform="matrix(1 0 0 -1 80.251 71.3677)" fill="white"/>
    <g filter="url(#filter1_i_1300_1340)">
        <path d="M34.8739 56.5639C33.7773 57.6873 32.3769 58.4479 30.8538 58.7473C29.3307 59.0468 27.755 58.8713 26.3303 58.2437C24.9055 57.616 23.6974 56.565 22.8619 55.2265C22.0265 53.888 21.6022 52.3236 21.6439 50.7354C21.6856 49.1473 22.1914 47.6085 23.0959 46.3179C24.0004 45.0274 25.262 44.0444 26.7176 43.4962C28.1732 42.9479 29.7559 42.8595 31.261 43.2424C32.7662 43.6253 34.1246 44.4619 35.1607 45.6441L29.3927 50.949L34.8739 56.5639Z" fill="#FF911A"/>
    </g>
    <path d="M48.2991 49.2475C48.2991 46.2194 50.7538 43.7646 53.7819 43.7646V43.7646C56.81 43.7646 59.2648 46.2194 59.2648 49.2475V57.1882L57.7523 55.5811L55.7671 57.9444L53.7819 55.5811L52.0803 57.9444L49.8116 55.5811L48.2991 57.1882V49.2475Z" fill="#A72B2B"/>
    <path d="M48.1104 49.9086C48.1104 47.1416 50.3535 44.8984 53.1205 44.8984V44.8984C55.8876 44.8984 58.1307 47.1416 58.1307 49.9086V56.9985L57.1854 55.8641L55.2948 58.8892L53.4987 55.8641L51.419 58.8892L49.4338 55.8641L48.1104 57.5657V49.9086Z" fill="#FF4A4A"/>
    <path fill-rule="evenodd" clip-rule="evenodd" d="M49.8069 56.715L51.4841 59.464C51.556 59.5818 51.6835 59.6536 51.8209 59.6536C51.9569 59.6536 52.0835 59.5831 52.1557 59.467L53.8156 56.8L55.4965 59.4754C55.5662 59.5864 55.6875 59.6536 55.8179 59.6536C55.9504 59.6536 56.0734 59.5842 56.1425 59.4703L57.8242 56.698L59.9916 59.5035C60.0648 59.5982 60.1773 59.6536 60.2965 59.6536C60.5097 59.6536 60.6826 59.4796 60.6826 59.2649V49.1727C60.6826 45.3548 57.6081 42.2598 53.8156 42.2598C50.023 42.2598 46.9485 45.3548 46.9485 49.1727V59.2575C46.9485 59.4763 47.1247 59.6536 47.342 59.6536C47.4634 59.6536 47.578 59.5973 47.6525 59.5008L49.8069 56.715ZM49.9683 53.7838L48.6099 55.5404V49.1727C48.6099 46.2785 50.9405 43.9323 53.8156 43.9323C56.6906 43.9323 59.0213 46.2785 59.0213 49.1727V55.5232L57.6594 53.7605L55.7988 56.8277L53.8089 53.6604L51.8315 56.8377L49.9683 53.7838Z" fill="black"/>
    <path d="M27.3534 46.8775C27.3534 46.7183 27.4758 46.4646 27.6253 46.3138C27.7749 46.1629 28.0263 46.0394 28.1842 46.0394C28.5535 46.0394 29.015 46.505 29.015 46.8775C29.015 47.0367 28.8926 47.2904 28.743 47.4412C28.5935 47.5921 28.342 47.7155 28.1842 47.7155C28.0263 47.7155 27.7749 47.5921 27.6253 47.4412C27.4758 47.2904 27.3534 47.0367 27.3534 46.8775Z" fill="black"/>
    <path fill-rule="evenodd" clip-rule="evenodd" d="M20.0339 50.9729C20.0403 46.6157 23.0942 43.0408 27.4062 42.3432C28.2351 42.209 29.8428 42.315 30.8192 42.5682C32.892 43.1058 35.4769 45.0407 35.4769 46.0548C35.4769 46.3427 35.1674 46.7037 33.3284 48.5605L31.1798 50.7299L33.4207 53.0002C35.0885 54.6899 35.7374 55.3031 35.6766 55.834C35.636 56.1896 35.2769 56.5083 34.6923 57.0889C32.7845 58.9835 30.8416 59.7511 28.2396 59.638C26.8255 59.5765 25.9016 59.3368 24.6947 58.718C23.7884 58.2534 23.3766 57.9448 22.4985 57.072C20.8578 55.4411 20.0304 53.3936 20.0339 50.9729ZM32.8772 45.4313C32.0156 44.778 31.6094 44.5663 30.6362 44.2639C28.8587 43.7113 26.7476 43.9414 25.1998 44.8564C22.9729 46.1727 21.7037 48.3619 21.6957 50.9001C21.6916 52.2128 21.8482 52.9299 22.388 54.0702C22.9343 55.2241 24.1427 56.5162 25.2598 57.1406C27.7549 58.5351 31.0658 58.1817 33.1621 56.297L33.7972 55.726L31.5169 53.4238C29.4239 51.3108 29.2365 51.0898 29.2365 50.7325C29.2365 50.3761 29.4183 50.1598 31.4065 48.1526L33.5765 45.9616L32.8772 45.4313Z" fill="black"/>
    <path d="M35.6545 51.7382C34.9073 51.7382 34.5273 50.7371 35.0978 50.2712C35.4313 49.9987 35.783 50.0063 36.1451 50.2937C36.7054 50.7382 36.3658 51.7382 35.6545 51.7382Z" fill="black"/>
    <path d="M37.7663 50.9001C37.7663 50.7409 37.8887 50.4872 38.0383 50.3364C38.1878 50.1855 38.4393 50.0621 38.5971 50.0621C38.755 50.0621 39.0064 50.1855 39.156 50.3364C39.3055 50.4872 39.4279 50.7409 39.4279 50.9001C39.4279 51.0594 39.3055 51.313 39.156 51.4639C39.0064 51.6147 38.755 51.7382 38.5971 51.7382C38.4393 51.7382 38.1878 51.6147 38.0383 51.4639C37.8887 51.313 37.7663 51.0594 37.7663 50.9001Z" fill="black"/>
    <path d="M41.6435 51.7382C40.9027 51.7382 40.5746 50.7581 41.1599 50.2937C41.3204 50.1663 41.538 50.0621 41.6435 50.0621C41.7489 50.0621 41.9665 50.1663 42.127 50.2937C42.7123 50.7581 42.3842 51.7382 41.6435 51.7382Z" fill="black"/>
    <path d="M45.5649 50.9001C45.5649 51.646 44.8542 51.9767 44.2616 51.5065C43.858 51.1863 43.858 50.614 44.2616 50.2937C44.8542 49.8235 45.5649 50.1543 45.5649 50.9001Z" fill="black"/>
    <circle cx="52.2691" cy="48.6798" r="0.756255" stroke="black" stroke-width="0.756255"/>
    <circle cx="56.2399" cy="48.6798" r="0.756255" stroke="black" stroke-width="0.756255"/>
    <circle cx="84.221" cy="33.5547" r="3.78128" fill="white"/>
    <circle cx="84.221" cy="33.5547" r="2.45783" stroke="#DCAC03" stroke-width="2.64689" stroke-dasharray="2.84 0"/>
    <path d="M84.2211 41.4956L88.9694 49.7199H79.4728L84.2211 41.4956Z" fill="white"/>
    <path d="M82.4405 44.5797L83.4025 42.9136L83.5867 43.2326L84.2211 42.8663L84.8556 43.2326L85.0398 42.9136L86.0017 44.5797L84.7737 45.2887L85.9608 47.3448L87.1888 46.6358L88.1507 48.3019H87.7823V49.0345L87.1479 49.4008L87.3321 49.7199H85.4082V48.3019H83.0341V49.7199H81.1102L81.2944 49.4008L80.6599 49.0345V48.3019H80.2915L81.2535 46.6358L82.4815 47.3448L83.6685 45.2887L82.4405 44.5797Z" stroke="#DCAC03" stroke-width="2.83596" stroke-dasharray="2.84 2.84"/>
    <path d="M80.4552 49.1527L84.2211 42.63L87.987 49.1527H80.4552Z" stroke="black" stroke-width="1.13438"/>
    <path d="M36.9237 69.8544C36.8743 69.8544 36.8285 69.846 36.7861 69.8293C36.7438 69.8127 36.7068 69.7901 36.675 69.7617C36.6451 69.7317 36.6212 69.6966 36.6036 69.6566C36.586 69.6165 36.5771 69.5731 36.5771 69.5263V66.5913C36.5771 66.5462 36.586 66.5036 36.6036 66.4635C36.6212 66.4235 36.6451 66.3884 36.675 66.3583C36.7068 66.3283 36.7438 66.3049 36.7861 66.2882C36.8285 66.2715 36.8743 66.2632 36.9237 66.2632H38.7809C39.0084 66.2632 39.2192 66.3007 39.4132 66.3759C39.6072 66.451 39.7747 66.5554 39.9158 66.6889C40.0569 66.8208 40.1671 66.9794 40.2465 67.1647C40.3107 67.31 40.3495 67.4657 40.3629 67.6319H39.6716C39.6614 67.5561 39.6423 67.4847 39.6142 67.4177C39.5719 67.3125 39.511 67.2232 39.4317 67.1497C39.3523 67.0746 39.2571 67.017 39.146 66.9769C39.0366 66.9352 38.9149 66.9143 38.7809 66.9143H37.265V69.2033H37.9616V69.8544H36.9237Z" fill="white"/>
    <path d="M39.768 69.2677C39.7732 69.2559 39.7757 69.2431 39.7757 69.2293V68.7965C39.7757 68.7832 39.7732 68.7709 39.768 68.7596C39.7629 68.7477 39.7558 68.7374 39.7465 68.7285C39.7378 68.7197 39.7273 68.7128 39.715 68.7079C39.7027 68.7025 39.6894 68.6997 39.6751 68.6997H39.0441V68.8932H39.5759V69.134H38.9542C38.9286 69.134 38.9086 69.1274 38.8942 69.1141C38.8804 69.1003 38.8735 69.0811 38.8735 69.0565V68.538C38.8735 68.5119 38.8804 68.4922 38.8942 68.4789C38.9081 68.4656 38.9281 68.459 38.9542 68.459H39.7665V68.267H38.9542C38.9199 68.267 38.8891 68.2711 38.862 68.2795C38.8348 68.2879 38.8107 68.2992 38.7897 68.3135C38.7692 68.3273 38.7516 68.3433 38.7367 68.3615C38.7218 68.3797 38.7098 68.3989 38.7006 68.4191C38.6914 68.4388 38.6844 68.459 38.6798 68.4797C38.6757 68.4998 38.6737 68.5188 38.6737 68.5365V69.0565C38.6737 69.0894 38.678 69.1192 38.6867 69.1458C38.6954 69.1719 38.707 69.1951 38.7213 69.2152C38.7362 69.2349 38.7531 69.2519 38.772 69.2662C38.791 69.28 38.8107 69.2913 38.8312 69.3002C38.8522 69.309 38.8732 69.3157 38.8942 69.3201C38.9158 69.324 38.9357 69.326 38.9542 69.326H39.6751C39.6894 69.326 39.7027 69.3236 39.715 69.3186C39.7273 69.3137 39.7378 69.3071 39.7465 69.2987C39.7558 69.2898 39.7629 69.2795 39.768 69.2677Z" fill="white"/>
    <path d="M40.8048 69.148C40.8145 69.117 40.8194 69.0882 40.8194 69.0616V68.7921C40.8194 68.7438 40.8102 68.7029 40.7917 68.6695C40.7733 68.6355 40.7502 68.6082 40.7226 68.5875C40.6954 68.5663 40.6657 68.5511 40.6334 68.5417C40.6016 68.5323 40.5719 68.5277 40.5443 68.5277H40.1054V68.7101H40.5443C40.5688 68.7101 40.5891 68.7175 40.605 68.7322C40.6214 68.747 40.6296 68.7669 40.6296 68.7921V69.0601C40.6296 69.0838 40.6221 69.1035 40.6073 69.1192C40.5924 69.135 40.5714 69.1429 40.5443 69.1429H40.1854C40.1618 69.1429 40.1413 69.136 40.1239 69.1222C40.107 69.1079 40.0985 69.0882 40.0985 69.0631C40.0985 69.0395 40.1059 69.0198 40.1208 69.004C40.1357 68.9878 40.1567 68.9796 40.1838 68.9796H40.5443V68.7965H40.1838C40.1336 68.7965 40.0908 68.8054 40.0555 68.8231C40.0206 68.8408 39.9922 68.863 39.9702 68.8895C39.9487 68.9156 39.933 68.9442 39.9233 68.9752C39.9136 69.0062 39.9087 69.035 39.9087 69.0616C39.9087 69.1099 39.9179 69.151 39.9364 69.185C39.9548 69.2184 39.9776 69.2458 40.0048 69.2669C40.0324 69.2876 40.0621 69.3026 40.0939 69.312C40.1262 69.3213 40.1562 69.326 40.1838 69.326H40.5443C40.5945 69.326 40.637 69.3172 40.6718 69.2994C40.7072 69.2817 40.7356 69.2598 40.7571 69.2337C40.7792 69.2071 40.795 69.1786 40.8048 69.148Z" fill="white"/>
    <path d="M41.5318 69.326H41.7316V68.7965C41.7316 68.7689 41.7283 68.7433 41.7216 68.7197H41.9015C41.9286 68.7197 41.9486 68.7263 41.9614 68.7396C41.9747 68.7524 41.9814 68.7714 41.9814 68.7965V69.326H42.1812V68.7965C42.1812 68.7635 42.1769 68.734 42.1681 68.7079C42.1594 68.6818 42.1479 68.6589 42.1336 68.6392C42.1192 68.619 42.1026 68.602 42.0836 68.5882C42.0646 68.5739 42.0447 68.5624 42.0237 68.5535C42.0032 68.5447 41.9824 68.5383 41.9614 68.5343C41.9404 68.5299 41.9204 68.5277 41.9015 68.5277H41.6309V68.5867C41.6023 68.5661 41.572 68.5511 41.5403 68.5417C41.5085 68.5323 41.4788 68.5277 41.4511 68.5277H41.0907C41.0768 68.5277 41.0638 68.5301 41.0515 68.5351C41.0392 68.54 41.0284 68.5469 41.0192 68.5557C41.01 68.5641 41.0028 68.5742 40.9977 68.586C40.9926 68.5973 40.99 68.6096 40.99 68.6229V69.326H41.1898V68.7197H41.4496C41.4767 68.7197 41.4972 68.7263 41.5111 68.7396C41.5249 68.7524 41.5318 68.7714 41.5318 68.7965V69.326Z" fill="white"/>
    <path d="M42.6677 68.8932H43.2994V68.6997H42.6677V68.8932Z" fill="white"/>
    <path d="M42.5878 68.459H43.3886V68.267H42.4886C42.4743 68.267 42.4609 68.2694 42.4487 68.2743C42.4364 68.2793 42.4256 68.2862 42.4164 68.295C42.4077 68.3039 42.4007 68.3142 42.3956 68.326C42.3905 68.3379 42.3879 68.3504 42.3879 68.3637V69.326H42.5878V68.459Z" fill="white"/>
    <path d="M43.5307 68.3637H43.7305V68.1902H43.5307V68.3637Z" fill="white"/>
    <path d="M43.5307 69.326H43.7305V68.5277H43.5307V69.326Z" fill="white"/>
    <path fill-rule="evenodd" clip-rule="evenodd" d="M38.0793 68.0313C38.0793 67.8739 38.2138 67.7463 38.3798 67.7463H44.0283C44.1942 67.7463 44.3288 67.8739 44.3288 68.0313V69.5704C44.3288 69.7278 44.1942 69.8554 44.0283 69.8554H38.3798C38.2138 69.8554 38.0793 69.7278 38.0793 69.5704V68.0313ZM38.3798 67.8603H44.0283C44.1279 67.8603 44.2086 67.9368 44.2086 68.0313V69.5704C44.2086 69.6648 44.1279 69.7414 44.0283 69.7414H38.3798C38.2802 69.7414 38.1995 69.6648 38.1995 69.5704V68.0313C38.1995 67.9368 38.2802 67.8603 38.3798 67.8603Z" fill="white"/>
    <defs>
        <filter id="filter0_i_1300_1340" x="3.11279" y="100.294" width="52.9377" height="28.3594" filterUnits="userSpaceOnUse" color-interpolation-filters="sRGB">
            <feFlood flood-opacity="0" result="BackgroundImageFix"/>
            <feBlend mode="normal" in="SourceGraphic" in2="BackgroundImageFix" result="shape"/>
            <feColorMatrix in="SourceAlpha" type="matrix" values="0 0 0 0 0 0 0 0 0 0 0 0 0 0 0 0 0 0 127 0" result="hardAlpha"/>
            <feOffset dx="-2.26877" dy="-0.945319"/>
            <feComposite in2="hardAlpha" operator="arithmetic" k2="-1" k3="1"/>
            <feColorMatrix type="matrix" values="0 0 0 0 0 0 0 0 0 0 0 0 0 0 0 0 0 0 0.25 0"/>
            <feBlend mode="normal" in2="shape" result="effect1_innerShadow_1300_1340"/>
        </filter>
        <filter id="filter1_i_1300_1340" x="21.6411" y="43.0083" width="13.5195" height="15.8813" filterUnits="userSpaceOnUse" color-interpolation-filters="sRGB">
            <feFlood flood-opacity="0" result="BackgroundImageFix"/>
            <feBlend mode="normal" in="SourceGraphic" in2="BackgroundImageFix" result="shape"/>
            <feColorMatrix in="SourceAlpha" type="matrix" values="0 0 0 0 0 0 0 0 0 0 0 0 0 0 0 0 0 0 127 0" result="hardAlpha"/>
            <feOffset dx="1.32345" dy="1.13438"/>
            <feComposite in2="hardAlpha" operator="arithmetic" k2="-1" k3="1"/>
            <feColorMatrix type="matrix" values="0 0 0 0 0 0 0 0 0 0 0 0 0 0 0 0 0 0 0.25 0"/>
            <feBlend mode="normal" in2="shape" result="effect1_innerShadow_1300_1340"/>
        </filter>
    </defs>
</svg>
