<svg width="149" height="200" viewBox="0 0 149 200" fill="none" xmlns="http://www.w3.org/2000/svg">
    <g filter="url(#filter0_i_1355_78)">
        <rect x="3.77344" y="153.547" width="81.2727" height="43.5389" rx="2.83596" fill="#FF911A"/>
    </g>
    <path fill-rule="evenodd" clip-rule="evenodd" d="M54.8712 161.844C54.0792 160.922 53.1353 160.886 52.0419 160.846C50.4853 160.787 48.6257 160.718 46.47 158.062C48.0173 159.339 49.6665 159.677 51.1042 159.909C51.5207 159.776 49.7322 158.786 49.7322 158.786C49.7322 158.786 50.8438 158.76 52.0497 159.357C52.5322 159.596 52.6257 159.733 52.7455 159.908C52.7809 159.96 52.8186 160.015 52.8694 160.077C53.7934 160.253 54.7267 161.438 54.8712 161.844ZM51.8319 159.756L52.6862 160.112C52.4703 159.794 52.3243 159.677 52.0314 159.557L51.8319 159.756Z" fill="black"/>
    <path d="M42.4127 159.992C46.3563 162.024 49.68 162.542 52.5899 161.26C51.3683 161.395 50.6391 161.303 49.2602 160.868C47.0854 161.223 45.5669 161.005 42.4127 159.992Z" fill="black"/>
    <path d="M35.0016 158.032C36.6756 158.326 38.6581 159.573 40.6857 160.848C44.4979 163.245 48.4696 165.742 50.851 162.203C47.0365 162.864 44.3196 161.583 41.4954 160.252C39.5205 159.321 37.4933 158.365 35.0016 158.032Z" fill="black"/>
    <path d="M38.7376 161.762C40.4389 162.79 41.9886 163.726 44.8667 163.651C44.1089 163.316 43.663 163.085 42.776 162.574C41.3666 162.339 40.3685 161.867 39.2728 161.349C37.677 160.594 35.8744 159.741 32.2936 159.381C35.3996 159.744 37.1358 160.793 38.7376 161.762Z" fill="black"/>
    <path d="M36.6813 163.917C37.8859 163.227 38.8338 163.046 40.8441 163.261L39.6659 162.684C37.8027 163.003 37.3661 163.323 36.6813 163.917Z" fill="black"/>
    <circle cx="21.6245" cy="145.275" r="10.3042" fill="#CA3434"/>
    <circle cx="20.1732" cy="143.824" r="8.85292" fill="#FF4040"/>
    <circle cx="21.7693" cy="175.607" r="8.41753" fill="#524105"/>
    <circle cx="56.8914" cy="182.864" r="5.80519" fill="#CA3434"/>
    <circle cx="54.8594" cy="181.702" r="5.22467" fill="#FF4040"/>
    <circle cx="71.6939" cy="167.77" r="5.80519" fill="#7FCA34"/>
    <circle cx="70.5333" cy="165.738" r="5.22467" fill="#66FF40"/>
    <rect x="18.2861" y="158.481" width="7.54675" height="18.5766" fill="white"/>
    <rect x="22.6409" y="158.481" width="3.19285" height="18.5766" fill="#DDDDDD"/>
    <mask id="path-12-outside-1_1355_78" maskUnits="userSpaceOnUse" x="0.0161133" y="127.016" width="89" height="74" fill="black">
        <rect fill="white" x="0.0161133" y="127.016" width="89" height="74"/>
        <path fill-rule="evenodd" clip-rule="evenodd" d="M43.4128 128.479C42.8967 128.943 42.895 128.951 43.0884 129.88C43.4233 131.489 44.4127 132.815 45.8327 133.557C46.469 133.889 47.0791 133.921 56.0291 134.102C62.9096 134.241 62.7876 134.222 63.8389 135.343C65.749 137.38 65.3212 140.48 62.9252 141.966C62.3231 142.339 62.1782 142.348 54.5248 142.478L46.7373 142.61L45.8547 143.044C44.8158 143.554 43.8538 144.563 43.3785 145.641C43.1175 146.233 43.0176 146.921 42.9501 148.591L42.862 150.77H38.334H33.8059L34.2047 149.51C35.1086 146.654 35.0807 143.956 34.1178 141.13C33.4325 139.118 32.708 137.99 30.9703 136.228C29.6183 134.857 29.2341 134.576 27.6695 133.819C25.2889 132.666 23.8396 132.364 21.1881 132.469C17.5647 132.611 15.3418 133.61 12.588 136.334C11.216 137.691 10.8348 138.192 10.1894 139.488C9.00129 141.873 8.82762 142.646 8.83794 145.505C8.8459 147.663 8.90007 148.132 9.27568 149.294C9.57546 150.222 9.6452 150.641 9.50741 150.685C9.39908 150.72 8.32015 150.777 7.10986 150.811C5.33878 150.862 4.75666 150.943 4.12697 151.227C3.06243 151.708 2.01261 152.696 1.4684 153.731L1.01611 154.591V175.48V196.37L1.51851 197.28C2.14498 198.415 3.08799 199.238 4.27136 199.682C5.17763 200.022 5.43746 200.024 44.4865 199.98L83.7895 199.937L84.5764 199.572C85.5824 199.105 86.6847 197.999 87.1497 196.99L87.5135 196.2V175.396V154.591L87.1219 153.794C86.6224 152.776 85.5985 151.749 84.5842 151.247L83.7895 150.855L64.7042 150.809L45.6189 150.764L45.6196 148.771C45.6201 147.072 45.6706 146.696 45.9619 146.216C46.6205 145.132 46.7502 145.115 55.1018 145.008L62.6383 144.91L63.7638 144.354C65.0761 143.706 66.4518 142.307 67.0569 141.004C67.3951 140.276 67.4518 139.886 67.4532 138.272C67.4547 136.511 67.4214 136.321 66.9394 135.353C66.3355 134.141 64.8491 132.676 63.6253 132.089C62.8307 131.707 62.5846 131.687 57.0447 131.559C46.3009 131.309 47.034 131.35 46.5119 130.962C46.2236 130.748 45.9064 130.234 45.6909 129.632C45.3378 128.648 44.7711 128.023 44.2252 128.016C44.0637 128.014 43.6981 128.222 43.4128 128.479ZM24.0481 135.155C24.6006 135.254 25.7 135.654 26.4914 136.043C29.0602 137.307 31.0273 139.666 31.9024 142.533C32.3461 143.986 32.3888 146.448 31.9967 147.967C31.2298 150.939 29.134 153.538 26.4783 154.812C24.5569 155.734 23.5579 155.927 21.2231 155.826C19.696 155.761 19.0627 155.653 18.1637 155.306C12.253 153.022 9.6237 146.403 12.3813 140.749C13.5359 138.382 16.1831 136.156 18.8694 135.294C19.9563 134.945 22.4964 134.877 24.0481 135.155ZM12.0438 154.158C12.9971 155.222 14.4422 156.315 15.8862 157.064L17.011 157.648L17.0115 161.337L17.0122 165.025L16.1235 165.599C13.4463 167.327 11.4312 169.998 10.8154 172.634C10.4025 174.402 10.556 177.474 11.14 179.128C12.2565 182.291 14.9821 184.943 18.3198 186.114C19.6877 186.594 22.6188 186.725 24.2341 186.379C26.6237 185.867 29.4121 184.103 30.7575 182.252C31.5373 181.179 32.3085 179.628 32.6928 178.359C33.1627 176.807 33.118 173.468 32.6074 171.999C31.7487 169.529 29.7163 166.96 27.6297 165.708L26.6606 165.126V161.376V157.626L27.2944 157.323C28.4723 156.759 30.1251 155.542 31.226 154.426L32.3214 153.317L57.2937 153.321C81.2396 153.324 82.2938 153.338 82.9431 153.639C83.3155 153.812 83.8257 154.173 84.0768 154.442C85.1145 155.552 85.059 154.36 85.059 175.524V194.854L84.6782 195.61C84.4556 196.052 83.9925 196.578 83.5634 196.877L82.8294 197.389L44.4481 197.432L6.06698 197.476L5.31881 197.08C4.90748 196.862 4.34228 196.358 4.06299 195.96L3.55517 195.237L3.50998 175.792C3.479 162.385 3.52115 156.137 3.6459 155.672C3.86528 154.855 4.8743 153.796 5.67901 153.539C6.00046 153.436 7.3944 153.344 8.77667 153.334L11.2898 153.317L12.0438 154.158ZM24.0914 167.231C24.0383 175.83 24.0281 176.062 23.6874 176.53C22.5321 178.114 20.2324 177.764 19.7236 175.927C19.6198 175.551 19.5528 172.011 19.5523 166.861L19.5513 158.412H21.8486H24.1458L24.0914 167.231ZM70.1388 160.164C68.2836 160.799 66.9613 161.905 65.8642 163.741C63.5977 167.533 65.1768 172.556 69.2718 174.579C70.3843 175.128 70.4601 175.141 72.6229 175.141C74.8099 175.141 74.8493 175.134 75.9843 174.556C77.5253 173.771 78.8517 172.434 79.5596 170.952C81.0854 167.758 80.5282 164.498 78.0377 162.048C77.4354 161.456 76.6383 160.815 76.2664 160.625C74.4691 159.705 72.0203 159.521 70.1388 160.164ZM74.9922 162.908C76.7741 163.782 77.7707 165.388 77.7767 167.394C77.7819 169.138 77.5229 169.854 76.4773 170.987C75.3072 172.255 74.2325 172.742 72.6176 172.737C70.5603 172.73 68.926 171.745 67.9551 169.926C67.1857 168.485 67.1514 166.989 67.8523 165.46C68.5343 163.973 69.3663 163.18 70.9249 162.533C71.7738 162.18 73.9114 162.377 74.9922 162.908ZM17.0054 172.577L17.1138 176.893L17.6167 177.71C18.8945 179.783 21.5134 180.653 23.708 179.733C24.5397 179.385 25.6215 178.316 26.1124 177.359C26.5454 176.515 26.5548 176.422 26.6276 172.296C26.6684 169.984 26.7619 168.093 26.8355 168.093C26.9089 168.093 27.4357 168.604 28.006 169.228C30.6043 172.073 31.2413 175.814 29.6862 179.096C29.0465 180.446 27.2089 182.372 25.8862 183.078C21.938 185.185 16.8764 183.857 14.4367 180.073C13.4062 178.474 13.0618 177.087 13.1518 174.896C13.22 173.234 13.2815 172.953 13.8301 171.794C14.2355 170.937 14.8088 170.12 15.5778 169.302C16.2071 168.632 16.7615 168.124 16.8096 168.172C16.8577 168.221 16.9457 170.203 17.0054 172.577ZM54.6282 175.73C53.3842 176.179 52.6195 176.666 51.5763 177.672C48.404 180.73 48.3796 185.525 51.5207 188.634C52.71 189.811 53.8878 190.452 55.4746 190.786C59.9591 191.73 64.355 188.425 64.7044 183.847C64.9889 180.119 62.7904 176.803 59.3145 175.717C57.9422 175.289 55.8348 175.295 54.6282 175.73ZM58.9069 178.297C62.2144 179.539 63.2896 183.944 60.9283 186.579C59.3013 188.395 57.0159 188.881 54.798 187.882C52.8114 186.988 51.8019 185.383 51.8031 183.123C51.8038 181.98 51.8759 181.626 52.2567 180.897C52.8113 179.835 54.1822 178.566 55.1447 178.224C56.2041 177.848 57.7912 177.878 58.9069 178.297Z"/>
    </mask>
    <path fill-rule="evenodd" clip-rule="evenodd" d="M43.4128 128.479C42.8967 128.943 42.895 128.951 43.0884 129.88C43.4233 131.489 44.4127 132.815 45.8327 133.557C46.469 133.889 47.0791 133.921 56.0291 134.102C62.9096 134.241 62.7876 134.222 63.8389 135.343C65.749 137.38 65.3212 140.48 62.9252 141.966C62.3231 142.339 62.1782 142.348 54.5248 142.478L46.7373 142.61L45.8547 143.044C44.8158 143.554 43.8538 144.563 43.3785 145.641C43.1175 146.233 43.0176 146.921 42.9501 148.591L42.862 150.77H38.334H33.8059L34.2047 149.51C35.1086 146.654 35.0807 143.956 34.1178 141.13C33.4325 139.118 32.708 137.99 30.9703 136.228C29.6183 134.857 29.2341 134.576 27.6695 133.819C25.2889 132.666 23.8396 132.364 21.1881 132.469C17.5647 132.611 15.3418 133.61 12.588 136.334C11.216 137.691 10.8348 138.192 10.1894 139.488C9.00129 141.873 8.82762 142.646 8.83794 145.505C8.8459 147.663 8.90007 148.132 9.27568 149.294C9.57546 150.222 9.6452 150.641 9.50741 150.685C9.39908 150.72 8.32015 150.777 7.10986 150.811C5.33878 150.862 4.75666 150.943 4.12697 151.227C3.06243 151.708 2.01261 152.696 1.4684 153.731L1.01611 154.591V175.48V196.37L1.51851 197.28C2.14498 198.415 3.08799 199.238 4.27136 199.682C5.17763 200.022 5.43746 200.024 44.4865 199.98L83.7895 199.937L84.5764 199.572C85.5824 199.105 86.6847 197.999 87.1497 196.99L87.5135 196.2V175.396V154.591L87.1219 153.794C86.6224 152.776 85.5985 151.749 84.5842 151.247L83.7895 150.855L64.7042 150.809L45.6189 150.764L45.6196 148.771C45.6201 147.072 45.6706 146.696 45.9619 146.216C46.6205 145.132 46.7502 145.115 55.1018 145.008L62.6383 144.91L63.7638 144.354C65.0761 143.706 66.4518 142.307 67.0569 141.004C67.3951 140.276 67.4518 139.886 67.4532 138.272C67.4547 136.511 67.4214 136.321 66.9394 135.353C66.3355 134.141 64.8491 132.676 63.6253 132.089C62.8307 131.707 62.5846 131.687 57.0447 131.559C46.3009 131.309 47.034 131.35 46.5119 130.962C46.2236 130.748 45.9064 130.234 45.6909 129.632C45.3378 128.648 44.7711 128.023 44.2252 128.016C44.0637 128.014 43.6981 128.222 43.4128 128.479ZM24.0481 135.155C24.6006 135.254 25.7 135.654 26.4914 136.043C29.0602 137.307 31.0273 139.666 31.9024 142.533C32.3461 143.986 32.3888 146.448 31.9967 147.967C31.2298 150.939 29.134 153.538 26.4783 154.812C24.5569 155.734 23.5579 155.927 21.2231 155.826C19.696 155.761 19.0627 155.653 18.1637 155.306C12.253 153.022 9.6237 146.403 12.3813 140.749C13.5359 138.382 16.1831 136.156 18.8694 135.294C19.9563 134.945 22.4964 134.877 24.0481 135.155ZM12.0438 154.158C12.9971 155.222 14.4422 156.315 15.8862 157.064L17.011 157.648L17.0115 161.337L17.0122 165.025L16.1235 165.599C13.4463 167.327 11.4312 169.998 10.8154 172.634C10.4025 174.402 10.556 177.474 11.14 179.128C12.2565 182.291 14.9821 184.943 18.3198 186.114C19.6877 186.594 22.6188 186.725 24.2341 186.379C26.6237 185.867 29.4121 184.103 30.7575 182.252C31.5373 181.179 32.3085 179.628 32.6928 178.359C33.1627 176.807 33.118 173.468 32.6074 171.999C31.7487 169.529 29.7163 166.96 27.6297 165.708L26.6606 165.126V161.376V157.626L27.2944 157.323C28.4723 156.759 30.1251 155.542 31.226 154.426L32.3214 153.317L57.2937 153.321C81.2396 153.324 82.2938 153.338 82.9431 153.639C83.3155 153.812 83.8257 154.173 84.0768 154.442C85.1145 155.552 85.059 154.36 85.059 175.524V194.854L84.6782 195.61C84.4556 196.052 83.9925 196.578 83.5634 196.877L82.8294 197.389L44.4481 197.432L6.06698 197.476L5.31881 197.08C4.90748 196.862 4.34228 196.358 4.06299 195.96L3.55517 195.237L3.50998 175.792C3.479 162.385 3.52115 156.137 3.6459 155.672C3.86528 154.855 4.8743 153.796 5.67901 153.539C6.00046 153.436 7.3944 153.344 8.77667 153.334L11.2898 153.317L12.0438 154.158ZM24.0914 167.231C24.0383 175.83 24.0281 176.062 23.6874 176.53C22.5321 178.114 20.2324 177.764 19.7236 175.927C19.6198 175.551 19.5528 172.011 19.5523 166.861L19.5513 158.412H21.8486H24.1458L24.0914 167.231ZM70.1388 160.164C68.2836 160.799 66.9613 161.905 65.8642 163.741C63.5977 167.533 65.1768 172.556 69.2718 174.579C70.3843 175.128 70.4601 175.141 72.6229 175.141C74.8099 175.141 74.8493 175.134 75.9843 174.556C77.5253 173.771 78.8517 172.434 79.5596 170.952C81.0854 167.758 80.5282 164.498 78.0377 162.048C77.4354 161.456 76.6383 160.815 76.2664 160.625C74.4691 159.705 72.0203 159.521 70.1388 160.164ZM74.9922 162.908C76.7741 163.782 77.7707 165.388 77.7767 167.394C77.7819 169.138 77.5229 169.854 76.4773 170.987C75.3072 172.255 74.2325 172.742 72.6176 172.737C70.5603 172.73 68.926 171.745 67.9551 169.926C67.1857 168.485 67.1514 166.989 67.8523 165.46C68.5343 163.973 69.3663 163.18 70.9249 162.533C71.7738 162.18 73.9114 162.377 74.9922 162.908ZM17.0054 172.577L17.1138 176.893L17.6167 177.71C18.8945 179.783 21.5134 180.653 23.708 179.733C24.5397 179.385 25.6215 178.316 26.1124 177.359C26.5454 176.515 26.5548 176.422 26.6276 172.296C26.6684 169.984 26.7619 168.093 26.8355 168.093C26.9089 168.093 27.4357 168.604 28.006 169.228C30.6043 172.073 31.2413 175.814 29.6862 179.096C29.0465 180.446 27.2089 182.372 25.8862 183.078C21.938 185.185 16.8764 183.857 14.4367 180.073C13.4062 178.474 13.0618 177.087 13.1518 174.896C13.22 173.234 13.2815 172.953 13.8301 171.794C14.2355 170.937 14.8088 170.12 15.5778 169.302C16.2071 168.632 16.7615 168.124 16.8096 168.172C16.8577 168.221 16.9457 170.203 17.0054 172.577ZM54.6282 175.73C53.3842 176.179 52.6195 176.666 51.5763 177.672C48.404 180.73 48.3796 185.525 51.5207 188.634C52.71 189.811 53.8878 190.452 55.4746 190.786C59.9591 191.73 64.355 188.425 64.7044 183.847C64.9889 180.119 62.7904 176.803 59.3145 175.717C57.9422 175.289 55.8348 175.295 54.6282 175.73ZM58.9069 178.297C62.2144 179.539 63.2896 183.944 60.9283 186.579C59.3013 188.395 57.0159 188.881 54.798 187.882C52.8114 186.988 51.8019 185.383 51.8031 183.123C51.8038 181.98 51.8759 181.626 52.2567 180.897C52.8113 179.835 54.1822 178.566 55.1447 178.224C56.2041 177.848 57.7912 177.878 58.9069 178.297Z" fill="black"/>
    <path fill-rule="evenodd" clip-rule="evenodd" d="M43.4128 128.479C42.8967 128.943 42.895 128.951 43.0884 129.88C43.4233 131.489 44.4127 132.815 45.8327 133.557C46.469 133.889 47.0791 133.921 56.0291 134.102C62.9096 134.241 62.7876 134.222 63.8389 135.343C65.749 137.38 65.3212 140.48 62.9252 141.966C62.3231 142.339 62.1782 142.348 54.5248 142.478L46.7373 142.61L45.8547 143.044C44.8158 143.554 43.8538 144.563 43.3785 145.641C43.1175 146.233 43.0176 146.921 42.9501 148.591L42.862 150.77H38.334H33.8059L34.2047 149.51C35.1086 146.654 35.0807 143.956 34.1178 141.13C33.4325 139.118 32.708 137.99 30.9703 136.228C29.6183 134.857 29.2341 134.576 27.6695 133.819C25.2889 132.666 23.8396 132.364 21.1881 132.469C17.5647 132.611 15.3418 133.61 12.588 136.334C11.216 137.691 10.8348 138.192 10.1894 139.488C9.00129 141.873 8.82762 142.646 8.83794 145.505C8.8459 147.663 8.90007 148.132 9.27568 149.294C9.57546 150.222 9.6452 150.641 9.50741 150.685C9.39908 150.72 8.32015 150.777 7.10986 150.811C5.33878 150.862 4.75666 150.943 4.12697 151.227C3.06243 151.708 2.01261 152.696 1.4684 153.731L1.01611 154.591V175.48V196.37L1.51851 197.28C2.14498 198.415 3.08799 199.238 4.27136 199.682C5.17763 200.022 5.43746 200.024 44.4865 199.98L83.7895 199.937L84.5764 199.572C85.5824 199.105 86.6847 197.999 87.1497 196.99L87.5135 196.2V175.396V154.591L87.1219 153.794C86.6224 152.776 85.5985 151.749 84.5842 151.247L83.7895 150.855L64.7042 150.809L45.6189 150.764L45.6196 148.771C45.6201 147.072 45.6706 146.696 45.9619 146.216C46.6205 145.132 46.7502 145.115 55.1018 145.008L62.6383 144.91L63.7638 144.354C65.0761 143.706 66.4518 142.307 67.0569 141.004C67.3951 140.276 67.4518 139.886 67.4532 138.272C67.4547 136.511 67.4214 136.321 66.9394 135.353C66.3355 134.141 64.8491 132.676 63.6253 132.089C62.8307 131.707 62.5846 131.687 57.0447 131.559C46.3009 131.309 47.034 131.35 46.5119 130.962C46.2236 130.748 45.9064 130.234 45.6909 129.632C45.3378 128.648 44.7711 128.023 44.2252 128.016C44.0637 128.014 43.6981 128.222 43.4128 128.479ZM24.0481 135.155C24.6006 135.254 25.7 135.654 26.4914 136.043C29.0602 137.307 31.0273 139.666 31.9024 142.533C32.3461 143.986 32.3888 146.448 31.9967 147.967C31.2298 150.939 29.134 153.538 26.4783 154.812C24.5569 155.734 23.5579 155.927 21.2231 155.826C19.696 155.761 19.0627 155.653 18.1637 155.306C12.253 153.022 9.6237 146.403 12.3813 140.749C13.5359 138.382 16.1831 136.156 18.8694 135.294C19.9563 134.945 22.4964 134.877 24.0481 135.155ZM12.0438 154.158C12.9971 155.222 14.4422 156.315 15.8862 157.064L17.011 157.648L17.0115 161.337L17.0122 165.025L16.1235 165.599C13.4463 167.327 11.4312 169.998 10.8154 172.634C10.4025 174.402 10.556 177.474 11.14 179.128C12.2565 182.291 14.9821 184.943 18.3198 186.114C19.6877 186.594 22.6188 186.725 24.2341 186.379C26.6237 185.867 29.4121 184.103 30.7575 182.252C31.5373 181.179 32.3085 179.628 32.6928 178.359C33.1627 176.807 33.118 173.468 32.6074 171.999C31.7487 169.529 29.7163 166.96 27.6297 165.708L26.6606 165.126V161.376V157.626L27.2944 157.323C28.4723 156.759 30.1251 155.542 31.226 154.426L32.3214 153.317L57.2937 153.321C81.2396 153.324 82.2938 153.338 82.9431 153.639C83.3155 153.812 83.8257 154.173 84.0768 154.442C85.1145 155.552 85.059 154.36 85.059 175.524V194.854L84.6782 195.61C84.4556 196.052 83.9925 196.578 83.5634 196.877L82.8294 197.389L44.4481 197.432L6.06698 197.476L5.31881 197.08C4.90748 196.862 4.34228 196.358 4.06299 195.96L3.55517 195.237L3.50998 175.792C3.479 162.385 3.52115 156.137 3.6459 155.672C3.86528 154.855 4.8743 153.796 5.67901 153.539C6.00046 153.436 7.3944 153.344 8.77667 153.334L11.2898 153.317L12.0438 154.158ZM24.0914 167.231C24.0383 175.83 24.0281 176.062 23.6874 176.53C22.5321 178.114 20.2324 177.764 19.7236 175.927C19.6198 175.551 19.5528 172.011 19.5523 166.861L19.5513 158.412H21.8486H24.1458L24.0914 167.231ZM70.1388 160.164C68.2836 160.799 66.9613 161.905 65.8642 163.741C63.5977 167.533 65.1768 172.556 69.2718 174.579C70.3843 175.128 70.4601 175.141 72.6229 175.141C74.8099 175.141 74.8493 175.134 75.9843 174.556C77.5253 173.771 78.8517 172.434 79.5596 170.952C81.0854 167.758 80.5282 164.498 78.0377 162.048C77.4354 161.456 76.6383 160.815 76.2664 160.625C74.4691 159.705 72.0203 159.521 70.1388 160.164ZM74.9922 162.908C76.7741 163.782 77.7707 165.388 77.7767 167.394C77.7819 169.138 77.5229 169.854 76.4773 170.987C75.3072 172.255 74.2325 172.742 72.6176 172.737C70.5603 172.73 68.926 171.745 67.9551 169.926C67.1857 168.485 67.1514 166.989 67.8523 165.46C68.5343 163.973 69.3663 163.18 70.9249 162.533C71.7738 162.18 73.9114 162.377 74.9922 162.908ZM17.0054 172.577L17.1138 176.893L17.6167 177.71C18.8945 179.783 21.5134 180.653 23.708 179.733C24.5397 179.385 25.6215 178.316 26.1124 177.359C26.5454 176.515 26.5548 176.422 26.6276 172.296C26.6684 169.984 26.7619 168.093 26.8355 168.093C26.9089 168.093 27.4357 168.604 28.006 169.228C30.6043 172.073 31.2413 175.814 29.6862 179.096C29.0465 180.446 27.2089 182.372 25.8862 183.078C21.938 185.185 16.8764 183.857 14.4367 180.073C13.4062 178.474 13.0618 177.087 13.1518 174.896C13.22 173.234 13.2815 172.953 13.8301 171.794C14.2355 170.937 14.8088 170.12 15.5778 169.302C16.2071 168.632 16.7615 168.124 16.8096 168.172C16.8577 168.221 16.9457 170.203 17.0054 172.577ZM54.6282 175.73C53.3842 176.179 52.6195 176.666 51.5763 177.672C48.404 180.73 48.3796 185.525 51.5207 188.634C52.71 189.811 53.8878 190.452 55.4746 190.786C59.9591 191.73 64.355 188.425 64.7044 183.847C64.9889 180.119 62.7904 176.803 59.3145 175.717C57.9422 175.289 55.8348 175.295 54.6282 175.73ZM58.9069 178.297C62.2144 179.539 63.2896 183.944 60.9283 186.579C59.3013 188.395 57.0159 188.881 54.798 187.882C52.8114 186.988 51.8019 185.383 51.8031 183.123C51.8038 181.98 51.8759 181.626 52.2567 180.897C52.8113 179.835 54.1822 178.566 55.1447 178.224C56.2041 177.848 57.7912 177.878 58.9069 178.297Z" stroke="black" stroke-width="1.13438" mask="url(#path-12-outside-1_1355_78)"/>
    <path d="M57.5246 182.831H57.2366V182.441H56.2241V182.831H55.936V182.037C55.936 181.921 55.956 181.814 55.9959 181.717C56.0357 181.619 56.0911 181.535 56.162 181.465C56.2329 181.395 56.3168 181.34 56.4135 181.301C56.5103 181.262 56.6159 181.242 56.7303 181.242H57.3795C57.3994 181.242 57.4183 181.246 57.436 181.254C57.4537 181.261 57.4692 181.271 57.4825 181.285C57.4958 181.298 57.5062 181.313 57.5135 181.331C57.5209 181.349 57.5246 181.368 57.5246 181.388V182.831ZM56.2241 182.153H57.2366V181.531H56.7303C56.7215 181.531 56.7026 181.532 56.6738 181.535C56.6458 181.537 56.6129 181.543 56.5752 181.554C56.5383 181.564 56.4992 181.58 56.4578 181.601C56.4165 181.623 56.3784 181.652 56.3437 181.69C56.309 181.728 56.2802 181.775 56.2573 181.832C56.2351 181.888 56.2241 181.956 56.2241 182.037V182.153Z" fill="black"/>
    <path d="M73.399 166.808C73.399 166.844 73.3927 166.882 73.3802 166.922C73.3683 166.963 73.3484 167.001 73.3203 167.035C73.293 167.07 73.2572 167.099 73.2129 167.123C73.1686 167.146 73.1143 167.157 73.05 167.157H71.9566C71.936 167.157 71.9168 167.154 71.899 167.146C71.8813 167.139 71.8658 167.129 71.8525 167.116C71.84 167.103 71.83 167.087 71.8226 167.07C71.8152 167.052 71.8115 167.033 71.8115 167.012V165.714C71.8115 165.694 71.8152 165.675 71.8226 165.657C71.83 165.64 71.84 165.624 71.8525 165.611C71.8658 165.597 71.8813 165.587 71.899 165.58C71.9168 165.572 71.936 165.569 71.9566 165.569H72.9204C72.9559 165.569 72.9939 165.575 73.0345 165.587C73.0751 165.6 73.1128 165.62 73.1475 165.648C73.183 165.676 73.2121 165.712 73.235 165.756C73.2587 165.8 73.2705 165.854 73.2705 165.919V165.973C73.2705 166.024 73.262 166.079 73.245 166.138C73.228 166.196 73.2007 166.252 73.163 166.304C73.1955 166.324 73.2258 166.348 73.2539 166.376C73.2827 166.404 73.3078 166.437 73.3292 166.474C73.3506 166.511 73.3676 166.552 73.3802 166.599C73.3927 166.645 73.399 166.697 73.399 166.753V166.808ZM73.111 166.753C73.111 166.715 73.1051 166.682 73.0932 166.652C73.0814 166.622 73.0648 166.596 73.0434 166.575C73.022 166.553 72.9961 166.537 72.9658 166.526C72.9356 166.514 72.9016 166.508 72.8639 166.508H72.2148V166.218H72.7343C72.772 166.218 72.806 166.212 72.8362 166.201C72.8665 166.189 72.8924 166.173 72.9138 166.151C72.9352 166.13 72.9514 166.104 72.9625 166.075C72.9743 166.045 72.9802 166.011 72.9802 165.973V165.919C72.9802 165.877 72.9603 165.857 72.9204 165.857H72.0995V166.869H73.05C73.0552 166.869 73.0615 166.869 73.0689 166.868C73.0763 166.867 73.0829 166.865 73.0888 166.861C73.0947 166.858 73.0999 166.851 73.1043 166.843C73.1088 166.834 73.111 166.822 73.111 166.806V166.753Z" fill="black"/>
    <rect x="2.32227" y="31.9287" width="143.098" height="93.4636" rx="6.2391" fill="#4B3325"/>
    <rect x="2.32227" y="31.9287" width="137.583" height="89.9805" rx="6.2391" fill="#6F4C38"/>
    <rect x="12.4814" y="44.7002" width="97.2369" height="68.5013" rx="2.83596" fill="#24323F"/>
    <rect x="17.1252" y="49.0537" width="93.4636" height="65.3084" rx="2.83596" fill="#1A232C"/>
    <path d="M58.9229 31.0579C58.9229 24.4853 64.2509 19.1572 70.8235 19.1572H77.2092C83.7818 19.1572 89.1098 24.4853 89.1098 31.0579H58.9229Z" fill="#BAFFFF"/>
    <path d="M58.9229 32.7991C58.9229 26.2265 64.2509 20.8984 70.8235 20.8984H77.2092C83.7818 20.8984 89.1098 26.2265 89.1098 32.7991H58.9229Z" fill="#6DC7C7"/>
    <path fill-rule="evenodd" clip-rule="evenodd" d="M56.7457 0.592455C55.5963 1.74308 55.9252 2.58338 60.2378 9.52024C62.4778 13.1232 64.2739 16.1026 64.2289 16.1413C64.1842 16.1796 63.5596 16.5077 62.8412 16.87C62.1228 17.232 60.6062 18.4576 59.471 19.5934C57.2438 21.8214 55.9301 24.0553 55.1095 27.0097L54.6187 28.7769L32.8243 28.7786C20.0642 28.7795 10.3141 28.8975 9.30311 29.0634C5.64932 29.6622 2.51481 32.0472 0.896031 35.4598L0 37.3484V79.044V120.74L0.777896 122.401C1.80977 124.605 3.94201 126.836 6.09081 127.961L7.83701 128.875H74.1613H140.486L142.159 128.027C144.246 126.969 146.515 124.601 147.54 122.411L148.323 120.74V79.044V37.3484L147.428 35.4589C145.802 32.0251 142.702 29.6669 139.02 29.0634C138.009 28.8975 128.262 28.7795 115.509 28.7786L93.7251 28.7769L93.099 26.6703C92.7545 25.5119 91.9827 23.7412 91.3839 22.7355C90.3526 21.0044 87.6203 18.1139 86.0828 17.1277L85.3784 16.6756L89.5369 9.76896C93.8807 2.55462 94.2034 1.73175 93.1469 0.563108C92.4294 -0.230415 90.684 -0.175208 89.932 0.665095C89.6104 1.02481 87.4877 4.4145 85.2153 8.1979L81.0831 15.0766L80.017 14.8808C79.4304 14.773 76.6517 14.6847 73.8417 14.6847H68.7329L64.5534 7.91314C62.2549 4.18873 60.1403 0.887084 59.8547 0.576474C59.1595 -0.180147 57.5088 -0.17143 56.7457 0.592455ZM81.8001 20.0258C84.8423 21.2362 88.047 24.8668 88.8301 27.9898L89.0275 28.7769H74.1613H59.2951L59.4887 27.9778C60.068 25.5877 62.5431 22.2834 64.8004 20.887C67.1254 19.4484 68.6861 19.1919 74.5967 19.2755C79.572 19.3461 80.2768 19.4197 81.8001 20.0258ZM140.38 34.2374C141.581 34.8636 142.153 35.4087 142.88 36.6217L143.824 38.1946V78.9702C143.824 118.662 143.809 119.775 143.264 120.844C142.511 122.32 140.63 123.973 139.273 124.351C137.716 124.783 10.6067 124.783 9.05 124.351C7.69217 123.973 5.81129 122.32 5.05864 120.844C4.51383 119.775 4.49902 118.662 4.49902 78.9702V38.1946L5.44237 36.6217C6.17005 35.4087 6.74157 34.8636 7.94266 34.2374L9.49961 33.4259H74.1613H138.823L140.38 34.2374ZM13.6587 42.1564C12.0269 42.9714 11.1962 43.8233 10.4136 45.4842L9.7295 46.937L9.73298 79.044C9.73618 109.68 9.76114 111.205 10.2743 112.337C10.5704 112.989 11.2998 113.996 11.8957 114.576C14.0544 116.674 10.5504 116.542 61.6932 116.457L107.686 116.381L108.847 115.754C110.206 115.02 111.322 113.882 112.08 112.459C112.598 111.484 112.621 110.097 112.621 79.044C112.621 48.4534 112.592 46.588 112.099 45.5981C111.383 44.158 109.944 42.7395 108.557 42.1052C107.448 41.5982 105.324 41.5747 61.0996 41.5796C15.6473 41.5845 14.7823 41.5953 13.6587 42.1564ZM125.625 44.0558C124.235 44.5689 122.319 46.3085 121.59 47.7186C121.318 48.2451 121.035 49.5317 120.96 50.5777C120.477 57.3321 128.322 61.1515 133.296 56.5836C134.983 55.0349 135.754 53.3293 135.754 51.1501C135.754 46.9826 132.883 43.9166 128.781 43.7056C127.523 43.6408 126.416 43.7637 125.625 44.0558ZM106.762 46.2579C108.157 47.002 108.103 45.6803 108.112 78.9321C108.122 110.28 108.121 110.348 107.52 111.112L106.919 111.877H61.3925C36.3533 111.877 15.6551 111.796 15.3968 111.697C14.0512 111.18 14.0773 111.828 14.0819 78.9859C14.0866 45.9325 14.0367 47.052 15.5347 46.2931C16.5433 45.7823 105.805 45.748 106.762 46.2579ZM130.181 48.7939C130.58 49.0816 131.03 49.8034 131.18 50.3978C131.883 53.173 128.649 55.1723 126.452 53.3215C125.349 52.3925 125.082 51.2355 125.655 49.8632C126.413 48.0481 128.472 47.5614 130.181 48.7939ZM121.606 93.7042C120.741 94.5698 120.675 95.8538 121.448 96.8086C122 97.4911 122.035 97.4946 128.239 97.4946C133.963 97.4946 134.525 97.4493 135.085 96.9411C136.002 96.1107 135.922 94.3731 134.931 93.5933C134.215 93.0287 133.796 92.9909 128.242 92.9909C122.339 92.9909 122.315 92.9935 121.606 93.7042ZM121.524 106.448C120.686 107.341 120.704 108.693 121.565 109.502C122.211 110.11 122.472 110.134 128.386 110.134C134.148 110.134 134.572 110.097 135.116 109.553C135.475 109.193 135.696 108.584 135.696 107.955C135.696 107.325 135.475 106.716 135.116 106.357C134.572 105.812 134.148 105.776 128.345 105.776C122.25 105.776 122.146 105.786 121.524 106.448Z" fill="black"/>
    <rect width="12.1909" height="2.32208" rx="1.16104" transform="matrix(1 0 0 -1 122.199 96.3662)" fill="white"/>
    <rect width="12.1909" height="2.32208" rx="1.16104" transform="matrix(1 0 0 -1 122.199 109.138)" fill="white"/>
    <g filter="url(#filter1_i_1355_78)">
        <path d="M52.5344 86.4098C50.8508 88.1345 48.7009 89.3022 46.3626 89.7619C44.0242 90.2217 41.6051 89.9523 39.4178 88.9887C37.2305 88.0251 35.3756 86.4115 34.093 84.3566C32.8104 82.3017 32.159 79.8999 32.2231 77.4617C32.2871 75.0235 33.0636 72.661 34.4522 70.6797C35.8408 68.6984 37.7777 67.1893 40.0124 66.3476C42.2471 65.5059 44.6769 65.3702 46.9877 65.958C49.2985 66.5459 51.3841 67.8303 52.9747 69.6452L44.1194 77.7895L52.5344 86.4098Z" fill="#FF911A"/>
    </g>
    <path d="M73.1455 75.1773C73.1455 70.5284 76.9142 66.7598 81.563 66.7598C86.2119 66.7598 89.9806 70.5284 89.9806 75.1773V87.3682L87.6585 84.901L84.6108 88.5292L81.563 84.901L78.9507 88.5292L75.4676 84.901L73.1455 87.3682V75.1773Z" fill="#A72B2B"/>
    <path d="M72.8557 76.1929C72.8557 71.9447 76.2995 68.501 80.5476 68.501C84.7957 68.501 88.2395 71.9447 88.2395 76.1929V87.0776L86.7882 85.336L83.8856 89.9802L81.1281 85.336L77.9353 89.9802L74.8875 85.336L72.8557 87.9484V76.1929Z" fill="#FF4A4A"/>
    <path fill-rule="evenodd" clip-rule="evenodd" d="M75.4606 86.6416L78.0355 90.862C78.1459 91.0429 78.3416 91.1531 78.5525 91.1531C78.7614 91.1531 78.9556 91.0449 79.0666 90.8666L81.6148 86.772L84.1955 90.8795C84.3025 91.0498 84.4887 91.1531 84.6889 91.1531C84.8924 91.1531 85.0812 91.0464 85.1873 90.8716L87.7691 86.6155L91.0966 90.9227C91.2089 91.0681 91.3816 91.1531 91.5646 91.1531C91.8921 91.1531 92.1575 90.8859 92.1575 90.5562V75.0623C92.1575 69.2008 87.4374 64.4492 81.6148 64.4492C75.7923 64.4492 71.0722 69.2008 71.0722 75.0623V90.5449C71.0722 90.8808 71.3427 91.1531 71.6763 91.1531C71.8627 91.1531 72.0386 91.0665 72.1531 90.9185L75.4606 86.6416ZM75.7083 82.1415L73.6228 84.8382V75.0623C73.6228 70.6189 77.201 67.0169 81.6148 67.0169C86.0287 67.0169 89.6069 70.6189 89.6069 75.0623V84.8119L87.5161 82.1057L84.6596 86.8147L81.6046 81.9521L78.5689 86.83L75.7083 82.1415Z" fill="black"/>
    <path d="M40.9888 71.5386C40.9888 71.2941 41.1768 70.9047 41.4063 70.6731C41.6359 70.4415 42.022 70.2519 42.2643 70.2519C42.8313 70.2519 43.5399 70.9666 43.5399 71.5386C43.5399 71.783 43.3519 72.1724 43.1223 72.404C42.8927 72.6356 42.5067 72.8252 42.2643 72.8252C42.022 72.8252 41.6359 72.6356 41.4063 72.404C41.1768 72.1724 40.9888 71.783 40.9888 71.5386Z" fill="black"/>
    <path fill-rule="evenodd" clip-rule="evenodd" d="M29.7517 77.826C29.7614 71.1366 34.45 65.6483 41.0699 64.5773C42.3426 64.3712 44.8108 64.5341 46.3098 64.9228C49.4921 65.7481 53.4605 68.7187 53.4605 70.2755C53.4605 70.7176 52.9853 71.2718 50.162 74.1224L46.8633 77.453L50.3036 80.9384C52.8641 83.5325 53.8604 84.4739 53.7671 85.289C53.7047 85.835 53.1534 86.3242 52.2559 87.2155C49.3269 90.1243 46.3441 91.3027 42.3494 91.129C40.1784 91.0347 38.7601 90.6667 36.9072 89.7167C35.5157 89.0034 34.8835 88.5296 33.5354 87.1896C31.0165 84.6858 29.7463 81.5424 29.7517 77.826ZM49.4693 69.3184C48.1465 68.3154 47.5229 67.9904 46.0288 67.526C43.2999 66.6777 40.0589 67.0309 37.6825 68.4357C34.2638 70.4566 32.3152 73.8176 32.3029 77.7143C32.2966 79.7296 32.5371 80.8305 33.3658 82.5811C34.2045 84.3527 36.0597 86.3363 37.7747 87.2949C41.6053 89.4359 46.6883 88.8933 49.9067 85.9998L50.8817 85.1231L47.3808 81.5887C44.1676 78.3447 43.88 78.0054 43.88 77.457C43.88 76.9097 44.1591 76.5778 47.2115 73.4961L50.5429 70.1324L49.4693 69.3184Z" fill="black"/>
    <path d="M53.7331 79.0009C52.586 79.0009 52.0026 77.464 52.8785 76.7487C53.3904 76.3304 53.9304 76.3421 54.4863 76.7833C55.3465 77.4657 54.8251 79.0009 53.7331 79.0009Z" fill="black"/>
    <path d="M56.9753 77.7143C56.9753 77.4698 57.1632 77.0804 57.3928 76.8489C57.6224 76.6172 58.0084 76.4277 58.2508 76.4277C58.4931 76.4277 58.8792 76.6172 59.1088 76.8489C59.3384 77.0804 59.5263 77.4698 59.5263 77.7143C59.5263 77.9588 59.3384 78.3482 59.1088 78.5798C58.8792 78.8113 58.4931 79.0009 58.2508 79.0009C58.0084 79.0009 57.6224 78.8113 57.3928 78.5798C57.1632 78.3482 56.9753 77.9588 56.9753 77.7143Z" fill="black"/>
    <path d="M62.9277 79.0009C61.7904 79.0009 61.2867 77.4962 62.1853 76.7833C62.4317 76.5877 62.7657 76.4277 62.9277 76.4277C63.0896 76.4277 63.4236 76.5877 63.67 76.7833C64.5686 77.4962 64.0649 79.0009 62.9277 79.0009Z" fill="black"/>
    <path d="M68.9481 77.7143C68.9481 78.8594 67.8569 79.3672 66.9472 78.6453C66.3275 78.1536 66.3275 77.275 66.9472 76.7833C67.8569 76.0615 68.9481 76.5692 68.9481 77.7143Z" fill="black"/>
    <circle cx="79.2408" cy="74.306" r="1.36343" stroke="black" stroke-width="0.756255"/>
    <circle cx="85.3365" cy="74.306" r="1.36343" stroke="black" stroke-width="0.756255"/>
    <circle cx="128.294" cy="51.0855" r="5.80519" fill="white"/>
    <circle cx="128.294" cy="51.0855" r="4.48174" stroke="#DCAC03" stroke-width="2.64689" stroke-dasharray="2.84 0"/>
    <path d="M128.294 63.2764L135.584 75.9027H121.005L128.294 63.2764Z" fill="white"/>
    <path d="M126.472 66.4329L127.476 64.6943L127.674 65.0375L128.294 64.6793L128.915 65.0375L129.113 64.6943L130.117 66.4329L128.889 67.1419L130.104 69.2463L131.332 68.5373L132.547 70.6417L131.319 71.3507L132.534 73.4551L133.762 72.7461L134.766 74.4847H134.369V75.2012L133.749 75.5595L133.947 75.9027H131.939V74.4847H129.509V75.9027H127.08V74.4847H124.65V75.9027H122.642L122.84 75.5595L122.22 75.2012V74.4847H121.823L122.827 72.7461L124.055 73.4551L125.27 71.3507L124.042 70.6417L125.257 68.5373L126.485 69.2463L127.7 67.1419L126.472 66.4329Z" stroke="#DCAC03" stroke-width="2.83596" stroke-dasharray="2.84 2.84"/>
    <path d="M121.987 75.3355L128.294 64.4107L134.602 75.3355H121.987Z" stroke="black" stroke-width="1.13438"/>
    <path d="M55.6815 106.814C55.6057 106.814 55.5353 106.801 55.4703 106.776C55.4053 106.75 55.3484 106.715 55.2997 106.672C55.2537 106.626 55.2171 106.572 55.19 106.51C55.163 106.449 55.1494 106.382 55.1494 106.311V101.804C55.1494 101.735 55.163 101.67 55.19 101.608C55.2171 101.547 55.2537 101.493 55.2997 101.447C55.3484 101.401 55.4053 101.365 55.4703 101.339C55.5353 101.314 55.6057 101.301 55.6815 101.301H58.5327C58.882 101.301 59.2055 101.358 59.5034 101.474C59.8012 101.589 60.0585 101.749 60.2751 101.954C60.4917 102.157 60.6609 102.4 60.7828 102.685C60.8813 102.908 60.9409 103.147 60.9614 103.402H59.9002C59.8846 103.286 59.8552 103.176 59.8121 103.073C59.7471 102.912 59.6537 102.775 59.5318 102.662C59.41 102.546 59.2638 102.458 59.0932 102.397C58.9253 102.332 58.7385 102.3 58.5327 102.3H56.2054V105.815H57.275V106.814H55.6815Z" fill="white"/>
    <path d="M60.0482 105.913C60.0561 105.895 60.06 105.876 60.06 105.854V105.19C60.06 105.17 60.0561 105.151 60.0482 105.133C60.0404 105.115 60.0294 105.099 60.0152 105.086C60.0018 105.072 59.9857 105.062 59.9668 105.054C59.9479 105.046 59.9275 105.042 59.9055 105.042H58.9368V105.339H59.7533V105.708H58.7988C58.7594 105.708 58.7287 105.698 58.7067 105.678C58.6855 105.656 58.6749 105.627 58.6749 105.589V104.793C58.6749 104.753 58.6855 104.723 58.7067 104.702C58.728 104.682 58.7586 104.672 58.7988 104.672H60.0459V104.377H58.7988C58.7461 104.377 58.6989 104.384 58.6572 104.396C58.6155 104.409 58.5785 104.427 58.5463 104.449C58.5148 104.47 58.4877 104.494 58.4648 104.522C58.442 104.55 58.4236 104.58 58.4094 104.611C58.3952 104.641 58.3846 104.672 58.3775 104.704C58.3712 104.735 58.3681 104.764 58.3681 104.791V105.589C58.3681 105.64 58.3748 105.686 58.3882 105.726C58.4015 105.766 58.4192 105.802 58.4413 105.833C58.4641 105.863 58.49 105.889 58.5191 105.911C58.5482 105.932 58.5785 105.95 58.61 105.963C58.6422 105.977 58.6745 105.987 58.7067 105.994C58.7398 106 58.7704 106.003 58.7988 106.003H59.9055C59.9275 106.003 59.9479 105.999 59.9668 105.992C59.9857 105.984 60.0018 105.974 60.0152 105.961C60.0294 105.947 60.0404 105.932 60.0482 105.913Z" fill="white"/>
    <path d="M61.6399 105.73C61.6548 105.682 61.6623 105.638 61.6623 105.597V105.183C61.6623 105.109 61.6481 105.046 61.6198 104.995C61.5915 104.943 61.5561 104.901 61.5136 104.869C61.4719 104.837 61.4263 104.813 61.3768 104.799C61.328 104.785 61.2824 104.777 61.2399 104.777H60.5662V105.057H61.2399C61.2777 105.057 61.3087 105.069 61.3331 105.091C61.3583 105.114 61.3709 105.145 61.3709 105.183V105.595C61.3709 105.631 61.3595 105.661 61.3367 105.686C61.3138 105.71 61.2816 105.722 61.2399 105.722H60.6889C60.6527 105.722 60.6213 105.711 60.5945 105.69C60.5686 105.668 60.5556 105.638 60.5556 105.599C60.5556 105.563 60.567 105.533 60.5898 105.509C60.6126 105.484 60.6449 105.471 60.6865 105.471H61.2399V105.19H60.6865C60.6095 105.19 60.5438 105.204 60.4895 105.231C60.436 105.258 60.3924 105.292 60.3585 105.333C60.3255 105.373 60.3015 105.417 60.2866 105.464C60.2716 105.512 60.2642 105.556 60.2642 105.597C60.2642 105.671 60.2783 105.734 60.3066 105.786C60.3349 105.838 60.3699 105.88 60.4116 105.912C60.4541 105.944 60.4997 105.967 60.5485 105.981C60.5981 105.996 60.6441 106.003 60.6865 106.003H61.2399C61.317 106.003 61.3823 105.989 61.4358 105.962C61.49 105.935 61.5337 105.901 61.5667 105.861C61.6005 105.82 61.6249 105.777 61.6399 105.73Z" fill="white"/>
    <path d="M62.756 106.003H63.0628V105.19C63.0628 105.148 63.0577 105.108 63.0475 105.072H63.3236C63.3652 105.072 63.3959 105.082 63.4156 105.103C63.436 105.122 63.4463 105.151 63.4463 105.19V106.003H63.753V105.19C63.753 105.139 63.7463 105.094 63.733 105.054C63.7196 105.014 63.7019 104.979 63.6799 104.949C63.6579 104.918 63.6323 104.891 63.6032 104.87C63.5741 104.848 63.5434 104.831 63.5112 104.817C63.4797 104.803 63.4478 104.794 63.4156 104.788C63.3833 104.781 63.3527 104.777 63.3236 104.777H62.9082V104.868C62.8642 104.836 62.8178 104.813 62.769 104.799C62.7202 104.785 62.6746 104.777 62.6321 104.777H62.0788C62.0576 104.777 62.0375 104.781 62.0186 104.789C61.9997 104.796 61.9832 104.807 61.9691 104.82C61.9549 104.833 61.9439 104.849 61.936 104.867C61.9282 104.884 61.9242 104.903 61.9242 104.924V106.003H62.231V105.072H62.6298C62.6715 105.072 62.7029 105.082 62.7242 105.103C62.7454 105.122 62.756 105.151 62.756 105.19V106.003Z" fill="white"/>
    <path d="M64.4999 105.339H65.4697V105.042H64.4999V105.339Z" fill="white"/>
    <path d="M64.3772 104.672H65.6066V104.377H64.225C64.2029 104.377 64.1825 104.381 64.1636 104.388C64.1447 104.396 64.1282 104.407 64.1141 104.42C64.1007 104.434 64.0901 104.45 64.0822 104.468C64.0743 104.486 64.0704 104.505 64.0704 104.526V106.003H64.3772V104.672Z" fill="white"/>
    <path d="M65.8249 104.526H66.1316V104.259H65.8249V104.526Z" fill="white"/>
    <path d="M65.8249 106.003H66.1316V104.777H65.8249V106.003Z" fill="white"/>
    <path fill-rule="evenodd" clip-rule="evenodd" d="M57.4556 104.015C57.4556 103.774 57.6621 103.578 57.9169 103.578H66.5888C66.8435 103.578 67.0501 103.774 67.0501 104.015V106.378C67.0501 106.62 66.8435 106.816 66.5888 106.816H57.9169C57.6621 106.816 57.4556 106.62 57.4556 106.378V104.015ZM57.9169 103.753H66.5888C66.7416 103.753 66.8655 103.87 66.8655 104.015V106.378C66.8655 106.523 66.7416 106.641 66.5888 106.641H57.9169C57.764 106.641 57.6401 106.523 57.6401 106.378V104.015C57.6401 103.87 57.764 103.753 57.9169 103.753Z" fill="white"/>
    <defs>
        <filter id="filter0_i_1355_78" x="3.77344" y="153.547" width="81.2727" height="43.5391" filterUnits="userSpaceOnUse" color-interpolation-filters="sRGB">
            <feFlood flood-opacity="0" result="BackgroundImageFix"/>
            <feBlend mode="normal" in="SourceGraphic" in2="BackgroundImageFix" result="shape"/>
            <feColorMatrix in="SourceAlpha" type="matrix" values="0 0 0 0 0 0 0 0 0 0 0 0 0 0 0 0 0 0 127 0" result="hardAlpha"/>
            <feOffset dx="-2.26877" dy="-0.945319"/>
            <feComposite in2="hardAlpha" operator="arithmetic" k2="-1" k3="1"/>
            <feColorMatrix type="matrix" values="0 0 0 0 0 0 0 0 0 0 0 0 0 0 0 0 0 0 0.25 0"/>
            <feBlend mode="normal" in2="shape" result="effect1_innerShadow_1355_78"/>
        </filter>
        <filter id="filter1_i_1355_78" x="32.2188" y="65.5986" width="20.7559" height="24.3818" filterUnits="userSpaceOnUse" color-interpolation-filters="sRGB">
            <feFlood flood-opacity="0" result="BackgroundImageFix"/>
            <feBlend mode="normal" in="SourceGraphic" in2="BackgroundImageFix" result="shape"/>
            <feColorMatrix in="SourceAlpha" type="matrix" values="0 0 0 0 0 0 0 0 0 0 0 0 0 0 0 0 0 0 127 0" result="hardAlpha"/>
            <feOffset dx="1.32345" dy="1.13438"/>
            <feComposite in2="hardAlpha" operator="arithmetic" k2="-1" k3="1"/>
            <feColorMatrix type="matrix" values="0 0 0 0 0 0 0 0 0 0 0 0 0 0 0 0 0 0 0.25 0"/>
            <feBlend mode="normal" in2="shape" result="effect1_innerShadow_1355_78"/>
        </filter>
    </defs>
</svg>
