<svg width="36" height="36" viewBox="0 0 36 36" fill="none" xmlns="http://www.w3.org/2000/svg">
  <path d="M0 18C0 16.1426 0 15.214 0.0770444 14.4317C0.825228 6.83529 6.83529 0.825228 14.4317 0.0770444C15.214 0 16.1426 0 18 0C19.8574 0 20.786 0 21.5683 0.0770444C29.1647 0.825228 35.1748 6.83529 35.923 14.4317C36 15.214 36 16.1426 36 18C36 19.8574 36 20.786 35.923 21.5683C35.1748 29.1647 29.1647 35.1748 21.5683 35.923C20.786 36 19.8574 36 18 36C16.1426 36 15.214 36 14.4317 35.923C6.83529 35.1748 0.825228 29.1647 0.0770444 21.5683C0 20.786 0 19.8574 0 18Z" fill="url(#paint0_linear_1319_303)"/>
  <path d="M18 7.5C12.2012 7.5 7.5 12.2012 7.5 18C7.5 22.958 10.9375 27.1108 15.5588 28.2117C15.3197 28.1547 15.0826 28.0909 14.85 28.0182V25.6125C14.85 25.6125 14.4562 25.7437 13.9312 25.7437C12.4625 25.7437 11.8522 24.4333 11.7 23.775C11.6075 23.374 11.366 22.994 11.1067 22.7618C10.797 22.4855 10.652 22.4847 10.65 22.3902C10.646 22.1919 10.9157 22.2 11.0437 22.2C11.7 22.2 12.1975 22.8982 12.4285 23.2593C13.0008 24.1506 13.615 24.3 13.9312 24.3C14.325 24.3 14.665 24.241 14.8993 24.128C15.0075 23.3655 15.3467 22.6862 15.9 22.2C13.4377 21.7077 11.7 20.2955 11.7 18C11.7 16.8175 12.1745 15.7308 12.9653 14.8532C12.8845 14.6242 12.75 14.161 12.75 13.4062C12.75 12.9075 12.7847 12.2953 13.0125 11.7C13.0125 11.7 14.51 11.7105 15.9222 13.048C16.574 12.8582 17.2715 12.75 18 12.75C18.7285 12.75 19.426 12.8582 20.0778 13.048C21.49 11.7105 22.9875 11.7 22.9875 11.7C23.2165 12.2953 23.25 12.9075 23.25 13.4062C23.25 14.22 23.1418 14.6945 23.0755 14.8993C23.842 15.7688 24.3 16.8385 24.3 18C24.3 20.2955 22.5623 21.7077 20.1 22.2C20.7575 22.7775 21.15 23.6187 21.15 24.5625V28.0182C20.9174 28.0913 20.6807 28.1547 20.4412 28.2117C25.0625 27.1108 28.5 22.958 28.5 18C28.5 12.2012 23.7988 7.5 18 7.5ZM18.7322 28.4717C18.4903 28.4887 18.2463 28.5 18 28.5C18.2463 28.5 18.4899 28.4883 18.7322 28.4717ZM20.3367 28.2359C19.8666 28.3429 19.3848 28.418 18.8929 28.4596C19.3848 28.418 19.8666 28.3425 20.3367 28.2359ZM18 28.5C17.7537 28.5 17.5097 28.4887 17.2678 28.4717C17.5101 28.4883 17.7537 28.5 18 28.5ZM17.1067 28.4596C16.6152 28.418 16.133 28.3429 15.6633 28.2359C16.1334 28.3425 16.6152 28.418 17.1067 28.4596Z" fill="white"/>
  <path d="M14.4317 35.923L14.5297 34.9278L14.4317 35.923ZM35.923 21.5683L36.9181 21.6663L35.923 21.5683ZM21.5683 35.923L21.6663 36.9181L21.5683 35.923ZM21.5683 0.0770444L21.6663 -0.91814L21.5683 0.0770444ZM35.923 14.4317L34.9278 14.5297L35.923 14.4317ZM14.4317 0.0770444L14.3337 -0.91814L14.4317 0.0770444ZM18 35C16.1189 35 15.2508 34.9988 14.5297 34.9278L14.3337 36.9181C15.1772 37.0012 16.1664 37 18 37V35ZM-1 18C-1 19.8336 -1.00121 20.8228 -0.91814 21.6663L1.07223 21.4703C1.00121 20.7492 1 19.8811 1 18H-1ZM14.5297 34.9278C7.40809 34.2263 1.77365 28.5919 1.07223 21.4703L-0.91814 21.6663C-0.123196 29.7375 6.2625 36.1232 14.3337 36.9181L14.5297 34.9278ZM35 18C35 19.8811 34.9988 20.7492 34.9278 21.4703L36.9181 21.6663C37.0012 20.8228 37 19.8336 37 18H35ZM18 37C19.8336 37 20.8228 37.0012 21.6663 36.9181L21.4703 34.9278C20.7492 34.9988 19.8811 35 18 35V37ZM34.9278 21.4703C34.2263 28.5919 28.5919 34.2263 21.4703 34.9278L21.6663 36.9181C29.7375 36.1232 36.1232 29.7375 36.9181 21.6663L34.9278 21.4703ZM18 1C19.8811 1 20.7492 1.00121 21.4703 1.07223L21.6663 -0.91814C20.8228 -1.00121 19.8336 -1 18 -1V1ZM37 18C37 16.1664 37.0012 15.1772 36.9181 14.3337L34.9278 14.5297C34.9988 15.2508 35 16.1189 35 18H37ZM21.4703 1.07223C28.5919 1.77365 34.2263 7.40809 34.9278 14.5297L36.9181 14.3337C36.1232 6.2625 29.7375 -0.123196 21.6663 -0.91814L21.4703 1.07223ZM18 -1C16.1664 -1 15.1772 -1.00121 14.3337 -0.91814L14.5297 1.07223C15.2508 1.00121 16.1189 1 18 1V-1ZM1 18C1 16.1189 1.00121 15.2508 1.07223 14.5297L-0.91814 14.3337C-1.00121 15.1772 -1 16.1664 -1 18H1ZM14.3337 -0.91814C6.2625 -0.123196 -0.123196 6.2625 -0.91814 14.3337L1.07223 14.5297C1.77365 7.40809 7.40809 1.77365 14.5297 1.07223L14.3337 -0.91814Z" fill="url(#paint1_linear_1319_303)"/>
  <defs>
    <linearGradient id="paint0_linear_1319_303" x1="18" y1="0" x2="18" y2="36" gradientUnits="userSpaceOnUse">
      <stop stop-opacity="0.2"/>
      <stop offset="1" stop-color="white" stop-opacity="0"/>
    </linearGradient>
    <linearGradient id="paint1_linear_1319_303" x1="95.2382" y1="-0.0420334" x2="95.2382" y2="36" gradientUnits="userSpaceOnUse">
      <stop stop-color="#D1F7FF"/>
      <stop offset="1" stop-color="#6BA3AE"/>
    </linearGradient>
  </defs>
</svg>
