<svg width="40" height="40" viewBox="0 0 40 40" fill="none" xmlns="http://www.w3.org/2000/svg">
    <path fill-rule="evenodd" clip-rule="evenodd" d="M24.5455 6.31579V5.47368V3.78947C24.5455 2.85931 23.7314 2.10526 22.7273 2.10526H15C13.9958 2.10526 13.1818 2.85931 13.1818 3.78947V5.47368V6.31579H24.5455ZM10.9091 6.31579V3.78947C10.9091 1.69661 12.7407 0 15 0H22.7273C24.9866 0 26.8182 1.6966 26.8182 3.78947V6.31579H33.0435C35.925 6.31579 38.2609 8.47021 38.2609 11.1278V14.7366C38.1824 14.7367 38.1029 14.7434 38.023 14.757L19.6432 17.9015C19.3052 17.9592 18.9561 17.9593 18.618 17.9016L0.237894 14.757C0.157996 14.7434 0.0784477 14.7367 0 14.7366V11.1278C0 8.47021 2.33591 6.31579 5.21739 6.31579H10.9091ZM28.7186 26.2699C28.5977 26.0191 28.5189 25.8557 28.5509 25.7136C28.6109 25.4475 29.0594 25.2566 30.3479 24.7082L30.4995 24.6436C30.6967 24.5596 30.8758 24.4815 31.039 24.4102L31.0391 24.4101C31.8256 24.0667 32.2437 23.8842 32.5437 23.9897C32.8843 24.1095 33.0727 24.6003 33.4751 25.6481C33.5486 25.8396 33.6293 26.0499 33.7195 26.2798L34.5644 28.4361L36.7708 29.8787C37.042 30.056 37.2905 30.2161 37.5182 30.3629L37.5182 30.3629C38.6862 31.1157 39.3077 31.5163 39.6367 32.067C40.011 32.6934 40.0067 33.5139 39.9974 35.268V35.268V35.2683V35.2685C39.9958 35.569 39.9941 35.897 39.9941 36.256V39.5964H38.9508V36.325C38.9508 32.7635 38.9505 32.7598 38.602 32.3732C38.4406 32.1941 35.3491 30.0971 35.2465 30.0971C35.233 30.0971 35.4409 30.6511 35.7084 31.3284C36.4068 33.0958 36.4966 33.5743 36.3027 34.4917L36.2319 34.8263L37.26 35.8078L36.53 36.5083L32.7176 32.8944L32.4436 32.8946C32.0795 32.8949 31.8042 33.059 31.7092 33.3322C31.5682 33.7382 31.6349 33.8387 32.7541 34.908C33.3271 35.4554 33.7965 35.9409 33.7972 35.9869C33.817 37.3531 34.7261 38.3561 36.1433 38.5754L36.3734 38.611V39.6048L36.0205 39.5639C34.8145 39.4244 33.6892 38.689 33.1807 37.7082C33.0711 37.4966 32.9751 37.3236 32.9674 37.3236C32.9349 37.3236 31.6116 37.8034 31.5418 37.8405C31.4097 37.9107 31.7465 38.3002 32.1062 38.493L32.4355 38.6695L32.2786 39.1184C32.1923 39.3653 32.1145 39.5756 32.1058 39.5857C31.9926 39.7175 30.9884 38.9916 30.683 38.5574L30.444 38.2175L27.8703 39.14C27.555 39.253 27.2731 39.3559 27.0206 39.4481L27.0205 39.4482C25.7462 39.9135 25.22 40.1057 24.9126 39.9431C24.6963 39.8287 24.5883 39.5387 24.4043 39.0447L24.4042 39.0447C24.3524 38.9055 24.2945 38.7502 24.2265 38.578C23.9874 37.9728 23.7838 37.4701 23.7741 37.4609C23.7644 37.4517 23.5783 37.5127 23.3606 37.5964C23.0705 37.708 22.8149 37.7561 22.4047 37.7768C18.8233 37.9567 17.8278 33.2469 21.2005 32.0791C21.4113 32.0061 21.5839 31.9326 21.5839 31.9159C21.5839 31.8991 21.2916 31.1396 20.9343 30.2281C20.8628 30.0458 20.7963 29.8806 20.7359 29.7304C20.4385 28.9917 20.2876 28.6169 20.4131 28.3563C20.5424 28.0878 20.9648 27.9405 21.8222 27.6415C21.9915 27.5825 22.1776 27.5176 22.3818 27.4447C24.7956 26.5827 24.8546 26.5842 24.9534 27.5108C25.1683 29.527 27.8293 30.0153 28.8362 28.2234C29.0833 27.7836 29.0431 26.946 28.7452 26.3252L28.7186 26.2699ZM38.2609 17.1634L20.1186 20.2672C19.4663 20.3787 18.7945 20.3787 18.1422 20.2672L0 17.1634V28.7719C0 31.4295 2.33591 33.584 5.21739 33.584H16.2883C16.2848 32.2193 17.0656 30.8469 18.82 30.1766C19.0896 30.0736 19.3095 29.9721 19.3085 29.9509C19.3075 29.9297 18.883 28.9865 18.3651 27.8549C18.2615 27.6286 18.1654 27.4235 18.078 27.2372C17.6508 26.3262 17.4328 25.8612 17.575 25.5263C17.7233 25.1772 18.2633 24.9696 19.3662 24.5455C19.5826 24.4623 19.8206 24.3708 20.0816 24.2682C23.1667 23.056 23.2435 23.0549 23.4264 24.219C23.8245 26.7517 27.3103 27.2305 28.5129 24.9175C28.808 24.3499 28.7064 23.2951 28.2828 22.5272L28.245 22.4589C28.0739 22.1501 27.9621 21.9483 27.9939 21.768C28.0537 21.4281 28.624 21.1646 30.2696 20.4042L30.4628 20.315C30.7141 20.1988 30.9422 20.0909 31.1501 19.9925C32.1573 19.5159 32.6901 19.2639 33.0868 19.3864C33.5322 19.524 33.8062 20.1339 34.3877 21.4287L34.3877 21.4287C34.4946 21.6666 34.6118 21.9277 34.7425 22.2132L35.9672 24.8903L36.9513 26.9508C36.9337 26.9514 37.2365 27.6398 37.624 28.4805C37.8426 28.9546 38.0207 29.3543 38.1636 29.7013C38.2274 29.4006 38.2609 29.0899 38.2609 28.7719V17.1634Z" fill="url(#paint0_linear_704_432)"/>
    <defs>
        <linearGradient id="paint0_linear_704_432" x1="20" y1="0" x2="20" y2="40" gradientUnits="userSpaceOnUse">
            <stop stop-color="#FE3218"/>
            <stop offset="1" stop-color="#FF911A"/>
        </linearGradient>
    </defs>
</svg>
