<svg width="40" height="40" viewBox="0 0 40 40" fill="none" xmlns="http://www.w3.org/2000/svg">
    <path fill-rule="evenodd" clip-rule="evenodd" d="M21.9 4H35C37.7614 4 40 6.23858 40 9V35C40 37.7614 37.7614 40 35 40H23C20.5401 40 18.495 38.2235 18.0778 35.8835C17.7307 35.9598 17.37 36 17 36H5C2.23858 36 0 33.7614 0 31V5C0 2.23858 2.23858 0 5 0H17C19.419 0 21.4367 1.71776 21.9 4ZM24.2779 18.7107V15.9998H33.6767V18.7107H30.2406V20.0119L30.3501 20.0147C30.4103 20.0162 30.5278 20.0242 30.6111 20.0325L31.1501 20.0862C36.3332 20.6032 36.2632 22.8056 31.0491 23.2646C30.7989 23.2866 30.5147 23.3131 30.4174 23.3235L30.2406 23.3424V27.9998H27.714V23.3405L27.6045 23.3233C27.5443 23.3139 27.2828 23.2876 27.0234 23.265C24.0488 23.0051 22.3337 22.0616 23.2425 21.1849C23.8025 20.6447 26.1905 20.0119 27.6689 20.0119C27.7049 20.0119 27.714 19.8808 27.714 19.3613V18.7107H24.2779ZM34.0601 21.7366C35.0331 21.1802 33.4635 20.5131 30.8095 20.355C30.5985 20.3424 30.3842 20.3266 30.3332 20.3198L30.2406 20.3073V21.8819L30.1142 21.9044C29.9471 21.934 28.1855 21.934 27.9211 21.9044L27.714 21.8811V20.326L27.3014 20.3488C25.6226 20.4413 24.086 20.8091 23.7711 21.1939C22.7061 22.4954 31.8867 22.9795 34.0601 21.7366ZM26.0006 35.0001C26.0006 34.4479 26.4483 34.0001 27.0006 34.0001H31.0006C31.5529 34.0001 32.0006 34.4479 32.0006 35.0001C32.0006 35.5524 31.5529 36.0001 31.0006 36.0001H27.0006C26.4483 36.0001 26.0006 35.5524 26.0006 35.0001ZM8.9988 30C8.44651 30 7.9988 30.4477 7.9988 31C7.9988 31.5523 8.44651 32 8.9988 32H12.9988C13.5511 32 13.9988 31.5523 13.9988 31C13.9988 30.4477 13.5511 30 12.9988 30H8.9988ZM16.0871 15.7265C16.6757 15.1244 17.1839 14.6046 18.0735 14.679C17.7879 14.5296 16.6886 14.3856 16.1179 14.8137C16.0592 14.8071 16.011 14.7971 15.9657 14.7878C15.8127 14.7561 15.6932 14.7313 15.3188 14.8707C14.3831 15.219 13.8195 15.8696 13.8195 15.8696C13.8195 15.8696 15.2617 15.413 15.1142 15.727C14.2477 16.4167 13.2164 17.1668 11.7508 17.3217C14.2479 17.6077 15.249 16.5837 16.0871 15.7265ZM16.0407 14.9383L15.4129 15.2236V14.9953C15.6273 14.8966 15.7638 14.88 16.0407 14.9383ZM16.5865 15.65C15.7419 18.0483 13.7479 19.653 10.6468 20.7468C12.8096 19.522 13.7104 18.7776 14.6548 17.3304C15.5964 16.7906 16.0227 16.4262 16.5865 15.65ZM5.78293 23.8647C6.8048 23.0758 8.48058 22.6548 10.1945 22.2242C13.417 21.4146 16.7743 20.5711 16.1736 17.1844C14.5367 19.7443 12.462 20.566 10.3054 21.4201C8.79746 22.0173 7.24941 22.6304 5.78293 23.8647ZM13.8195 21.4362C12.3647 23.1256 11.0743 23.4763 9.65773 23.8613C8.32392 24.2238 6.87823 24.6167 5.07812 26.186C7.12296 24.3431 8.50111 23.7998 9.72116 23.3189C10.5588 22.9887 11.322 22.6878 12.1752 22.0159C12.9007 21.8008 13.2522 21.6779 13.8195 21.4362ZM9.70938 26.2709C9.97651 25.1871 10.374 24.5408 11.529 23.5139L10.6181 23.8578C9.81658 25.1061 9.75656 25.5393 9.70938 26.2709ZM10.497 20.7468H7.95717L7.95717 14.0716H12.1522C12.8371 14.0716 13.465 14.2143 14.0928 14.9277C14.8097 14.4126 15.2105 14.2063 15.9192 14.2713C15.2343 13.0157 13.7789 12.1595 12.1522 12.1595H7.21518C6.50173 12.1311 6.10221 12.4735 6.04513 13.0728L6.04513 21.3773C5.99208 22.4914 6.67863 22.5947 6.89033 22.6265C6.9064 22.6289 6.91974 22.6309 6.9298 22.6329C7.66577 21.9281 8.44026 21.5139 10.497 20.7468Z" fill="url(#paint0_linear_940_251)"/>
    <defs>
        <linearGradient id="paint0_linear_940_251" x1="20" y1="0" x2="20" y2="40" gradientUnits="userSpaceOnUse">
            <stop stop-color="#FE3218"/>
            <stop offset="1" stop-color="#FF911A"/>
        </linearGradient>
    </defs>
</svg>
