<svg width="146" height="64" viewBox="0 0 146 64" fill="none" xmlns="http://www.w3.org/2000/svg">
    <path d="M15.6562 49H12.0312C10.8646 49 9.61458 48.8021 8.28125 48.4062C6.96875 48.0104 5.73958 47.3646 4.59375 46.4688C3.44792 45.5521 2.5 44.375 1.75 42.9375C1 41.4792 0.625 39.6979 0.625 37.5938V0.9375H8.75V37.5938C8.75 38.5938 9.0625 39.3958 9.6875 40C10.3125 40.5833 11.0938 40.875 12.0312 40.875H15.6562V49ZM57.625 37.5938C57.625 38.9896 57.4479 40.25 57.0938 41.375C56.7396 42.4792 56.2708 43.4583 55.6875 44.3125C55.1042 45.1458 54.4271 45.8646 53.6562 46.4688C52.8854 47.0521 52.0729 47.5312 51.2188 47.9062C50.3854 48.2812 49.5312 48.5625 48.6562 48.75C47.8021 48.9167 46.9896 49 46.2188 49H31.5625C30.4375 49 29.2083 48.8021 27.875 48.4062C26.5417 48.0104 25.3021 47.3646 24.1562 46.4688C23.0312 45.5521 22.0833 44.375 21.3125 42.9375C20.5625 41.4792 20.1875 39.6979 20.1875 37.5938V26.5938C20.1875 24.5104 20.5625 22.75 21.3125 21.3125C22.0833 19.8542 23.0312 18.6771 24.1562 17.7812C25.3021 16.8646 26.5417 16.2083 27.875 15.8125C29.2083 15.4167 30.4375 15.2188 31.5625 15.2188H46.2188C48.3021 15.2188 50.0729 15.5938 51.5312 16.3438C52.9896 17.0938 54.1667 18.0417 55.0625 19.1875C55.9583 20.3125 56.6042 21.5417 57 22.875C57.4167 24.2083 57.625 25.4479 57.625 26.5938V37.5938ZM49.5 26.6562C49.5 25.5312 49.2188 24.6979 48.6562 24.1562C48.0938 23.6146 47.2812 23.3438 46.2188 23.3438H31.625C30.5417 23.3438 29.7188 23.625 29.1562 24.1875C28.5938 24.7292 28.3125 25.5312 28.3125 26.5938V37.5938C28.3125 38.6562 28.5938 39.4688 29.1562 40.0312C29.7188 40.5938 30.5417 40.875 31.625 40.875H46.2188C47.3229 40.875 48.1458 40.5938 48.6875 40.0312C49.2292 39.4688 49.5 38.6562 49.5 37.5938V26.6562ZM101.312 52.25C101.312 53.6458 101.135 54.8958 100.781 56C100.427 57.125 99.9583 58.1042 99.375 58.9375C98.7917 59.7917 98.1146 60.5104 97.3438 61.0938C96.5729 61.6979 95.7604 62.1875 94.9062 62.5625C94.0729 62.9375 93.2188 63.2083 92.3438 63.375C91.4896 63.5625 90.6771 63.6562 89.9062 63.6562H75.25V55.5312H89.9062C91.0104 55.5312 91.8333 55.25 92.375 54.6875C92.9167 54.125 93.1875 53.3125 93.1875 52.25V26.5938C93.1875 25.5312 92.9167 24.7292 92.375 24.1875C91.8333 23.625 91.0104 23.3438 89.9062 23.3438H75.25C74.25 23.3438 73.4583 23.6562 72.875 24.2812C72.2917 24.8854 72 25.6562 72 26.5938V37.5938C72 38.6562 72.2812 39.4688 72.8438 40.0312C73.4062 40.5938 74.2292 40.875 75.3125 40.875H89.9062V49H75.25C74.4792 49 73.6667 48.9167 72.8125 48.75C71.9583 48.5625 71.1042 48.2812 70.25 47.9062C69.4167 47.5312 68.6146 47.0521 67.8438 46.4688C67.0729 45.8646 66.3958 45.1458 65.8125 44.3125C65.2292 43.4583 64.7604 42.4792 64.4062 41.375C64.0521 40.25 63.875 38.9896 63.875 37.5938V26.5938C63.875 25.8229 63.9583 25.0104 64.125 24.1562C64.3125 23.3021 64.5938 22.4583 64.9688 21.625C65.3438 20.7708 65.8229 19.9583 66.4062 19.1875C67.0104 18.4167 67.7292 17.7396 68.5625 17.1562C69.4167 16.5729 70.3958 16.1042 71.5 15.75C72.6042 15.3958 73.8542 15.2188 75.25 15.2188H89.9062C90.6771 15.2188 91.4896 15.3125 92.3438 15.5C93.2188 15.6667 94.0729 15.9375 94.9062 16.3125C95.7604 16.6875 96.5729 17.1771 97.3438 17.7812C98.1146 18.3646 98.7917 19.0833 99.375 19.9375C99.9583 20.7708 100.427 21.7396 100.781 22.8438C101.135 23.9479 101.312 25.1979 101.312 26.5938V52.25ZM145.5 37.5938C145.5 38.9896 145.323 40.25 144.969 41.375C144.615 42.4792 144.146 43.4583 143.562 44.3125C142.979 45.1458 142.302 45.8646 141.531 46.4688C140.76 47.0521 139.948 47.5312 139.094 47.9062C138.26 48.2812 137.406 48.5625 136.531 48.75C135.677 48.9167 134.865 49 134.094 49H119.438C118.312 49 117.083 48.8021 115.75 48.4062C114.417 48.0104 113.177 47.3646 112.031 46.4688C110.906 45.5521 109.958 44.375 109.188 42.9375C108.438 41.4792 108.062 39.6979 108.062 37.5938V26.5938C108.062 24.5104 108.438 22.75 109.188 21.3125C109.958 19.8542 110.906 18.6771 112.031 17.7812C113.177 16.8646 114.417 16.2083 115.75 15.8125C117.083 15.4167 118.312 15.2188 119.438 15.2188H134.094C136.177 15.2188 137.948 15.5938 139.406 16.3438C140.865 17.0938 142.042 18.0417 142.938 19.1875C143.833 20.3125 144.479 21.5417 144.875 22.875C145.292 24.2083 145.5 25.4479 145.5 26.5938V37.5938ZM137.375 26.6562C137.375 25.5312 137.094 24.6979 136.531 24.1562C135.969 23.6146 135.156 23.3438 134.094 23.3438H119.5C118.417 23.3438 117.594 23.625 117.031 24.1875C116.469 24.7292 116.188 25.5312 116.188 26.5938V37.5938C116.188 38.6562 116.469 39.4688 117.031 40.0312C117.594 40.5938 118.417 40.875 119.5 40.875H134.094C135.198 40.875 136.021 40.5938 136.562 40.0312C137.104 39.4688 137.375 38.6562 137.375 37.5938V26.6562Z" fill="url(#paint0_linear_442_169)"/>
    <defs>
        <linearGradient id="paint0_linear_442_169" x1="399.117" y1="-12.0899" x2="399.117" y2="65" gradientUnits="userSpaceOnUse">
            <stop stop-color="#D1F7FF"/>
            <stop offset="1" stop-color="#6BA3AE"/>
        </linearGradient>
    </defs>
</svg>
