<svg width="135" height="40" viewBox="0 0 135 40" fill="none" xmlns="http://www.w3.org/2000/svg">
    <mask id="mask0_393_224" style="mask-type:alpha" maskUnits="userSpaceOnUse" x="2" y="6" width="132" height="32">
        <path d="M28.5848 26.8278C28.5848 28.4283 28.3038 29.9006 27.7417 31.2446C27.1919 32.5886 26.4283 33.7493 25.4508 34.7268C24.4734 35.692 23.3127 36.4495 21.9687 36.9994C20.6247 37.5492 19.1646 37.8241 17.5885 37.8241H4.72276C4.38066 37.8241 4.06298 37.763 3.76975 37.6408C3.47651 37.5186 3.21993 37.3537 3.00001 37.146C2.7923 36.9261 2.62735 36.6695 2.50517 36.3762C2.38299 36.083 2.3219 35.7653 2.3219 35.4232V13.9437C2.3219 13.6138 2.38299 13.3023 2.50517 13.009C2.62735 12.7158 2.7923 12.4592 3.00001 12.2393C3.21993 12.0194 3.47651 11.8483 3.76975 11.7261C4.06298 11.604 4.38066 11.5429 4.72276 11.5429H17.5885C19.1646 11.5429 20.6247 11.8178 21.9687 12.3676C23.3127 12.9174 24.4734 13.681 25.4508 14.6585C26.4283 15.6237 27.1919 16.7844 27.7417 18.1407C28.3038 19.4847 28.5848 20.9508 28.5848 22.5392V26.8278ZM23.8197 22.5392C23.8197 21.6106 23.667 20.7615 23.3615 19.9917C23.0683 19.222 22.6468 18.5683 22.097 18.0307C21.5471 17.4809 20.8874 17.0594 20.1176 16.7661C19.3601 16.4607 18.517 16.3079 17.5885 16.3079H7.08697V33.059H17.5885C18.517 33.059 19.3601 32.9124 20.1176 32.6192C20.8874 32.3137 21.5471 31.8922 22.097 31.3546C22.6468 30.8048 23.0683 30.1511 23.3615 29.3936C23.667 28.6238 23.8197 27.7686 23.8197 26.8278V22.5392Z" fill="black"/>
        <path d="M28.5848 26.8278C28.5848 28.4283 28.3038 29.9006 27.7417 31.2446C27.1919 32.5886 26.4283 33.7493 25.4508 34.7268C24.4734 35.692 23.3127 36.4495 21.9687 36.9994C20.6247 37.5492 19.1646 37.8241 17.5885 37.8241H4.72276C4.38066 37.8241 4.06298 37.763 3.76975 37.6408C3.47651 37.5186 3.21993 37.3537 3.00001 37.146C2.7923 36.9261 2.62735 36.6695 2.50517 36.3762C2.38299 36.083 2.3219 35.7653 2.3219 35.4232V13.9437C2.3219 13.6138 2.38299 13.3023 2.50517 13.009C2.62735 12.7158 2.7923 12.4592 3.00001 12.2393C3.21993 12.0194 3.47651 11.8483 3.76975 11.7261C4.06298 11.604 4.38066 11.5429 4.72276 11.5429H17.5885C19.1646 11.5429 20.6247 11.8178 21.9687 12.3676C23.3127 12.9174 24.4734 13.681 25.4508 14.6585C26.4283 15.6237 27.1919 16.7844 27.7417 18.1407C28.3038 19.4847 28.5848 20.9508 28.5848 22.5392V26.8278ZM23.8197 22.5392C23.8197 21.6106 23.667 20.7615 23.3615 19.9917C23.0683 19.222 22.6468 18.5683 22.097 18.0307C21.5471 17.4809 20.8874 17.0594 20.1176 16.7661C19.3601 16.4607 18.517 16.3079 17.5885 16.3079H7.08697V33.059H17.5885C18.517 33.059 19.3601 32.9124 20.1176 32.6192C20.8874 32.3137 21.5471 31.8922 22.097 31.3546C22.6468 30.8048 23.0683 30.1511 23.3615 29.3936C23.667 28.6238 23.8197 27.7686 23.8197 26.8278V22.5392Z" fill="#120458"/>
        <path d="M54.0413 24.5735C54.0413 25.2333 53.9252 25.948 53.6931 26.7178C53.4609 27.4753 53.0822 28.184 52.5568 28.8438C52.0436 29.4913 51.3655 30.035 50.5225 30.4749C49.6916 30.9147 48.6775 31.1347 47.4801 31.1347H38.8847V26.6078H47.4801C48.1277 26.6078 48.6286 26.4123 48.983 26.0214C49.3373 25.6182 49.5145 25.1233 49.5145 24.5369C49.5145 23.9137 49.3129 23.425 48.9097 23.0707C48.5187 22.7164 48.0422 22.5392 47.4801 22.5392H38.8847C38.2371 22.5392 37.7362 22.7408 37.3818 23.144C37.0275 23.535 36.8504 24.0237 36.8504 24.6102V31.2629C36.8504 31.8983 37.0458 32.3931 37.4368 32.7474C37.84 33.1018 38.3349 33.2789 38.9213 33.2789H47.4801V37.8241H38.8847C38.2249 37.8241 37.5101 37.708 36.7404 37.4759C35.9829 37.2437 35.2742 36.8711 34.6144 36.3579C33.9669 35.8325 33.4232 35.1544 32.9833 34.3236C32.5435 33.4805 32.3235 32.4603 32.3235 31.2629V24.5735C32.3235 23.9137 32.4396 23.2051 32.6718 22.4476C32.9039 21.6778 33.2766 20.9692 33.7897 20.3216C34.3151 19.6618 34.9932 19.112 35.824 18.6722C36.6671 18.2323 37.6873 18.0124 38.8847 18.0124H47.4801C48.1399 18.0124 48.8486 18.1284 49.6061 18.3606C50.3758 18.5927 51.0845 18.9715 51.732 19.4969C52.3918 20.01 52.9416 20.6881 53.3815 21.5312C53.8214 22.362 54.0413 23.3761 54.0413 24.5735Z" fill="black"/>
        <path d="M54.0413 24.5735C54.0413 25.2333 53.9252 25.948 53.6931 26.7178C53.4609 27.4753 53.0822 28.184 52.5568 28.8438C52.0436 29.4913 51.3655 30.035 50.5225 30.4749C49.6916 30.9147 48.6775 31.1347 47.4801 31.1347H38.8847V26.6078H47.4801C48.1277 26.6078 48.6286 26.4123 48.983 26.0214C49.3373 25.6182 49.5145 25.1233 49.5145 24.5369C49.5145 23.9137 49.3129 23.425 48.9097 23.0707C48.5187 22.7164 48.0422 22.5392 47.4801 22.5392H38.8847C38.2371 22.5392 37.7362 22.7408 37.3818 23.144C37.0275 23.535 36.8504 24.0237 36.8504 24.6102V31.2629C36.8504 31.8983 37.0458 32.3931 37.4368 32.7474C37.84 33.1018 38.3349 33.2789 38.9213 33.2789H47.4801V37.8241H38.8847C38.2249 37.8241 37.5101 37.708 36.7404 37.4759C35.9829 37.2437 35.2742 36.8711 34.6144 36.3579C33.9669 35.8325 33.4232 35.1544 32.9833 34.3236C32.5435 33.4805 32.3235 32.4603 32.3235 31.2629V24.5735C32.3235 23.9137 32.4396 23.2051 32.6718 22.4476C32.9039 21.6778 33.2766 20.9692 33.7897 20.3216C34.3151 19.6618 34.9932 19.112 35.824 18.6722C36.6671 18.2323 37.6873 18.0124 38.8847 18.0124H47.4801C48.1399 18.0124 48.8486 18.1284 49.6061 18.3606C50.3758 18.5927 51.0845 18.9715 51.732 19.4969C52.3918 20.01 52.9416 20.6881 53.3815 21.5312C53.8214 22.362 54.0413 23.3761 54.0413 24.5735Z" fill="#120458"/>
        <path d="M69.7843 20.9264L77.8117 11.5429C79.1092 10.6667 79.6694 6.96573 79.6694 6.96573H84.4867V11.5429L73.0099 24.7201L82.3224 31.052L84.4169 33.4258V37.8241H77.775L69.7843 28.5139L61.8303 37.8241H55.1642V33.4258L58.0965 30.0048L66.5588 24.7201L55.1642 11.5037V6.96578L58.9342 6.96573L61.757 11.5429L69.7843 20.9264Z" fill="black"/>
        <path d="M69.7843 20.9264L77.8117 11.5429C79.1092 10.6667 79.6694 6.96573 79.6694 6.96573H84.4867V11.5429L73.0099 24.7201L82.3224 31.052L84.4169 33.4258V37.8241H77.775L69.7843 28.5139L61.8303 37.8241H55.1642V33.4258L58.0965 30.0048L66.5588 24.7201L55.1642 11.5037V6.96578L58.9342 6.96573L61.757 11.5429L69.7843 20.9264Z" fill="#120458"/>
        <path d="M107.758 31.1347C107.758 31.9533 107.654 32.6925 107.447 33.3522C107.239 33.9998 106.964 34.5741 106.622 35.075C106.28 35.5637 105.883 35.9853 105.431 36.3396C104.979 36.6817 104.502 36.9627 104.001 37.1826C103.513 37.4026 103.012 37.5675 102.498 37.6775C101.997 37.7752 101.521 37.8241 101.069 37.8241H92.4734C91.8137 37.8241 91.0928 37.708 90.3108 37.4759C89.5289 37.2437 88.8019 36.865 88.1299 36.3396C87.4701 35.802 86.9142 35.1117 86.4621 34.2686C86.0223 33.4133 85.8023 32.3687 85.8023 31.1347V24.6835C85.8023 23.4617 86.0223 22.4292 86.4621 21.5862C86.9142 20.7309 87.4701 20.0406 88.1299 19.5152C88.8019 18.9776 89.5289 18.5927 90.3108 18.3606C91.0928 18.1284 91.8137 18.0124 92.4734 18.0124H101.069C102.291 18.0124 103.329 18.2323 104.185 18.6722C105.04 19.112 105.73 19.6679 106.255 20.3399C106.781 20.9997 107.16 21.7206 107.392 22.5025C107.636 23.2845 107.758 24.0115 107.758 24.6835V31.1347ZM102.993 24.7201C102.993 24.0604 102.828 23.5716 102.498 23.254C102.169 22.9363 101.692 22.7774 101.069 22.7774H92.5101C91.8747 22.7774 91.3921 22.9424 91.0622 23.2723C90.7323 23.59 90.5674 24.0604 90.5674 24.6835V31.1347C90.5674 31.7578 90.7323 32.2343 91.0622 32.5642C91.3921 32.8941 91.8747 33.059 92.5101 33.059H101.069C101.716 33.059 102.199 32.8941 102.517 32.5642C102.834 32.2343 102.993 31.7578 102.993 31.1347V24.7201Z" fill="black"/>
        <path d="M107.758 31.1347C107.758 31.9533 107.654 32.6925 107.447 33.3522C107.239 33.9998 106.964 34.5741 106.622 35.075C106.28 35.5637 105.883 35.9853 105.431 36.3396C104.979 36.6817 104.502 36.9627 104.001 37.1826C103.513 37.4026 103.012 37.5675 102.498 37.6775C101.997 37.7752 101.521 37.8241 101.069 37.8241H92.4734C91.8137 37.8241 91.0928 37.708 90.3108 37.4759C89.5289 37.2437 88.8019 36.865 88.1299 36.3396C87.4701 35.802 86.9142 35.1117 86.4621 34.2686C86.0223 33.4133 85.8023 32.3687 85.8023 31.1347V24.6835C85.8023 23.4617 86.0223 22.4292 86.4621 21.5862C86.9142 20.7309 87.4701 20.0406 88.1299 19.5152C88.8019 18.9776 89.5289 18.5927 90.3108 18.3606C91.0928 18.1284 91.8137 18.0124 92.4734 18.0124H101.069C102.291 18.0124 103.329 18.2323 104.185 18.6722C105.04 19.112 105.73 19.6679 106.255 20.3399C106.781 20.9997 107.16 21.7206 107.392 22.5025C107.636 23.2845 107.758 24.0115 107.758 24.6835V31.1347ZM102.993 24.7201C102.993 24.0604 102.828 23.5716 102.498 23.254C102.169 22.9363 101.692 22.7774 101.069 22.7774H92.5101C91.8747 22.7774 91.3921 22.9424 91.0622 23.2723C90.7323 23.59 90.5674 24.0604 90.5674 24.6835V31.1347C90.5674 31.7578 90.7323 32.2343 91.0622 32.5642C91.3921 32.8941 91.8747 33.059 92.5101 33.059H101.069C101.716 33.059 102.199 32.8941 102.517 32.5642C102.834 32.2343 102.993 31.7578 102.993 31.1347V24.7201Z" fill="#120458"/>
        <path d="M133.38 31.1347C133.38 31.9533 133.276 32.6925 133.068 33.3522C132.86 33.9998 132.586 34.5741 132.243 35.075C131.901 35.5637 131.504 35.9853 131.052 36.3396C130.6 36.6817 130.124 36.9627 129.623 37.1826C129.134 37.4026 128.633 37.5675 128.12 37.6775C127.619 37.7752 127.142 37.8241 126.69 37.8241H118.095C117.435 37.8241 116.714 37.708 115.932 37.4759C115.15 37.2437 114.423 36.865 113.751 36.3396C113.092 35.802 112.536 35.1117 112.084 34.2686C111.644 33.4133 111.424 32.3687 111.424 31.1347V24.6835C111.424 23.4617 111.644 22.4292 112.084 21.5862C112.536 20.7309 113.092 20.0406 113.751 19.5152C114.423 18.9776 115.15 18.5927 115.932 18.3606C116.714 18.1284 117.435 18.0124 118.095 18.0124H126.69C127.912 18.0124 128.951 18.2323 129.806 18.6722C130.661 19.112 131.352 19.6679 131.877 20.3399C132.402 20.9997 132.781 21.7206 133.013 22.5025C133.258 23.2845 133.38 24.0115 133.38 24.6835V31.1347ZM128.615 24.7201C128.615 24.0604 128.45 23.5716 128.12 23.254C127.79 22.9363 127.313 22.7774 126.69 22.7774H118.132C117.496 22.7774 117.014 22.9424 116.684 23.2723C116.354 23.59 116.189 24.0604 116.189 24.6835V31.1347C116.189 31.7578 116.354 32.2343 116.684 32.5642C117.014 32.8941 117.496 33.059 118.132 33.059H126.69C127.338 33.059 127.821 32.8941 128.138 32.5642C128.456 32.2343 128.615 31.7578 128.615 31.1347V24.7201Z" fill="black"/>
        <path d="M133.38 31.1347C133.38 31.9533 133.276 32.6925 133.068 33.3522C132.86 33.9998 132.586 34.5741 132.243 35.075C131.901 35.5637 131.504 35.9853 131.052 36.3396C130.6 36.6817 130.124 36.9627 129.623 37.1826C129.134 37.4026 128.633 37.5675 128.12 37.6775C127.619 37.7752 127.142 37.8241 126.69 37.8241H118.095C117.435 37.8241 116.714 37.708 115.932 37.4759C115.15 37.2437 114.423 36.865 113.751 36.3396C113.092 35.802 112.536 35.1117 112.084 34.2686C111.644 33.4133 111.424 32.3687 111.424 31.1347V24.6835C111.424 23.4617 111.644 22.4292 112.084 21.5862C112.536 20.7309 113.092 20.0406 113.751 19.5152C114.423 18.9776 115.15 18.5927 115.932 18.3606C116.714 18.1284 117.435 18.0124 118.095 18.0124H126.69C127.912 18.0124 128.951 18.2323 129.806 18.6722C130.661 19.112 131.352 19.6679 131.877 20.3399C132.402 20.9997 132.781 21.7206 133.013 22.5025C133.258 23.2845 133.38 24.0115 133.38 24.6835V31.1347ZM128.615 24.7201C128.615 24.0604 128.45 23.5716 128.12 23.254C127.79 22.9363 127.313 22.7774 126.69 22.7774H118.132C117.496 22.7774 117.014 22.9424 116.684 23.2723C116.354 23.59 116.189 24.0604 116.189 24.6835V31.1347C116.189 31.7578 116.354 32.2343 116.684 32.5642C117.014 32.8941 117.496 33.059 118.132 33.059H126.69C127.338 33.059 127.821 32.8941 128.138 32.5642C128.456 32.2343 128.615 31.7578 128.615 31.1347V24.7201Z" fill="#120458"/>
    </mask>
    <g mask="url(#mask0_393_224)">
        <g filter="url(#filter0_f_393_224)">
            <circle cx="116.385" cy="34.2481" r="16.5436" fill="#120458"/>
        </g>
        <g filter="url(#filter1_f_393_224)">
            <circle cx="70.3827" cy="13.4961" r="17.5594" fill="#120458"/>
        </g>
        <g filter="url(#filter2_f_393_224)">
            <circle cx="13.7863" cy="32.942" r="19.0106" fill="#120458"/>
        </g>
        <g filter="url(#filter3_f_393_224)">
            <ellipse cx="62.8365" cy="23.5093" rx="24.2349" ry="24.38" fill="#120458"/>
        </g>
        <g filter="url(#filter4_f_393_224)">
            <ellipse cx="136.702" cy="28.2982" rx="13.9314" ry="13.7863" fill="#7A04EB"/>
        </g>
        <g filter="url(#filter5_f_393_224)">
            <circle cx="106.082" cy="27.7177" r="27.4275" fill="#7A04EB"/>
        </g>
        <g filter="url(#filter6_f_393_224)">
            <circle cx="102.164" cy="46.438" r="15.6728" fill="#7A04EB"/>
        </g>
        <g filter="url(#filter7_f_393_224)">
            <ellipse cx="40.4881" cy="18.5752" rx="35.2639" ry="35.409" fill="#7A04EB"/>
        </g>
        <g filter="url(#filter8_f_393_224)">
            <circle cx="69.8022" cy="28.5885" r="10.8839" fill="#7A04EB"/>
        </g>
        <g filter="url(#filter9_f_393_224)">
            <circle cx="64.8681" cy="41.0686" r="16.6887" fill="#7A04EB"/>
        </g>
        <g filter="url(#filter10_f_393_224)">
            <circle cx="13.3509" cy="12.7705" r="19.1557" fill="#7A04EB"/>
        </g>
    </g>
    <mask id="mask1_393_224" style="mask-type:alpha" maskUnits="userSpaceOnUse" x="2" y="0" width="132" height="31">
        <path d="M28.7143 19.862C28.7143 21.4626 28.4333 22.9349 27.8713 24.2789C27.3214 25.6229 26.5578 26.7836 25.5804 27.7611C24.6029 28.7263 23.4422 29.4838 22.0982 30.0336C20.7542 30.5834 19.2941 30.8584 17.718 30.8584H4.85228C4.51017 30.8584 4.1925 30.7973 3.89927 30.6751C3.60603 30.5529 3.34945 30.388 3.12952 30.1802C2.92181 29.9603 2.75687 29.7037 2.63469 29.4105C2.51251 29.1173 2.45142 28.7996 2.45142 28.4575V6.978C2.45142 6.64811 2.51251 6.33655 2.63469 6.04331C2.75687 5.75008 2.92181 5.4935 3.12952 5.27357C3.34945 5.05364 3.60603 4.88259 3.89927 4.76041C4.1925 4.63823 4.51017 4.57714 4.85228 4.57714H17.718C19.2941 4.57714 20.7542 4.85204 22.0982 5.40186C23.4422 5.95168 24.6029 6.71531 25.5804 7.69276C26.5578 8.658 27.3214 9.81872 27.8713 11.1749C28.4333 12.5189 28.7143 13.9851 28.7143 15.5735V19.862ZM23.9492 15.5735C23.9492 14.6449 23.7965 13.7957 23.491 13.026C23.1978 12.2562 22.7763 11.6026 22.2265 11.065C21.6767 10.5152 21.0169 10.0936 20.2471 9.80039C19.4896 9.49494 18.6466 9.34221 17.718 9.34221H7.21649V26.0933H17.718C18.6466 26.0933 19.4896 25.9467 20.2471 25.6534C21.0169 25.348 21.6767 24.9264 22.2265 24.3888C22.7763 23.839 23.1978 23.1854 23.491 22.4278C23.7965 21.6581 23.9492 20.8028 23.9492 19.862V15.5735Z" fill="black"/>
        <path d="M28.7143 19.862C28.7143 21.4626 28.4333 22.9349 27.8713 24.2789C27.3214 25.6229 26.5578 26.7836 25.5804 27.7611C24.6029 28.7263 23.4422 29.4838 22.0982 30.0336C20.7542 30.5834 19.2941 30.8584 17.718 30.8584H4.85228C4.51017 30.8584 4.1925 30.7973 3.89927 30.6751C3.60603 30.5529 3.34945 30.388 3.12952 30.1802C2.92181 29.9603 2.75687 29.7037 2.63469 29.4105C2.51251 29.1173 2.45142 28.7996 2.45142 28.4575V6.978C2.45142 6.64811 2.51251 6.33655 2.63469 6.04331C2.75687 5.75008 2.92181 5.4935 3.12952 5.27357C3.34945 5.05364 3.60603 4.88259 3.89927 4.76041C4.1925 4.63823 4.51017 4.57714 4.85228 4.57714H17.718C19.2941 4.57714 20.7542 4.85204 22.0982 5.40186C23.4422 5.95168 24.6029 6.71531 25.5804 7.69276C26.5578 8.658 27.3214 9.81872 27.8713 11.1749C28.4333 12.5189 28.7143 13.9851 28.7143 15.5735V19.862ZM23.9492 15.5735C23.9492 14.6449 23.7965 13.7957 23.491 13.026C23.1978 12.2562 22.7763 11.6026 22.2265 11.065C21.6767 10.5152 21.0169 10.0936 20.2471 9.80039C19.4896 9.49494 18.6466 9.34221 17.718 9.34221H7.21649V26.0933H17.718C18.6466 26.0933 19.4896 25.9467 20.2471 25.6534C21.0169 25.348 21.6767 24.9264 22.2265 24.3888C22.7763 23.839 23.1978 23.1854 23.491 22.4278C23.7965 21.6581 23.9492 20.8028 23.9492 19.862V15.5735Z" fill="#120458"/>
        <path d="M54.1708 17.6078C54.1708 18.2676 54.0547 18.9823 53.8226 19.7521C53.5904 20.5096 53.2117 21.2182 52.6863 21.878C52.1731 22.5256 51.495 23.0693 50.652 23.5091C49.8211 23.949 48.807 24.1689 47.6096 24.1689H39.0142V19.6421H47.6096C48.2572 19.6421 48.7582 19.4466 49.1125 19.0556C49.4668 18.6524 49.644 18.1576 49.644 17.5711C49.644 16.948 49.4424 16.4593 49.0392 16.105C48.6482 15.7506 48.1717 15.5735 47.6096 15.5735H39.0142C38.3666 15.5735 37.8657 15.7751 37.5114 16.1783C37.157 16.5692 36.9799 17.058 36.9799 17.6444V24.2972C36.9799 24.9326 37.1754 25.4274 37.5663 25.7817C37.9695 26.136 38.4644 26.3132 39.0508 26.3132H47.6096V30.8584H39.0142C38.3544 30.8584 37.6397 30.7423 36.8699 30.5101C36.1124 30.278 35.4037 29.9053 34.744 29.3922C34.0964 28.8668 33.5527 28.1887 33.1128 27.3579C32.673 26.5148 32.4531 25.4946 32.4531 24.2972V17.6078C32.4531 16.948 32.5691 16.2394 32.8013 15.4818C33.0334 14.7121 33.4061 14.0034 33.9192 13.3559C34.4446 12.6961 35.1227 12.1463 35.9535 11.7064C36.7966 11.2666 37.8168 11.0466 39.0142 11.0466H47.6096C48.2694 11.0466 48.9781 11.1627 49.7356 11.3949C50.5054 11.627 51.214 12.0058 51.8616 12.5311C52.5213 13.0443 53.0712 13.7224 53.511 14.5655C53.9509 15.3963 54.1708 16.4104 54.1708 17.6078Z" fill="black"/>
        <path d="M54.1708 17.6078C54.1708 18.2676 54.0547 18.9823 53.8226 19.7521C53.5904 20.5096 53.2117 21.2182 52.6863 21.878C52.1731 22.5256 51.495 23.0693 50.652 23.5091C49.8211 23.949 48.807 24.1689 47.6096 24.1689H39.0142V19.6421H47.6096C48.2572 19.6421 48.7582 19.4466 49.1125 19.0556C49.4668 18.6524 49.644 18.1576 49.644 17.5711C49.644 16.948 49.4424 16.4593 49.0392 16.105C48.6482 15.7506 48.1717 15.5735 47.6096 15.5735H39.0142C38.3666 15.5735 37.8657 15.7751 37.5114 16.1783C37.157 16.5692 36.9799 17.058 36.9799 17.6444V24.2972C36.9799 24.9326 37.1754 25.4274 37.5663 25.7817C37.9695 26.136 38.4644 26.3132 39.0508 26.3132H47.6096V30.8584H39.0142C38.3544 30.8584 37.6397 30.7423 36.8699 30.5101C36.1124 30.278 35.4037 29.9053 34.744 29.3922C34.0964 28.8668 33.5527 28.1887 33.1128 27.3579C32.673 26.5148 32.4531 25.4946 32.4531 24.2972V17.6078C32.4531 16.948 32.5691 16.2394 32.8013 15.4818C33.0334 14.7121 33.4061 14.0034 33.9192 13.3559C34.4446 12.6961 35.1227 12.1463 35.9535 11.7064C36.7966 11.2666 37.8168 11.0466 39.0142 11.0466H47.6096C48.2694 11.0466 48.9781 11.1627 49.7356 11.3949C50.5054 11.627 51.214 12.0058 51.8616 12.5311C52.5213 13.0443 53.0712 13.7224 53.511 14.5655C53.9509 15.3963 54.1708 16.4104 54.1708 17.6078Z" fill="#120458"/>
        <path d="M69.9139 13.9607L77.9412 4.57714C79.2387 3.70096 79.7989 0 79.7989 0H84.6162V4.57714L73.1395 17.7544L82.4519 24.0863L84.5464 26.46V30.8584H77.9045L69.9139 21.5481L61.9599 30.8584H55.2937V26.46L58.226 23.0391L66.6883 17.7544L55.2937 4.538V5.21331e-05L59.0638 0L61.8865 4.57714L69.9139 13.9607Z" fill="black"/>
        <path d="M69.9139 13.9607L77.9412 4.57714C79.2387 3.70096 79.7989 0 79.7989 0H84.6162V4.57714L73.1395 17.7544L82.4519 24.0863L84.5464 26.46V30.8584H77.9045L69.9139 21.5481L61.9599 30.8584H55.2937V26.46L58.226 23.0391L66.6883 17.7544L55.2937 4.538V5.21331e-05L59.0638 0L61.8865 4.57714L69.9139 13.9607Z" fill="#120458"/>
        <path d="M107.888 24.1689C107.888 24.9875 107.784 25.7267 107.576 26.3865C107.369 27.0341 107.094 27.6083 106.752 28.1093C106.409 28.598 106.012 29.0195 105.56 29.3738C105.108 29.716 104.632 29.997 104.131 30.2169C103.642 30.4368 103.141 30.6018 102.628 30.7117C102.127 30.8095 101.65 30.8584 101.198 30.8584H92.603C91.9432 30.8584 91.2223 30.7423 90.4403 30.5101C89.6584 30.278 88.9314 29.8992 88.2594 29.3738C87.5996 28.8363 87.0437 28.1459 86.5916 27.3029C86.1518 26.4476 85.9318 25.403 85.9318 24.1689V17.7177C85.9318 16.4959 86.1518 15.4635 86.5916 14.6204C87.0437 13.7652 87.5996 13.0749 88.2594 12.5495C88.9314 12.0119 89.6584 11.627 90.4403 11.3949C91.2223 11.1627 91.9432 11.0466 92.603 11.0466H101.198C102.42 11.0466 103.459 11.2666 104.314 11.7064C105.169 12.1463 105.86 12.7022 106.385 13.3742C106.91 14.034 107.289 14.7548 107.521 15.5368C107.766 16.3188 107.888 17.0457 107.888 17.7177V24.1689ZM103.123 17.7544C103.123 17.0946 102.958 16.6059 102.628 16.2882C102.298 15.9706 101.822 15.8117 101.198 15.8117H92.6396C92.0043 15.8117 91.5216 15.9767 91.1918 16.3066C90.8619 16.6242 90.6969 17.0946 90.6969 17.7177V24.1689C90.6969 24.792 90.8619 25.2686 91.1918 25.5984C91.5216 25.9283 92.0043 26.0933 92.6396 26.0933H101.198C101.846 26.0933 102.329 25.9283 102.646 25.5984C102.964 25.2686 103.123 24.792 103.123 24.1689V17.7544Z" fill="black"/>
        <path d="M107.888 24.1689C107.888 24.9875 107.784 25.7267 107.576 26.3865C107.369 27.0341 107.094 27.6083 106.752 28.1093C106.409 28.598 106.012 29.0195 105.56 29.3738C105.108 29.716 104.632 29.997 104.131 30.2169C103.642 30.4368 103.141 30.6018 102.628 30.7117C102.127 30.8095 101.65 30.8584 101.198 30.8584H92.603C91.9432 30.8584 91.2223 30.7423 90.4403 30.5101C89.6584 30.278 88.9314 29.8992 88.2594 29.3738C87.5996 28.8363 87.0437 28.1459 86.5916 27.3029C86.1518 26.4476 85.9318 25.403 85.9318 24.1689V17.7177C85.9318 16.4959 86.1518 15.4635 86.5916 14.6204C87.0437 13.7652 87.5996 13.0749 88.2594 12.5495C88.9314 12.0119 89.6584 11.627 90.4403 11.3949C91.2223 11.1627 91.9432 11.0466 92.603 11.0466H101.198C102.42 11.0466 103.459 11.2666 104.314 11.7064C105.169 12.1463 105.86 12.7022 106.385 13.3742C106.91 14.034 107.289 14.7548 107.521 15.5368C107.766 16.3188 107.888 17.0457 107.888 17.7177V24.1689ZM103.123 17.7544C103.123 17.0946 102.958 16.6059 102.628 16.2882C102.298 15.9706 101.822 15.8117 101.198 15.8117H92.6396C92.0043 15.8117 91.5216 15.9767 91.1918 16.3066C90.8619 16.6242 90.6969 17.0946 90.6969 17.7177V24.1689C90.6969 24.792 90.8619 25.2686 91.1918 25.5984C91.5216 25.9283 92.0043 26.0933 92.6396 26.0933H101.198C101.846 26.0933 102.329 25.9283 102.646 25.5984C102.964 25.2686 103.123 24.792 103.123 24.1689V17.7544Z" fill="#120458"/>
        <path d="M133.509 24.1689C133.509 24.9875 133.405 25.7267 133.198 26.3865C132.99 27.0341 132.715 27.6083 132.373 28.1093C132.031 28.598 131.634 29.0195 131.182 29.3738C130.73 29.716 130.253 29.997 129.752 30.2169C129.263 30.4368 128.763 30.6018 128.249 30.7117C127.748 30.8095 127.272 30.8584 126.82 30.8584H118.224C117.565 30.8584 116.844 30.7423 116.062 30.5101C115.28 30.278 114.553 29.8992 113.881 29.3738C113.221 28.8363 112.665 28.1459 112.213 27.3029C111.773 26.4476 111.553 25.403 111.553 24.1689V17.7177C111.553 16.4959 111.773 15.4635 112.213 14.6204C112.665 13.7652 113.221 13.0749 113.881 12.5495C114.553 12.0119 115.28 11.627 116.062 11.3949C116.844 11.1627 117.565 11.0466 118.224 11.0466H126.82C128.042 11.0466 129.08 11.2666 129.935 11.7064C130.791 12.1463 131.481 12.7022 132.006 13.3742C132.532 14.034 132.911 14.7548 133.143 15.5368C133.387 16.3188 133.509 17.0457 133.509 17.7177V24.1689ZM128.744 17.7544C128.744 17.0946 128.579 16.6059 128.249 16.2882C127.919 15.9706 127.443 15.8117 126.82 15.8117H118.261C117.626 15.8117 117.143 15.9767 116.813 16.3066C116.483 16.6242 116.318 17.0946 116.318 17.7177V24.1689C116.318 24.792 116.483 25.2686 116.813 25.5984C117.143 25.9283 117.626 26.0933 118.261 26.0933H126.82C127.467 26.0933 127.95 25.9283 128.268 25.5984C128.585 25.2686 128.744 24.792 128.744 24.1689V17.7544Z" fill="black"/>
        <path d="M133.509 24.1689C133.509 24.9875 133.405 25.7267 133.198 26.3865C132.99 27.0341 132.715 27.6083 132.373 28.1093C132.031 28.598 131.634 29.0195 131.182 29.3738C130.73 29.716 130.253 29.997 129.752 30.2169C129.263 30.4368 128.763 30.6018 128.249 30.7117C127.748 30.8095 127.272 30.8584 126.82 30.8584H118.224C117.565 30.8584 116.844 30.7423 116.062 30.5101C115.28 30.278 114.553 29.8992 113.881 29.3738C113.221 28.8363 112.665 28.1459 112.213 27.3029C111.773 26.4476 111.553 25.403 111.553 24.1689V17.7177C111.553 16.4959 111.773 15.4635 112.213 14.6204C112.665 13.7652 113.221 13.0749 113.881 12.5495C114.553 12.0119 115.28 11.627 116.062 11.3949C116.844 11.1627 117.565 11.0466 118.224 11.0466H126.82C128.042 11.0466 129.08 11.2666 129.935 11.7064C130.791 12.1463 131.481 12.7022 132.006 13.3742C132.532 14.034 132.911 14.7548 133.143 15.5368C133.387 16.3188 133.509 17.0457 133.509 17.7177V24.1689ZM128.744 17.7544C128.744 17.0946 128.579 16.6059 128.249 16.2882C127.919 15.9706 127.443 15.8117 126.82 15.8117H118.261C117.626 15.8117 117.143 15.9767 116.813 16.3066C116.483 16.6242 116.318 17.0946 116.318 17.7177V24.1689C116.318 24.792 116.483 25.2686 116.813 25.5984C117.143 25.9283 117.626 26.0933 118.261 26.0933H126.82C127.467 26.0933 127.95 25.9283 128.268 25.5984C128.585 25.2686 128.744 24.792 128.744 24.1689V17.7544Z" fill="#120458"/>
    </mask>
    <g mask="url(#mask1_393_224)">
        <g filter="url(#filter11_f_393_224)">
            <circle cx="25.5816" cy="24.7279" r="7.02757" fill="#D1F7FF"/>
        </g>
    </g>
    <path d="M7.21931 26.1428H13.5906C8.43114 28.0672 6.48834 29.106 4.64216 30.8743C4.6169 30.8692 4.58346 30.8642 4.54315 30.8581C4.01208 30.7783 2.28986 30.5193 2.42294 27.7244L2.42294 6.89242C2.56613 5.38919 3.56834 4.53033 5.35804 4.6016L17.7427 4.6016C21.8232 4.6016 25.4741 6.7492 27.1922 9.89905C25.4144 9.73593 24.409 10.2534 22.6106 11.5456C21.0357 9.75587 19.4608 9.39794 17.7427 9.39794H7.21931L7.21931 26.1428Z" fill="#FF9960"/>
    <path fill-rule="evenodd" clip-rule="evenodd" d="M32.5989 10.9215C30.3674 10.7348 29.0927 12.0387 27.6161 13.5492C25.5138 15.6995 23.0024 18.2684 16.7384 17.5507C20.4149 17.1622 23.0019 15.2807 25.1756 13.5504C25.5457 12.7629 21.9278 13.9083 21.9278 13.9083C21.9278 13.9083 23.3416 12.2763 25.6889 11.4024C26.628 11.0528 26.9277 11.1149 27.3116 11.1944C27.4253 11.2179 27.5462 11.243 27.6933 11.2594C29.1251 10.1856 31.8827 10.5467 32.5989 10.9215ZM25.9248 12.2877L27.4998 11.5719C26.8052 11.4258 26.4627 11.4674 25.9248 11.715V12.2877Z" fill="#FF9960"/>
    <path d="M13.9691 26.1428C21.7481 23.399 26.7501 19.3735 28.8688 13.3572C27.4547 15.3045 26.3853 16.2185 24.0232 17.5725C21.6541 21.203 19.3945 23.0702 13.9691 26.1428Z" fill="#FF9960"/>
    <path d="M1.76801 33.9641C4.33138 31.985 8.53509 30.9288 12.8345 29.8487C20.9181 27.8178 29.3399 25.7019 27.8331 17.2064C23.7269 23.628 18.5226 25.6891 13.1128 27.8316C9.32999 29.3298 5.44669 30.8677 1.76801 33.9641Z" fill="#FF9960"/>
    <path d="M11.488 33.9554C15.0415 32.9897 18.2785 32.1099 21.9278 27.8722C20.5047 28.4785 19.6231 28.7866 17.8032 29.3263C15.6628 31.0119 13.7484 31.7665 11.6471 32.5949C8.58659 33.8013 5.1295 35.1641 0 39.787C4.5156 35.8503 8.14212 34.8647 11.488 33.9554Z" fill="#FF9960"/>
    <path d="M11.6175 40C12.2876 37.2812 13.2848 35.66 16.1822 33.084L13.8971 33.9468C11.8865 37.078 11.7359 38.1649 11.6175 40Z" fill="#FF9960"/>
    <mask id="mask2_393_224" style="mask-type:alpha" maskUnits="userSpaceOnUse" x="0" y="4" width="33" height="36">
        <path d="M7.21931 26.1429H13.5906C8.43114 28.0672 6.48834 29.1061 4.64216 30.8743C4.6169 30.8693 4.58346 30.8643 4.54315 30.8582C4.01208 30.7783 2.28986 30.5193 2.42294 27.7245L2.42294 6.89248C2.56613 5.38925 3.56834 4.53039 5.35804 4.60166L17.7427 4.60166C21.8232 4.60166 25.4741 6.74926 27.1922 9.89911C25.4144 9.73599 24.409 10.2535 22.6106 11.5456C21.0357 9.75593 19.4608 9.398 17.7427 9.398H7.21931L7.21931 26.1429Z" fill="#DB8EA0"/>
        <path d="M7.21931 26.1429H13.5906C8.43114 28.0672 6.48834 29.1061 4.64216 30.8743C4.6169 30.8693 4.58346 30.8643 4.54315 30.8582C4.01208 30.7783 2.28986 30.5193 2.42294 27.7245L2.42294 6.89248C2.56613 5.38925 3.56834 4.53039 5.35804 4.60166L17.7427 4.60166C21.8232 4.60166 25.4741 6.74926 27.1922 9.89911C25.4144 9.73599 24.409 10.2535 22.6106 11.5456C21.0357 9.75593 19.4608 9.398 17.7427 9.398H7.21931L7.21931 26.1429Z" fill="url(#paint0_linear_393_224)"/>
        <path fill-rule="evenodd" clip-rule="evenodd" d="M32.5989 10.9215C30.3674 10.7349 29.0927 12.0388 27.6161 13.5492C25.5138 15.6995 23.0024 18.2684 16.7384 17.5508C20.4149 17.1623 23.0019 15.2808 25.1756 13.5505C25.5457 12.7629 21.9278 13.9083 21.9278 13.9083C21.9278 13.9083 23.3416 12.2763 25.6889 11.4025C26.628 11.0529 26.9277 11.115 27.3116 11.1945C27.4253 11.218 27.5462 11.2431 27.6933 11.2594C29.1251 10.1856 31.8827 10.5468 32.5989 10.9215ZM25.9248 12.2878L27.4998 11.572C26.8052 11.4259 26.4627 11.4675 25.9248 11.7151V12.2878Z" fill="#DB8EA0"/>
        <path fill-rule="evenodd" clip-rule="evenodd" d="M32.5989 10.9215C30.3674 10.7349 29.0927 12.0388 27.6161 13.5492C25.5138 15.6995 23.0024 18.2684 16.7384 17.5508C20.4149 17.1623 23.0019 15.2808 25.1756 13.5505C25.5457 12.7629 21.9278 13.9083 21.9278 13.9083C21.9278 13.9083 23.3416 12.2763 25.6889 11.4025C26.628 11.0529 26.9277 11.115 27.3116 11.1945C27.4253 11.218 27.5462 11.2431 27.6933 11.2594C29.1251 10.1856 31.8827 10.5468 32.5989 10.9215ZM25.9248 12.2878L27.4998 11.572C26.8052 11.4259 26.4627 11.4675 25.9248 11.7151V12.2878Z" fill="url(#paint1_linear_393_224)"/>
        <path d="M13.9691 26.1429C21.7481 23.399 26.7501 19.3736 28.8688 13.3573C27.4547 15.3045 26.3853 16.2185 24.0232 17.5726C21.6541 21.203 19.3945 23.0703 13.9691 26.1429Z" fill="#DB8EA0"/>
        <path d="M13.9691 26.1429C21.7481 23.399 26.7501 19.3736 28.8688 13.3573C27.4547 15.3045 26.3853 16.2185 24.0232 17.5726C21.6541 21.203 19.3945 23.0703 13.9691 26.1429Z" fill="url(#paint2_linear_393_224)"/>
        <path d="M1.76801 33.9641C4.33138 31.985 8.53509 30.9289 12.8345 29.8487C20.9181 27.8178 29.3399 25.702 27.8331 17.2065C23.7269 23.628 18.5226 25.6891 13.1128 27.8317C9.32999 29.3298 5.44669 30.8678 1.76801 33.9641Z" fill="#DB8EA0"/>
        <path d="M1.76801 33.9641C4.33138 31.985 8.53509 30.9289 12.8345 29.8487C20.9181 27.8178 29.3399 25.702 27.8331 17.2065C23.7269 23.628 18.5226 25.6891 13.1128 27.8317C9.32999 29.3298 5.44669 30.8678 1.76801 33.9641Z" fill="url(#paint3_linear_393_224)"/>
        <path d="M11.488 33.9555C15.0415 32.9897 18.2785 32.11 21.9278 27.8723C20.5047 28.4785 19.6231 28.7867 17.8032 29.3263C15.6628 31.0119 13.7484 31.7666 11.6471 32.5949C8.58659 33.8014 5.1295 35.1642 0 39.7871C4.5156 35.8504 8.14212 34.8648 11.488 33.9555Z" fill="#DB8EA0"/>
        <path d="M11.488 33.9555C15.0415 32.9897 18.2785 32.11 21.9278 27.8723C20.5047 28.4785 19.6231 28.7867 17.8032 29.3263C15.6628 31.0119 13.7484 31.7666 11.6471 32.5949C8.58659 33.8014 5.1295 35.1642 0 39.7871C4.5156 35.8504 8.14212 34.8648 11.488 33.9555Z" fill="url(#paint4_linear_393_224)"/>
        <path d="M11.6175 40C12.2876 37.2813 13.2848 35.6601 16.1822 33.0841L13.8971 33.9468C11.8865 37.078 11.7359 38.1649 11.6175 40Z" fill="#DB8EA0"/>
        <path d="M11.6175 40C12.2876 37.2813 13.2848 35.6601 16.1822 33.0841L13.8971 33.9468C11.8865 37.078 11.7359 38.1649 11.6175 40Z" fill="url(#paint5_linear_393_224)"/>
    </mask>
    <g mask="url(#mask2_393_224)">
        <path d="M13.5402 26.8201L2.44412 31.9744C0.558976 28.2518 -3.2113 20.0909 -3.2113 17.2274C-3.2113 13.648 1.29871 1.40651 2.01459 1.19174C2.73047 0.976981 25.3521 2.83826 26.2112 3.1962C26.8984 3.48255 28.7883 7.84939 29.6474 9.99702L23.1329 11.5719L15.9026 13.8627L14.1845 24.5293L13.5402 26.8201Z" fill="#9FAA88"/>
        <path d="M32.6541 10.9275C29.6209 12.5817 24.7362 15.0922 19.9115 14.5785C22.7718 11.824 26.4184 10.1623 30.936 9.56736L32.6541 10.9275Z" fill="black"/>
        <path d="M32.6541 10.9275C29.6209 12.5817 24.7362 15.0922 19.9115 14.5785C22.7718 11.824 26.4184 10.1623 30.936 9.56736L32.6541 10.9275Z" fill="url(#paint6_linear_393_224)"/>
        <path d="M16.0458 32.9765C14.5424 34.1219 12.9675 35.2673 11.2494 39.3478L12.6096 34.0503L16.0458 32.9765Z" fill="black"/>
        <path d="M16.0458 32.9765C14.5424 34.1219 12.9675 35.2673 11.2494 39.3478L12.6096 34.0503L16.0458 32.9765Z" fill="url(#paint7_linear_393_224)"/>
        <path d="M2.44409 33.3345C2.77143 32.8279 3.3109 32.3595 4.01492 31.9151C9.64635 27.7659 22.5095 24.9345 27.9293 16.8694L28.2872 18.0864C26.5648 26.252 9.77749 28.2779 4.01492 31.9151C3.39813 32.3696 2.8681 32.8398 2.44409 33.3345Z" fill="url(#paint8_linear_393_224)"/>
        <path d="M28.2156 14.149C24.1283 20.2362 20.9103 22.5065 14.3992 25.603L22.1307 18.0863L28.2156 14.149Z" fill="url(#paint9_linear_393_224)"/>
        <path d="M21.0704 28.1579C17.5491 33.0483 7.67002 31.9745 0.15332 39.5627C3.10836 35.9633 8.32418 32.1959 16.0458 29.5405L21.0704 28.1579Z" fill="black"/>
        <path d="M21.0704 28.1579C17.5491 33.0483 7.67002 31.9745 0.15332 39.5627C3.10836 35.9633 8.32418 32.1959 16.0458 29.5405L21.0704 28.1579Z" fill="url(#paint10_linear_393_224)"/>
    </g>
    <path d="M54.1708 17.5975C54.1708 18.2572 54.0548 18.972 53.8226 19.7418C53.5905 20.4993 53.2117 21.2079 52.6863 21.8677C52.1732 22.5153 51.4951 23.059 50.652 23.4988C49.8212 23.9387 48.8071 24.1586 47.6097 24.1586H39.0142V19.6318H47.6097C48.2573 19.6318 48.7582 19.4363 49.1125 19.0453C49.4669 18.6421 49.644 18.1473 49.644 17.5608C49.644 16.9377 49.4424 16.449 49.0392 16.0946C48.6482 15.7403 48.1717 15.5631 47.6097 15.5631H39.0142C38.3667 15.5631 37.8657 15.7647 37.5114 16.1679C37.1571 16.5589 36.9799 17.0477 36.9799 17.6341V24.2869C36.9799 24.9222 37.1754 25.4171 37.5664 25.7714C37.9696 26.1257 38.4644 26.3029 39.0509 26.3029H47.6097V30.848H39.0142C38.3545 30.848 37.6397 30.732 36.8699 30.4998C36.1124 30.2677 35.4038 29.895 34.744 29.3819C34.0964 28.8565 33.5527 28.1784 33.1129 27.3475C32.673 26.5045 32.4531 25.4843 32.4531 24.2869V17.5975C32.4531 16.9377 32.5692 16.229 32.8013 15.4715C33.0335 14.7018 33.4061 13.9931 33.9193 13.3456C34.4446 12.6858 35.1228 12.136 35.9536 11.6961C36.7966 11.2563 37.8169 11.0363 39.0142 11.0363H47.6097C48.2695 11.0363 48.9781 11.1524 49.7356 11.3845C50.5054 11.6167 51.214 11.9955 51.8616 12.5208C52.5214 13.034 53.0712 13.7121 53.5111 14.5552C53.9509 15.386 54.1708 16.4001 54.1708 17.5975Z" fill="#DB8EA0"/>
    <path d="M54.1708 17.5975C54.1708 18.2572 54.0548 18.972 53.8226 19.7418C53.5905 20.4993 53.2117 21.2079 52.6863 21.8677C52.1732 22.5153 51.4951 23.059 50.652 23.4988C49.8212 23.9387 48.8071 24.1586 47.6097 24.1586H39.0142V19.6318H47.6097C48.2573 19.6318 48.7582 19.4363 49.1125 19.0453C49.4669 18.6421 49.644 18.1473 49.644 17.5608C49.644 16.9377 49.4424 16.449 49.0392 16.0946C48.6482 15.7403 48.1717 15.5631 47.6097 15.5631H39.0142C38.3667 15.5631 37.8657 15.7647 37.5114 16.1679C37.1571 16.5589 36.9799 17.0477 36.9799 17.6341V24.2869C36.9799 24.9222 37.1754 25.4171 37.5664 25.7714C37.9696 26.1257 38.4644 26.3029 39.0509 26.3029H47.6097V30.848H39.0142C38.3545 30.848 37.6397 30.732 36.8699 30.4998C36.1124 30.2677 35.4038 29.895 34.744 29.3819C34.0964 28.8565 33.5527 28.1784 33.1129 27.3475C32.673 26.5045 32.4531 25.4843 32.4531 24.2869V17.5975C32.4531 16.9377 32.5692 16.229 32.8013 15.4715C33.0335 14.7018 33.4061 13.9931 33.9193 13.3456C34.4446 12.6858 35.1228 12.136 35.9536 11.6961C36.7966 11.2563 37.8169 11.0363 39.0142 11.0363H47.6097C48.2695 11.0363 48.9781 11.1524 49.7356 11.3845C50.5054 11.6167 51.214 11.9955 51.8616 12.5208C52.5214 13.034 53.0712 13.7121 53.5111 14.5552C53.9509 15.386 54.1708 16.4001 54.1708 17.5975Z" fill="url(#paint11_linear_393_224)"/>
    <path d="M54.1708 17.5975C54.1708 18.2572 54.0548 18.972 53.8226 19.7418C53.5905 20.4993 53.2117 21.2079 52.6863 21.8677C52.1732 22.5153 51.4951 23.059 50.652 23.4988C49.8212 23.9387 48.8071 24.1586 47.6097 24.1586H39.0142V19.6318H47.6097C48.2573 19.6318 48.7582 19.4363 49.1125 19.0453C49.4669 18.6421 49.644 18.1473 49.644 17.5608C49.644 16.9377 49.4424 16.449 49.0392 16.0946C48.6482 15.7403 48.1717 15.5631 47.6097 15.5631H39.0142C38.3667 15.5631 37.8657 15.7647 37.5114 16.1679C37.1571 16.5589 36.9799 17.0477 36.9799 17.6341V24.2869C36.9799 24.9222 37.1754 25.4171 37.5664 25.7714C37.9696 26.1257 38.4644 26.3029 39.0509 26.3029H47.6097V30.848H39.0142C38.3545 30.848 37.6397 30.732 36.8699 30.4998C36.1124 30.2677 35.4038 29.895 34.744 29.3819C34.0964 28.8565 33.5527 28.1784 33.1129 27.3475C32.673 26.5045 32.4531 25.4843 32.4531 24.2869V17.5975C32.4531 16.9377 32.5692 16.229 32.8013 15.4715C33.0335 14.7018 33.4061 13.9931 33.9193 13.3456C34.4446 12.6858 35.1228 12.136 35.9536 11.6961C36.7966 11.2563 37.8169 11.0363 39.0142 11.0363H47.6097C48.2695 11.0363 48.9781 11.1524 49.7356 11.3845C50.5054 11.6167 51.214 11.9955 51.8616 12.5208C52.5214 13.034 53.0712 13.7121 53.5111 14.5552C53.9509 15.386 54.1708 16.4001 54.1708 17.5975Z" fill="url(#paint12_linear_393_224)"/>
    <path d="M69.9139 13.9504L77.9412 4.56683H84.4474L73.1395 17.7441L84.3741 30.848H77.9046L69.9139 21.5378L61.9599 30.848H55.4721L66.6883 17.7441L55.4354 4.56683H61.8866L69.9139 13.9504Z" fill="#DB8EA0"/>
    <path d="M69.9139 13.9504L77.9412 4.56683H84.4474L73.1395 17.7441L84.3741 30.848H77.9046L69.9139 21.5378L61.9599 30.848H55.4721L66.6883 17.7441L55.4354 4.56683H61.8866L69.9139 13.9504Z" fill="url(#paint13_linear_393_224)"/>
    <path d="M69.9139 13.9504L77.9412 4.56683H84.4474L73.1395 17.7441L84.3741 30.848H77.9046L69.9139 21.5378L61.9599 30.848H55.4721L66.6883 17.7441L55.4354 4.56683H61.8866L69.9139 13.9504Z" fill="url(#paint14_linear_393_224)"/>
    <path d="M107.888 24.1586C107.888 24.9772 107.784 25.7164 107.576 26.3762C107.369 27.0238 107.094 27.598 106.752 28.099C106.409 28.5877 106.012 29.0092 105.56 29.3635C105.108 29.7056 104.632 29.9867 104.131 30.2066C103.642 30.4265 103.141 30.5915 102.628 30.7014C102.127 30.7992 101.651 30.848 101.198 30.848H92.603C91.9432 30.848 91.2223 30.732 90.4404 30.4998C89.6584 30.2677 88.9314 29.8889 88.2594 29.3635C87.5997 28.8259 87.0437 28.1356 86.5917 27.2926C86.1518 26.4373 85.9319 25.3926 85.9319 24.1586V17.7074C85.9319 16.4856 86.1518 15.4532 86.5917 14.6101C87.0437 13.7549 87.5997 13.0645 88.2594 12.5392C88.9314 12.0016 89.6584 11.6167 90.4404 11.3845C91.2223 11.1524 91.9432 11.0363 92.603 11.0363H101.198C102.42 11.0363 103.459 11.2563 104.314 11.6961C105.169 12.136 105.86 12.6919 106.385 13.3639C106.91 14.0237 107.289 14.7445 107.521 15.5265C107.766 16.3085 107.888 17.0354 107.888 17.7074V24.1586ZM103.123 17.7441C103.123 17.0843 102.958 16.5956 102.628 16.2779C102.298 15.9602 101.822 15.8014 101.198 15.8014H92.6396C92.0043 15.8014 91.5217 15.9663 91.1918 16.2962C90.8619 16.6139 90.697 17.0843 90.697 17.7074V24.1586C90.697 24.7817 90.8619 25.2582 91.1918 25.5881C91.5217 25.918 92.0043 26.083 92.6396 26.083H101.198C101.846 26.083 102.329 25.918 102.646 25.5881C102.964 25.2582 103.123 24.7817 103.123 24.1586V17.7441Z" fill="#DB8EA0"/>
    <path d="M107.888 24.1586C107.888 24.9772 107.784 25.7164 107.576 26.3762C107.369 27.0238 107.094 27.598 106.752 28.099C106.409 28.5877 106.012 29.0092 105.56 29.3635C105.108 29.7056 104.632 29.9867 104.131 30.2066C103.642 30.4265 103.141 30.5915 102.628 30.7014C102.127 30.7992 101.651 30.848 101.198 30.848H92.603C91.9432 30.848 91.2223 30.732 90.4404 30.4998C89.6584 30.2677 88.9314 29.8889 88.2594 29.3635C87.5997 28.8259 87.0437 28.1356 86.5917 27.2926C86.1518 26.4373 85.9319 25.3926 85.9319 24.1586V17.7074C85.9319 16.4856 86.1518 15.4532 86.5917 14.6101C87.0437 13.7549 87.5997 13.0645 88.2594 12.5392C88.9314 12.0016 89.6584 11.6167 90.4404 11.3845C91.2223 11.1524 91.9432 11.0363 92.603 11.0363H101.198C102.42 11.0363 103.459 11.2563 104.314 11.6961C105.169 12.136 105.86 12.6919 106.385 13.3639C106.91 14.0237 107.289 14.7445 107.521 15.5265C107.766 16.3085 107.888 17.0354 107.888 17.7074V24.1586ZM103.123 17.7441C103.123 17.0843 102.958 16.5956 102.628 16.2779C102.298 15.9602 101.822 15.8014 101.198 15.8014H92.6396C92.0043 15.8014 91.5217 15.9663 91.1918 16.2962C90.8619 16.6139 90.697 17.0843 90.697 17.7074V24.1586C90.697 24.7817 90.8619 25.2582 91.1918 25.5881C91.5217 25.918 92.0043 26.083 92.6396 26.083H101.198C101.846 26.083 102.329 25.918 102.646 25.5881C102.964 25.2582 103.123 24.7817 103.123 24.1586V17.7441Z" fill="url(#paint15_linear_393_224)"/>
    <path d="M107.888 24.1586C107.888 24.9772 107.784 25.7164 107.576 26.3762C107.369 27.0238 107.094 27.598 106.752 28.099C106.409 28.5877 106.012 29.0092 105.56 29.3635C105.108 29.7056 104.632 29.9867 104.131 30.2066C103.642 30.4265 103.141 30.5915 102.628 30.7014C102.127 30.7992 101.651 30.848 101.198 30.848H92.603C91.9432 30.848 91.2223 30.732 90.4404 30.4998C89.6584 30.2677 88.9314 29.8889 88.2594 29.3635C87.5997 28.8259 87.0437 28.1356 86.5917 27.2926C86.1518 26.4373 85.9319 25.3926 85.9319 24.1586V17.7074C85.9319 16.4856 86.1518 15.4532 86.5917 14.6101C87.0437 13.7549 87.5997 13.0645 88.2594 12.5392C88.9314 12.0016 89.6584 11.6167 90.4404 11.3845C91.2223 11.1524 91.9432 11.0363 92.603 11.0363H101.198C102.42 11.0363 103.459 11.2563 104.314 11.6961C105.169 12.136 105.86 12.6919 106.385 13.3639C106.91 14.0237 107.289 14.7445 107.521 15.5265C107.766 16.3085 107.888 17.0354 107.888 17.7074V24.1586ZM103.123 17.7441C103.123 17.0843 102.958 16.5956 102.628 16.2779C102.298 15.9602 101.822 15.8014 101.198 15.8014H92.6396C92.0043 15.8014 91.5217 15.9663 91.1918 16.2962C90.8619 16.6139 90.697 17.0843 90.697 17.7074V24.1586C90.697 24.7817 90.8619 25.2582 91.1918 25.5881C91.5217 25.918 92.0043 26.083 92.6396 26.083H101.198C101.846 26.083 102.329 25.918 102.646 25.5881C102.964 25.2582 103.123 24.7817 103.123 24.1586V17.7441Z" fill="url(#paint16_linear_393_224)"/>
    <path d="M133.509 24.1586C133.509 24.9772 133.405 25.7164 133.198 26.3762C132.99 27.0238 132.715 27.598 132.373 28.099C132.031 28.5877 131.634 29.0092 131.182 29.3635C130.73 29.7056 130.253 29.9867 129.752 30.2066C129.264 30.4265 128.763 30.5915 128.249 30.7014C127.748 30.7992 127.272 30.848 126.82 30.848H118.224C117.565 30.848 116.844 30.732 116.062 30.4998C115.28 30.2677 114.553 29.8889 113.881 29.3635C113.221 28.8259 112.665 28.1356 112.213 27.2926C111.773 26.4373 111.553 25.3926 111.553 24.1586V17.7074C111.553 16.4856 111.773 15.4532 112.213 14.6101C112.665 13.7549 113.221 13.0645 113.881 12.5392C114.553 12.0016 115.28 11.6167 116.062 11.3845C116.844 11.1524 117.565 11.0363 118.224 11.0363H126.82C128.042 11.0363 129.08 11.2563 129.936 11.6961C130.791 12.136 131.481 12.6919 132.007 13.3639C132.532 14.0237 132.911 14.7445 133.143 15.5265C133.387 16.3085 133.509 17.0354 133.509 17.7074V24.1586ZM128.744 17.7441C128.744 17.0843 128.579 16.5956 128.249 16.2779C127.92 15.9602 127.443 15.8014 126.82 15.8014H118.261C117.626 15.8014 117.143 15.9663 116.813 16.2962C116.483 16.6139 116.318 17.0843 116.318 17.7074V24.1586C116.318 24.7817 116.483 25.2582 116.813 25.5881C117.143 25.918 117.626 26.083 118.261 26.083H126.82C127.467 26.083 127.95 25.918 128.268 25.5881C128.585 25.2582 128.744 24.7817 128.744 24.1586V17.7441Z" fill="#DB8EA0"/>
    <path d="M133.509 24.1586C133.509 24.9772 133.405 25.7164 133.198 26.3762C132.99 27.0238 132.715 27.598 132.373 28.099C132.031 28.5877 131.634 29.0092 131.182 29.3635C130.73 29.7056 130.253 29.9867 129.752 30.2066C129.264 30.4265 128.763 30.5915 128.249 30.7014C127.748 30.7992 127.272 30.848 126.82 30.848H118.224C117.565 30.848 116.844 30.732 116.062 30.4998C115.28 30.2677 114.553 29.8889 113.881 29.3635C113.221 28.8259 112.665 28.1356 112.213 27.2926C111.773 26.4373 111.553 25.3926 111.553 24.1586V17.7074C111.553 16.4856 111.773 15.4532 112.213 14.6101C112.665 13.7549 113.221 13.0645 113.881 12.5392C114.553 12.0016 115.28 11.6167 116.062 11.3845C116.844 11.1524 117.565 11.0363 118.224 11.0363H126.82C128.042 11.0363 129.08 11.2563 129.936 11.6961C130.791 12.136 131.481 12.6919 132.007 13.3639C132.532 14.0237 132.911 14.7445 133.143 15.5265C133.387 16.3085 133.509 17.0354 133.509 17.7074V24.1586ZM128.744 17.7441C128.744 17.0843 128.579 16.5956 128.249 16.2779C127.92 15.9602 127.443 15.8014 126.82 15.8014H118.261C117.626 15.8014 117.143 15.9663 116.813 16.2962C116.483 16.6139 116.318 17.0843 116.318 17.7074V24.1586C116.318 24.7817 116.483 25.2582 116.813 25.5881C117.143 25.918 117.626 26.083 118.261 26.083H126.82C127.467 26.083 127.95 25.918 128.268 25.5881C128.585 25.2582 128.744 24.7817 128.744 24.1586V17.7441Z" fill="url(#paint17_linear_393_224)"/>
    <path d="M133.509 24.1586C133.509 24.9772 133.405 25.7164 133.198 26.3762C132.99 27.0238 132.715 27.598 132.373 28.099C132.031 28.5877 131.634 29.0092 131.182 29.3635C130.73 29.7056 130.253 29.9867 129.752 30.2066C129.264 30.4265 128.763 30.5915 128.249 30.7014C127.748 30.7992 127.272 30.848 126.82 30.848H118.224C117.565 30.848 116.844 30.732 116.062 30.4998C115.28 30.2677 114.553 29.8889 113.881 29.3635C113.221 28.8259 112.665 28.1356 112.213 27.2926C111.773 26.4373 111.553 25.3926 111.553 24.1586V17.7074C111.553 16.4856 111.773 15.4532 112.213 14.6101C112.665 13.7549 113.221 13.0645 113.881 12.5392C114.553 12.0016 115.28 11.6167 116.062 11.3845C116.844 11.1524 117.565 11.0363 118.224 11.0363H126.82C128.042 11.0363 129.08 11.2563 129.936 11.6961C130.791 12.136 131.481 12.6919 132.007 13.3639C132.532 14.0237 132.911 14.7445 133.143 15.5265C133.387 16.3085 133.509 17.0354 133.509 17.7074V24.1586ZM128.744 17.7441C128.744 17.0843 128.579 16.5956 128.249 16.2779C127.92 15.9602 127.443 15.8014 126.82 15.8014H118.261C117.626 15.8014 117.143 15.9663 116.813 16.2962C116.483 16.6139 116.318 17.0843 116.318 17.7074V24.1586C116.318 24.7817 116.483 25.2582 116.813 25.5881C117.143 25.918 117.626 26.083 118.261 26.083H126.82C127.467 26.083 127.95 25.918 128.268 25.5881C128.585 25.2582 128.744 24.7817 128.744 24.1586V17.7441Z" fill="url(#paint18_linear_393_224)"/>
    <path d="M7.21926 26.1428H13.5906C8.4311 28.0672 6.4883 29.106 4.64211 30.8743C4.61686 30.8693 4.58341 30.8642 4.5431 30.8582C4.01203 30.7783 2.28982 30.5193 2.42289 27.7244L2.42289 6.89244C2.56608 5.38921 3.56829 4.53035 5.35799 4.60162L17.7426 4.60162C21.8231 4.60162 25.4741 6.74922 27.1922 9.89907C25.4143 9.73595 24.409 10.2535 22.6106 11.5456C21.0357 9.7559 19.4607 9.39796 17.7426 9.39796H7.21927L7.21926 26.1428Z" fill="#DB8EA0"/>
    <path d="M7.21926 26.1428H13.5906C8.4311 28.0672 6.4883 29.106 4.64211 30.8743C4.61686 30.8693 4.58341 30.8642 4.5431 30.8582C4.01203 30.7783 2.28982 30.5193 2.42289 27.7244L2.42289 6.89244C2.56608 5.38921 3.56829 4.53035 5.35799 4.60162L17.7426 4.60162C21.8231 4.60162 25.4741 6.74922 27.1922 9.89907C25.4143 9.73595 24.409 10.2535 22.6106 11.5456C21.0357 9.7559 19.4607 9.39796 17.7426 9.39796H7.21927L7.21926 26.1428Z" fill="url(#paint19_linear_393_224)"/>
    <path d="M7.21926 26.1428H13.5906C8.4311 28.0672 6.4883 29.106 4.64211 30.8743C4.61686 30.8693 4.58341 30.8642 4.5431 30.8582C4.01203 30.7783 2.28982 30.5193 2.42289 27.7244L2.42289 6.89244C2.56608 5.38921 3.56829 4.53035 5.35799 4.60162L17.7426 4.60162C21.8231 4.60162 25.4741 6.74922 27.1922 9.89907C25.4143 9.73595 24.409 10.2535 22.6106 11.5456C21.0357 9.7559 19.4607 9.39796 17.7426 9.39796H7.21927L7.21926 26.1428Z" fill="url(#paint20_linear_393_224)"/>
    <path d="M53.8226 19.7418L54.3007 19.8883L54.3013 19.8861L53.8226 19.7418ZM52.6863 21.8677L52.2952 21.5562L52.2945 21.5572L52.6863 21.8677ZM50.652 23.4988L50.4207 23.0555L50.4181 23.0569L50.652 23.4988ZM39.0142 24.1586H38.5142V24.6586H39.0142V24.1586ZM39.0142 19.6318V19.1318H38.5142V19.6318H39.0142ZM49.1125 19.0453L49.4831 19.3811L49.4881 19.3754L49.1125 19.0453ZM49.0392 16.0946L48.7034 16.4652L48.7092 16.4702L49.0392 16.0946ZM37.5114 16.1679L37.8819 16.5037L37.887 16.498L37.5114 16.1679ZM37.5664 25.7714L37.2306 26.1419L37.2363 26.147L37.5664 25.7714ZM47.6097 26.3029H48.1097V25.8029H47.6097V26.3029ZM47.6097 30.848V31.348H48.1097V30.848H47.6097ZM36.8699 30.4998L36.7234 30.9779L36.7256 30.9785L36.8699 30.4998ZM34.744 29.3819L34.4289 29.7702L34.437 29.7765L34.744 29.3819ZM33.1129 27.3475L32.6696 27.5788L32.671 27.5815L33.1129 27.3475ZM32.8013 15.4715L33.2794 15.618L33.28 15.6159L32.8013 15.4715ZM33.9193 13.3456L33.5281 13.0341L33.5274 13.035L33.9193 13.3456ZM35.9536 11.6961L35.7223 11.2528L35.7196 11.2542L35.9536 11.6961ZM49.7356 11.3845L49.5891 11.8626L49.5913 11.8633L49.7356 11.3845ZM51.8616 12.5208L51.5465 12.9092L51.5546 12.9155L51.8616 12.5208ZM53.5111 14.5552L53.0678 14.7864L53.0692 14.7891L53.5111 14.5552ZM69.9139 13.9504L69.534 14.2754L69.9139 14.7195L70.2939 14.2754L69.9139 13.9504ZM77.9412 4.56683V4.06683H77.711L77.5613 4.2418L77.9412 4.56683ZM84.4474 4.56683L84.8268 4.89244L85.5353 4.06683H84.4474V4.56683ZM73.1395 17.7441L72.7601 17.4185L72.4808 17.7439L72.7599 18.0695L73.1395 17.7441ZM84.3741 30.848V31.348H85.4613L84.7537 30.5226L84.3741 30.848ZM77.9046 30.848L77.5252 31.1737L77.6748 31.348H77.9046V30.848ZM69.9139 21.5378L70.2933 21.2122L69.913 20.7691L69.5338 21.213L69.9139 21.5378ZM61.9599 30.848V31.348H62.1904L62.3401 31.1728L61.9599 30.848ZM55.4721 30.848L55.0922 30.5229L54.3859 31.348H55.4721V30.848ZM66.6883 17.7441L67.0682 18.0692L67.3461 17.7445L67.0685 17.4194L66.6883 17.7441ZM55.4354 4.56683V4.06683H54.3509L55.0552 4.89152L55.4354 4.56683ZM61.8866 4.56683L62.2665 4.2418L62.1168 4.06683H61.8866V4.56683ZM107.576 26.3762L108.052 26.5289L108.053 26.5263L107.576 26.3762ZM106.752 28.099L107.161 28.3857L107.164 28.3809L106.752 28.099ZM105.56 29.3635L105.862 29.7623L105.869 29.7571L105.56 29.3635ZM104.131 30.2066L103.93 29.7487L103.926 29.7506L104.131 30.2066ZM102.628 30.7014L102.724 31.1923L102.733 31.1903L102.628 30.7014ZM88.2594 29.3635L87.9435 29.7512L87.9515 29.7574L88.2594 29.3635ZM86.5917 27.2926L86.147 27.5213L86.151 27.5289L86.5917 27.2926ZM86.5917 14.6101L86.1496 14.3765L86.1484 14.3789L86.5917 14.6101ZM88.2594 12.5392L88.5709 12.9303L88.5718 12.9296L88.2594 12.5392ZM106.385 13.3639L105.991 13.6719L105.994 13.6753L106.385 13.3639ZM107.521 15.5265L107.042 15.6688L107.044 15.6756L107.521 15.5265ZM91.1918 16.2962L91.5387 16.6565L91.5453 16.6498L91.1918 16.2962ZM133.198 26.3762L133.674 26.5289L133.675 26.5263L133.198 26.3762ZM132.373 28.099L132.783 28.3857L132.786 28.3809L132.373 28.099ZM131.182 29.3635L131.484 29.7623L131.49 29.7571L131.182 29.3635ZM129.752 30.2066L129.551 29.7487L129.547 29.7506L129.752 30.2066ZM128.249 30.7014L128.345 31.1923L128.354 31.1903L128.249 30.7014ZM113.881 29.3635L113.565 29.7512L113.573 29.7574L113.881 29.3635ZM112.213 27.2926L111.768 27.5213L111.772 27.5289L112.213 27.2926ZM112.213 14.6101L111.771 14.3765L111.77 14.3789L112.213 14.6101ZM113.881 12.5392L114.192 12.9303L114.193 12.9296L113.881 12.5392ZM129.936 11.6961L130.164 11.2515L129.936 11.6961ZM132.007 13.3639L131.613 13.6719L131.615 13.6753L132.007 13.3639ZM133.143 15.5265L132.663 15.6688L132.666 15.6756L133.143 15.5265ZM116.813 16.2962L117.16 16.6565L117.167 16.6498L116.813 16.2962ZM13.5906 26.1428L13.7653 26.6113L13.5906 25.6428V26.1428ZM7.21926 26.1428H6.71926V26.6428H7.21926V26.1428ZM4.64211 30.8743L4.54445 31.3647L4.79987 31.4155L4.98796 31.2354L4.64211 30.8743ZM4.5431 30.8582L4.61746 30.3637H4.61746L4.5431 30.8582ZM2.42289 27.7244L2.92233 27.7482L2.92289 27.7363V27.7244H2.42289ZM2.42289 6.89244L1.92515 6.84502L1.92289 6.86868V6.89244H2.42289ZM5.35799 4.60162L5.3381 5.10122L5.34804 5.10162H5.35799V4.60162ZM17.7426 4.60162V4.10162V4.60162ZM27.1922 9.89907L27.1465 10.397L28.0801 10.4826L27.6311 9.65964L27.1922 9.89907ZM22.6106 11.5456L22.2352 11.8759L22.5345 12.216L22.9023 11.9516L22.6106 11.5456ZM7.21927 9.39796V8.89796H6.71927L6.71927 9.39796H7.21927ZM53.6708 17.5975C53.6708 18.199 53.5649 18.8646 53.3439 19.5974L54.3013 19.8861C54.5446 19.0794 54.6708 18.3155 54.6708 17.5975H53.6708ZM53.3446 19.5953C53.1319 20.289 52.7841 20.9423 52.2952 21.5562L53.0775 22.1792C53.6394 21.4735 54.049 20.7095 54.3007 19.8883L53.3446 19.5953ZM52.2945 21.5572C51.831 22.142 51.2109 22.6433 50.4207 23.0555L50.8833 23.9421C51.7793 23.4747 52.5153 22.8885 53.0782 22.1782L52.2945 21.5572ZM50.4181 23.0569C49.6764 23.4496 48.7473 23.6586 47.6097 23.6586V24.6586C48.8669 24.6586 49.966 24.4278 50.886 23.9407L50.4181 23.0569ZM47.6097 23.6586H39.0142V24.6586H47.6097V23.6586ZM39.5142 24.1586V19.6318H38.5142V24.1586H39.5142ZM39.0142 20.1318H47.6097V19.1318H39.0142V20.1318ZM47.6097 20.1318C48.3638 20.1318 49.0129 19.8998 49.483 19.3811L48.742 18.7096C48.5035 18.9728 48.1507 19.1318 47.6097 19.1318V20.1318ZM49.4881 19.3754C49.9303 18.8722 50.144 18.2566 50.144 17.5608H49.144C49.144 18.038 49.0034 18.412 48.7369 18.7153L49.4881 19.3754ZM50.144 17.5608C50.144 16.8194 49.8983 16.184 49.3693 15.7191L48.7092 16.4702C48.9865 16.714 49.144 17.0559 49.144 17.5608H50.144ZM49.375 15.7241C48.8857 15.2807 48.287 15.0631 47.6097 15.0631V16.0631C48.0564 16.0631 48.4108 16.1999 48.7035 16.4651L49.375 15.7241ZM47.6097 15.0631H39.0142V16.0631H47.6097V15.0631ZM39.0142 15.0631C38.2553 15.0631 37.6045 15.3045 37.1358 15.8379L37.887 16.498C38.1269 16.225 38.4781 16.0631 39.0142 16.0631V15.0631ZM37.1409 15.8322C36.6937 16.3256 36.4799 16.9385 36.4799 17.6341H37.4799C37.4799 17.1568 37.6204 16.7922 37.8819 16.5037L37.1409 15.8322ZM36.4799 17.6341V24.2869H37.4799V17.6341H36.4799ZM36.4799 24.2869C36.4799 25.0321 36.7139 25.6736 37.2306 26.1419L37.9021 25.4009C37.6369 25.1605 37.4799 24.8124 37.4799 24.2869H36.4799ZM37.2363 26.147C37.7395 26.5892 38.3551 26.8029 39.0509 26.8029V25.8029C38.5737 25.8029 38.1997 25.6623 37.8964 25.3958L37.2363 26.147ZM39.0509 26.8029H47.6097V25.8029H39.0509V26.8029ZM47.1097 26.3029V30.848H48.1097V26.3029H47.1097ZM47.6097 30.348H39.0142V31.348H47.6097V30.348ZM39.0142 30.348C38.4127 30.348 37.7471 30.2421 37.0143 30.0211L36.7256 30.9785C37.5323 31.2218 38.2962 31.348 39.0142 31.348V30.348ZM37.0164 30.0218C36.3202 29.8084 35.6654 29.4651 35.051 28.9872L34.437 29.7765C35.1421 30.3249 35.9047 30.727 36.7234 30.9779L37.0164 30.0218ZM35.059 28.9936C34.47 28.5157 33.9671 27.8925 33.5548 27.1136L32.671 27.5815C33.1383 28.4642 33.7229 29.1973 34.429 29.7701L35.059 28.9936ZM33.5562 27.1163C33.162 26.3607 32.9531 25.4242 32.9531 24.2869H31.9531C31.9531 25.5444 32.1841 26.6482 32.6696 27.5788L33.5562 27.1163ZM32.9531 24.2869V17.5975H31.9531V24.2869H32.9531ZM32.9531 17.5975C32.9531 16.9961 33.0589 16.3373 33.2794 15.618L32.3233 15.325C32.0794 16.1208 31.9531 16.8792 31.9531 17.5975H32.9531ZM33.28 15.6159C33.4934 14.9082 33.836 14.2556 34.3111 13.6561L33.5274 13.035C32.9762 13.7306 32.5735 14.4953 32.3226 15.3271L33.28 15.6159ZM34.3104 13.657C34.7883 13.0569 35.4105 12.5494 36.1875 12.138L35.7196 11.2542C34.835 11.7226 34.101 12.3146 33.5281 13.0341L34.3104 13.657ZM36.1849 12.1394C36.9404 11.7452 37.877 11.5363 39.0142 11.5363V10.5363C37.7567 10.5363 36.6529 10.7673 35.7223 11.2528L36.1849 12.1394ZM39.0142 11.5363H47.6097V10.5363H39.0142V11.5363ZM47.6097 11.5363C48.211 11.5363 48.8699 11.6422 49.5891 11.8626L49.8821 10.9065C49.0864 10.6626 48.3279 10.5363 47.6097 10.5363V11.5363ZM49.5913 11.8633C50.2965 12.0759 50.9476 12.4231 51.5466 12.9091L52.1766 12.1326C51.4805 11.5678 50.7143 11.1575 49.88 10.9058L49.5913 11.8633ZM51.5546 12.9155C52.1505 13.3789 52.6565 13.9982 53.0678 14.7864L53.9543 14.3239C53.4859 13.426 52.8923 12.6891 52.1686 12.1262L51.5546 12.9155ZM53.0692 14.7891C53.4618 15.5308 53.6708 16.4599 53.6708 17.5975H54.6708C54.6708 16.3403 54.44 15.2412 53.9529 14.3212L53.0692 14.7891ZM70.2939 14.2754L78.3212 4.89185L77.5613 4.2418L69.534 13.6253L70.2939 14.2754ZM77.9412 5.06683H84.4474V4.06683H77.9412V5.06683ZM84.0679 4.24121L72.7601 17.4185L73.5189 18.0697L84.8268 4.89244L84.0679 4.24121ZM72.7599 18.0695L83.9945 31.1735L84.7537 30.5226L73.5191 17.4186L72.7599 18.0695ZM84.3741 30.348H77.9046V31.348H84.3741V30.348ZM78.284 30.5224L70.2933 21.2122L69.5345 21.8635L77.5252 31.1737L78.284 30.5224ZM69.5338 21.213L61.5797 30.5233L62.3401 31.1728L70.2941 21.8626L69.5338 21.213ZM61.9599 30.348H55.4721V31.348H61.9599V30.348ZM55.8519 31.1732L67.0682 18.0692L66.3085 17.419L55.0922 30.5229L55.8519 31.1732ZM67.0685 17.4194L55.8156 4.24213L55.0552 4.89152L66.3081 18.0688L67.0685 17.4194ZM55.4354 5.06683H61.8866V4.06683H55.4354V5.06683ZM61.5066 4.89185L69.534 14.2754L70.2939 13.6253L62.2665 4.2418L61.5066 4.89185ZM107.388 24.1586C107.388 24.9354 107.289 25.6228 107.099 26.2261L108.053 26.5263C108.279 25.81 108.388 25.0191 108.388 24.1586H107.388ZM107.1 26.2235C106.905 26.8306 106.651 27.3603 106.339 27.817L107.164 28.3809C107.537 27.8357 107.832 27.2169 108.052 26.5289L107.1 26.2235ZM106.342 27.8122C106.027 28.2621 105.664 28.6473 105.252 28.97L105.869 29.7571C106.361 29.3712 106.792 28.9132 107.161 28.3857L106.342 27.8122ZM105.259 28.9648C104.837 29.2842 104.394 29.5451 103.93 29.7488L104.332 30.6644C104.87 30.4282 105.38 30.1271 105.862 29.7622L105.259 28.9648ZM103.926 29.7506C103.468 29.9564 103.001 30.1101 102.523 30.2125L102.733 31.1903C103.281 31.0728 103.816 30.8967 104.336 30.6625L103.926 29.7506ZM102.532 30.2107C102.059 30.303 101.615 30.348 101.198 30.348V31.348C101.686 31.348 102.195 31.2953 102.724 31.1922L102.532 30.2107ZM101.198 30.348H92.603V31.348H101.198V30.348ZM92.603 30.348C92.0012 30.348 91.3289 30.242 90.5827 30.0205L90.2981 30.9791C91.1158 31.2219 91.8852 31.348 92.603 31.348V30.348ZM90.5827 30.0205C89.8635 29.807 89.1923 29.4582 88.5674 28.9696L87.9515 29.7574C88.6706 30.3196 89.4533 30.7284 90.2981 30.9791L90.5827 30.0205ZM88.5753 28.9759C87.9727 28.4849 87.457 27.8483 87.0323 27.0563L86.151 27.5289C86.6304 28.4229 87.2267 29.167 87.9436 29.7512L88.5753 28.9759ZM87.0363 27.0639C86.6417 26.2965 86.4319 25.335 86.4319 24.1586H85.4319C85.4319 25.4503 85.662 26.5781 86.147 27.5212L87.0363 27.0639ZM86.4319 24.1586V17.7074H85.4319V24.1586H86.4319ZM86.4319 17.7074C86.4319 16.5439 86.6415 15.5956 87.035 14.8414L86.1484 14.3789C85.6622 15.3107 85.4319 16.4274 85.4319 17.7074H86.4319ZM87.0337 14.8438C87.4583 14.0405 87.9724 13.4069 88.5709 12.9303L87.948 12.148C87.2269 12.7222 86.6292 13.4692 86.1496 14.3765L87.0337 14.8438ZM88.5718 12.9296C89.1962 12.4301 89.866 12.0766 90.5827 11.8639L90.2981 10.9052C89.4509 11.1567 88.6667 11.573 87.9471 12.1487L88.5718 12.9296ZM90.5827 11.8639C91.3289 11.6423 92.0012 11.5363 92.603 11.5363V10.5363C91.8852 10.5363 91.1158 10.6625 90.2981 10.9052L90.5827 11.8639ZM92.603 11.5363H101.198V10.5363H92.603V11.5363ZM101.198 11.5363C102.362 11.5363 103.317 11.7458 104.085 12.1408L104.543 11.2515C103.6 10.7667 102.479 10.5363 101.198 10.5363V11.5363ZM104.085 12.1408C104.885 12.5518 105.516 13.0637 105.991 13.6718L106.779 13.0559C106.204 12.3201 105.454 11.7202 104.543 11.2515L104.085 12.1408ZM105.994 13.6753C106.481 14.2867 106.829 14.9505 107.042 15.6688L108.001 15.3842C107.75 14.5386 107.34 13.7607 106.776 13.0524L105.994 13.6753ZM107.044 15.6756C107.277 16.4195 107.388 17.0957 107.388 17.7074H108.388C108.388 16.9752 108.255 16.1974 107.999 15.3774L107.044 15.6756ZM107.388 17.7074V24.1586H108.388V17.7074H107.388ZM103.623 17.7441C103.623 17.0089 103.439 16.3647 102.975 15.9178L102.281 16.6381C102.477 16.8265 102.623 17.1597 102.623 17.7441H103.623ZM102.975 15.9178C102.522 15.482 101.903 15.3014 101.198 15.3014V16.3014C101.74 16.3014 102.074 16.4384 102.281 16.6381L102.975 15.9178ZM101.198 15.3014H92.6396V16.3014H101.198V15.3014ZM92.6396 15.3014C91.9209 15.3014 91.2917 15.4892 90.8382 15.9427L91.5453 16.6498C91.7516 16.4435 92.0877 16.3014 92.6396 16.3014V15.3014ZM90.845 15.9361C90.386 16.3781 90.197 16.999 90.197 17.7074H91.197C91.197 17.1696 91.3379 16.8497 91.5386 16.6564L90.845 15.9361ZM90.197 17.7074V24.1586H91.197V17.7074H90.197ZM90.197 24.1586C90.197 24.8684 90.3864 25.4899 90.8382 25.9417L91.5453 25.2346C91.3374 25.0266 91.197 24.6951 91.197 24.1586H90.197ZM90.8382 25.9417C91.2917 26.3952 91.9209 26.583 92.6396 26.583V25.583C92.0877 25.583 91.7516 25.4409 91.5453 25.2346L90.8382 25.9417ZM92.6396 26.583H101.198V25.583H92.6396V26.583ZM101.198 26.583C101.925 26.583 102.561 26.3974 103.006 25.935L102.286 25.2413C102.096 25.4386 101.767 25.583 101.198 25.583V26.583ZM103.006 25.935C103.442 25.4825 103.623 24.8635 103.623 24.1586H102.623C102.623 24.7 102.486 25.034 102.286 25.2413L103.006 25.935ZM103.623 24.1586V17.7441H102.623V24.1586H103.623ZM133.009 24.1586C133.009 24.9354 132.911 25.6228 132.721 26.2261L133.675 26.5263C133.9 25.81 134.009 25.0191 134.009 24.1586H133.009ZM132.722 26.2235C132.527 26.8306 132.272 27.3603 131.96 27.817L132.786 28.3809C133.158 27.8357 133.453 27.2169 133.674 26.5289L132.722 26.2235ZM131.963 27.8122C131.648 28.2621 131.285 28.6473 130.873 28.97L131.49 29.7571C131.983 29.3712 132.413 28.9132 132.783 28.3857L131.963 27.8122ZM130.88 28.9648C130.458 29.2842 130.015 29.5451 129.551 29.7488L129.953 30.6644C130.491 30.4282 131.001 30.1271 131.483 29.7622L130.88 28.9648ZM129.547 29.7506C129.09 29.9564 128.623 30.1101 128.145 30.2125L128.354 31.1903C128.903 31.0728 129.437 30.8967 129.957 30.6625L129.547 29.7506ZM128.154 30.2107C127.68 30.303 127.236 30.348 126.82 30.348V31.348C127.308 31.348 127.817 31.2953 128.345 31.1922L128.154 30.2107ZM126.82 30.348H118.224V31.348H126.82V30.348ZM118.224 30.348C117.623 30.348 116.95 30.242 116.204 30.0205L115.92 30.9791C116.737 31.2219 117.507 31.348 118.224 31.348V30.348ZM116.204 30.0205C115.485 29.807 114.814 29.4582 114.189 28.9696L113.573 29.7574C114.292 30.3196 115.075 30.7284 115.92 30.9791L116.204 30.0205ZM114.197 28.9759C113.594 28.4849 113.078 27.8483 112.654 27.0563L111.772 27.5289C112.252 28.4229 112.848 29.167 113.565 29.7512L114.197 28.9759ZM112.658 27.0639C112.263 26.2965 112.053 25.335 112.053 24.1586H111.053C111.053 25.4503 111.283 26.5781 111.768 27.5212L112.658 27.0639ZM112.053 24.1586V17.7074H111.053V24.1586H112.053ZM112.053 17.7074C112.053 16.5439 112.263 15.5956 112.656 14.8414L111.77 14.3789C111.284 15.3107 111.053 16.4274 111.053 17.7074H112.053ZM112.655 14.8438C113.08 14.0405 113.594 13.4069 114.192 12.9303L113.569 12.148C112.848 12.7222 112.251 13.4692 111.771 14.3765L112.655 14.8438ZM114.193 12.9296C114.818 12.4301 115.487 12.0766 116.204 11.8639L115.92 10.9052C115.072 11.1567 114.288 11.573 113.569 12.1487L114.193 12.9296ZM116.204 11.8639C116.95 11.6423 117.623 11.5363 118.224 11.5363V10.5363C117.507 10.5363 116.737 10.6625 115.92 10.9052L116.204 11.8639ZM118.224 11.5363H126.82V10.5363H118.224V11.5363ZM126.82 11.5363C127.983 11.5363 128.939 11.7458 129.707 12.1408L130.164 11.2515C129.222 10.7667 128.1 10.5363 126.82 10.5363V11.5363ZM129.707 12.1408C130.506 12.5518 131.137 13.0637 131.613 13.6718L132.4 13.0559C131.825 12.3201 131.076 11.7202 130.164 11.2515L129.707 12.1408ZM131.615 13.6753C132.102 14.2867 132.45 14.9505 132.663 15.6688L133.622 15.3842C133.371 14.5386 132.962 13.7607 132.398 13.0524L131.615 13.6753ZM132.666 15.6756C132.898 16.4195 133.009 17.0957 133.009 17.7074H134.009C134.009 16.9752 133.876 16.1974 133.62 15.3774L132.666 15.6756ZM133.009 17.7074V24.1586H134.009V17.7074H133.009ZM129.244 17.7441C129.244 17.0089 129.06 16.3647 128.596 15.9178L127.903 16.6381C128.098 16.8265 128.244 17.1597 128.244 17.7441H129.244ZM128.596 15.9178C128.144 15.482 127.525 15.3014 126.82 15.3014V16.3014C127.361 16.3014 127.695 16.4384 127.903 16.6381L128.596 15.9178ZM126.82 15.3014H118.261V16.3014H126.82V15.3014ZM118.261 15.3014C117.542 15.3014 116.913 15.4892 116.46 15.9427L117.167 16.6498C117.373 16.4435 117.709 16.3014 118.261 16.3014V15.3014ZM116.466 15.9361C116.007 16.3781 115.818 16.999 115.818 17.7074H116.818C116.818 17.1696 116.959 16.8497 117.16 16.6564L116.466 15.9361ZM115.818 17.7074V24.1586H116.818V17.7074H115.818ZM115.818 24.1586C115.818 24.8684 116.008 25.4899 116.46 25.9417L117.167 25.2346C116.959 25.0266 116.818 24.6951 116.818 24.1586H115.818ZM116.46 25.9417C116.913 26.3952 117.542 26.583 118.261 26.583V25.583C117.709 25.583 117.373 25.4409 117.167 25.2346L116.46 25.9417ZM118.261 26.583H126.82V25.583H118.261V26.583ZM126.82 26.583C127.546 26.583 128.183 26.3974 128.628 25.935L127.908 25.2413C127.718 25.4386 127.389 25.583 126.82 25.583V26.583ZM128.628 25.935C129.064 25.4825 129.244 24.8635 129.244 24.1586H128.244C128.244 24.7 128.107 25.034 127.908 25.2413L128.628 25.935ZM129.244 24.1586V17.7441H128.244V24.1586H129.244ZM13.5906 25.6428H7.21926V26.6428H13.5906V25.6428ZM4.98796 31.2354C6.75544 29.5425 8.61465 28.5324 13.7653 26.6113L13.4158 25.6744C8.24754 27.602 6.22116 28.6696 4.29626 30.5132L4.98796 31.2354ZM4.46874 31.3526C4.51382 31.3594 4.53352 31.3625 4.54445 31.3647L4.73977 30.3839C4.70019 30.376 4.653 30.3691 4.61746 30.3637L4.46874 31.3526ZM1.92346 27.7006C1.8517 29.2078 2.28092 30.1349 2.903 30.6842C3.50208 31.2132 4.19755 31.3118 4.46874 31.3526L4.61746 30.3637C4.35758 30.3246 3.92641 30.2538 3.56488 29.9346C3.22636 29.6357 2.86102 29.0359 2.92233 27.7482L1.92346 27.7006ZM1.92289 6.89244L1.92289 27.7244H2.92289L2.92289 6.89244H1.92289ZM5.37789 4.10201C4.40358 4.06322 3.57445 4.27515 2.96067 4.76615C2.34072 5.26208 2.00662 5.98975 1.92515 6.84502L2.92064 6.93985C2.98236 6.2919 3.22096 5.83852 3.58534 5.54704C3.95588 5.25062 4.5227 5.06875 5.3381 5.10122L5.37789 4.10201ZM17.7426 4.10162L5.35799 4.10162V5.10162L17.7426 5.10162V4.10162ZM27.6311 9.65964C25.8185 6.33648 21.9912 4.10162 17.7426 4.10162V5.10162C21.6551 5.10162 25.1297 7.16196 26.7533 10.1385L27.6311 9.65964ZM22.9023 11.9516C23.7994 11.3071 24.4557 10.8884 25.0897 10.6429C25.7058 10.4042 26.3226 10.3214 27.1465 10.397L27.2379 9.40116C26.2839 9.31364 25.5091 9.40799 24.7285 9.71036C23.9657 10.0058 23.2202 10.4919 22.3188 11.1395L22.9023 11.9516ZM17.7426 9.89796C18.568 9.89796 19.323 9.98429 20.0491 10.2666C20.771 10.5474 21.494 11.0336 22.2352 11.8759L22.986 11.2153C22.1522 10.2678 21.3004 9.6803 20.4115 9.33464C19.5269 8.9906 18.6354 8.89796 17.7426 8.89796V9.89796ZM7.21927 9.89796H17.7426V8.89796H7.21927V9.89796ZM7.71926 26.1428L7.71927 9.39796L6.71927 9.39796L6.71926 26.1428H7.71926Z" fill="#E7E7E7"/>
    <path d="M69.9139 13.9504L77.9412 4.56683H84.4474L73.1395 17.7441L84.3741 30.848H77.9046L69.9139 21.5378L61.9599 30.848H55.4721L66.6883 17.7441L55.4354 4.56683H61.8866L69.9139 13.9504Z" fill="url(#paint21_linear_393_224)"/>
    <path d="M69.9139 13.9504L69.534 14.2754L69.9139 14.7195L70.2939 14.2754L69.9139 13.9504ZM77.9412 4.56683V4.06683H77.711L77.5613 4.2418L77.9412 4.56683ZM84.4474 4.56683L84.8268 4.89244L85.5353 4.06683H84.4474V4.56683ZM73.1395 17.7441L72.7601 17.4185L72.4808 17.7439L72.7599 18.0695L73.1395 17.7441ZM84.3741 30.848V31.348H85.4614L84.7537 30.5226L84.3741 30.848ZM77.9046 30.848L77.5252 31.1737L77.6748 31.348H77.9046V30.848ZM69.9139 21.5378L70.2933 21.2122L69.913 20.7691L69.5338 21.213L69.9139 21.5378ZM61.9599 30.848V31.348H62.1904L62.3401 31.1728L61.9599 30.848ZM55.4721 30.848L55.0922 30.5229L54.386 31.348H55.4721V30.848ZM66.6883 17.7441L67.0682 18.0692L67.3462 17.7445L67.0686 17.4194L66.6883 17.7441ZM55.4354 4.56683V4.06683H54.3509L55.0552 4.89152L55.4354 4.56683ZM61.8866 4.56683L62.2665 4.2418L62.1169 4.06683H61.8866V4.56683ZM70.2939 14.2754L78.3212 4.89185L77.5613 4.2418L69.534 13.6253L70.2939 14.2754ZM77.9412 5.06683H84.4474V4.06683H77.9412V5.06683ZM84.068 4.24121L72.7601 17.4185L73.5189 18.0697L84.8268 4.89244L84.068 4.24121ZM72.7599 18.0695L83.9945 31.1735L84.7537 30.5226L73.5191 17.4186L72.7599 18.0695ZM84.3741 30.348H77.9046V31.348H84.3741V30.348ZM78.284 30.5224L70.2933 21.2122L69.5345 21.8635L77.5252 31.1737L78.284 30.5224ZM69.5338 21.213L61.5798 30.5233L62.3401 31.1728L70.2941 21.8626L69.5338 21.213ZM61.9599 30.348H55.4721V31.348H61.9599V30.348ZM55.8519 31.1732L67.0682 18.0692L66.3085 17.419L55.0922 30.5229L55.8519 31.1732ZM67.0686 17.4194L55.8156 4.24213L55.0552 4.89152L66.3081 18.0688L67.0686 17.4194ZM55.4354 5.06683H61.8866V4.06683H55.4354V5.06683ZM61.5067 4.89185L69.534 14.2754L70.2939 13.6253L62.2665 4.2418L61.5067 4.89185Z" fill="#E7E7E7"/>
    <defs>
        <filter id="filter0_f_393_224" x="-80.1582" y="-162.295" width="393.087" height="393.087" filterUnits="userSpaceOnUse" color-interpolation-filters="sRGB">
            <feFlood flood-opacity="0" result="BackgroundImageFix"/>
            <feBlend mode="normal" in="SourceGraphic" in2="BackgroundImageFix" result="shape"/>
            <feGaussianBlur stdDeviation="90" result="effect1_foregroundBlur_393_224"/>
        </filter>
        <filter id="filter1_f_393_224" x="-127.177" y="-184.063" width="395.119" height="395.119" filterUnits="userSpaceOnUse" color-interpolation-filters="sRGB">
            <feFlood flood-opacity="0" result="BackgroundImageFix"/>
            <feBlend mode="normal" in="SourceGraphic" in2="BackgroundImageFix" result="shape"/>
            <feGaussianBlur stdDeviation="90" result="effect1_foregroundBlur_393_224"/>
        </filter>
        <filter id="filter2_f_393_224" x="-85.2243" y="-66.0686" width="198.021" height="198.021" filterUnits="userSpaceOnUse" color-interpolation-filters="sRGB">
            <feFlood flood-opacity="0" result="BackgroundImageFix"/>
            <feBlend mode="normal" in="SourceGraphic" in2="BackgroundImageFix" result="shape"/>
            <feGaussianBlur stdDeviation="40" result="effect1_foregroundBlur_393_224"/>
        </filter>
        <filter id="filter3_f_393_224" x="-181.398" y="-220.871" width="488.47" height="488.76" filterUnits="userSpaceOnUse" color-interpolation-filters="sRGB">
            <feFlood flood-opacity="0" result="BackgroundImageFix"/>
            <feBlend mode="normal" in="SourceGraphic" in2="BackgroundImageFix" result="shape"/>
            <feGaussianBlur stdDeviation="110" result="effect1_foregroundBlur_393_224"/>
        </filter>
        <filter id="filter4_f_393_224" x="42.7706" y="-65.4881" width="187.863" height="187.573" filterUnits="userSpaceOnUse" color-interpolation-filters="sRGB">
            <feFlood flood-opacity="0" result="BackgroundImageFix"/>
            <feBlend mode="normal" in="SourceGraphic" in2="BackgroundImageFix" result="shape"/>
            <feGaussianBlur stdDeviation="40" result="effect1_foregroundBlur_393_224"/>
        </filter>
        <filter id="filter5_f_393_224" x="-121.346" y="-199.71" width="454.855" height="454.855" filterUnits="userSpaceOnUse" color-interpolation-filters="sRGB">
            <feFlood flood-opacity="0" result="BackgroundImageFix"/>
            <feBlend mode="normal" in="SourceGraphic" in2="BackgroundImageFix" result="shape"/>
            <feGaussianBlur stdDeviation="100" result="effect1_foregroundBlur_393_224"/>
        </filter>
        <filter id="filter6_f_393_224" x="-113.509" y="-169.235" width="431.346" height="431.346" filterUnits="userSpaceOnUse" color-interpolation-filters="sRGB">
            <feFlood flood-opacity="0" result="BackgroundImageFix"/>
            <feBlend mode="normal" in="SourceGraphic" in2="BackgroundImageFix" result="shape"/>
            <feGaussianBlur stdDeviation="100" result="effect1_foregroundBlur_393_224"/>
        </filter>
        <filter id="filter7_f_393_224" x="-174.776" y="-196.834" width="430.528" height="430.818" filterUnits="userSpaceOnUse" color-interpolation-filters="sRGB">
            <feFlood flood-opacity="0" result="BackgroundImageFix"/>
            <feBlend mode="normal" in="SourceGraphic" in2="BackgroundImageFix" result="shape"/>
            <feGaussianBlur stdDeviation="90" result="effect1_foregroundBlur_393_224"/>
        </filter>
        <filter id="filter8_f_393_224" x="-121.082" y="-162.295" width="381.768" height="381.768" filterUnits="userSpaceOnUse" color-interpolation-filters="sRGB">
            <feFlood flood-opacity="0" result="BackgroundImageFix"/>
            <feBlend mode="normal" in="SourceGraphic" in2="BackgroundImageFix" result="shape"/>
            <feGaussianBlur stdDeviation="90" result="effect1_foregroundBlur_393_224"/>
        </filter>
        <filter id="filter9_f_393_224" x="-131.821" y="-155.62" width="393.377" height="393.377" filterUnits="userSpaceOnUse" color-interpolation-filters="sRGB">
            <feFlood flood-opacity="0" result="BackgroundImageFix"/>
            <feBlend mode="normal" in="SourceGraphic" in2="BackgroundImageFix" result="shape"/>
            <feGaussianBlur stdDeviation="90" result="effect1_foregroundBlur_393_224"/>
        </filter>
        <filter id="filter10_f_393_224" x="-205.805" y="-206.385" width="438.311" height="438.311" filterUnits="userSpaceOnUse" color-interpolation-filters="sRGB">
            <feFlood flood-opacity="0" result="BackgroundImageFix"/>
            <feBlend mode="normal" in="SourceGraphic" in2="BackgroundImageFix" result="shape"/>
            <feGaussianBlur stdDeviation="100" result="effect1_foregroundBlur_393_224"/>
        </filter>
        <filter id="filter11_f_393_224" x="-341.446" y="-342.3" width="734.055" height="734.055" filterUnits="userSpaceOnUse" color-interpolation-filters="sRGB">
            <feFlood flood-opacity="0" result="BackgroundImageFix"/>
            <feBlend mode="normal" in="SourceGraphic" in2="BackgroundImageFix" result="shape"/>
            <feGaussianBlur stdDeviation="180" result="effect1_foregroundBlur_393_224"/>
        </filter>
        <linearGradient id="paint0_linear_393_224" x1="0.0101458" y1="6.34606" x2="28.3588" y2="20.5204" gradientUnits="userSpaceOnUse">
            <stop stop-color="#64344F"/>
            <stop offset="1" stop-color="#64344F" stop-opacity="0"/>
        </linearGradient>
        <linearGradient id="paint1_linear_393_224" x1="0.0101458" y1="6.34606" x2="28.3588" y2="20.5204" gradientUnits="userSpaceOnUse">
            <stop stop-color="#64344F"/>
            <stop offset="1" stop-color="#64344F" stop-opacity="0"/>
        </linearGradient>
        <linearGradient id="paint2_linear_393_224" x1="0.0101458" y1="6.34606" x2="28.3588" y2="20.5204" gradientUnits="userSpaceOnUse">
            <stop stop-color="#64344F"/>
            <stop offset="1" stop-color="#64344F" stop-opacity="0"/>
        </linearGradient>
        <linearGradient id="paint3_linear_393_224" x1="0.0101458" y1="6.34606" x2="28.3588" y2="20.5204" gradientUnits="userSpaceOnUse">
            <stop stop-color="#64344F"/>
            <stop offset="1" stop-color="#64344F" stop-opacity="0"/>
        </linearGradient>
        <linearGradient id="paint4_linear_393_224" x1="0.0101458" y1="6.34606" x2="28.3588" y2="20.5204" gradientUnits="userSpaceOnUse">
            <stop stop-color="#64344F"/>
            <stop offset="1" stop-color="#64344F" stop-opacity="0"/>
        </linearGradient>
        <linearGradient id="paint5_linear_393_224" x1="0.0101458" y1="6.34606" x2="28.3588" y2="20.5204" gradientUnits="userSpaceOnUse">
            <stop stop-color="#64344F"/>
            <stop offset="1" stop-color="#64344F" stop-opacity="0"/>
        </linearGradient>
        <linearGradient id="paint6_linear_393_224" x1="32.6894" y1="9.74166" x2="28.4108" y2="17.1334" gradientUnits="userSpaceOnUse">
            <stop offset="0.209653" stop-color="#FF4A4A"/>
            <stop offset="0.992898" stop-color="#FE8F51"/>
        </linearGradient>
        <linearGradient id="paint7_linear_393_224" x1="16.059" y1="33.1981" x2="10.9724" y2="35.7997" gradientUnits="userSpaceOnUse">
            <stop offset="0.144398" stop-color="#FE3218"/>
            <stop offset="0.920446" stop-color="#FF911A"/>
        </linearGradient>
        <linearGradient id="paint8_linear_393_224" x1="28.3588" y1="17.4421" x2="12.18" y2="34.6947" gradientUnits="userSpaceOnUse">
            <stop stop-color="#FE3218"/>
            <stop offset="1" stop-color="#FF911A"/>
        </linearGradient>
        <linearGradient id="paint9_linear_393_224" x1="28.0725" y1="14.149" x2="17.0847" y2="23.6288" gradientUnits="userSpaceOnUse">
            <stop stop-color="#FE3218"/>
            <stop offset="1" stop-color="#FF911A"/>
        </linearGradient>
        <linearGradient id="paint10_linear_393_224" x1="21.1866" y1="28.5071" x2="10.1724" y2="42.2106" gradientUnits="userSpaceOnUse">
            <stop stop-color="#FE3218"/>
            <stop offset="0.757433" stop-color="#FF911A"/>
        </linearGradient>
        <linearGradient id="paint11_linear_393_224" x1="0.0101143" y1="6.34602" x2="28.3588" y2="20.5204" gradientUnits="userSpaceOnUse">
            <stop stop-color="#64344F"/>
            <stop offset="1" stop-color="#64344F" stop-opacity="0"/>
        </linearGradient>
        <linearGradient id="paint12_linear_393_224" x1="67.9625" y1="4.56683" x2="67.9625" y2="30.8743" gradientUnits="userSpaceOnUse">
            <stop stop-color="#D1F7FF"/>
            <stop offset="1" stop-color="#6BA3AE"/>
        </linearGradient>
        <linearGradient id="paint13_linear_393_224" x1="0.0101143" y1="6.34602" x2="28.3588" y2="20.5204" gradientUnits="userSpaceOnUse">
            <stop stop-color="#64344F"/>
            <stop offset="1" stop-color="#64344F" stop-opacity="0"/>
        </linearGradient>
        <linearGradient id="paint14_linear_393_224" x1="67.9625" y1="4.56683" x2="67.9625" y2="30.8743" gradientUnits="userSpaceOnUse">
            <stop stop-color="#D1F7FF"/>
            <stop offset="1" stop-color="#6BA3AE"/>
        </linearGradient>
        <linearGradient id="paint15_linear_393_224" x1="0.0101143" y1="6.34602" x2="28.3588" y2="20.5204" gradientUnits="userSpaceOnUse">
            <stop stop-color="#64344F"/>
            <stop offset="1" stop-color="#64344F" stop-opacity="0"/>
        </linearGradient>
        <linearGradient id="paint16_linear_393_224" x1="67.9625" y1="4.56683" x2="67.9625" y2="30.8743" gradientUnits="userSpaceOnUse">
            <stop stop-color="#D1F7FF"/>
            <stop offset="1" stop-color="#6BA3AE"/>
        </linearGradient>
        <linearGradient id="paint17_linear_393_224" x1="0.0101143" y1="6.34602" x2="28.3588" y2="20.5204" gradientUnits="userSpaceOnUse">
            <stop stop-color="#64344F"/>
            <stop offset="1" stop-color="#64344F" stop-opacity="0"/>
        </linearGradient>
        <linearGradient id="paint18_linear_393_224" x1="67.9625" y1="4.56683" x2="67.9625" y2="30.8743" gradientUnits="userSpaceOnUse">
            <stop stop-color="#D1F7FF"/>
            <stop offset="1" stop-color="#6BA3AE"/>
        </linearGradient>
        <linearGradient id="paint19_linear_393_224" x1="0.0101143" y1="6.34602" x2="28.3588" y2="20.5204" gradientUnits="userSpaceOnUse">
            <stop stop-color="#64344F"/>
            <stop offset="1" stop-color="#64344F" stop-opacity="0"/>
        </linearGradient>
        <linearGradient id="paint20_linear_393_224" x1="67.9625" y1="4.56683" x2="67.9625" y2="30.8743" gradientUnits="userSpaceOnUse">
            <stop stop-color="#D1F7FF"/>
            <stop offset="1" stop-color="#6BA3AE"/>
        </linearGradient>
        <linearGradient id="paint21_linear_393_224" x1="69.9414" y1="4.56683" x2="69.9414" y2="30.848" gradientUnits="userSpaceOnUse">
            <stop stop-color="#6BA3AE"/>
            <stop offset="1" stop-color="#D1F7FF"/>
        </linearGradient>
    </defs>
</svg>
