<svg width="1440" height="1047" viewBox="0 0 1440 1047" fill="none" xmlns="http://www.w3.org/2000/svg">
    <g opacity="0.4">
        <g filter="url(#filter0_i_704_1022)">
            <path d="M-417.053 526.191L-408.632 518.606L-334.105 483.211L-259.579 436.438L-205.684 405.874L-158.526 339.943L-61.2632 253.837L-38.1053 233.335L-16.2105 219.008L53.2632 206.367L122.737 231.228L192.632 112.4L262.105 2L332 214.795L347.579 135.997L412 278.422L416.632 278.336L432.632 274.201L483.158 243.87L540.459 318.453L563.158 325.195L551.789 333.201L620.842 378.31L677.263 415.166L706.316 422.303L756.842 427.168L824.632 465.513L841.218 481.947L899.158 500.909L900.421 501.847L913.895 487.613L932.421 460.878L956.421 449.501V458.35L980.842 457.507L1006.11 459.192V464.249L1005.68 510.6L1031.79 514.814L1031.99 500.066L1058.32 517.764L1057.73 519.449L1084.84 528.298L1112.21 541.782H1135.79L1141.26 538.832L1168.21 551.052L1196 573.385L1205.26 575.322L1224.21 579.284L1251.58 590.24L1265.05 601.365L1278.95 600.775L1288.63 606.674L1298.32 609.202L1293.26 610.507L1298.32 611.309L1303.37 605.831L1347.58 586.869L1372.42 572.121L1410.32 550.961L1430.53 539.675L1448.63 524.506L1484.42 494.279L1508 474.362L1518.53 456.664L1521.47 462.985L1528.21 458.771L1550.53 406.099L1566.53 371.968L1574.11 339.943L1589.26 324.025L1602.32 264.938L1638.11 210.581L1673.47 138.104L1708 286.428L1716.84 270.416L1739.58 333.623L1735.79 289.799L1764 295.277L1774.95 267.467L1780 274.63L1815.79 318.874L1820.62 344.578L1821.09 347.107L1855.79 414.105L1886.11 432.646L1887.79 463.49L1901.26 462.142H1908.84H1917.68H1945.05L1969.05 475.999L1980.42 447.815L1982.95 484.021L1999.79 493.745L2001.89 491.217L2033.89 548.524L2040.63 546.417L2064.21 598.668L2162.32 518.606L2231.37 461.721L2240.63 473.941L2283.58 420.847L2334.53 432.804L2349.26 422.533L2441.47 415.369L2533.89 431.803L2626.32 448.237L2660.84 480.261L2758.53 497.31L2851.58 513.55L2889.89 531.88L2928.21 550.21L2849.47 544.243L2888.21 551.474L2930.32 567.907L2976.21 598.668L2862.53 581.813L2904.63 631.329L2953.9 689.263L2830.95 678.308L2876.84 722.131L2926.53 787.444L2796.84 785.758L2668 788.708L2536.34 796.714L2498.74 733.929L2372.84 752.47L2272.21 804.294L2370.74 834.217L2391.37 888.574L2415.38 894.929H2499.16C2500.17 894.929 2541.68 869.624 2562.32 856.971L2581.26 898.687L2623.39 908.394L2670.87 919.335H2834.08L2894.75 932.397L2965.21 947.567H2790.5L2858.91 963.579L2934.53 981.277H2741.59L2813.22 1000.24L2894.41 1021.73L2983.55 1045.33H2756.57L2843.56 1071.87L2941.59 1101.79H2687.44L2782.51 1135.92L2890.49 1174.69H2599.41L2699.53 1218.51L2817.93 1270.34H2480.34H2142.04H1803.43H1465.97H1128.13H789.357H451.369H112.926H-224.609L-111.362 1218.51H-422.975L-305.451 1174.69L-201.488 1135.92L-109.955 1101.79H-365.561L-270.358 1071.87L-185.882 1045.33H-411.373L-324.567 1021.73L-245.512 1000.24H-449.835H-462.105V981.277H-370.955L-297.333 963.579L-230.724 947.567H-407.396L-336.513 932.397L-275.475 919.335H-440.569L-440.632 919.347L-440.577 919.335L-383.009 906.693L-329.279 894.895L-281.306 884.36H-403.255L-346.354 874.247L-294.195 864.977H-431.449L-374.474 855.707L-324.966 847.652L-456.921 847.699L-403.934 839.715L-356.256 832.531L-311.511 825.789H-423.852L-376.254 819.047L-331.63 812.727H-437.429L-393.509 806.827L-351.763 801.22H-455.368L-419.092 796.293L-381.861 791.236L-344.632 786.18H-432.391L-392.211 781.123L-359.789 754.155L-452.431 764.268L-414.947 736.458L-379.158 717.074L-344 689.474L-432.211 693.477L-396 655.132L-361.053 613.837L-445.263 641.648L-411.158 602.039L-378.316 551.474L-347.158 520.491L-426.316 529.864L-417.053 526.191Z" fill="url(#paint0_linear_704_1022)" fill-opacity="0.6"/>
        </g>
        <path d="M-461.684 543.889L-426.316 529.864M-417.053 526.191L-408.632 518.606L-334.105 483.211M-417.053 526.191L-426.316 529.864M-417.053 526.191L-394.316 519.028L-350.105 515.527M-451.158 553.581L-426.316 529.864M-426.316 529.864L-347.158 520.491M-268 505.965L-239.368 489.531M-268 505.965L-337.895 518.89M-268 505.965L-297.474 535.883M-268 505.965L-188.421 495.431M-239.368 489.531L-318.105 512.993M-239.368 489.531L-211.579 456.243M-239.368 489.531L-161.474 473.941M-337.895 518.89L-345.474 520.292L-347.158 520.491M-337.895 518.89L-318.105 512.993M-378.316 551.474L-347.158 520.491M-378.316 551.474L-426.737 557.373M-378.316 551.474L-297.474 535.883M-378.316 551.474L-411.158 602.039M-297.474 535.883L-217.895 527.877M-297.474 535.883L-328.632 575.071M-318.105 512.993L-350.105 515.527M-318.105 512.993L-287.368 501.33M-350.105 515.527L-334.105 483.211M-334.105 483.211L-259.579 436.438M-259.579 436.438L-205.684 405.874M-259.579 436.438L-287.368 501.33M-183.789 393.458L-158.526 339.943M-183.789 393.458L-205.684 405.874M-183.789 393.458L-211.579 456.243M-183.789 393.458L-109.263 394.301M-158.526 339.943L-205.684 405.874M-158.526 339.943L-85.2631 331.516M-158.526 339.943L-61.2632 253.837M-287.368 501.33L-211.579 456.243M-211.579 456.243L-134.947 438.545M-109.263 394.301L-134.947 438.545M-109.263 394.301L-85.2631 331.516M-109.263 394.301L-35.1579 408.627M-134.947 438.545L-59.1579 433.91M-134.947 438.545L-161.474 473.941M-85.2631 331.516L-61.2632 253.837M-85.2631 331.516L-12 361.012M-38.1052 233.335L-61.2632 253.837M-38.1052 233.335L31.7895 267.045M-38.1052 233.335L-16.2105 219.008L53.2632 206.367M-61.2632 253.837L10.7368 286.428M10.7368 286.428L-12 361.012M10.7368 286.428L82.3158 357.22M10.7368 286.428L31.7895 267.045M-12 361.012L61.2632 387.559M-12 361.012L-35.1579 408.627M61.2632 387.559L39.3684 420.005M61.2632 387.559L82.3158 357.22M61.2632 387.559L134.947 367.754M39.3684 420.005L-35.1579 408.627M39.3684 420.005L114.463 403.992M39.3684 420.005L15.7895 444.023M-35.1579 408.627L-59.1579 433.91M82.3158 357.22L102.947 321.403M82.3158 357.22L153.474 346.264M102.947 321.403L31.7895 267.045M102.947 321.403L122.737 231.228M102.947 321.403L173.684 288.957M31.7895 267.045L53.2632 206.367M53.2632 206.367L122.737 231.228M122.737 231.228L192.632 112.4M192.632 112.4L262.105 2M192.632 112.4L173.684 288.957M262.105 2L244.421 259.46M262.105 2L332 214.795M244.421 259.46L173.684 288.957M244.421 259.46L315.158 279.265L299.158 291.372M244.421 259.46L226.316 323.931M173.684 288.957L153.474 346.264M332 214.795L347.579 135.997L412 278.422M332 214.795L317.263 270.416M332 214.795L396.421 279.265M297.895 292.328L226.316 323.931M297.895 292.328L299.158 291.372M297.895 292.328L281.053 318.453M226.316 323.931L153.474 346.264M226.316 323.931L208.632 340.786M153.474 346.264L134.947 367.754M396.421 279.265H385.053L369.895 275.894M396.421 279.265L412 278.422M369.895 275.894L299.158 291.372M369.895 275.894L441.895 320.981M369.895 275.894L354.304 326.881M412 278.422L416.632 278.336M457.053 277.58L470.105 264.517M457.053 277.58L416.632 278.336M457.053 277.58L527.368 373.653M457.053 277.58L441.895 320.981M470.105 264.517L432.632 274.201M470.105 264.517L483.158 243.87M470.105 264.517L539.158 360.591M416.632 278.336L432.632 274.201M432.632 274.201L483.158 243.87M483.158 243.87L540.459 318.453M551.789 333.201L563.158 325.195L540.459 318.453M551.789 333.201L540.459 318.453M551.789 333.201L539.158 360.591M551.789 333.201L620.842 378.31M539.158 360.591L527.368 373.653M539.158 360.591L609.474 398.514M527.368 373.653L514.737 396.408M527.368 373.653L594.316 437.702M441.895 320.981L428.739 357.22M441.895 320.981L514.737 396.408M346.316 353.006L354.304 326.881M281.053 318.453L354.304 326.881M281.053 318.453L208.632 340.786M281.053 318.453L262.253 381.238M354.304 326.881L428.739 357.22M208.632 340.786L134.947 367.754M208.632 340.786L188.842 390.93M134.947 367.754L114.463 403.992M93.2632 441.495L114.463 403.992M93.2632 441.495L169.053 442.759M93.2632 441.495L15.7895 444.023M93.2632 441.495L72.3421 463.828M114.463 403.992L188.842 390.93M188.842 390.93L169.053 442.759M188.842 390.93L262.253 381.238M169.053 442.759L149.263 467.62M169.053 442.759L244.842 439.388M15.7895 444.023L-59.1579 433.91M15.7895 444.023L-6.10524 454.979M-59.1579 433.91L-83.5789 454.979M-161.474 473.941L-83.5789 454.979M-161.474 473.941L-188.421 495.431M-83.5789 454.979L-110.526 478.576M-83.5789 454.979H-6.10524M-110.526 478.576L-188.421 495.431M-110.526 478.576L-137.053 515.235M-110.526 478.576H-30.5263M-188.421 495.431L-217.895 527.877M-217.895 527.877L-137.053 515.235M-217.895 527.877L-247.368 564.115M-137.053 515.235L-165.263 557.794M-137.053 515.235H-55.7895M-165.263 557.794L-247.368 564.115M-165.263 557.794L-194.316 599.511M-165.263 557.794L-81.4737 559.901M-247.368 564.115L-328.632 575.071M-247.368 564.115L-277.684 602.882M-328.632 575.071L-411.158 602.039M-328.632 575.071L-361.053 613.837M-411.158 602.039L-461.684 615.944M-411.158 602.039L-445.263 641.648M-445.263 641.648L-465.053 658.082M-445.263 641.648L-468 651.761M-445.263 641.648L-361.053 613.837M-361.053 613.837L-277.684 602.882M-361.053 613.837L-396 655.132M-277.684 602.882L-310.526 649.233M-277.684 602.882L-194.316 599.511M-310.526 649.233L-396 655.132M-310.526 649.233L-224.632 646.283M-310.526 649.233L-344 689.474M-396 655.132L-463.789 667.773M-396 655.132L-432.211 693.477M-432.211 693.477L-465.895 719.181M-432.211 693.477L-463.789 696.005M-432.211 693.477L-344 689.474M-255.789 685.471L-224.632 646.283M-255.789 685.471L-344 689.474M-255.789 685.471L-288.632 709.911M-255.789 685.471L-167.789 681.257M-224.632 646.283L-194.316 599.511M-224.632 646.283L-138.316 647.547M-194.316 599.511L-110.441 604.567M-344 689.474L-379.158 717.074M-379.158 717.074L-414.947 736.458M-379.158 717.074L-288.632 709.911M-379.158 717.074L-457.474 719.181M-414.947 736.458L-461.684 740.25M-414.947 736.458L-324.421 728.451M-414.947 736.458L-452.431 764.268M-463.789 772.696L-452.431 764.268M-324.421 728.451L-359.789 754.155M-324.421 728.451L-231.368 722.552M-324.421 728.451L-288.632 709.911M-359.789 754.155L-452.431 764.268M-359.789 754.155L-266.316 747.413M-359.789 754.155L-392.211 781.123M-452.431 764.268H-461.684M-266.316 747.413L-231.368 722.552M-266.316 747.413L-173.684 743.621M-266.316 747.413L-303.789 775.573M-231.368 722.552L-199.579 701.905M-231.368 722.552H-140M-288.632 709.911L-199.579 701.905M-167.789 681.257L-199.579 701.905M-167.789 681.257L-81.4737 683.786M-167.789 681.257L-138.316 647.547M-199.579 701.905L-109.684 703.59M-109.684 703.59L-140 722.552M-109.684 703.59L-81.4737 683.786M-109.684 703.59L-22.5263 714.967M-173.684 743.621L-206.105 766.375M-173.684 743.621L-140 722.552M-173.684 743.621L-81.4737 745.728M-206.105 766.375L-236.842 786.18M-206.105 766.375L-303.789 775.573M-206.105 766.375L-112.211 765.954M-236.842 786.18H-239.789M-236.842 786.18H-144.211M-392.211 781.123H-362.737L-303.789 775.573M-392.211 781.123H-461.684M-392.211 781.123L-432.391 786.18M-303.789 775.573L-318.105 784.073L-334.617 786.18M-140 722.552L-49.4737 731.822M-81.4737 683.786L-52 648.811M-81.4737 683.786L5.68422 691.16M-52 648.811L-138.316 647.547M-52 648.811L31.7895 651.761M-52 648.811L-25.8947 608.359M-138.316 647.547L-110.441 604.567M-81.4737 559.901L-55.7895 515.235M-81.4737 559.901L-110.441 604.567M-81.4737 559.901L61.6842 571.7M-55.7895 515.235L-30.5263 478.576M-55.7895 515.235L24.2105 522.82M-30.5263 478.576L-6.10524 454.979M-30.5263 478.576L49.0526 488.689M-6.10524 454.979L72.3421 463.828M49.0526 488.689L72.3421 463.828M49.0526 488.689L24.2105 522.82M49.0526 488.689L126.842 499.645M72.3421 463.828L149.263 467.62M24.2105 522.82L-25.8947 608.359M24.2105 522.82C24.2105 522.82 73.0969 528.213 104.421 531.669M-25.8947 608.359L-110.441 604.567M-25.8947 608.359L57.8947 611.73M184.632 540.518C184.632 540.518 135.745 535.125 104.421 531.669M184.632 540.518L163.083 579.495M184.632 540.518L204.842 498.532M184.632 540.518L264.421 543.678M116.842 663.138L31.7895 651.761M116.842 663.138L141.535 618.472M116.842 663.138L92.8421 698.534M116.842 663.138L202.737 678.729M31.7895 651.761L57.8947 611.73M31.7895 651.761L5.68422 691.16M57.8947 611.73L141.535 618.472M57.8947 611.73L76.4211 581.391M141.535 618.472L163.083 579.495M141.535 618.472L223.79 641.648M104.421 531.669C96.775 545.327 84.8421 566.643 84.8421 566.643M104.421 531.669L126.842 499.645M163.083 579.495L94.5263 573.807M163.083 579.495L244.842 590.662M149.263 467.62L126.842 499.645M149.263 467.62H225.748M126.842 499.645L204.842 498.532M363.158 496.273L344.211 546.839M363.158 496.273L284 497.403M363.158 496.273L380.842 459.614M363.158 496.273L441.053 512.707M344.211 546.839L264.421 543.678M344.211 546.839L325.263 605.41M344.211 546.839L424.211 562.429M204.842 498.532L225.748 467.62M204.842 498.532L284 497.403M244.842 439.388L225.748 467.62M244.842 439.388H321.053M244.842 439.388L262.253 381.238M225.748 467.62L303.368 462.985M303.368 462.985L284 497.403M303.368 462.985L321.053 439.388M303.368 462.985L380.842 459.614M284 497.403L264.421 543.678M321.053 439.388L397.684 442.759M321.053 439.388L331.579 404.414M380.842 459.614L397.684 442.759M380.842 459.614L457.474 472.255M397.684 442.759L414.512 396.408M397.684 442.759L448.211 451.608M262.253 381.238L305.053 382.923M428.739 357.22L414.512 396.408M428.739 357.22L501.684 406.521M414.512 396.408L373.684 389.244M414.512 396.408L486.526 427.589M486.526 427.589L561.474 468.884M486.526 427.589L472.211 456.375M486.526 427.589L501.684 406.521M561.474 468.884L548.421 485.318M561.474 468.884L574.947 447.815M561.474 468.884L636.421 489.531M548.421 485.318L472.211 456.375M548.421 485.318L534.105 508.072M548.421 485.318L623.789 511.443M466.316 454.136L472.211 456.375M472.211 456.375L457.474 472.255M457.474 472.255L441.053 512.707M457.474 472.255L521.474 503.015M501.684 406.521L514.737 396.408M501.684 406.521L574.947 447.815M514.737 396.408L585.895 437.702M574.947 447.815L585.895 437.702M574.947 447.815L646.947 467.199M585.895 437.702H594.316M594.316 437.702H598.526M658.737 437.702H598.526M658.737 437.702L646.947 467.199M658.737 437.702L673.474 441.389M609.474 398.514L677.263 415.166M609.474 398.514L620.842 378.31M609.474 398.514L598.526 437.702M748.421 432.646L756.842 427.168M748.421 432.646L706.316 422.303M748.421 432.646L742.105 460.859M748.421 432.646L816.632 494.167M756.842 427.168L706.316 422.303M756.842 427.168L824.632 465.513M706.316 422.303L677.263 415.166M677.263 415.166L620.842 378.31M677.263 415.166L673.474 441.389M731.158 455.821L673.474 441.389M731.158 455.821L719.789 492.481M731.158 455.821L742.105 460.859M874.316 533.776L867.158 553.159M874.316 533.776L815.79 496.728M874.316 533.776L892.421 541.853M867.158 553.159L793.474 522.82M867.158 553.159L860 578.863M867.158 553.159L939.579 591.083M719.789 492.481L646.947 467.199M719.789 492.481L710.105 513.971M719.789 492.481L793.474 522.82M646.947 467.199L636.421 489.531M636.421 489.531L710.105 513.971M636.421 489.531L623.789 511.443M710.105 513.971L785.053 552.738M710.105 513.971L700.842 548.945M742.105 460.859L801.674 488.267M816.632 494.167L815.79 496.728M816.632 494.167L824.632 465.513M815.79 496.728L804.421 489.531L801.674 488.267M824.632 465.513L841.218 481.947M909.263 549.367L893.528 533.776M909.263 549.367L892.421 541.853M909.263 549.367L945.895 565.379M841.218 481.947L899.158 500.909M841.218 481.947L893.528 533.776M899.158 500.909L893.528 533.776M899.158 500.909L900.421 501.847M893.528 533.776L892.421 541.853M801.674 488.267L793.474 522.82M793.474 522.82L785.053 552.738M785.053 552.738L860 578.863M785.053 552.738L775.615 599.511M860 578.863L934.526 596.139M860 578.863L853.263 611.309M934.526 596.139L939.579 591.083M934.526 596.139L928.421 614.469M934.526 596.139L1008.63 607.938M939.579 591.083L945.895 565.379M945.895 565.379L964.421 571.632M92.8421 698.534L5.68422 691.16M92.8421 698.534L67.1579 724.238M92.8421 698.534L180 706.54M5.68422 691.16L-22.5263 714.967M-22.5263 714.967L67.1579 724.238M-22.5263 714.967L-49.4737 731.822M67.1579 724.238L41.0527 743.2M67.1579 724.238L156 730.558M-49.4737 731.822L-81.4737 745.728M-49.4737 731.822L41.0527 743.2M-81.4737 745.728L-112.211 765.954M-81.4737 745.728L12.6316 750.574M-142.947 786.18L-112.211 765.954M-142.947 786.18H-144.211M-142.947 786.18H-48.6316M-112.211 765.954L-14.5263 767.24M106.737 755.419L12.6316 750.574M106.737 755.419L132 747.413M106.737 755.419L79.7895 768.482M106.737 755.419L147.579 777.331H198.947M41.0527 743.2L12.6316 750.574M41.0527 743.2L132 747.413M12.6316 750.574L-14.5263 767.24M156 730.558L132 747.413M156 730.558L180 706.54M156 730.558L244 768.061M132 747.413L190.526 773.539M79.7895 768.482L56.2105 786.18M79.7895 768.482L-14.5263 767.24M79.7895 768.482L106.737 781.966H654.105M56.2105 786.18H607.368M56.2105 786.18H52.8421M180 706.54L202.737 678.729M180 706.54L265.895 744.464M202.737 678.729L223.79 641.648M202.737 678.729L286.526 715.81M223.79 641.648L244.842 590.662M223.79 641.648L305.895 669.88M244.842 590.662L264.421 543.678M244.842 590.662L325.263 605.41M325.263 605.41L305.895 669.88M325.263 605.41L406.947 615.101M305.895 669.88L286.526 715.81M305.895 669.88L389.684 678.729M286.526 715.81L265.895 744.464M286.526 715.81L371.579 722.974M265.895 744.464L244 768.061M265.895 744.464L352.842 750.995M244 768.061L223.368 773.539M244 768.061L246.105 769.325H332.842M223.368 773.539H190.526M223.368 773.539H678.105M223.368 773.539L-440.632 919.347M185.895 773.539H190.526M-462.526 789.972L-432.391 786.18M-462.526 786.18H-432.391M-432.391 786.18H-344.632M-334.617 786.18H-344.632M-334.617 786.18H-239.789M-14.5263 767.24L-43.1579 786.18M-43.1579 786.18H-48.6316M-43.1579 786.18H52.8421M654.105 781.966L665.895 777.331M654.105 781.966L617.895 786.18H607.368M654.105 781.966L708.421 779.017M851.158 777.331L861.684 773.539M851.158 777.331H761.474M851.158 777.331L812 781.545M851.158 777.331L798.947 787.723M851.158 777.331L869.263 773.796M861.684 773.539L870.632 769.325M861.684 773.539H770.316M861.684 773.539L869.263 773.796M885.684 762.161L882.184 763.847M870.632 769.325L878.684 765.532M870.632 769.325H781.263M870.632 769.325L888.632 769.675M439.789 757.526L526.526 765.532M439.789 757.526L352.842 750.995M439.789 757.526L432.211 767.639M439.789 757.526L457.053 732.244M526.526 765.532L542.105 740.671M526.526 765.532H617.895M526.526 765.532L-462.105 1003.19M878.684 765.532H791.368M878.684 765.532L882.184 763.847M878.684 765.532H901.983M791.368 765.532L781.263 769.325M791.368 765.532H703.789M791.368 765.532L793.474 764.69M781.263 769.325L770.316 773.539M781.263 769.325H692M770.316 773.539L761.474 777.331M770.316 773.539H678.105M761.474 777.331H758.105M665.895 777.331L678.105 773.539M665.895 777.331H711.368M665.895 777.331H198.947M678.105 773.539L692 769.325M692 769.325L703.789 765.532M692 769.325H425.474M703.789 765.532H617.895M703.789 765.532L706.737 764.69M336.211 769.325C336.547 769.325 347.439 757.105 352.842 750.995M336.211 769.325H425.474M336.211 769.325H332.842M352.842 750.995L371.579 722.974M371.579 722.974L389.684 678.729M371.579 722.974L457.053 732.244M389.684 678.729L406.947 615.101M389.684 678.729L472.632 694.741M406.947 615.101L424.211 562.429M406.947 615.101L488.632 637.856M424.211 562.429L441.053 512.707M424.211 562.429L504.632 588.976M441.053 512.707L519.789 546.417M432.211 767.639L425.474 769.325M432.211 767.639L438.105 765.954M425.474 769.325L-462.526 959.365M457.053 732.244L472.632 694.741M457.053 732.244L542.105 740.671M472.632 694.741L488.632 637.856M472.632 694.741L556 708.647M488.632 637.856L504.632 588.976M488.632 637.856L569.986 663.981M504.632 588.976L519.789 546.417M504.632 588.976L584.632 617.208M519.789 546.417L534.105 508.072M519.789 546.417L598.947 583.92M534.105 508.072L611.579 545.574M598.947 583.92L678.105 624.372M598.947 583.92L611.579 545.574M598.947 583.92L584.632 617.208M678.105 624.372L665.895 648.811M678.105 624.372L746.737 655.975M678.105 624.372L689.474 592.769M611.579 545.574L623.789 511.443M623.789 511.443L700.842 548.945M584.632 617.208L569.986 663.981M584.632 617.208L665.895 648.811M556 708.647L569.986 663.981M556 708.647L542.105 740.671M556 708.647L639.789 718.338M569.986 663.981L653.238 682.521M542.105 740.671L627.083 745.728M700.842 548.945L689.474 592.769M700.842 548.945L775.615 599.511M665.895 648.811L653.238 682.521M665.895 648.811L746.737 675.779M639.789 718.338L653.238 682.521M639.789 718.338L723.579 725.502M639.789 718.338L627.083 745.728M617.895 765.532L627.083 745.728M617.895 765.532L-462.526 1059.23M653.238 682.521L735.368 697.27M735.368 697.27L746.737 675.779M735.368 697.27L723.579 725.502M735.368 697.27L817.474 706.961M746.737 675.779L827.158 683.786M746.737 675.779L756.842 661.031L836 667.773M723.579 725.502L712.211 749.942M723.579 725.502L807.368 730.558M712.211 749.942L706.737 764.69M712.211 749.942L627.083 745.728M712.211 749.942L797.684 752.47M706.737 764.69L711.368 763.004M797.684 752.47L793.474 764.69M797.684 752.47L807.368 730.558M797.684 752.47L884 758.79M793.474 764.69L798.105 762.583M807.368 730.558L817.474 706.961M807.368 730.558L892 738.143M817.474 706.961L827.158 683.786M817.474 706.961L900 717.496M827.158 683.786L836 667.773M827.158 683.786L908 679.15M836 667.773L844.842 649.654M836 667.773L915.158 651.34M689.474 592.769L767.368 640.384M767.368 640.384L760.211 654.711M767.368 640.384L775.615 599.511M767.368 640.384L844.842 649.654M775.615 599.511L857.053 618.472M844.842 649.654L851.158 620.579M844.842 649.654L922.316 632.799M922.316 632.799L928.421 614.469M922.316 632.799L999.789 634.485M922.316 632.799L915.158 651.34M928.421 614.469L882.316 617.208M928.421 614.469L1004 625.636M1004 625.636L1008.63 607.938M1004 625.636L999.789 634.485M1008.63 607.938L1014.53 612.573M999.789 634.485L993.895 647.547M999.789 634.485L1076.42 670.723M993.895 647.547L915.158 651.34M993.895 647.547L989.263 676.201M993.895 647.547L1073.05 677.465M915.158 651.34L908 679.15M908 679.15L989.263 676.201M908 679.15L900 717.496M989.263 676.201L983.789 713.703M989.263 676.201L1049.89 699.798M900 717.496L892 738.143M900 717.496L983.789 713.703M884 758.79L892 738.143M884 758.79L882.184 763.847M884 758.79L972.421 737.3M892 738.143L977.895 724.659M972.421 737.3L969.895 744.464M972.421 737.3L977.895 724.659M972.421 737.3L978.877 740.25M969.895 744.464L901.983 765.532M969.895 744.464L973.263 743.621M885.684 770.589L888.632 769.675M885.684 770.589L869.263 773.796M885.684 770.589L875.158 781.545M888.632 769.675L901.983 765.532M977.895 724.659L983.789 713.703M977.895 724.659L993.474 731.485M983.789 713.703L1006.95 723.395M1006.95 723.395L993.474 731.485M1006.95 723.395L1022.11 715.067M973.263 743.621L978.877 740.25M973.263 743.621L996.842 736.458M978.877 740.25L993.474 731.485M996.842 736.458L989.263 750.363M996.842 736.458L1016.21 733.508M996.842 736.458L1112.21 735.193M989.263 750.363L875.158 781.545M989.263 750.363L1108.42 757.526M989.263 750.363L983.858 771.432M875.158 781.545L761.474 806.827M875.158 781.545L864.211 795.871M761.474 806.827L687.368 819.047H-462.526M761.474 806.827L746.737 825.789M761.474 806.827L774.947 792.5M708.421 779.017L694.947 789.972M708.421 779.017L711.368 777.331M708.421 779.017L754.316 780.137M694.947 789.972L589.684 799.243M694.947 789.972L679.368 799.243M694.947 789.972L790.105 788.287M711.368 777.331H758.105M589.684 799.243L607.368 786.18M589.684 799.243L583.789 803.456L-462.105 1132.13M589.684 799.243L577.053 801.22H-455.368M607.368 786.18L579.158 791.236M812 781.545L754.316 780.137M812 781.545L798.947 787.723M754.316 780.137L758.105 777.331M774.947 792.5L663.79 808.513M774.947 792.5L790.105 788.287M774.947 792.5L797.263 788.059M663.79 808.513L679.368 799.243M663.79 808.513L656.211 816.098L-462.526 1233.26M663.79 808.513L637.684 812.727H-462.526M679.368 799.243L790.105 788.287M679.368 799.243L622.526 806.827H-462.526M790.105 788.287L797.263 788.059M797.263 788.059L798.947 787.723M1049.89 699.798L1071.79 688.97M1049.89 699.798L1022.11 715.067M1122.32 663.981L1098.74 675.642M1122.32 663.981L1120.98 663.138M1122.32 663.981L1119.37 684.18M1089.47 643.334L1087.16 669.459M1089.47 643.334L1092.84 627.321M1089.47 643.334L1030.07 599.089M1089.47 643.334L1120.98 663.138M1017.05 589.397L1014.53 612.573M1017.05 589.397L1030.07 599.089M1017.05 589.397L964.421 571.632M1014.53 612.573L1082.95 666.937M1098.74 675.642L1087.16 669.459M1098.74 675.642L1089.47 680.224M1087.16 669.459L1084 667.773L1082.95 666.937M1076.42 670.723L1082.95 675.473M1076.42 670.723L1073.05 677.465M1089.47 680.224L1082.95 675.473M1089.47 680.224L1081.47 684.18M1082.95 675.473V666.937M1073.05 677.465L1071.79 688.97M1073.05 677.465L1081.47 684.18M1071.79 688.97L1081.47 684.18M1092.84 627.321L1030.07 599.089M1092.84 627.321L1096.21 629.007M1030.07 599.089L1098.74 622.265M1030.07 599.089L1033.47 587.291M1098.74 622.265L1096.21 629.007M1098.74 622.265L1100.84 623.725M1096.21 629.007L1154.32 663.138M1154.32 663.138H1120.98M1154.32 663.138C1155.46 663.138 1156.58 663.138 1157.68 663.138M1229.26 663.138C1214.81 663.138 1203.49 663.138 1192.21 663.138M1229.26 663.138V676.622M1229.26 663.138V653.33M1157.68 663.138C1166.42 663.138 1174.03 663.138 1181.26 663.138M1157.68 663.138L1132.16 645.44M1181.26 663.138C1184.98 663.138 1188.59 663.138 1192.21 663.138M1181.26 663.138L1176.39 661.384M1132.16 645.44L1146.32 650.542M1132.16 645.44L1123.04 639.12M1146.32 650.542L1142.71 636.592M1146.32 650.542L1149.26 651.605M1140.42 627.743L1140.53 628.164M1140.42 627.743L1129.89 631.092M1140.42 627.743L1149.26 624.59M1117.26 635.111L1123.04 639.12M1117.26 635.111L1129.89 631.092M1117.26 635.111L1101.78 624.372M1180 623.108L1177.05 614.68L1173.68 615.881M1180 623.108L1183.79 634.906M1180 623.108L1220.84 620.158M1180 623.108L1140.53 628.164M1183.79 634.906L1142.71 636.592M1183.79 634.906L1220.84 622.265M1183.79 634.906L1184.21 647.126M1184.63 659.346L1176.39 661.384M1184.63 659.346L1187.16 658.824M1184.63 659.346L1184.21 647.126M1142.71 636.592L1140.53 628.164M1142.71 636.592L1123.04 639.12M1220.84 622.265V620.158M1220.84 622.265L1249.05 618.78M1220.84 622.265V627.743M1220.84 620.158L1221.68 618.78M1129.89 631.092C1129.84 631.109 1111.13 626.619 1101.78 624.372M1101.78 624.372L1100.84 623.725M1100.84 623.725L1101.26 615.523M964.421 571.632L966.105 550.631M966.105 550.631L990.526 563.92M966.105 550.631L962.701 548.103M1033.47 587.291H1045.26M1033.47 587.291L1019.54 579.706M1045.26 587.291L1046.53 579.706M1045.26 587.291L1043.58 592.347M1046.53 579.706H1019.54M1046.53 579.706L1047.37 570.014M1019.54 579.706L1017.99 578.863M1017.99 578.863L993.474 565.524M1017.99 578.863L1018.74 565.8M1018.74 565.8L993.474 565.524M1018.74 565.8L1020.84 555.687M993.474 565.524L990.526 563.92M990.526 563.92L991.369 551.474M991.369 551.474L963.579 548.206M991.369 551.474L992.211 551.594M962.701 548.103L948.517 537.568M962.701 548.103L963.579 548.206M1020.84 555.687L1049.47 561.165M1020.84 555.687L992.211 551.594M1020.84 555.687L1022.53 546.417M1049.47 561.165L1047.37 570.014M1049.47 561.165L1050.74 553.159M1049.47 561.165L1061.68 565.8M1047.37 570.014L1023.79 566.222M1047.37 570.014L1077.26 578.863M900.421 501.847L913.895 487.613M900.421 501.847L902.947 503.723M932.421 468.041V460.878M932.421 468.041L913.895 487.613M932.421 468.041L956.421 458.35M932.421 468.041L929.895 481.525M932.421 460.878L913.895 487.613M932.421 460.878L956.421 449.501C956.421 452.797 956.421 455.66 956.421 458.35M956.421 458.35C956.421 464.306 956.421 469.408 956.421 476.469M956.421 458.35L980.842 457.507M929.895 481.525L927.195 497.959M929.895 481.525L902.947 503.723M929.895 481.525L956.421 476.469M924.842 512.286L924.121 519.449M924.842 512.286L927.195 497.959M924.842 512.286L951.79 511.022M924.121 519.449L909.938 508.915M924.121 519.449L931.497 524.927M909.938 508.915L927.195 497.959M909.938 508.915L902.947 503.723M927.195 497.959L954.737 495.852M954.737 495.852L956.421 477.733C956.421 477.304 956.421 476.883 956.421 476.469M954.737 495.852L980.842 491.217M954.737 495.852L951.79 511.022M956.421 476.469L980.842 466.693M1006.11 464.249L981.684 466.356L980.842 466.693M1006.11 464.249V459.192L980.842 457.507M1006.11 464.249L1005.68 510.6M980.842 457.507V466.693M980.842 466.693V491.217M980.842 491.217L997.684 490.796M980.842 491.217L979.158 509.336M979.158 509.336L951.79 511.022M979.158 509.336L976.632 526.191M979.158 509.336L1005.68 510.6M951.79 511.022L948.605 524.927M947.158 531.248L948.605 524.927M948.605 524.927H931.497M931.497 524.927L948.517 537.568M976.632 526.191L973.263 532.512M976.632 526.191L1004.42 527.455M973.263 532.512H969.474M973.263 532.512L996 529.141M954.737 537.568L968.211 532.512H969.474M954.737 537.568H948.517M954.737 537.568H965.263M965.263 537.568L969.474 532.512M965.263 537.568L963.579 548.206M965.263 537.568L993.895 541.361M993.895 541.361L992.211 551.594M993.895 541.361L1022.53 546.417M993.895 541.361C993.895 540.755 995.028 534.433 995.767 530.405M996 529.141L1004.42 527.455M996 529.141C995.929 529.525 995.85 529.951 995.767 530.405M1004.42 527.455L1005.68 510.6M1004.42 527.455L1025.89 526.191M1005.68 510.6L1031.79 514.814M1031.79 514.814L1029.68 526.191M1031.79 514.814L1031.99 500.066M1031.79 514.814L1057.73 519.449M1013.26 469.305L1032.21 484.054L1031.99 500.066M1022.53 546.417L1023.79 536.726M1022.53 546.417L1050.74 553.159M1023.79 536.726L995.767 530.405M1023.79 536.726L1025.89 526.191M1023.79 536.726L1052.42 546.417M1025.89 526.191H1027.79M1055.37 526.191H1029.68M1055.37 526.191L1054.11 535.461M1055.37 526.191L1057.73 519.449M1055.37 526.191L1084 532.933M1029.68 526.191H1027.79M1054.11 535.461L1027.79 526.191M1054.11 535.461L1052.42 546.417M1054.11 535.461L1082.53 545.574M1031.99 500.066L1058.32 517.764L1057.73 519.449M1031.99 500.066L1017.89 495.431M1057.73 519.449L1084.84 528.298M1052.42 546.417L1050.74 553.159M1052.42 546.417L1081.05 558.216M1050.74 553.159L1079.82 564.958M1077.26 578.863L1078.54 571.91M1077.26 578.863L1106.74 594.033M1077.26 578.863L1075.63 586.448M1081.05 558.216L1082.53 545.574M1081.05 558.216L1094.95 564.958M1081.05 558.216L1079.82 564.958M1084 532.933L1084.84 528.298M1084 532.933L1082.53 545.574M1084 532.933L1112 544.979M1084.84 528.298L1112.21 541.782M1112.21 541.782L1112 544.979M1112.21 541.782H1135.79M1110.95 561.165L1082.53 545.574M1110.95 561.165L1109.53 572.542M1110.95 561.165L1139.24 575.492M1110.95 561.165L1112 544.979M1079.82 564.958L1108.84 578.02M1079.82 564.958L1078.54 571.91M1108.84 578.02L1108 583.92M1108.84 578.02L1137.89 595.297M1108.84 578.02L1109.53 572.542M1078.54 571.91L1106.74 583.405M1108 583.92L1126.95 595.297M1108 583.92L1106.74 583.405M1106.74 583.405V594.033M1106.74 594.033L1105.89 600.353M1106.74 594.033L1136.21 609.624M1075.63 586.448L1058.32 582.655M1075.63 586.448L1074.18 593.19M1075.63 586.448L1105.89 600.353M1074.18 593.19L1051.16 588.555M1074.18 593.19L1072.77 599.721M1074.18 593.19L1104.21 604.206M1072.77 599.721L1071.37 606.253L1078.54 607.938M1072.77 599.721L1048.21 594.875M1072.77 599.721L1102.95 607.095M1102.95 607.095L1104.21 604.206M1102.95 607.095L1133.26 620.579M1102.95 607.095L1101.78 610.466M1105.89 600.353L1104.21 604.206M1105.89 600.353L1135.37 614.68M1104.21 604.206L1134.11 617.63M1135.37 614.68L1155.78 622.265M1135.37 614.68L1136.21 609.624M1135.37 614.68L1134.11 617.63M1155.78 622.265L1152.63 623.388M1155.78 622.265L1159.79 620.836M1134.11 617.63L1152.63 623.388M1134.11 617.63L1133.26 620.579M1152.63 623.388L1149.26 624.59M1133.26 620.579L1149.26 624.59M1133.26 620.579L1131.58 625.636M1136.21 609.624L1137.2 601.196M1136.21 609.624L1159.79 620.836M1137.89 595.297L1138.74 589.819M1137.89 595.297L1166.11 611.522M1137.89 595.297L1137.2 601.196M1109.53 572.542L1138.74 589.819M1138.74 589.819L1139.24 575.492M1138.74 589.819L1166.95 604.206M1140.42 541.782L1139.9 556.53M1140.42 541.782H1135.79M1140.42 541.782L1168.21 551.052M1139.24 575.492L1139.9 556.53M1139.24 575.492L1167.29 589.819M1112 544.979L1139.9 556.53M1139.9 556.53L1167.75 570.436M1135.79 541.782L1141.26 538.832L1168.21 551.052M1168.21 551.052L1167.75 570.436M1168.21 551.052L1196 573.385M1166.95 604.206L1167.29 589.819M1166.95 604.206L1166.11 611.522M1166.95 604.206L1195.16 610.466M1167.29 589.819L1167.75 570.436M1167.29 589.819L1195.38 595.297M1167.75 570.436L1195.58 581.813M1173.68 615.881L1166.11 611.522M1173.68 615.881L1165.55 618.78M1166.11 611.522L1165.6 618.173M1165.55 618.78L1165.6 618.173M1165.55 618.78L1159.79 620.836M1137.2 601.196L1165.6 618.173M1195.16 610.466L1221.68 618.78M1195.16 610.466V617.208M1195.16 610.466L1195.38 595.297M1221.68 618.78L1222.95 617.208L1223.05 614.259M1195.58 581.813L1223.37 605.41M1195.58 581.813L1195.38 595.297M1196 573.385V578.442M1196 573.385L1223.37 605.41M1196 573.385L1224 585.817M1196 573.385L1205.26 575.322M1224.21 579.284L1224.09 583.077M1224.21 579.284L1205.26 575.322M1224.21 579.284L1251.58 590.24M1223.37 605.41L1223.05 614.259M1223.37 605.41L1224 585.817M1223.37 605.41L1246.11 612.573H1251.58M1223.37 605.41L1251.58 611.309M1223.05 614.259L1195.38 595.297M1224 585.817L1224.09 583.077M1224.09 583.077L1205.26 575.322M1251.58 590.24V611.309M1251.58 590.24L1265.05 601.365M1268.42 604.146L1265.05 601.365M1249.05 618.78L1251.58 615.944V612.573M1249.05 618.78L1229.26 615.101M1249.05 618.78L1265.05 615.101L1254.95 612.055M1251.58 612.573V611.309M1251.58 612.573L1254.95 612.055M1278.95 608.359V600.775M1278.95 608.359L1254.95 612.055M1278.95 608.359L1293.26 610.507M1278.95 608.359V612.573M1278.95 600.775L1265.05 601.365M1278.95 600.775L1288.63 606.674L1298.32 609.202L1293.26 610.507M1149.26 651.605L1220.84 627.743M1149.26 651.605L1158.74 655.019M1220.84 627.743L1221 632.799M1220.84 627.743L1259.16 619.315M1192.21 663.138L1211.16 657.72M1276.42 661.874L1229.26 676.622M1276.42 661.874L1257.05 658.365M1276.42 661.874L1289.05 658.054M1229.26 676.622L1116 690.949M1229.26 676.622L1227.16 708.647M1116 690.949L1119.37 684.18M1116 690.949L1114.74 713.282M1116 690.949L1016.21 733.508M1119.37 684.18L1016.21 733.508M1221.68 654.711L1227.58 653.025L1229.26 653.33M1221.68 654.711L1211.16 657.72M1221.68 654.711L1221.64 653.447M1211.16 657.72V653.868L1187.16 658.824M1176.39 661.384L1168.21 658.434M1168.21 658.434L1221.21 639.541M1168.21 658.434L1158.74 655.019M1221.21 639.541L1259.16 623.529M1221.21 639.541L1221.41 645.862M1221.21 639.541L1221 632.799M1259.16 623.529L1258.9 631.956M1259.16 623.529V619.315M1259.16 623.529L1298.32 611.309M1258.32 651.34H1248.21M1258.32 651.34L1266.32 651.039M1258.32 651.34L1258.63 640.805M1248.21 651.34L1235.58 654.475M1248.21 651.34L1296.63 636.17M1235.58 654.475L1257.05 658.365M1235.58 654.475L1229.26 653.33M1296.63 636.17V644.598M1296.63 636.17L1334.95 622.265M1296.63 636.17V626.268M1296.63 616.366L1258.9 631.956M1296.63 616.366L1298.32 611.309M1296.63 616.366L1334.95 599.932M1296.63 616.366V626.268M1258.9 631.956L1221.41 645.862M1258.9 631.956L1258.63 640.805M1221.41 645.862L1187.16 658.824M1221.41 645.862L1221.64 653.447M1158.74 655.019L1184.21 647.126M1184.21 647.126L1221 632.799M1221 632.799L1259.16 619.315M1259.16 619.315L1293.26 610.507M1293.26 610.507L1298.32 611.309M1298.32 611.309L1303.37 605.831L1347.58 586.869M1298.32 611.309L1335.37 592.927M1347.58 586.869L1335.37 592.927M1347.58 586.869L1372.42 572.121M1334.95 599.932L1335.37 592.927M1334.95 599.932V611.098M1334.95 599.932L1372.6 582.234M1334.95 644.176V642.069M1334.95 644.176L1321.01 648.39M1334.95 644.176L1339.16 645.685M1334.95 644.176L1336.21 678.729M1257.05 658.365L1289.05 651.34M1289.05 651.34V658.054M1289.05 651.34L1292 650.076M1289.05 651.34L1313.05 650.797M1289.05 658.054L1313.05 650.797M1292 650.076L1266.32 651.039M1292 650.076L1293.68 649.233M1295.37 648.39L1296.63 644.598M1295.37 648.39L1334.95 642.069M1295.37 648.39L1293.68 649.233M1296.63 644.598L1266.32 651.039M1296.63 644.598L1334.95 632.378M1334.95 632.378V622.265M1334.95 632.378V642.069M1334.95 632.378L1373.26 618.472M1334.95 622.265V611.098M1334.95 622.265L1373.06 607.095M1296.63 626.268L1334.95 611.098M1296.63 626.268L1258.63 640.805M1334.95 611.098L1372.83 594.454M1258.63 640.805L1221.64 653.447M1334.95 642.069L1373.68 629.639M1293.68 649.233L1321.01 648.39M1321.01 648.39L1313.05 650.797M1373.26 618.472L1373.06 607.095M1373.26 618.472L1373.68 629.639M1373.26 618.472L1487.93 572.964M1372.42 572.121L1372.6 582.234M1372.42 572.121L1410.32 550.961M1372.6 582.234L1372.83 594.454M1372.6 582.234L1449.7 540.518M1372.83 594.454L1373.06 607.095M1372.83 594.454L1488.42 535.883M1373.06 607.095L1488.17 554.423M1374.11 640.805L1373.68 629.639M1374.11 640.805L1412.42 628.585M1374.11 640.805L1339.16 645.685M1374.11 640.805L1371.16 646.459M1369.05 650.497V656.396M1369.05 650.497L1371.16 646.459M1369.05 650.497L1356.42 651.87M1369.05 650.497L1409.47 640.805M1369.05 656.396L1356.42 651.87M1369.05 656.396L1375.37 658.082M1373.68 629.639L1411.58 616.242M1412.42 615.944V628.585M1412.42 615.944L1411.58 616.242M1412.42 615.944L1450.32 602.039L1487.79 583.92M1412.42 628.585L1450.32 613.837M1412.42 628.585V639.963M1339.16 645.685L1346.74 648.4M1346.74 648.4L1371.16 646.459M1346.74 648.4L1356.42 651.87M1371.16 646.459L1409.47 640.805M1409.47 640.805V647.126M1409.47 640.805L1412.42 639.963M1409.47 647.126L1418.32 643.755L1421.26 674.425M1409.47 647.126L1375.37 658.082M1375.37 658.082L1421.26 674.425M1421.26 674.425L1444 682.521L1449.05 711.596M1449.05 711.596L1336.21 678.729M1449.05 711.596L1565.68 702.326L1579.58 703.992M1449.05 711.596L1452.84 742.357M1336.21 678.729L1227.16 708.647M1336.21 678.729L1338.96 725.502M1227.16 708.647L1114.74 713.282M1227.16 708.647L1225.47 732.244M1016.21 733.508L1114.74 713.282M1016.21 733.508L1022.11 715.067M1114.74 713.282L1112.21 735.193M1112.21 735.193L1108.42 757.526M1112.21 735.193L1225.47 732.244M1225.47 732.244L1224.21 758.369M1225.47 732.244L1338.96 725.502M1224.21 758.369L1108.42 757.526M1224.21 758.369L1341.78 773.539M1224.21 758.369V773.539M1108.42 757.526L1105.89 772.679M981.263 781.545L983.858 771.432M983.858 771.432L864.211 795.871M983.858 771.432L1052.42 774.369M864.211 795.871L746.737 825.789M746.737 825.789L-303.789 1306.58M746.737 825.789H-462.526M1430.53 539.675L1410.32 550.961M1430.53 539.675L1448.63 524.506M1430.53 539.675L1487.37 507.229M1411.58 616.242L1410.32 550.961M1488.63 519.449L1488.42 535.883M1488.63 519.449L1449.7 540.518M1488.63 519.449L1526.53 500.487M1488.63 519.449L1487.37 507.229M1487.79 583.92L1487.93 572.964M1487.79 583.92L1521.05 560.744M1487.79 583.92L1481.98 588.555M1487.93 572.964L1488.17 554.423M1487.93 572.964L1522.74 550.631M1488.17 554.423L1488.42 535.883M1488.17 554.423L1526.53 538.832M1488.42 535.883L1526.53 518.185M1449.7 540.518L1450.32 613.837M1449.7 540.518L1448.63 524.506M1450.32 613.837L1481.98 588.555M1450.32 613.837L1485.45 603.724M1450.32 613.837L1447.26 615.944M1412.42 639.963L1447.26 615.944M1412.42 639.963L1447.86 628.585M1522.74 550.631L1526.53 538.832M1522.74 550.631L1556.84 533.776M1522.74 550.631L1521.05 560.744M1526.53 538.832V518.185M1526.53 538.832L1557.68 516.5M1526.53 518.185V500.487M1526.53 518.185L1563.16 506.387M1526.53 500.487L1525.68 481.947M1526.53 500.487L1563.16 487.846M1487.37 507.229L1484.42 494.279M1487.37 507.229L1525.68 481.947M1448.63 524.506L1484.42 494.279M1521.47 462.985L1518.53 456.664L1508 474.362M1521.47 462.985L1508 474.362M1521.47 462.985L1525.68 481.947M1521.47 462.985L1528.21 458.771M1508 474.362L1484.42 494.279M1525.68 481.947L1560.21 457.928M1563.16 506.387V487.846M1563.16 506.387L1557.68 516.5M1563.16 506.387L1591.37 484.475M1560.21 457.928L1563.16 486.582V487.846M1560.21 457.928L1559.37 436.86M1560.21 457.928L1596 450.765M1559.37 436.86L1550.53 406.099M1559.37 436.86L1528.21 458.771M1559.37 436.86L1589.68 406.099M1550.53 406.099L1528.21 458.771M1550.53 406.099L1566.53 371.968M1563.16 487.846L1596 472.255M1557.68 516.5L1556.84 533.776M1557.68 516.5L1591.37 512.286M1556.84 533.776L1592.63 529.984M1556.84 533.776C1557.15 539.801 1557.46 544.486 1557.92 548.945M1521.05 560.744L1557.92 548.945M1521.05 560.744L1521.89 576.42M1481.98 588.555L1484.42 587.814M1599.79 552.738L1560.21 564.771M1599.79 552.738L1596.21 541.361M1599.79 552.738L1638.11 543.889M1599.79 552.738L1600.63 567.065M1592.63 529.984L1596.21 541.361M1592.63 529.984L1591.37 512.286M1592.63 529.984L1630.95 541.7M1560.21 564.771C1559.13 558.718 1558.44 553.975 1557.92 548.945M1560.21 564.771L1521.89 576.42M1560.21 564.771L1563.16 583.077M1557.92 548.945L1596.21 541.361M1521.89 576.42L1484.42 587.814M1521.89 576.42C1522.4 581.387 1522.89 585.96 1523.39 590.24M1484.42 587.814C1484.76 593.794 1485.09 599.014 1485.45 603.724M1490.32 639.963C1489.44 635.686 1488.71 631.718 1488.09 627.743M1490.32 639.963L1450.32 647.547M1490.32 639.963L1497.47 638.698C1500.37 646.073 1501.98 651.407 1502.65 657.239M1485.45 603.724L1523.39 590.24M1485.45 603.724C1485.74 607.686 1486.06 611.288 1486.41 614.68M1523.39 590.24C1524.08 596.194 1524.79 601.581 1525.57 606.674M1523.39 590.24L1563.16 583.077M1447.26 615.944C1447.42 620.855 1447.6 624.908 1447.86 628.585M1450.32 647.547C1449.73 644.355 1449.27 641.495 1448.89 638.698M1450.32 647.547L1436 649.654M1447.86 628.585L1486.41 614.68M1447.86 628.585C1448.11 632.164 1448.44 635.386 1448.89 638.698M1486.41 614.68L1525.57 606.674M1486.41 614.68C1486.88 619.296 1487.43 623.524 1488.09 627.743M1525.57 606.674C1526.29 611.347 1527.06 615.772 1527.94 620.158M1525.57 606.674L1565.68 599.511M1448.89 638.698L1488.09 627.743M1448.89 638.698L1424.63 645.862M1488.09 627.743L1527.94 620.158M1527.94 620.158C1529.64 628.648 1531.73 636.991 1534.53 646.705L1574.53 642.491M1527.94 620.158L1569.47 612.995M1502.95 668.616C1503.12 664.301 1503.05 660.683 1502.65 657.239M1502.65 657.239L1468.84 658.924M1447.86 682.521L1524.42 675.358M1524.42 675.358L1525.68 696.005M1524.42 675.358L1630.95 656.396M1630.95 656.396L1638.53 664.171M1630.95 656.396L1662.11 639.073M1730.74 653.025L1725.68 603.724L1693.26 621.75M1693.26 621.75L1724.84 599.885M1693.26 621.75L1674.32 632.284M1693.26 621.75L1689.47 621.466M1764.84 592.769L1756.42 578.02L1750.53 582.102M1724.84 599.885L1685.68 598.659M1724.84 599.885L1725.68 599.302M1605.26 596.139L1565.68 599.511M1605.26 596.139L1609.47 611.73M1605.26 596.139L1645.47 597.399M1605.26 596.139L1602.53 573.385M1565.68 599.511L1563.16 583.077M1565.68 599.511L1569.47 612.995M1563.16 583.077L1602.53 573.385M1641.89 563.694L1638.11 543.889M1641.89 563.694L1681.47 559.901M1641.89 563.694L1602.53 573.385M1641.89 563.694L1645.47 597.399M1638.11 543.889L1630.95 541.7M1638.11 543.889L1678.11 543.046M1591.37 512.286V484.475M1591.37 512.286L1627.58 519.028M1591.37 484.475L1596 472.255M1591.37 484.475L1625.05 482.368M1596 472.255C1596 471.581 1596 457.647 1596 450.765M1596 472.255L1623.37 450.765M1596 450.765L1589.68 406.099M1596 450.765L1626.32 443.18M1589.68 406.099L1576.59 350.478M1589.68 406.099L1620 395.565M1574.11 339.943L1566.53 371.968M1574.11 339.943L1576.59 350.478M1574.11 339.943L1589.26 324.025M1566.53 371.968L1576.59 350.478M1576.59 350.478L1611.16 333.623M1608.21 304.126L1611.16 333.623M1608.21 304.126L1644.42 339.1M1608.21 304.126L1605.68 271.68M1608.21 304.126L1593.36 319.717M1611.16 333.623L1620 395.565M1611.16 333.623L1648.21 361.855M1620 395.565L1626.32 443.18M1620 395.565L1651.46 390.508M1648.21 361.855L1644.42 339.1M1648.21 361.855L1651.46 390.508M1655.37 425.061L1651.46 390.508M1655.37 425.061L1692 379.974M1655.37 425.061L1626.32 443.18M1655.37 425.061L1658.85 462.563M1644.42 339.1L1642.32 304.126M1605.68 271.68L1593.36 319.717M1605.68 271.68L1602.32 264.938M1605.68 271.68L1628.42 285.586M1593.36 319.717L1589.26 324.025M1589.26 324.025L1602.32 264.938M1602.32 264.938L1638.11 210.581M1638.11 210.581L1673.47 138.104M1638.11 210.581L1640.63 284.743M1673.47 138.104L1708 286.428M1673.47 138.104L1676.84 300.334M1708 286.428L1694.32 311.711M1708 286.428L1716.84 270.416M1680.63 336.994L1676.84 300.334M1680.63 336.994L1694.32 311.711M1680.63 336.994L1648.21 339.1M1680.63 336.994L1683.58 354.691M1676.84 300.334L1636.84 291.485M1676.84 300.334L1694.32 311.711M1651.46 390.508L1687.74 351.742M1718.9 318.453L1724.42 312.554L1729.47 327.723M1718.9 318.453L1716.84 270.416M1718.9 318.453L1687.74 351.742M1716.84 270.416L1739.58 333.623L1735.79 289.799L1764 295.277M1764 295.277L1774.95 267.467L1780 274.63M1764 295.277L1746.32 341.629M1749.68 347.107L1780 274.63M1780 274.63L1815.79 318.874L1820.62 344.578M1780 274.63L1783.79 317.189M1825.05 368.175L1789.26 328.987M1825.05 368.175L1830.11 376.181M1825.05 368.175L1821.09 347.107M1789.26 328.987L1758.53 364.383M1789.26 328.987L1794.05 381.659M1789.26 328.987L1788.42 326.038L1783.79 317.189M1758.53 364.383L1766.53 374.075M1758.53 364.383L1757.68 363.32M1729.47 327.723L1733.26 424.218M1729.47 327.723L1692 379.974M1729.47 327.723L1757.68 363.32M1733.26 424.218L1695.79 453.293M1733.26 424.218L1737.89 466.777M1733.26 424.218L1771.16 439.809M1695.79 453.293L1692 379.974M1695.79 453.293L1658.85 462.563M1695.79 453.293L1699.82 490.374M1692 379.974L1687.74 351.742M1626.32 443.18L1623.37 450.765M1623.37 450.765C1623.37 451.776 1624.49 472.255 1625.05 482.368M1625.05 482.368L1662.11 497.538M1625.05 482.368L1627.58 519.028M1662.11 497.538L1658.85 462.563M1662.11 497.538L1666.32 531.669M1658.85 462.563L1640.21 456.664M1704.21 511.443L1700 492.06L1699.82 490.374M1704.21 511.443L1666.32 531.669M1704.21 511.443L1708 538.411M1704.21 511.443L1741.68 477.733M1666.32 531.669L1627.58 519.028M1666.32 531.669L1667.16 541.361M1627.58 519.028L1630.95 541.7M1678.11 543.046L1708 538.411M1678.11 543.046L1681.47 559.901M1708 538.411H1718.95M1741.68 477.733L1737.89 466.777M1741.68 477.733L1746.74 517.342M1741.68 477.733L1780 511.443M1737.89 466.777L1699.82 490.374M1737.89 466.777L1775.79 487.003M1771.16 439.809L1800.63 456.664M1771.16 439.809L1775.79 487.003M1771.16 439.809L1766.53 374.075M1800.63 456.664L1775.79 487.003M1800.63 456.664L1806.53 449.501M1775.79 487.003L1780 511.443M1766.53 374.075L1777.89 386.874M1810.32 423.376L1840.63 459.614M1810.32 423.376L1835.16 430.118M1810.32 423.376L1803.58 415.791M1840.63 459.614L1835.16 430.118M1840.63 459.614L1876.84 500.909M1835.16 430.118L1830.11 376.181M1835.16 430.118L1871.79 465.092M1803.58 415.791L1806.53 449.501M1803.58 415.791L1796.42 407.732M1806.53 449.501L1813.26 441.916M1813.26 441.916L1851.58 478.576M1813.26 441.916L1817.89 456.664M1796.42 407.732L1777.89 386.874M1796.42 407.732L1794.05 381.659M1777.89 386.874L1794.05 381.659M1794.05 381.659L1830.11 376.181M1871.79 465.092L1887.79 463.49M1871.79 465.092L1876.84 500.909M1945.05 462.142H1917.68M1945.05 462.142L1949.68 511.443M1945.05 462.142L1969.05 475.999M1887.79 463.49L1901.26 462.142H1908.84M1887.79 463.49L1886.11 432.646L1855.79 414.105M1855.79 414.105L1858.74 436.86M1855.79 414.105L1821.09 347.107M1821.09 347.107L1820.62 344.578M1820.62 344.578L1783.79 317.189M1783.79 317.189L1757.68 363.32M1876.84 500.909L1882.32 510.242M1876.84 500.909L1914.32 487.003M1851.58 478.576L1855.79 525.348M1851.58 478.576L1869.26 507.378M1873.05 513.55L1869.26 507.378M1855.79 525.348L1852.42 527.795M1855.79 525.348L1869.26 515.657M1782.11 578.863L1747.16 615.101M1782.11 578.863L1792.21 571.524M1782.11 578.863L1783.79 639.073M1718.95 538.411L1716.42 541.361L1720.21 555.266M1718.95 538.411L1720 538.683M1756.42 548.103L1792.21 571.524M1756.42 548.103L1759.79 580.127M1756.42 548.103L1751.79 519.028M1756.42 548.103L1721.05 538.956M1792.21 571.524L1794.32 569.995M1681.47 559.901L1685.68 598.659M1681.47 559.901L1721.05 562.008M1685.68 598.659L1645.47 597.399M1685.68 598.659L1689.47 621.466M1721.05 562.008L1725.68 599.302M1721.05 562.008L1750.53 582.102M1725.68 599.302L1750.53 582.102M1751.79 519.028L1721.05 538.956M1751.79 519.028L1746.74 517.342M1751.79 519.028L1783.79 540.097M1721.05 538.956L1720 538.683M1746.74 517.342L1720 538.683M1780 511.443L1783.79 540.097M1780 511.443L1817.89 456.664M1783.79 540.097L1789.68 542.823M1815.37 554.705L1794.32 569.995M1815.37 554.705L1797.26 546.329M1815.37 554.705L1825.89 547.06M1789.68 542.823L1794.32 569.995M1789.68 542.823L1797.26 546.329M1797.26 546.329L1822.95 537.568M1822.95 537.568L1825.89 547.06M1822.95 537.568L1817.89 456.664M1825.89 547.06L1852.42 527.795M1817.89 456.664L1852.42 527.795M1869.26 515.657L1959.37 543.468M1869.26 515.657L1886.11 557.794M1959.37 543.468L1942.11 500.909M1959.37 543.468L1964.84 555.687M1869.26 507.378L1882.32 510.242M1887.79 511.443L1882.32 510.242M1914.32 487.003L1908.84 462.142M1914.32 487.003L1917.68 504.28M1914.32 487.003L1927.37 500.909M1908.84 462.142H1917.68M1917.68 462.142L1916 449.501M1999.79 493.745L1982.95 484.021M1999.79 493.745L1973.26 534.619M1999.79 493.745L2001.89 491.217M1982.95 484.021L1980.42 447.815L1969.05 475.999M1982.95 484.021L1969.05 475.999M1982.95 484.021L1985.47 511.443M1973.26 534.619H1964.84M1973.26 534.619H1977.89L2005.68 553.159M2005.68 553.159L2001.89 491.217M2005.68 553.159L2033.89 548.524M2005.68 553.159L1998.95 553.864M2001.89 491.217L2033.89 548.524M2033.89 548.524L2040.63 546.417M1905.05 563.694L1886.11 557.794M1905.05 563.694L1844.84 636.648M1905.05 563.694L1914.74 615.939M1905.05 563.694L1998.95 553.864M1886.11 557.794L1836.42 638.698M1836.42 638.698L1774.53 655.553M1836.42 638.698L1844.84 636.648M1774.53 655.553L1667.58 714.546M1774.53 655.553L1790.53 658.503M1667.58 714.546L1655.37 713.082M1667.58 714.546L1669.68 716.126M1452.84 742.357L1338.96 725.502M1452.84 742.357H1465.05M1693.68 750.784L1682.74 725.923M1693.68 750.784L1706.32 767.218M1693.68 750.784L1604.84 743.614M1682.74 725.923L1800.63 684.628M1682.74 725.923L1669.68 716.126M1682.74 725.923L1604.84 743.614M1655.37 713.082L1661.26 648.811L1638.53 664.171M1655.37 713.082L1579.58 703.992M1579.58 703.992L1638.53 664.171M1580.84 742.357H1589.26L1604.84 743.614M1580.84 742.357L1593.05 754.998M1580.84 742.357H1465.05M1593.05 754.998L1600.63 790.815M1593.05 754.998H1492.54M1593.05 754.998L1706.32 767.218M1600.63 790.815L1602.74 807.67M1600.63 790.815L1713.47 813.569M1600.63 790.815L1492.54 754.998M1474.74 749.099L1463.79 752.551M1474.74 749.099L1481.05 781.123M1474.74 749.099L1492.54 754.998M1351.79 787.865L1463.79 752.551M1351.79 787.865L1346.74 786.946M1351.79 787.865L1378.74 795.029M1342.53 786.18L1341.78 773.539M1342.53 786.18L1225.47 789.13M1342.53 786.18L1346.74 786.946M1338.96 725.502L1341.78 773.539M1341.78 773.539L1459.16 743.848M1465.05 742.357L1459.16 743.848M1459.16 743.848L1463.79 752.551M1224.21 773.539L1225.47 789.13M1224.21 773.539L1119.37 774.744M1225.47 789.13H1213.26M1213.26 789.13L1210.32 794.607M1213.26 789.13L1119.37 774.744M1084 769.325L1105.89 772.679M1084 769.325L1052.42 774.369M1084 769.325L1077.68 786.601M1105.89 772.679L1119.37 774.744M954.737 789.972L1052.42 774.369M954.737 789.972L965.684 783.23L839.368 811.041M954.737 789.972L945.474 805.563M954.737 789.972L828 820.733M839.368 811.041L828 820.733M839.368 811.041L764.989 832.531M828 820.733L717.684 847.279L-462.105 847.701M828 820.733L814.105 836.001M1569.47 612.995L1609.47 611.73M1569.47 612.995L1572.22 629.007M1609.47 611.73L1649.47 618.472M1609.47 611.73L1613.14 626.479M1649.47 618.472L1653.68 630.326M1649.47 618.472L1645.47 597.399M1649.47 618.472L1689.47 621.466M1574.53 642.491L1556.84 650.918M1574.53 642.491L1579.58 638.698M1574.53 642.491L1572.22 629.007M1579.58 638.698L1616.21 638.865M1579.58 638.698L1583.37 656.396M1662.11 639.073L1674.32 632.284M1662.11 639.073L1655.79 639.044M1616.21 638.865L1613.14 626.479M1616.21 638.865L1655.79 639.044M1613.14 626.479L1572.22 629.007M1613.14 626.479L1653.68 630.326M1674.32 632.284L1653.68 630.326M1653.68 630.326L1655.79 639.044M1883.16 627.321L1896.21 649.233M1883.16 627.321L1844.84 636.648M1883.16 627.321L1914.74 615.939M2007.37 617.63L1993.05 587.712L1914.74 615.939M2007.37 617.63L2022.95 642.912M2007.37 617.63L1896.21 649.233M2007.37 617.63L2109.26 610.045M2022.95 642.912L1911.37 665.245M2022.95 642.912L2032.63 709.911M2022.95 642.912L2129.05 620.158M1911.37 665.245L1800.63 684.628M1911.37 665.245L1896.21 649.233M1911.37 665.245L1914.74 736.458M1800.63 684.628L1790.53 658.503M1800.63 684.628V744.042M1669.68 716.126L1790.53 658.503M1790.53 658.503L1896.21 649.233M2109.26 610.045L2203.58 583.498M2109.26 610.045L2129.05 620.158M2109.26 610.045L2182.11 559.901M2203.58 583.498L2182.11 559.901M2203.58 583.498L2227.58 605.41M2203.58 583.498L2311.79 543.889M2420 504.28C2418.99 504.65 2402.46 493.478 2394.32 487.846M2420 504.28L2311.79 543.889M2420 504.28L2452.42 498.427M2527.37 484.896L2633.05 505.122M2527.37 484.896L2500.84 429.275M2527.37 484.896L2452.42 498.427M2527.37 484.896L2561.47 511.022M2633.05 505.122L2668 517.342M2633.05 505.122L2602.74 480.261L2545.47 451.608M2668 517.342L2707.16 536.726M2668 517.342L2561.47 511.022M2668 517.342L2782.11 531.669M2707.16 536.726L2746.74 579.706M2707.16 536.726L2817.05 547.26M2707.16 536.726L2594.32 535.04M2746.74 579.706L2786.74 630.271M2746.74 579.706L2631.37 582.655M2746.74 579.706L2862.53 581.813M2786.74 630.271L2830.95 678.308M2786.74 630.271L2904.63 631.329M2786.74 630.271L2668 648.39M2830.95 678.308L2876.84 722.131M2830.95 678.308L2953.89 689.263M2830.95 678.308L2708.84 687.157M2876.84 722.131L2926.53 787.444M2876.84 722.131L2750.95 722.552M2876.84 722.131L2987.16 738.564M2926.53 787.444L2796.84 785.758M2926.53 787.444L2987.16 791.236M2926.53 787.444L2982.11 850.304M2988 856.971L2982.11 850.304M1998.95 553.864L2008.21 569.593M2040.63 546.417L2064.21 598.668M2040.63 546.417L2003.16 588.976M2064.21 598.668L2067.58 601.617M2064.21 598.668L2162.32 518.606M2064.21 598.668L2060 600.353M2032.63 709.911L2150.11 624.793M2032.63 709.911L1966.11 731.822M2032.63 709.911L2040.21 717.092M2150.11 624.793L2129.05 620.158M2150.11 624.793L2254.95 613.837M2150.11 624.793L2171.16 661.874M2129.05 620.158L2227.58 605.41M2182.11 559.901L2289.05 520.292M2182.11 559.901L2162.32 518.606M2289.05 520.292L2394.32 487.846M2289.05 520.292L2265.05 510.6M2289.05 520.292L2311.79 543.889M2394.32 487.846L2500.84 429.275M2394.32 487.846L2368.63 464.67L2311.37 490.062M2500.84 429.275L2545.47 451.608M2265.05 510.6L2207.79 515.063M2265.05 510.6L2303.37 493.61M2162.32 518.606L2231.37 461.721L2240.63 473.941M2162.32 518.606L2207.79 515.063M2240.63 473.941L2207.79 515.063M2240.63 473.941L2283.58 420.847M2207.79 515.063L2303.37 493.61M2283.58 420.847L2334.53 432.804M2283.58 420.847L2311.37 490.062M2378.74 443.18L2349.26 422.533M2378.74 443.18L2334.53 432.804M2378.74 443.18L2388.84 459.192M2349.26 422.533L2334.53 432.804M2349.26 422.533L2441.47 415.369M2311.37 490.062L2303.37 493.61M2227.58 605.41L2341.68 535.883M2227.58 605.41L2254.95 613.837M2341.68 535.883L2311.79 543.889M2341.68 535.883L2452.42 498.427M2341.68 535.883L2368.63 560.744M2452.42 498.427L2482.74 532.09M2452.42 498.427L2561.47 511.022M2482.74 532.09L2368.63 560.744M2482.74 532.09L2594.32 535.04M2482.74 532.09L2514.74 597.404M2368.63 560.744L2254.95 613.837M2368.63 560.744L2397.68 631.956M2254.95 613.837L2280.63 639.963M2561.47 511.022L2594.32 535.04M2594.32 535.04L2631.37 582.655M2782.11 531.669L2817.05 547.26M2782.11 531.669L2826.32 539.921M2888.21 551.474L2930.32 567.907M2888.21 551.474L2849.47 544.243M2888.21 551.474L2944.21 557.794M2930.32 567.907L2817.05 547.26M2930.32 567.907L2976.21 598.668M2930.32 567.907L2988 571.278M2817.05 547.26L2862.53 581.813M2514.74 597.404L2397.68 631.956M2514.74 597.404L2548.42 666.088M2514.74 597.404L2631.37 582.655M2397.68 631.956L2280.63 639.963M2397.68 631.956L2428.84 678.729M2280.63 639.963L2171.16 661.874M2280.63 639.963L2311.79 645.44M2171.16 661.874L2089.05 707.383M2171.16 661.874L2195.58 679.572M2089.05 707.383L2195.58 679.572M2089.05 707.383L2086.11 707.968M1966.11 731.822L2040.21 717.092M1966.11 731.822L1839.79 772.696M1966.11 731.822L1974.11 810.198M2040.21 717.092L2086.11 707.968M1713.47 813.569L1706.32 767.218M1713.47 813.569L1839.79 772.696M1713.47 813.569L1717.26 827.242M1706.32 767.218L1824.21 744.995M1829.26 744.042L1824.21 744.995M1824.21 744.995L1839.79 772.696M1839.79 772.696L1852.84 818.204M1852.84 818.204L1771.58 840.116M1852.84 818.204L1974.11 810.198M1852.84 818.204L1872.21 844.313M1771.58 840.116L1717.26 827.242M1771.58 840.116L1789.26 843.487M1771.58 840.116L1797.68 839.695M1643.58 809.777L1496.63 819.469M1643.58 809.777L1657.05 826.632M1643.58 809.777L1717.26 827.242M1496.63 819.469L1488.63 804.299L1481.05 805.109M1496.63 819.469L1350.11 846.015M1496.63 819.469L1505.05 851.072M1346.74 819.469L1344.21 800.085M1346.74 819.469L1481.05 805.109M1346.74 819.469L1350.11 846.015M1346.74 819.469L1206.11 845.804M1344.21 800.085L1346.74 786.946M1344.21 800.085L1207.79 815.676M1405.68 802.192L1378.74 795.029M1378.74 795.029L1481.05 781.123M1481.05 781.123V805.109M1481.05 781.123L1538.32 806.406M1350.11 846.015L1204.42 875.933M1350.11 846.015L1353.89 874.247M1204.42 875.933L1123.58 884.36H765.684M1204.42 875.933L1206.11 845.804M1204.42 875.933L1202.32 894.895M765.684 884.36L747.158 894.895M765.684 884.36L782.526 874.247M765.684 884.36H-461.684M1207.79 815.676L1210.32 794.607M1207.79 815.676L1071.79 823.261M1207.79 815.676L1206.11 845.804M1210.32 794.607L1077.68 786.601M1077.68 786.601L945.474 805.563M1077.68 786.601L1071.79 823.261M945.474 805.563L814.105 836.001M945.474 805.563L934.947 838.009M814.105 836.001L729.053 855.707H-462.526M814.105 836.001L798.947 862.027M798.947 862.027L934.947 838.009M798.947 862.027L796.842 865.399L782.526 874.247M798.947 862.027L782.526 864.977H-462.526M934.947 838.009L1071.79 823.261M934.947 838.009L924 874.247M1071.79 823.261L1064.63 860.714M1206.11 845.804L1064.63 860.714M782.526 874.247H924M782.526 874.247H-462.526M924 874.247H936.211L1064.63 860.714M924 874.247L408.632 1306.16M1064.63 860.714L1060.42 880.989L764.421 1306.16M1505.05 851.072L1657.05 826.632M1505.05 851.072L1353.89 874.247M1505.05 851.072L1514.74 904.165M1657.05 826.632L1808.63 888.574M1657.05 826.632L1671.79 899.53M1789.26 843.487L1828 847.857M1789.26 843.487L1808.63 888.574M1934.95 859.921L1950.53 855.054M1934.95 859.921L1897.05 855.646M1934.95 859.921L1953.47 891.945L2901.68 1307M2080.63 814.412L2130.32 806.004M2080.63 814.412L2008.63 836.903M2080.63 814.412L2097.05 889.838M2225.05 789.972L2155.58 801.729M2225.05 789.972L2232.21 792.146M2225.05 789.972L2260.84 888.574M2391.37 888.574L2370.74 834.217L2272.21 804.294M2391.37 888.574L2387.58 887.31M2391.37 888.574L2986.74 1046.17M2195.58 679.572L2311.79 645.44M2195.58 679.572L2217.89 761.319M2311.79 645.44L2428.84 678.729M2311.79 645.44L2340.84 702.326M2428.84 678.729L2548.42 666.088M2428.84 678.729L2461.68 717.496M2548.42 666.088L2668 648.39M2548.42 666.088L2584.21 710.332M2631.37 582.655L2668 648.39M2862.53 581.813L2976.21 598.668M2862.53 581.813L2904.63 631.329M2953.89 689.263L2987.58 724.238M2953.89 689.263L2904.63 631.329M2976.21 598.668L2987.16 597.404M2976.21 598.668L2987.16 609.624M2904.63 631.329L2988 639.963M2668 648.39L2708.84 687.157M2708.84 687.157L2750.95 722.552M2708.84 687.157L2584.21 710.332M2750.95 722.552L2625.47 741.935M2750.95 722.552L2796.84 785.758M2584.21 710.332L2461.68 717.496M2584.21 710.332L2625.47 741.935M2461.68 717.496L2340.84 702.326M2461.68 717.496L2498.74 733.929M2340.84 702.326L2217.89 761.319M2340.84 702.326L2372.84 752.47M2217.89 761.319L2101.26 784.703M2217.89 761.319L2232.21 792.146M1974.11 810.198L2006.11 811.041M1974.11 810.198L2099.58 785.041M1873.47 846.015L1872.21 844.313M1868.84 845.172L1872.21 844.313M1872.21 844.313L2004 811.564M2006.11 811.041L2126.11 796.446M2006.11 811.041L2004 811.564M2127.37 796.293L2101.26 784.703M2127.37 796.293L2155.58 801.729M2127.37 796.293L2126.11 796.446M2101.26 784.703L2099.58 785.041M2086.11 707.968L2099.58 785.041M2155.58 801.729L2130.32 806.004M2126.11 796.446L2130.32 806.004M2004 811.564L2008.63 836.903M2008.63 836.903L1950.53 855.054M1950.53 855.054L1897.05 855.646M1897.05 855.646L1858.74 851.324M1858.74 851.324L1841.89 842.644M1858.74 851.324L1828 847.857M1828 847.857H1939.16M1808.63 888.574L1809.89 894.895M1808.63 888.574L1873.47 894.895M1671.79 899.53L1687.79 901.215M1671.79 899.53L1514.74 904.165M1687.79 901.215L1524 908.379M1687.79 901.215L1695.55 906.693M1687.79 901.215L1692 921.863L2188.84 1306.58M1713.47 919.335H2977.05M1713.47 919.335L2764.84 906.693M1713.47 919.335L1695.55 906.693M1353.89 874.247L1247.37 894.895H1202.32M1353.89 874.247L1356.84 906.693M747.158 894.895L52.4211 1306.16M747.158 894.895H1202.32M747.158 894.895H-457.474M2441.47 415.369L2453.68 441.916M2441.47 415.369L2533.89 431.803M2660.84 480.261L2626.32 448.237L2533.89 431.803M2660.84 480.261L2608.63 481.947M2660.84 480.261L2758.53 497.31M2928.21 550.21L2953.05 555.687M2928.21 550.21L2849.47 544.243M2928.21 550.21L2889.89 531.88M2849.47 544.243L2826.32 539.921M2889.89 531.88L2851.58 513.55L2758.53 497.31M2889.89 531.88L2695.37 507.229M2695.37 507.229L2652 497.538M2695.37 507.229L2666.74 484.475M2695.37 507.229L2707.16 516.078M2758.53 497.31L2826.32 539.921M2545.47 451.608L2533.89 431.803M2232.21 792.146L2272.21 804.294M2260.84 888.574L2299.16 891.102M2260.84 888.574L2246.11 894.895H1873.47M2299.16 891.102L2271.79 904.586M2299.16 891.102L2305.05 907.536L2987.16 1115.7M2299.16 891.102L2308 894.929M2330.32 904.586L2308 894.929M1809.89 894.895H1873.47M1809.89 894.895L2545.05 1306.58M2097.05 889.838L2094.11 888.574M2097.05 889.838L2986.74 1209.24M2308 894.929H2499.16M2526.53 894.929H2499.16M2499.16 894.929C2500.17 894.929 2541.68 869.624 2562.32 856.971L2581.26 898.687M2581.26 898.687L2577.05 897.423M2581.26 898.687L2703.79 926.919M2703.79 926.919L2721.89 925.234L2725.68 932.397M2703.79 926.919L2676 930.29M2725.68 932.397H2986.74M2725.68 932.397H-462.526M2725.68 932.397L2986.74 993.497M-461.684 796.293H550.947L579.158 791.236M579.158 791.236H-462.526M-461.684 923.97L-440.632 919.347M-462.526 894.895L198.947 777.331M-344.632 786.18L-455.368 801.22M-462.526 802.192L-455.368 801.22M-462.526 816.098L-239.789 786.18M-462.526 831.267L-144.211 786.18M-48.6316 786.18L-462.526 848.543M-462.526 870.034L52.8421 786.18M332.842 769.325L-440.632 919.347M1202.32 894.895L1121.05 1306.16M1356.84 906.693L1476.84 1306.58M1356.84 906.693L1460.84 906.272L1514.74 904.165M1356.84 906.693H-461.684M1524 908.379L1449.05 919.335H-461.684M1524 908.379L1526.53 922.706L1832.63 1307M-462.105 947.567H2986.74M2272.21 804.294L2372.84 752.47M2372.84 752.47L2498.74 733.929M2372.84 752.47L2402.32 838.009M2498.74 733.929L2625.47 741.935M2498.74 733.929L2536.34 796.714M2625.47 741.935L2668 788.708M2572.42 856.971L2536.34 796.714M2415.79 838.009L2536.34 796.714M2536.34 796.714L2668 788.708M2668 788.708L2796.84 785.758M2668 788.708L2712.43 840.537M2796.84 785.758L2844 849.386M2731.58 862.87L2712.43 840.537M2712.43 840.537L2596.84 861.185M2712.43 840.537L2830.95 851.072M2734.95 880.147L2862.95 847.279L2870.95 851.74M2921.89 880.147L2870.95 851.74M2870.95 851.74L2982.11 850.304M2775.37 906.693L2986.74 952.202M1695.55 906.693H2299.16M2986.74 963.579H-462.526M2986.74 981.277H-462.105V1000.24H2986.74M2986.74 1021.73H-462.245M-462.105 1045.33H2986.74M2986.74 1071.87H-462.245M-462.105 1101.79H2987.16M2987.16 1135.92H-462.105M-462.105 1174.69H2987.16M2986.74 1218.51H-462.105M-462.105 1270.34H2986.74M-462.526 839.695L738.737 840.116L764.989 832.531M764.989 832.531H-462.526" stroke="#D1F7FF"/>
    </g>
    <defs>
        <filter id="filter0_i_704_1022" x="-568.203" y="0.833679" width="3556.58" height="1406.62" filterUnits="userSpaceOnUse" color-interpolation-filters="sRGB">
            <feFlood flood-opacity="0" result="BackgroundImageFix"/>
            <feBlend mode="normal" in="SourceGraphic" in2="BackgroundImageFix" result="shape"/>
            <feColorMatrix in="SourceAlpha" type="matrix" values="0 0 0 0 0 0 0 0 0 0 0 0 0 0 0 0 0 0 127 0" result="hardAlpha"/>
            <feOffset dx="-100" dy="120"/>
            <feGaussianBlur stdDeviation="50"/>
            <feComposite in2="hardAlpha" operator="arithmetic" k2="-1" k3="1"/>
            <feColorMatrix type="matrix" values="0 0 0 0 0 0 0 0 0 0 0 0 0 0 0 0 0 0 0.5 0"/>
            <feBlend mode="normal" in2="shape" result="effect1_innerShadow_704_1022"/>
        </filter>
        <linearGradient id="paint0_linear_704_1022" x1="1260" y1="-67.1122" x2="993.065" y2="1139.65" gradientUnits="userSpaceOnUse">
            <stop offset="0.354469" stop-color="#FF4A4A"/>
            <stop offset="0.752659" stop-color="#FF911A"/>
        </linearGradient>
    </defs>
</svg>
