<svg width="70" height="70" viewBox="0 0 70 70" fill="none" xmlns="http://www.w3.org/2000/svg">
    <g clip-path="url(#clip0_980_143)">
        <path fill-rule="evenodd" clip-rule="evenodd" d="M12.4609 10.9375C11.3678 5.25 15.7401 0 21.424 0C26.4521 0 30.6057 4.15625 30.6057 9.1875V20.5625C31.9174 20.5625 33.229 20.3438 34.5407 20.3438C35.8524 20.3438 36.9454 20.3438 38.2571 20.5625V9.1875C38.2571 4.15625 42.4107 0 47.4388 0C53.1227 0 57.495 5.25 56.6205 10.9375L54.2158 24.2812C62.7416 28 69.3 34.5625 69.3 42.6562V47.6875C69.3 54.4688 64.9278 60.1562 58.588 63.875C52.2483 67.8125 43.941 70 34.5407 70C25.1404 70 16.8331 67.8125 10.4934 63.875C4.37224 60.1562 0 54.4688 0 47.6875V42.6562C0 34.5625 6.33975 28 14.8656 24.2812L12.4609 10.9375ZM50.9366 26.0312L53.7786 10.2812C54.4344 6.34375 51.5924 2.625 47.4388 2.625C43.941 2.625 41.0991 5.46875 41.0991 8.96875V23.4062C40.2246 23.1875 39.1315 23.1875 38.2571 23.1875C36.9454 23.1875 35.8524 22.9688 34.5407 22.9688C33.229 22.9688 31.9174 22.9688 30.6057 23.1875C29.7312 23.1875 28.6382 23.4062 27.7637 23.4062V9.1875C27.7637 5.6875 24.9218 2.84375 21.424 2.84375C17.489 2.84375 14.4284 6.5625 15.3028 10.5L18.1448 26.25C8.96309 29.75 2.84196 35.875 2.84196 42.875V47.9062C2.84196 58.625 17.0517 67.375 34.5407 67.375C52.0297 67.375 66.2394 58.625 66.2394 47.9062V42.875C66.458 35.6562 60.3369 29.5312 50.9366 26.0312Z" fill="#633001"/>
        <path d="M66.458 47.6875C66.458 58.4062 52.2482 67.1562 34.7593 67.1562C17.2703 67.1562 3.06055 58.4062 3.06055 47.6875V42.6562H66.6766V47.6875H66.458Z" fill="#FEDC90"/>
        <path fill-rule="evenodd" clip-rule="evenodd" d="M15.3028 10.5C14.4284 6.5625 17.4889 2.84375 21.424 2.84375C24.9217 2.84375 27.7637 5.6875 27.7637 9.1875V23.625C29.9498 23.4062 32.1359 23.1875 34.5407 23.1875C36.7268 23.1875 38.9129 23.4062 41.099 23.625V9.1875C41.099 5.6875 43.941 2.84375 47.4388 2.84375C51.3738 2.84375 54.4344 6.5625 53.7785 10.5L50.9366 26.25C60.1183 29.75 66.458 35.875 66.458 42.875C66.458 53.5938 52.2482 62.3438 34.7593 62.3438C17.2703 62.3438 3.06055 53.5938 3.06055 42.875C3.06055 35.875 9.18168 29.75 18.3634 26.25L15.3028 10.5Z" fill="#D1884F"/>
        <path d="M25.7962 41.3437C25.7962 44.1875 24.2659 46.5937 22.2984 46.5937C20.3309 46.5937 18.8006 44.1875 18.8006 41.3437C18.8006 38.5 20.3309 36.0938 22.2984 36.0938C24.2659 36.0938 25.7962 38.5 25.7962 41.3437Z" fill="#633001"/>
        <path d="M50.0621 41.3437C50.0621 44.1875 48.5319 46.5937 46.5643 46.5937C44.5968 46.5937 43.0666 44.1875 43.0666 41.3437C43.0666 38.5 44.5968 36.0938 46.5643 36.0938C48.5319 36.0938 50.0621 38.5 50.0621 41.3437Z" fill="#633001"/>
    </g>
    <defs>
        <clipPath id="clip0_980_143">
            <rect width="69.3" height="70" fill="white"/>
        </clipPath>
    </defs>
</svg>
