<svg width="40" height="40" viewBox="0 0 40 40" fill="none" xmlns="http://www.w3.org/2000/svg">
    <path d="M36.6815 8.43554L31.5645 3.31853L30.5411 4.34193L35.6581 9.45895L36.6815 8.43554Z" fill="url(#paint0_linear_940_41)"/>
    <path d="M31.7859 15.1632L31.1784 14.9354L31.3303 14.7835C31.5386 14.8605 31.6404 14.9403 31.7859 15.1632Z" fill="url(#paint1_linear_940_41)"/>
    <path fill-rule="evenodd" clip-rule="evenodd" d="M19.2836 1.27172C20.9792 -0.423907 23.7284 -0.423907 25.424 1.27172L38.7283 14.576C40.4239 16.2716 40.4239 19.0208 38.7283 20.7164L32.5879 26.8568C30.8922 28.5524 28.1431 28.5524 26.4474 26.8568L22.9679 23.3772L20.307 24.746L8.02618 37.0269L7.61682 38.7283C5.92119 40.4239 3.17203 40.4239 1.4764 38.7283L1.27172 38.5236C-0.423906 36.828 -0.423908 34.0788 1.27172 32.3832L2.90917 31.9099L15.19 19.629L16.6228 17.0321L13.1432 13.5526C11.4476 11.8569 11.4476 9.10777 13.1432 7.41214L19.2836 1.27172ZM3.42087 34.4684C3.42087 34.4684 4.44427 33.445 4.95597 33.9567L5.97938 34.9801C6.49108 35.4918 5.46767 36.5152 5.46767 36.5152L4.04513 37.9377L2.94737 38.092L1.92397 37.0686L1.99832 35.8909L3.42087 34.4684ZM31.2924 15.7184C32.0845 15.7094 32.7683 15.7017 33.3106 16.3429C33.22 16.0536 32.5846 15.2266 31.9201 15.1316C31.8855 15.0883 31.86 15.0496 31.8361 15.0132C31.7554 14.8903 31.6924 14.7944 31.3506 14.638C30.4964 14.2473 29.6888 14.3052 29.6888 14.3052C29.6888 14.3052 30.9519 14.9608 30.6449 15.0715C29.6096 14.9539 28.4247 14.7669 27.3467 13.895C28.8175 15.7464 30.1647 15.7311 31.2924 15.7184ZM31.6755 15.9997C29.5183 17.0332 27.1244 16.7743 24.3339 15.439C26.5874 16.063 27.6818 16.167 29.2727 15.8325C30.2582 16.0998 30.7841 16.141 31.6755 15.9997ZM19.0243 14.2776C20.2289 14.4325 21.6237 15.2672 23.0503 16.1209C25.7324 17.726 28.5269 19.3982 30.3801 16.7458C27.5884 17.3597 25.6617 16.5262 23.659 15.6598C22.2585 15.054 20.8209 14.432 19.0243 14.2776ZM25.9858 18.0082C23.8943 18.1642 22.8026 17.5391 21.6042 16.8529C20.4758 16.2067 19.2527 15.5064 17.0113 15.3529C19.5975 15.4872 20.8756 16.0426 22.0072 16.5343C22.7841 16.8718 23.4918 17.1794 24.5064 17.3C25.1321 17.6395 25.4476 17.7915 25.9858 18.0082ZM20.0356 18.4901C20.9343 17.9469 21.6286 17.7814 23.0801 17.8666L22.2453 17.4894C20.8818 17.7866 20.5536 18.0349 20.0356 18.4901ZM24.2343 15.3394L22.5447 13.6498L26.9852 9.20939L29.7758 12C30.2314 12.4556 30.5541 12.9682 30.4972 13.8604C31.3167 13.9947 31.7205 14.124 32.1487 14.6387C32.5284 13.3478 32.1297 11.8102 31.0477 10.7281L27.7635 7.44391C27.3078 6.95042 26.8143 6.9124 26.3777 7.27306L20.8534 12.7973C20.077 13.5032 20.465 14.0286 20.5846 14.1906C20.5937 14.2029 20.6013 14.2131 20.6066 14.2211C21.5651 14.2418 22.3558 14.4815 24.2343 15.3394Z" fill="url(#paint2_linear_940_41)"/>
    <defs>
        <linearGradient id="paint0_linear_940_41" x1="20" y1="0" x2="20" y2="40" gradientUnits="userSpaceOnUse">
            <stop stop-color="#FE3218"/>
            <stop offset="1" stop-color="#FF911A"/>
        </linearGradient>
        <linearGradient id="paint1_linear_940_41" x1="20" y1="0" x2="20" y2="40" gradientUnits="userSpaceOnUse">
            <stop stop-color="#FE3218"/>
            <stop offset="1" stop-color="#FF911A"/>
        </linearGradient>
        <linearGradient id="paint2_linear_940_41" x1="20" y1="0" x2="20" y2="40" gradientUnits="userSpaceOnUse">
            <stop stop-color="#FE3218"/>
            <stop offset="1" stop-color="#FF911A"/>
        </linearGradient>
    </defs>
</svg>
