<svg width="24" height="24" viewBox="0 0 24 24" fill="none" xmlns="http://www.w3.org/2000/svg">
    <path d="M5.7 8H18.3C18.4857 8 18.6637 7.89464 18.795 7.70711C18.9263 7.51957 19 7.26522 19 7C19 6.73478 18.9263 6.48043 18.795 6.29289C18.6637 6.10536 18.4857 6 18.3 6H5.7C5.51435 6 5.3363 6.10536 5.20503 6.29289C5.07375 6.48043 5 6.73478 5 7C5 7.26522 5.07375 7.51957 5.20503 7.70711C5.3363 7.89464 5.51435 8 5.7 8ZM18.3 16H5.7C5.51435 16 5.3363 16.1054 5.20503 16.2929C5.07375 16.4804 5 16.7348 5 17C5 17.2652 5.07375 17.5196 5.20503 17.7071C5.3363 17.8946 5.51435 18 5.7 18H18.3C18.4857 18 18.6637 17.8946 18.795 17.7071C18.9263 17.5196 19 17.2652 19 17C19 16.7348 18.9263 16.4804 18.795 16.2929C18.6637 16.1054 18.4857 16 18.3 16ZM18.3 11H5.7C5.51435 11 5.3363 11.1054 5.20503 11.2929C5.07375 11.4804 5 11.7348 5 12C5 12.2652 5.07375 12.5196 5.20503 12.7071C5.3363 12.8946 5.51435 13 5.7 13H18.3C18.4857 13 18.6637 12.8946 18.795 12.7071C18.9263 12.5196 19 12.2652 19 12C19 11.7348 18.9263 11.4804 18.795 11.2929C18.6637 11.1054 18.4857 11 18.3 11Z" fill="#E7E7E7"/>
</svg>
