<svg width="36" height="36" viewBox="0 0 36 36" fill="none" xmlns="http://www.w3.org/2000/svg">
    <path d="M0 18C0 16.1426 0 15.214 0.0770444 14.4317C0.825228 6.83529 6.83529 0.825228 14.4317 0.0770444C15.214 0 16.1426 0 18 0C19.8574 0 20.786 0 21.5683 0.0770444C29.1647 0.825228 35.1748 6.83529 35.923 14.4317C36 15.214 36 16.1426 36 18C36 19.8574 36 20.786 35.923 21.5683C35.1748 29.1647 29.1647 35.1748 21.5683 35.923C20.786 36 19.8574 36 18 36C16.1426 36 15.214 36 14.4317 35.923C6.83529 35.1748 0.825228 29.1647 0.0770444 21.5683C0 20.786 0 19.8574 0 18Z" fill="url(#paint0_linear_734_467)"/>
    <path d="M24.3874 15.2448C24.3874 15.3913 24.3874 15.5378 24.3874 15.6634C24.3874 19.9968 21.0785 25 15.0471 25C13.1832 25 11.466 24.4557 10 23.5346C10.2513 23.5556 10.5236 23.5765 10.7749 23.5765C12.3037 23.5765 13.7277 23.0531 14.8586 22.1739C13.4136 22.153 12.199 21.19 11.801 19.8921C12.0105 19.934 12.199 19.9549 12.4293 19.9549C12.7225 19.9549 13.0157 19.913 13.288 19.8293C11.7801 19.5362 10.6492 18.2174 10.6492 16.6264C10.6492 16.6055 10.6492 16.6055 10.6492 16.5845C11.089 16.8357 11.5916 16.9823 12.1361 17.0032C11.2565 16.4171 10.6702 15.4122 10.6702 14.2609C10.6702 13.6538 10.8377 13.0886 11.1099 12.6071C12.7225 14.5958 15.1518 15.8937 17.8743 16.0403C17.8115 15.81 17.7906 15.5378 17.7906 15.2866C17.7906 13.4654 19.2565 12 21.0785 12C22.0209 12 22.8796 12.3977 23.466 13.0258C24.2199 12.8792 24.911 12.6071 25.5602 12.2303C25.3089 13.0048 24.7853 13.6329 24.1152 14.0515C24.7853 13.9678 25.4136 13.8003 26 13.5282C25.5812 14.1981 25.0366 14.7842 24.3874 15.2448Z" fill="#E7E7E7"/>
    <path d="M14.4317 35.923L14.5297 34.9278L14.4317 35.923ZM35.923 21.5683L36.9181 21.6663L35.923 21.5683ZM21.5683 35.923L21.6663 36.9181L21.5683 35.923ZM21.5683 0.0770444L21.6663 -0.91814L21.5683 0.0770444ZM35.923 14.4317L34.9278 14.5297L35.923 14.4317ZM14.4317 0.0770444L14.3337 -0.91814L14.4317 0.0770444ZM18 35C16.1189 35 15.2508 34.9988 14.5297 34.9278L14.3337 36.9181C15.1772 37.0012 16.1664 37 18 37V35ZM-1 18C-1 19.8336 -1.00121 20.8228 -0.91814 21.6663L1.07223 21.4703C1.00121 20.7492 1 19.8811 1 18H-1ZM14.5297 34.9278C7.40809 34.2263 1.77365 28.5919 1.07223 21.4703L-0.91814 21.6663C-0.123196 29.7375 6.2625 36.1232 14.3337 36.9181L14.5297 34.9278ZM35 18C35 19.8811 34.9988 20.7492 34.9278 21.4703L36.9181 21.6663C37.0012 20.8228 37 19.8336 37 18H35ZM18 37C19.8336 37 20.8228 37.0012 21.6663 36.9181L21.4703 34.9278C20.7492 34.9988 19.8811 35 18 35V37ZM34.9278 21.4703C34.2263 28.5919 28.5919 34.2263 21.4703 34.9278L21.6663 36.9181C29.7375 36.1232 36.1232 29.7375 36.9181 21.6663L34.9278 21.4703ZM18 1C19.8811 1 20.7492 1.00121 21.4703 1.07223L21.6663 -0.91814C20.8228 -1.00121 19.8336 -1 18 -1V1ZM37 18C37 16.1664 37.0012 15.1772 36.9181 14.3337L34.9278 14.5297C34.9988 15.2508 35 16.1189 35 18H37ZM21.4703 1.07223C28.5919 1.77365 34.2263 7.40809 34.9278 14.5297L36.9181 14.3337C36.1232 6.2625 29.7375 -0.123196 21.6663 -0.91814L21.4703 1.07223ZM18 -1C16.1664 -1 15.1772 -1.00121 14.3337 -0.91814L14.5297 1.07223C15.2508 1.00121 16.1189 1 18 1V-1ZM1 18C1 16.1189 1.00121 15.2508 1.07223 14.5297L-0.91814 14.3337C-1.00121 15.1772 -1 16.1664 -1 18H1ZM14.3337 -0.91814C6.2625 -0.123196 -0.123196 6.2625 -0.91814 14.3337L1.07223 14.5297C1.77365 7.40809 7.40809 1.77365 14.5297 1.07223L14.3337 -0.91814Z" fill="url(#paint1_linear_734_467)"/>
    <defs>
        <linearGradient id="paint0_linear_734_467" x1="18" y1="0" x2="18" y2="36" gradientUnits="userSpaceOnUse">
            <stop stop-opacity="0.2"/>
            <stop offset="1" stop-color="white" stop-opacity="0"/>
        </linearGradient>
        <linearGradient id="paint1_linear_734_467" x1="95.2382" y1="-0.0420334" x2="95.2382" y2="36" gradientUnits="userSpaceOnUse">
            <stop stop-color="#D1F7FF"/>
            <stop offset="1" stop-color="#6BA3AE"/>
        </linearGradient>
    </defs>
</svg>
