<svg width="80" height="80" viewBox="0 0 80 80" fill="none" xmlns="http://www.w3.org/2000/svg">
    <g clip-path="url(#clip0_647_357)">
        <path d="M33.9029 20.9289C33.1424 20.8206 33.1062 20.7844 33.4683 20.7483C34.1565 20.64 35.75 20.7844 36.8727 21.0373C39.4803 21.6513 41.8344 23.2406 44.3333 26.0218L44.9852 26.7803L45.9268 26.6358C49.9469 25.9857 54.0755 26.4913 57.5161 28.0806C58.4577 28.5141 59.9426 29.3809 60.1237 29.5976C60.1961 29.6699 60.3048 30.1394 60.3772 30.609C60.6307 32.3066 60.5221 33.5708 59.9788 34.546C59.6891 35.0878 59.6891 35.2323 59.8702 35.7019C60.0151 36.0631 60.4497 36.3159 60.848 36.3159C61.7172 36.3159 62.6226 34.9434 63.0572 33.029L63.2383 32.2705L63.5643 32.6317C65.4113 34.6905 66.86 37.544 67.0773 39.5667L67.1497 40.1085L66.8238 39.6389C66.2805 38.8082 65.7735 38.2664 65.0854 37.7968C63.854 36.9661 62.5502 36.7132 59.1096 36.5326C55.995 36.352 54.2204 36.0992 52.482 35.5213C49.5123 34.546 47.9912 33.2819 44.4782 28.6224C42.9209 26.5636 41.943 25.4439 40.9652 24.5048C38.8284 22.4459 36.6916 21.3623 33.9029 20.9289Z" fill="#E7E7E7"/>
        <path d="M60.8843 25.5162C60.9567 24.1437 61.1378 23.2407 61.5362 22.4099C61.681 22.0849 61.8259 21.7959 61.8621 21.7959C61.8983 21.7959 61.8259 22.0487 61.7172 22.3377C61.4275 23.1323 61.3913 24.252 61.5724 25.5162C61.8259 27.1416 61.9345 27.3583 63.6729 29.1282C64.4697 29.959 65.4113 31.0064 65.7735 31.4399L66.3892 32.2345L65.7735 31.6566C65.0129 30.9342 63.2745 29.5616 62.8762 29.381C62.6226 29.2366 62.5864 29.2366 62.4053 29.4172C62.2605 29.5616 62.2243 29.7784 62.2243 30.8258C62.188 32.4512 61.9708 33.4626 61.4275 34.51C61.1378 35.0518 61.1016 34.9435 61.3551 34.3294C61.5362 33.8599 61.5724 33.6432 61.5724 32.09C61.5724 28.9476 61.2102 28.1891 59.001 26.9249C58.4578 26.5998 57.5161 26.1303 56.9729 25.8774C56.3934 25.6246 55.9588 25.4079 55.995 25.4079C56.0675 25.3356 58.2042 25.9497 59.0372 26.3109C60.3048 26.8165 60.5221 26.8527 60.667 26.8165C60.7756 26.7082 60.848 26.4192 60.8843 25.5162Z" fill="#E7E7E7"/>
        <path d="M35.3878 30.8978C33.8667 28.8028 32.8889 25.5521 33.1062 23.132L33.1786 22.3735L33.5408 22.4458C34.1927 22.5541 35.3154 22.9876 35.8586 23.3126C37.3073 24.1795 37.9592 25.3715 38.5749 28.3333C38.756 29.2002 39.0095 30.2115 39.1181 30.5366C39.2992 31.0784 39.9873 32.3426 40.5668 33.1372C40.9652 33.7151 40.7117 34.0041 39.8062 33.9318C38.43 33.7874 36.583 32.5232 35.3878 30.8978Z" fill="#E7E7E7"/>
        <path d="M59.0372 46.6099C51.8663 43.7203 49.3312 41.228 49.3312 37.002C49.3312 36.388 49.3674 35.8823 49.3674 35.8823C49.4036 35.8823 49.6571 36.099 49.9831 36.3519C51.4317 37.5077 53.0615 38.0134 57.5885 38.6635C60.2323 39.0609 61.7534 39.3498 63.1297 39.8194C67.5119 41.2642 70.2281 44.226 70.88 48.2353C71.0611 49.3911 70.9524 51.5944 70.6627 52.7502C70.4092 53.6532 69.6849 55.3147 69.5038 55.3508C69.4676 55.3508 69.3951 55.1702 69.3951 54.8813C69.3227 53.3643 68.5621 51.9195 67.2946 50.7998C65.7735 49.4995 63.8178 48.5242 59.0372 46.6099Z" fill="#E7E7E7"/>
        <path d="M53.9669 47.802C53.8945 47.2602 53.7134 46.5739 53.6047 46.285L53.4236 45.7432L53.7496 46.1405C54.2204 46.6823 54.5826 47.3324 54.9085 48.2354C55.162 48.9217 55.162 49.1384 55.162 50.2581C55.162 51.3417 55.1258 51.5946 54.9085 52.2086C54.5463 53.1838 54.1118 53.8701 53.3874 54.6286C52.0836 55.965 50.3815 56.6874 47.9549 57.0125C47.5203 57.0486 46.289 57.157 45.2025 57.2292C42.4862 57.3737 40.6754 57.6627 39.0457 58.2406C38.8284 58.3128 38.6111 58.3851 38.5749 58.3489C38.5024 58.2767 39.6251 57.6265 40.5306 57.1931C41.7981 56.5791 43.1019 56.254 45.963 55.7483C47.3755 55.5316 48.8241 55.2426 49.1863 55.0982C52.7717 53.9785 54.5463 51.1972 53.9669 47.802Z" fill="#E7E7E7"/>
        <path d="M57.2626 53.6169C56.3209 51.5581 56.1036 49.6076 56.6107 47.7655C56.6831 47.5849 56.7555 47.4043 56.828 47.4043C56.9004 47.4043 57.1177 47.5127 57.335 47.6571C57.7696 47.9461 58.675 48.4518 60.9929 49.716C63.9264 51.3052 65.5924 52.5333 66.7513 53.942C67.7654 55.17 68.381 56.5787 68.6708 58.3125C68.8519 59.2877 68.7432 61.6355 68.4897 62.6107C67.6929 65.6809 65.8821 68.137 63.2383 69.5457C62.8399 69.7624 62.514 69.9069 62.4777 69.9069C62.4415 69.9069 62.5864 69.5457 62.8037 69.1122C63.6729 67.2701 63.7815 65.5003 63.1296 63.5137C62.7313 62.2856 61.8983 60.8047 60.2323 58.3125C58.2404 55.4229 57.7696 54.6644 57.2626 53.6169Z" fill="#E7E7E7"/>
        <path d="M30.2813 64.6697C32.9613 62.4302 36.257 60.841 39.2992 60.3353C40.603 60.1186 42.776 60.1908 43.9711 60.5159C45.8906 61.0216 47.629 62.1052 48.5344 63.4416C49.4036 64.7419 49.802 65.8616 50.2004 68.3539C50.3452 69.3291 50.5263 70.3405 50.5625 70.5572C50.8523 71.8575 51.4317 72.8688 52.1561 73.4106C53.2788 74.2414 55.2345 74.2775 57.1539 73.5551C57.4799 73.4468 57.7696 73.3384 57.7696 73.3745C57.8421 73.4468 56.8642 74.0969 56.2123 74.422C55.3069 74.8916 54.5826 75.036 53.6047 75.036C51.8663 75.036 50.3815 74.133 49.1863 72.3271C48.9328 71.9659 48.4258 70.9184 47.9912 69.9432C46.7236 67.0175 46.0717 66.1506 44.5868 65.1754C43.283 64.3446 41.6171 64.164 40.3495 64.778C38.6835 65.5727 38.2489 67.7037 39.4079 69.004C39.8787 69.5458 40.7479 69.9793 41.4722 70.0876C42.8122 70.2682 43.9711 69.2208 43.9711 67.8843C43.9711 67.0175 43.6452 66.5118 42.776 66.1145C41.6171 65.6088 40.3495 66.1867 40.3857 67.3064C40.3857 67.776 40.603 68.0649 41.0738 68.2816C41.3636 68.4261 41.3635 68.4261 41.1462 68.39C40.096 68.1733 39.8425 66.873 40.6754 66.0422C41.6895 65.0309 43.8263 65.4643 44.5506 66.873C44.8403 67.4509 44.8765 68.6067 44.623 69.3291C44.0074 70.9184 42.269 71.7491 40.4944 71.2796C39.2992 70.9545 38.7922 70.6294 37.3435 69.1485C34.8084 66.5479 33.8305 66.0422 30.2089 65.5004L29.5208 65.3921L30.2813 64.6697Z" fill="#E7E7E7"/>
        <path fill-rule="evenodd" clip-rule="evenodd" d="M11.2314 6.55315C19.6698 16.775 32.6716 32.6677 33.3235 33.5346C33.8667 34.257 33.6494 34.9432 32.744 35.4489C32.237 35.7379 31.1867 36.0268 30.6797 36.0268C30.1002 36.0268 29.4121 35.7379 28.9413 35.2683C28.6153 34.9432 27.2029 32.8844 24.0158 27.936C21.5893 24.1434 19.525 21.001 19.4888 20.9649C19.3439 20.8927 19.3439 20.8927 23.7623 28.7668C26.551 33.7152 27.4564 35.485 27.4564 35.7018C27.4564 36.1713 27.3115 36.4242 26.7321 37.0743C25.7542 38.1579 25.3196 39.386 24.9937 41.9505C24.6315 44.8039 23.6536 46.8266 20.865 50.258C19.2352 52.2807 18.9817 52.6419 18.5833 53.4727C18.0763 54.484 17.9314 55.0619 17.859 56.3622C17.7866 57.7348 17.9314 58.6017 18.3298 59.902C18.692 61.0578 19.0904 61.8163 20.0682 63.2972C20.9012 64.5975 21.4082 65.5728 21.4082 65.934C21.4082 66.2229 21.4807 66.2229 22.7845 65.934C25.8991 65.2116 28.4704 63.9835 29.8829 62.4665C30.7521 61.5274 30.9694 61.0217 30.9694 59.7214C30.9694 58.8906 30.9332 58.71 30.7159 58.2043C30.3537 57.4097 29.6656 56.7595 28.1807 55.7482C26.225 54.4118 25.392 53.3282 25.1747 51.8834C24.9937 50.6553 25.211 49.8246 26.2975 47.549C27.4202 45.2012 27.7099 44.226 27.891 41.8421C27.9996 40.3251 28.1807 39.711 28.6153 39.2415C29.0861 38.7358 29.4845 38.5552 30.6072 38.4107C32.4543 38.1579 33.6494 37.6883 34.591 36.7853C35.424 36.0268 35.7862 35.2683 35.8224 34.1486L35.8586 33.3179L35.3878 32.8122C33.6856 30.8617 10.1087 5 10 5C9.96381 5 10.5433 5.68627 11.2314 6.55315ZM22.3499 57.9154C22.7482 57.2291 22.5309 56.3622 21.879 55.9288C21.2634 55.5315 20.3217 55.7121 20.3217 56.2539C20.3217 56.3983 20.3942 56.5428 20.6115 56.6151C20.9374 56.7957 20.9736 56.9763 20.7201 57.3736C20.4666 57.7709 20.4666 58.1321 20.7925 58.3849C21.2996 58.7823 21.9877 58.5655 22.3499 57.9154Z" fill="#E7E7E7"/>
        <path fill-rule="evenodd" clip-rule="evenodd" d="M37.0176 38.9164C36.1484 39.1693 35.3154 40.1084 35.0619 41.0475C34.917 41.6254 34.9894 42.6729 35.243 42.9979C35.6413 43.5036 36.0035 43.6481 37.0176 43.6481C39.0095 43.6481 40.7116 42.7812 40.8927 41.7338C41.0738 40.8669 40.3133 39.6749 39.263 39.1331C38.7197 38.8442 37.597 38.7358 37.0176 38.9164ZM39.3354 40.7224C39.6251 40.289 39.5165 39.8194 38.9733 39.4943C37.9954 38.8803 36.5105 39.386 36.5105 40.3251C36.5105 40.7946 37.2711 41.3003 37.9954 41.3003C38.4662 41.3003 39.1181 41.0114 39.3354 40.7224Z" fill="#E7E7E7"/>
    </g>
    <defs>
        <clipPath id="clip0_647_357">
            <rect width="60.9524" height="70" fill="white" transform="translate(10 5)"/>
        </clipPath>
    </defs>
</svg>
