<svg width="40" height="40" viewBox="0 0 40 40" fill="none" xmlns="http://www.w3.org/2000/svg">
    <path fill-rule="evenodd" clip-rule="evenodd" d="M32 16C34.206 16 36 17.794 36 20V36C36 38.206 34.206 40 32 40H8C5.794 40 4 38.206 4 36V20C4 17.794 5.794 16 8 16H10V10C10 4.486 14.486 0 20 0C25.514 0 30 4.486 30 10V16H32ZM20 4C16.692 4 14 6.692 14 10V16H26V10C26 6.692 23.308 4 20 4ZM17.934 22.5264C17.815 22.4764 17.686 22.4513 17.5471 22.4513C17.2693 22.4513 17.0312 22.5465 16.8328 22.7368C16.6344 22.9221 16.5005 23.1575 16.431 23.4429L16.1036 24.9078C15.9945 25.4136 15.8829 25.9269 15.7688 26.4477C15.6597 26.9635 15.5506 27.4769 15.4414 27.9877C15.3323 28.4935 15.2306 28.9768 15.1364 29.4375H14.8834L13.5888 23.4429C13.5441 23.2526 13.4772 23.0798 13.3879 22.9246C13.3085 22.7944 13.1969 22.6767 13.0531 22.5715C12.9142 22.4613 12.7306 22.4062 12.5025 22.4062C12.3288 22.4062 12.1751 22.4388 12.0411 22.5039C11.9122 22.564 11.8031 22.6441 11.7138 22.7443C11.6294 22.8394 11.565 22.9446 11.5203 23.0598C11.4806 23.175 11.4608 23.2877 11.4608 23.3978C11.4608 23.4579 11.4633 23.5155 11.4682 23.5706C11.4732 23.6257 11.4806 23.6733 11.4906 23.7133C11.5005 23.7634 11.5104 23.8085 11.5203 23.8486L13.5292 32.0216C13.6036 32.1919 13.7053 32.3421 13.8343 32.4724C13.9434 32.5875 14.0823 32.6927 14.251 32.7879C14.4246 32.878 14.6354 32.9231 14.8834 32.9231H15.1364C15.3844 32.9231 15.5853 32.878 15.7391 32.7879C15.8978 32.6927 16.0268 32.5875 16.126 32.4724C16.2351 32.3421 16.3219 32.1919 16.3864 32.0216C16.5501 31.3105 16.7212 30.5768 16.8998 29.8206C17.0833 29.0644 17.2544 28.3307 17.4132 27.6196H17.6661L18.7078 32.0216C18.7624 32.1919 18.8442 32.3421 18.9533 32.4724C19.0476 32.5875 19.1741 32.6927 19.3328 32.7879C19.4915 32.878 19.6949 32.9231 19.9429 32.9231H20.1959C20.4439 32.9231 20.6498 32.878 20.8135 32.7879C20.9821 32.6927 21.1185 32.5875 21.2227 32.4724C21.3467 32.3421 21.4459 32.1919 21.5203 32.0216L23.559 23.8486C23.5689 23.8085 23.5788 23.7634 23.5888 23.7133C23.5987 23.6733 23.6061 23.6257 23.6111 23.5706C23.616 23.5155 23.6185 23.4579 23.6185 23.3978C23.6185 23.2877 23.5962 23.175 23.5516 23.0598C23.5119 22.9446 23.4474 22.8394 23.3581 22.7443C23.2738 22.6441 23.1647 22.564 23.0307 22.5039C22.9018 22.4388 22.7505 22.4062 22.5769 22.4062C22.3487 22.4062 22.1627 22.4613 22.0188 22.5715C21.8799 22.6767 21.7708 22.7944 21.6914 22.9246C21.6022 23.0798 21.5352 23.2526 21.4906 23.4429C21.2723 24.4245 21.054 25.4261 20.8358 26.4477C20.6175 27.4643 20.4042 28.4609 20.1959 29.4375H19.9429L18.6632 23.4429C18.6334 23.3027 18.5838 23.1725 18.5144 23.0523C18.4449 22.9271 18.3606 22.8219 18.2614 22.7368C18.1671 22.6466 18.058 22.5765 17.934 22.5264ZM26.0169 26.6017V26.6806L25.3138 27.9764C25.2468 28.0966 25.1984 28.2055 25.1687 28.3032C25.1389 28.3971 25.124 28.4835 25.124 28.5623C25.124 28.7502 25.1798 28.8985 25.2914 29.0074C25.403 29.1164 25.5481 29.1708 25.7267 29.1708C25.8532 29.1708 25.976 29.2009 26.095 29.261C26.2178 29.3173 26.3257 29.3981 26.4187 29.5032C26.5154 29.6084 26.5917 29.7323 26.6475 29.8751C26.7033 30.0178 26.7312 30.1737 26.7312 30.3427C26.7312 30.4892 26.7144 30.6338 26.681 30.7765C26.6512 30.9192 26.5954 31.0469 26.5135 31.1596C26.4317 31.2723 26.3201 31.3643 26.1787 31.4357C26.0411 31.5033 25.8644 31.5371 25.6486 31.5371C25.5072 31.5371 25.3826 31.5221 25.2747 31.492C25.1668 31.4582 25.0738 31.4188 24.9957 31.3737C24.9213 31.3286 24.8599 31.2798 24.8115 31.2272C24.7669 31.1747 24.7334 31.1277 24.7111 31.0864C24.6218 30.9061 24.5102 30.7728 24.3763 30.6864C24.2461 30.6 24.1047 30.5568 23.9522 30.5568C23.8368 30.5568 23.7382 30.5774 23.6564 30.6188C23.5746 30.6563 23.5057 30.7089 23.4499 30.7765C23.3978 30.8404 23.3588 30.9155 23.3327 31.0019C23.3067 31.0845 23.2937 31.1728 23.2937 31.2667C23.2937 31.4582 23.329 31.6329 23.3997 31.7906C23.4741 31.9484 23.5727 32.0911 23.6955 32.2188C23.8182 32.3465 23.9577 32.4573 24.114 32.5512C24.274 32.6414 24.4395 32.7184 24.6106 32.7822C24.7855 32.8461 24.9603 32.893 25.1352 32.9231C25.31 32.9531 25.4737 32.9681 25.6263 32.9681C25.8272 32.9681 26.0318 32.9494 26.2401 32.9118C26.4484 32.8742 26.6493 32.8123 26.8428 32.7259C27.04 32.6395 27.2241 32.5268 27.3952 32.3878C27.5701 32.2451 27.7208 32.0705 27.8472 31.8639C27.9775 31.6573 28.0798 31.415 28.1542 31.1371C28.2323 30.8554 28.2714 30.5343 28.2714 30.1737C28.2714 29.8544 28.2323 29.5727 28.1542 29.3286C28.0798 29.0807 27.9775 28.8666 27.8472 28.6863C27.7208 28.506 27.5757 28.3576 27.412 28.2412C27.2483 28.121 27.0809 28.0252 26.9097 27.9539L27.9142 26.2637C27.9477 26.2073 27.9682 26.1491 27.9756 26.089C27.9868 26.0289 27.9923 25.9669 27.9923 25.9031C27.9923 25.7942 27.9719 25.6871 27.931 25.582C27.89 25.4768 27.8286 25.3848 27.7468 25.3059C27.6687 25.2233 27.5701 25.1575 27.451 25.1087C27.3357 25.0599 27.2036 25.0355 27.0548 25.0355H24.566C24.4395 25.0355 24.3074 25.043 24.1698 25.058C24.0359 25.073 23.9131 25.1068 23.8015 25.1594C23.6899 25.212 23.5969 25.2909 23.5225 25.396C23.4518 25.4974 23.4164 25.6364 23.4164 25.813C23.4164 25.9932 23.4518 26.136 23.5225 26.2411C23.5969 26.3463 23.6899 26.4252 23.8015 26.4778C23.9131 26.5303 24.0359 26.5642 24.1698 26.5792C24.3074 26.5942 24.4395 26.6017 24.566 26.6017H26.0169Z" fill="url(#paint0_linear_523_585)"/>
    <defs>
        <linearGradient id="paint0_linear_523_585" x1="20" y1="0" x2="20" y2="40" gradientUnits="userSpaceOnUse">
            <stop stop-color="#FE3218"/>
            <stop offset="1" stop-color="#FF911A"/>
        </linearGradient>
    </defs>
</svg>
