<svg width="40" height="40" viewBox="0 0 40 40" fill="none" xmlns="http://www.w3.org/2000/svg">
    <path fill-rule="evenodd" clip-rule="evenodd" d="M4.40976 8.83276C-3.96283 5.95525 0.199525 0.994549 11.7328 0.105187C20.2836 -0.554148 28.9494 1.97793 28.9367 5.13205C28.9184 9.66711 13.574 11.9824 4.40976 8.83276ZM0.208196 13.4277C0.019694 13.0233 0.016413 12.981 0.0157099 10.9225L0.0149287 8.82862L0.385995 9.09969C5.90512 13.132 23.282 13.1407 28.5638 9.11374L28.9191 8.8429V12.0488L28.4308 11.9874C23.6436 11.386 18.2726 13.5731 15.1918 17.3785L14.9452 17.6831L13.7881 17.6299C6.31197 17.2861 1.28101 15.7294 0.208196 13.4277ZM27.6555 39.9308C34.5351 39.5624 40 33.8739 40 26.9104C40 19.709 34.1553 13.8711 26.9454 13.8711C25.6154 13.8711 24.3319 14.0697 23.1229 14.439C13.002 17.382 10.2057 31.0924 19.2859 37.5718C21.8531 39.4037 24.8041 40.1318 27.6555 39.9308ZM0.215383 20.8859C0.0150068 20.4846 0.0149287 20.4836 0.0149287 18.3695C0.0149287 16.4393 0.0491449 16.0722 0.205462 16.3249C1.05681 17.7008 7.03082 19.2113 12.765 19.5006L13.6799 19.5468L13.3782 20.1463C12.7545 21.3853 12.2451 22.9237 11.9983 24.3137L11.8627 25.0773L11.5438 25.0349C11.3685 25.0115 10.8384 24.9557 10.3657 24.9109C5.30204 24.431 1.16664 22.7911 0.215383 20.8859ZM6.94208 31.8544C1.44881 30.6412 0.0149287 29.3432 0.0149287 25.5839V23.6621L0.425055 23.9647C2.3389 25.3768 5.96293 26.4049 10.5099 26.8258C10.6436 26.8382 10.7631 26.8482 10.8697 26.8571C11.3494 26.8971 11.5711 26.9155 11.6791 27.0358C11.7717 27.1389 11.7809 27.3168 11.7981 27.6472C11.8026 27.7329 11.8076 27.8291 11.8147 27.9367C11.9125 29.4141 12.195 30.8123 12.6281 31.9615C12.7372 32.251 12.8265 32.5046 12.8265 32.5251C12.8265 32.7485 9.032 32.316 6.94208 31.8544ZM2.71004 37.7839C0.305923 36.5844 0.0149287 36.0728 0.0149287 33.0458C0.0149287 31.4687 0.0350053 31.0765 0.112578 31.1376C2.45264 32.9818 7.9456 34.4295 12.6263 34.4359L12.6781 34.4359C13.2216 34.4366 13.4876 34.4369 13.6922 34.5491C13.8884 34.6567 14.0282 34.8672 14.302 35.2795L14.3293 35.3205C15.3315 36.8288 16.7516 38.2734 18.1911 39.2492L18.859 39.7019L18.5183 39.7532C13.711 40.4768 6.24252 39.5464 2.71004 37.7839ZM32.8882 24.1173C33.5971 23.3922 34.2091 22.7663 35.2803 22.8559C34.9365 22.6759 33.6127 22.5026 32.9253 23.0181C32.8547 23.0102 32.7967 22.9982 32.7422 22.9869C32.5578 22.9487 32.4139 22.9189 31.9631 23.0867C30.8362 23.5063 30.1575 24.2898 30.1575 24.2898C30.1575 24.2898 31.8943 23.7399 31.7167 24.118C30.6731 24.9486 29.4312 25.8519 27.6663 26.0384C30.6734 26.3829 31.879 25.1497 32.8882 24.1173ZM32.8324 23.1681L32.0763 23.5118V23.2368C32.3346 23.118 32.499 23.098 32.8324 23.1681ZM33.4896 24.0252C32.4725 26.9135 30.0713 28.846 26.3368 30.1633C28.9414 28.6882 30.0261 27.7918 31.1635 26.0489C32.2974 25.3988 32.8108 24.96 33.4896 24.0252ZM20.4796 33.9181C21.7101 32.9679 23.7282 32.4609 25.7921 31.9424C29.6728 30.9674 33.7158 29.9516 32.9924 25.8731C31.0212 28.9559 28.5228 29.9454 25.9258 30.974C24.1098 31.6932 22.2456 32.4316 20.4796 33.9181ZM30.1575 30.9935C28.4056 33.0279 26.8517 33.4503 25.1458 33.9139C23.5395 34.3505 21.7986 34.8236 19.6308 36.7136C22.0933 34.4942 23.7529 33.8399 25.2221 33.2607C26.2309 32.8631 27.1499 32.5008 28.1775 31.6916C29.0511 31.4325 29.4743 31.2846 30.1575 30.9935ZM25.208 36.8158C25.5296 35.5106 26.0083 34.7323 27.3993 33.4956L26.3023 33.9098C25.3371 35.413 25.2648 35.9348 25.208 36.8158ZM26.1565 30.1634H23.0979L23.0979 22.1246H28.1498C28.9746 22.1246 29.7307 22.2964 30.4867 23.1556C31.35 22.5353 31.8327 22.2868 32.6862 22.3651C31.8614 20.853 30.1087 19.8219 28.1498 19.8219H22.2044C21.3452 19.7877 20.8641 20.2001 20.7954 20.9217L20.7954 30.9227C20.7315 32.2644 21.5582 32.3888 21.8132 32.4271C21.8238 32.4287 21.8334 32.4301 21.842 32.4315C21.849 32.4327 21.8553 32.4338 21.8607 32.4348C22.747 31.586 23.6797 31.0872 26.1565 30.1634Z" fill="url(#paint0_linear_704_324)"/>
    <defs>
        <linearGradient id="paint0_linear_704_324" x1="20" y1="0" x2="20" y2="40" gradientUnits="userSpaceOnUse">
            <stop stop-color="#FE3218"/>
            <stop offset="1" stop-color="#FF911A"/>
        </linearGradient>
    </defs>
</svg>
